<?xml version="1.0" encoding="utf-8"?>
<!-- Generator: Adobe Illustrator 14.0.0, SVG Export Plug-In . SVG Version: 6.00 Build 43363)  -->
<!DOCTYPE svg PUBLIC "-//W3C//DTD SVG 1.1//EN" "http://www.w3.org/Graphics/SVG/1.1/DTD/svg11.dtd">
<svg version="1.1" id="图层_1" xmlns="http://www.w3.org/2000/svg" xmlns:xlink="http://www.w3.org/1999/xlink" x="0px" y="0px"
	 width="226.77px" height="99px" viewBox="0 0 226.77 99" enable-background="new 0 0 226.77 99" xml:space="preserve">
<g>
	<path d="M115.299,28.787h13.672c0.18,0,0.637-0.637,1.367-1.914c0.727-1.641,1.367-2.551,1.914-2.734
		c4.922,1.461,8.109,3.738,9.57,6.836c-0.184,0.184-0.547,0.457-1.094,0.82c-0.914,0.73-1.367,1.277-1.367,1.641
		c0,13.125,0,22.696,0,28.711c-0.184,5.836-0.367,8.93-0.547,9.297c-0.914,2.188-3.008,3.918-6.289,5.195
		c-3.828,1.094-5.742,0.82-5.742-0.82c0.18-2.188-1.461-3.922-4.922-5.195c-0.914-0.363-0.82-0.547,0.273-0.547
		c4.008,0,6.563-0.453,7.656-1.367c0.727-0.547,1.184-3.188,1.367-7.93c0.18-4.191,0.273-14.399,0.273-30.625h-16.68
		c-0.914,1.277-2.008,2.734-3.281,4.375c-1.277,2.188-2.098,3.465-2.461,3.828c0.547,0.184,1.367,0.457,2.461,0.82
		c1.094,0.547,2.188,0.82,3.281,0.82h3.555l0.547-1.094c0.363-0.727,0.727-1.273,1.094-1.641c3.828,0.73,6.469,2.098,7.93,4.102
		c0,0.367-0.184,0.82-0.547,1.367c-0.73,0.73-1.004,1.367-0.82,1.914v14.219c0,1.641-1.094,2.645-3.281,3.008
		c-2.734,0.73-3.922,0-3.555-2.188v-2.461h-5.742v3.281c0.18,1.641-1.367,2.555-4.648,2.734c-1.641,0.367-2.281-0.273-1.914-1.914
		V40.271c-1.461,1.641-3.191,3.281-5.195,4.922c-0.367,0.367-0.641,0.547-0.82,0.547c1.094,13.309,0.453,22.333-1.914,27.071
		c-1.277,2.004-3.465,3.461-6.563,4.375c-2.734,0.363-4.012-0.367-3.828-2.188c0.18-2.008-1.367-3.375-4.648-4.102
		c-1.094-0.18-1.004-0.363,0.273-0.547c3.828-0.18,6.289-0.547,7.383-1.094c2.551-2.367,3.555-8.75,3.008-19.141
		c-8.934,8.75-13.219,12.031-12.852,9.844c6.379-8.02,10.207-15.493,11.484-22.422c-0.367-0.91-0.457-1.184-0.273-0.82
		c-0.547-1.82-0.82-2.914-0.82-3.281c-8.57,5.652-12.031,7.566-10.391,5.742c4.555-4.191,7.473-7.383,8.75-9.57
		c-1.641-3.281-3.922-6.105-6.836-8.477c0-1.273,3.188,0,9.57,3.828c0.91-1.457,2.188-3.918,3.828-7.383v-0.273
		c0.18-1.641,1.184-2.004,3.008-1.094c5.469,3.281,7.016,5.379,4.648,6.289l-0.82,0.547c-1.277,0.914-3.102,2.645-5.469,5.195
		c-0.367,0.367-0.73,0.73-1.094,1.094c2.004,3.828,3.098,8.66,3.281,14.492c4.375-4.375,7.656-13.305,9.844-26.797v-0.547
		c-0.184-1.641,0.82-2.277,3.008-1.914c7.836,2.188,10.117,3.828,6.836,4.922l-0.547,0.273
		C119.127,21.224,117.486,24.232,115.299,28.787z M113.932,43.552v12.579h5.742v-15.04h-3.828
		C114.385,41.091,113.748,41.912,113.932,43.552z"/>
</g>
</svg>
