<?xml version="1.0" encoding="utf-8"?>
<!-- Generator: Adobe Illustrator 14.0.0, SVG Export Plug-In . SVG Version: 6.00 Build 43363)  -->
<!DOCTYPE svg PUBLIC "-//W3C//DTD SVG 1.1//EN" "http://www.w3.org/Graphics/SVG/1.1/DTD/svg11.dtd">
<svg version="1.1" id="图层_1" xmlns="http://www.w3.org/2000/svg" xmlns:xlink="http://www.w3.org/1999/xlink" x="0px" y="0px"
	 width="226.77px" height="99px" viewBox="0 0 226.77 99" enable-background="new 0 0 226.77 99" xml:space="preserve">
<g>
	<path d="M78.141,60.344c-1.582,1.478-3.127,2.545-4.636,3.204c-1.509,0.659-3.127,0.989-4.856,0.989
		c-3.545,0-6.636-1.339-9.272-4.015s-3.955-6.098-3.955-10.264c0-4.192,1.457-8.022,4.373-11.489
		c2.915-3.467,6.672-5.201,11.272-5.201c2.871,0,5.229,0.817,7.075,2.452v-5.379c0-3.322-0.088-5.365-0.264-6.13
		s-0.447-1.286-0.813-1.563c-0.367-0.277-0.842-0.416-1.428-0.416c-0.615,0-1.421,0.172-2.417,0.515L72.735,21.9l9.668-3.559h1.582
		v33.736c0,3.401,0.088,5.484,0.264,6.249s0.461,1.292,0.857,1.582s0.857,0.435,1.384,0.435c0.615,0,1.45-0.184,2.505-0.553
		l0.396,1.146l-9.624,3.6h-1.626V60.344z M78.141,58.129V43.1c-0.117-1.449-0.535-2.768-1.252-3.955
		c-0.718-1.186-1.655-2.082-2.813-2.689c-1.158-0.605-2.292-0.909-3.406-0.909c-2.081,0-3.94,0.844-5.581,2.531
		c-2.139,2.188-3.208,5.405-3.208,9.65c0,4.298,1.04,7.588,3.12,9.868c2.08,2.28,4.395,3.421,6.943,3.421
		C74.083,61.017,76.148,60.055,78.141,58.129z"/>
	<path d="M102.662,33.607v23.414c0,1.847,0.146,3.065,0.439,3.659c0.292,0.593,0.725,1.042,1.296,1.345s1.633,0.455,3.186,0.455
		v1.146H91.852V62.48c1.582,0,2.644-0.139,3.186-0.416c0.542-0.276,0.967-0.731,1.274-1.364s0.461-1.858,0.461-3.679V45.789
		c0-3.164-0.103-5.207-0.308-6.13c-0.176-0.686-0.439-1.16-0.791-1.424s-0.835-0.396-1.45-0.396c-0.645,0-1.436,0.158-2.373,0.475
		l-0.527-1.146l9.756-3.561H102.662z M99.718,18.342c0.996,0,1.838,0.316,2.527,0.949c0.688,0.633,1.033,1.397,1.033,2.293
		c0,0.871-0.345,1.629-1.033,2.274c-0.688,0.646-1.531,0.97-2.527,0.97c-0.996,0-1.846-0.323-2.549-0.97
		c-0.703-0.646-1.055-1.403-1.055-2.274c0-0.896,0.344-1.66,1.033-2.293C97.835,18.658,98.692,18.342,99.718,18.342z"/>
	<path d="M132.545,33.607v9.928h-1.143c-0.908-3.111-2.065-5.233-3.472-6.367s-3.193-1.701-5.361-1.701
		c-1.642,0-2.974,0.396-3.999,1.187s-1.538,1.661-1.538,2.61c0,1.187,0.38,2.202,1.143,3.045c0.731,0.871,2.226,1.794,4.482,2.77
		l5.142,2.293c4.805,2.084,7.207,4.853,7.207,8.307c0,2.637-1.121,4.772-3.361,6.406c-2.242,1.635-4.74,2.453-7.493,2.453
		c-1.963,0-4.219-0.33-6.768-0.989c-0.791-0.211-1.436-0.316-1.934-0.316c-0.527,0-0.952,0.276-1.274,0.831h-1.143V53.66h1.143
		c0.674,2.979,1.94,5.221,3.801,6.724c1.861,1.503,3.948,2.255,6.263,2.255c1.61,0,2.929-0.429,3.955-1.286
		c1.025-0.856,1.538-1.892,1.538-3.104c0-1.477-0.571-2.709-1.714-3.698c-1.143-0.988-3.421-2.247-6.833-3.776
		c-3.414-1.529-5.647-2.914-6.702-4.153c-1.055-1.213-1.582-2.742-1.582-4.588c0-2.399,0.908-4.403,2.725-6.012
		c1.816-1.608,4.175-2.413,7.075-2.413c1.289,0,2.842,0.238,4.658,0.713c1.201,0.316,1.992,0.475,2.373,0.475s0.682-0.073,0.9-0.218
		c0.221-0.145,0.477-0.468,0.77-0.97H132.545z"/>
	<path d="M149.332,18.342v21.357c2.607-2.611,4.68-4.278,6.219-5.004c1.537-0.725,3.068-1.088,4.592-1.088
		c1.846,0,3.428,0.455,4.746,1.365c1.318,0.909,2.3,2.34,2.944,4.291c0.439,1.371,0.659,3.863,0.659,7.475v10.283
		c0,1.847,0.176,3.112,0.527,3.797c0.234,0.502,0.63,0.904,1.187,1.207c0.556,0.303,1.597,0.455,3.12,0.455v1.146h-15.908V62.48
		h0.747c1.494,0,2.534-0.204,3.12-0.613s0.996-1.021,1.23-1.84c0.088-0.342,0.132-1.344,0.132-3.006V46.738
		c0-3.189-0.183-5.286-0.55-6.288c-0.366-1.002-0.951-1.753-1.758-2.255c-0.806-0.5-1.779-0.751-2.922-0.751
		s-2.336,0.276-3.582,0.831c-1.245,0.553-2.746,1.674-4.504,3.361v15.385c0,2.005,0.125,3.25,0.373,3.738
		c0.249,0.488,0.711,0.896,1.385,1.226c0.674,0.33,1.83,0.495,3.472,0.495v1.146h-16.04V62.48c1.436,0,2.563-0.198,3.384-0.594
		c0.468-0.211,0.842-0.613,1.12-1.206c0.279-0.594,0.418-1.813,0.418-3.659v-26.38c0-3.322-0.088-5.365-0.264-6.13
		s-0.447-1.286-0.813-1.563c-0.367-0.277-0.857-0.416-1.473-0.416c-0.469,0-1.26,0.172-2.373,0.515l-0.527-1.147l9.712-3.559
		H149.332z"/>
</g>
</svg>
