<?xml version="1.0" encoding="utf-8"?>
<!-- Generator: Adobe Illustrator 14.0.0, SVG Export Plug-In . SVG Version: 6.00 Build 43363)  -->
<!DOCTYPE svg PUBLIC "-//W3C//DTD SVG 1.1//EN" "http://www.w3.org/Graphics/SVG/1.1/DTD/svg11.dtd">
<svg version="1.1" id="图层_1" xmlns="http://www.w3.org/2000/svg" xmlns:xlink="http://www.w3.org/1999/xlink" x="0px" y="0px"
	 width="99px" height="99px" viewBox="0 0 99 99" enable-background="new 0 0 99 99" xml:space="preserve">
<g>
	<path fill="#EA008A" d="M66.258,37.093v23.52c0,4.501,0.117,7.26,0.352,8.279c0.234,1.021,0.615,1.723,1.143,2.109
		c0.527,0.388,1.123,0.58,1.787,0.58c0.976,0,2.089-0.245,3.34-0.738l0.645,1.529l-12.949,4.799h-2.109v-8.279
		c-3.711,3.621-6.543,5.906-8.496,6.855c-1.954,0.949-4.004,1.424-6.152,1.424c-2.422,0-4.522-0.633-6.299-1.898
		c-1.778-1.266-3.018-2.892-3.721-4.878c-0.703-1.985-1.055-4.79-1.055-8.411v-17.35c0-1.827-0.215-3.103-0.645-3.823
		c-0.43-0.72-1.075-1.266-1.934-1.635c-0.86-0.369-2.422-0.554-4.688-0.554v-1.529h15.117v25.998c0,3.621,0.703,6.004,2.109,7.146
		c1.406,1.143,3.085,1.714,5.039,1.714c1.367,0,2.91-0.387,4.629-1.16c1.718-0.772,3.75-2.232,6.094-4.377V44.37
		c0-2.215-0.45-3.709-1.348-4.482c-0.899-0.772-2.754-1.194-5.566-1.266v-1.529H66.258z"/>
</g>
</svg>
