<?xml version="1.0" encoding="utf-8"?>
<!-- Generator: Adobe Illustrator 14.0.0, SVG Export Plug-In . SVG Version: 6.00 Build 43363)  -->
<!DOCTYPE svg PUBLIC "-//W3C//DTD SVG 1.1//EN" "http://www.w3.org/Graphics/SVG/1.1/DTD/svg11.dtd">
<svg version="1.1" id="图层_1" xmlns="http://www.w3.org/2000/svg" xmlns:xlink="http://www.w3.org/1999/xlink" x="0px" y="0px"
	 width="99px" height="99px" viewBox="0 0 99 99" enable-background="new 0 0 99 99" xml:space="preserve">
<g>
	<path d="M41.063,13.102v28.477c3.476-3.48,6.24-5.703,8.291-6.671c2.051-0.967,4.091-1.45,6.123-1.45
		c2.461,0,4.57,0.606,6.328,1.819s3.066,3.12,3.926,5.722c0.586,1.828,0.879,5.15,0.879,9.967v13.711
		c0,2.461,0.234,4.148,0.703,5.063c0.312,0.668,0.839,1.205,1.582,1.608c0.742,0.404,2.128,0.606,4.16,0.606v1.529H51.844v-1.529
		h0.996c1.992,0,3.378-0.271,4.16-0.817c0.781-0.545,1.328-1.362,1.641-2.452c0.117-0.456,0.176-1.793,0.176-4.008V50.965
		c0-4.253-0.245-7.048-0.732-8.385c-0.489-1.336-1.27-2.338-2.344-3.006c-1.075-0.667-2.373-1.002-3.896-1.002
		s-3.116,0.369-4.775,1.107c-1.661,0.738-3.662,2.233-6.006,4.482v20.514c0,2.672,0.166,4.333,0.498,4.983
		c0.332,0.651,0.947,1.195,1.846,1.635c0.898,0.44,2.441,0.659,4.629,0.659v1.529H26.648v-1.529c1.914,0,3.417-0.264,4.512-0.791
		c0.625-0.281,1.123-0.817,1.494-1.608c0.371-0.791,0.557-2.417,0.557-4.878V29.502c0-4.43-0.117-7.153-0.352-8.174
		c-0.234-1.02-0.596-1.714-1.084-2.083c-0.489-0.369-1.143-0.554-1.963-0.554c-0.625,0-1.68,0.229-3.164,0.686l-0.703-1.529
		l12.949-4.746H41.063z"/>
</g>
</svg>
