<?xml version="1.0" encoding="utf-8"?>
<!-- Generator: Adobe Illustrator 14.0.0, SVG Export Plug-In . SVG Version: 6.00 Build 43363)  -->
<!DOCTYPE svg PUBLIC "-//W3C//DTD SVG 1.1//EN" "http://www.w3.org/Graphics/SVG/1.1/DTD/svg11.dtd">
<svg version="1.1" id="图层_1" xmlns="http://www.w3.org/2000/svg" xmlns:xlink="http://www.w3.org/1999/xlink" x="0px" y="0px"
	 width="503.638px" height="296.479px" viewBox="0 0 503.638 296.479" enable-background="new 0 0 503.638 296.479"
	 xml:space="preserve">
<radialGradient id="SVGID_1_" cx="254.3359" cy="169.0322" r="243.5669" gradientTransform="matrix(1 0 0 0.5234 0 80.553)" gradientUnits="userSpaceOnUse">
	<stop  offset="0" style="stop-color:#F9AE3F"/>
	<stop  offset="1" style="stop-color:#FFF000;stop-opacity:0"/>
</radialGradient>
<rect y="-0.265" fill="url(#SVGID_1_)" width="503.637" height="296.744"/>
<path fill-rule="evenodd" clip-rule="evenodd" fill="#1E1718" d="M229.948,213.515c-1.813-0.146-1.605,1.729-2.779,2.223
	c-5.352-0.91-11.662,1.555-16.681,2.781c3.038,0.254,8.323,1.693,12.232,2.779c-1.917,2.031-4.194-1.082-7.229-1.111
	c-0.485,1.143,2.829,1.109,1.112,1.668c0.195,0.779,0.979,0.047,1.111-0.557c2.355,3.576,6.184,5.68,9.453,8.342
	c-1.803,3.719-7.418,1.586-11.121,1.111c-9.566-6.838-6.01-22.177,0-30.582c-1.938-2.141-3.808-13.316-2.888-17.123
	c1.851,2.201,4.087,12.938,2.888,16.566c6.952-4.978,9.069-5.636,16.126-10.565c-1.585-4.531-1.914-10.319-1.669-16.682
	c2.22,3.372,4.795-1.34,4.449-3.892c-3.711,0.956-4.977,1.698-6.673,3.892c-1.427-1.167-3.692-1.496-5.561-2.224
	c-3.485,1.214-8.504,9.401-8.905,10.015c4.07-18.118-8.354-21.239-19.452-31.145c-4.977-4.441-9.223-9.142-13.346-14.457
	c-5.699-7.347-7.345-15.351-13.344-21.13c-2.38-2.292-5.028-6.185-7.229-7.784c-6.184-4.492-14.695-6.024-19.462-11.121
	c-1.444,0.837-7.716,0.363-2.78,0c4.653-1.312,5.248-5.133,5.004-6.673c-0.043-0.272,0.946-0.796,1.112-0.557
	c-2.705-3.911-7.242-0.437-6.116,6.674c-3.807,0.115-1.365-2.96-5.56-2.781c-1.171,0.674,1.071,2.593,2.223,2.781
	c-0.891,1.562-2.078-1.206-3.336-1.112c0.737-3.046-0.08-3.333-0.555-6.117c2.34-1.237,3.268-1.104,3.335-3.892
	c4.734,0.289,6.344,2.653,10.564,2.224c0.5,0.983,1.343,1.624,1.669,2.78c8.864,1.5,19.113,1.449,26.69-1.112
	c-3.73,8.439-20.606,1.452-23.354,5.005c-1.548-2.049-3.059-0.104-4.448-1.668c-1.395,0.829-1.953,2.496-2.78,3.893
	c1.04,3.21,2.622,1.192,3.335,1.668c0.779,0.196,0.049,0.979-0.555,1.113c0.712,0.764,2.647,1.645,2.78,0
	c7.491-0.075,10.552,7.091,16.125,10.563c-0.477,1.774,0.875,1.72,1.112,2.78c7.12-0.838,5.011,10.216,10.009,10.009
	c1.226,7.735,9.61,14.024,13.346,20.018c1.517,0.051,1.119-0.927,2.224,0c-0.015,0.541-0.68,0.432-1.111,0.557
	c1.208,2.217,2.915-0.679,2.779,2.224c0.799-1.523,1.401-0.643,2.78,0c-0.293-0.447-0.58-0.903-0.556-1.668
	c1.882,2.132,4.328,0.401,5.561,3.337c1.643-0.484-1.29-0.833-0.556-2.225c1.464-1.397,1.873,1.395,3.336,1.668
	c2.169-0.504-1.843-2.047,0-2.225c0.979-0.799,1.268-0.51,1.112,1.112c2.855,0.514,1.294-3.336,2.224-2.224
	c1.549-1.417,0.712,1.434,0.557,2.224c0.73-0.668,0.874-0.217,1.667,0c1.129,0.17-0.114-1.606-0.555-1.668
	c0.153-1.312,2.071,0.051,2.224,0.556c0.021-1.201,2.19-2.224,3.892-1.111c0.572-0.689-0.072-2.146,2.225-1.112
	c-0.361-0.565-1.278-0.575-1.112-1.669c1.161-0.235,1.473,0.382,2.224,0.557c-0.238-1.059-1.197-1.397-1.111-2.78
	c-0.702-1.45,1.539,2.591,2.78,2.78c0.414-1.712-1.526-1.068-1.112-2.78c0.423,0.874,1.763,0.831,1.668,2.224
	c1.312-0.151-0.051-2.071-0.556-2.224c1.817,0.164,1.457-1.81,3.336-2.78c-1.679-0.074-0.226-1.261-1.112-3.337
	c0.945,0.205,1.049-0.433,1.112-1.111c2.604,0.068-0.604,0.81,0,2.225c1.164-0.221,1.394-2.399,2.224,0.556
	c1.805-0.964-1.443-1.458-0.556-3.336c0.674,1.103,1.917-0.141,0.556-0.557c0.547-1.705,1.484,0.64,2.225,0.557
	c-0.467-0.646-0.733-1.491-0.556-2.78c-0.95-0.025-1.44,0.413-1.669,1.111c-0.648-0.834-1.605-1.36-1.668-2.779
	c0.568,0.543,1.125,1.098,1.668,1.668c0.928-0.557,0.394-2.571,1.669-2.781c-0.446-2.329-6.373-9.76-6.673-13.9
	c-3.301-0.502-2.317-4.513-4.448-7.229c3.781,2.149,7.001,4.861,10.009,7.784c1.449-3.475-1.222-6.921,1.668-10.008
	c3.255,4.928,5.545,13.096,10.008,16.681c0.826-0.242-0.219-0.712,0-1.668c3.67-0.822,3.651,1.127,6.117-0.557
	c1.654,0.65-1.824,0.692-1.668,1.669c1.222,0.454,2.746,0.043,3.336,2.225c1.036-1.746,2.814-2.746,3.336-5.005
	c0.981,1.046,1.723-0.761,2.225,1.111c1.474-1.378,0.13-2.348,2.781-2.78c-0.237-1.061-1.59-1.007-1.113-2.78
	c1.29,0.438,2.498-0.188,3.337,1.669c0.389-0.694,1.186-3.256-0.556-3.893c0.754-0.093,2.51,0.682,3.893-1.112
	c0.459-1.571-0.784-1.44-0.557-2.78c1.196,1.248,1.967-0.39,1.668-2.225c-0.447,0.295-0.902,0.581-1.668,0.557
	c0.952-0.52,1.12-2.267,2.225-1.111c-0.077-1.036-0.367-1.859-1.113-2.224c0.134-1.435,0.957,0.763,2.225,0
	c0.156-0.995-0.525-1.143-0.555-0.557c-1.839-0.834,1.154-1.36,0.555-2.781c-3.432,2.101,2.432-2.552,1.112-3.336
	c-0.151,0.777-1.787,1.9-3.337,2.78c1.041-2.565,0.588-1.218,2.225-2.78c-0.826-0.347-1.492-0.284,0-1.669
	c-0.242-0.824-0.712,0.221-1.668,0c0.918-11.127,2.332-13.167-2.225-20.573c-1.969,0.063,1.182,1.839-0.556,1.668
	c-1.934-0.921-0.208-3.021-2.78-3.893c0.546-1.704,1.484,0.64,2.225,0.557c-0.665-2.301-3.673-2.258-3.336-5.561
	c-0.496,0.246-0.995,0.488-1.113,1.112c-0.113-2.44-0.926-2.66-1.668-6.116c-0.519,0.407-0.843,1.011-1.111,1.668
	c-1.602-0.793-1.123-3.018,0-3.893c-4.178,1.371,1.363-3.482-2.225-3.336c0.935-1.104,3.191-0.887,3.893-2.225
	c1.206-0.094,0.252,1.972,0.556,2.781c1.815-0.369,4.682,1.16,7.784,2.779c1.676-1.973-0.833-3.226-0.555-4.448
	c-0.652,0.09-0.47,1.014-0.557,1.669c-1.648-1.049-0.881-2.397-2.78-2.225c-1.214-4.847,0.294-8.52,2.78-11.121
	c-2.095-4.554-7.254-12.492-2.78-18.35c5.451-0.337,7.318-0.186,12.232,1.668c0.23,2.454-0.15,4.297-1.112,5.561
	c14.842,3.485,9.723,20.476,6.673,32.808c13.623,13.027,18.187,34.253,15.014,59.495c-1.255,9.983-6.902,22.839-6.116,27.804
	c0.658,4.154,5.883,7.96,3.336,15.013c-4.93,13.652-20.014,23.057-28.358,32.251c0,1.483,0,2.965,0,4.448
	c1.897,2.842,5.054,5.13,4.448,11.121c-0.391,3.868-3.686,8.333-6.116,14.457c-2.229,5.617-3.373,12.025-9.452,12.789
	c-3.058,0.383-6.358-1.24-10.566-0.555c1.239,1.725,4.109,1.822,7.229,1.666c0.164,4.242-0.811,7.344-1.668,10.566
	c1.266,1.586,3.26-0.783,5.561,0c0,1.111,0,2.225,0,3.336c-0.541-0.016-0.431-0.68-0.555-1.111c-2.467,1.531-5.529,2.164-7.785,0
	c-0.999,1.596-3.266,1.924-5.561,2.223c-1.889-3.123-5.381-0.447-7.229-6.672c-0.002-1.703,3.842-2.416,5.004-1.111
	c1.154-0.143,0.152-2.443,1.113-2.781c3.514-0.734,4.005,1.555,6.116,2.225c-0.92-3.16-2.663-5.492-3.894-8.34
	c-1.854,0-3.706,0-5.56,0c0.591-1.264,3.496-0.213,5.004-0.557c4.372-1.408,9.567-5.217,13.901-8.342
	c-0.238-1.242-2.74-0.225-3.893-0.555c0.268-1.75-0.791-2.174-1.111-3.338c-4.064,0.293-5.183,4.908-3.893,8.898
	c-5.994-5.266,2.505-12.277,2.225-18.906c1.109,1.832,0.877,0.119,2.779,0c0.416-1.714-1.916-0.679-1.111-2.781
	c-2.154,1.407-5.17,1.317-6.117,5.005C234.496,213.291,230.521,215.264,229.948,213.515z M232.174,166.251
	c2.019-2.497,2.265-7.237-1.669-7.785C229.701,160.374,232.31,164.921,232.174,166.251z M222.164,166.251
	c-0.288-0.876-2.141-2.979-0.556-3.893c0.456,2.324,1.682,3.879,3.336,5.004c-0.325-3.01-0.281-6.39-2.224-7.784
	C218.724,160.183,221.693,167.819,222.164,166.251z M231.062,182.377c1.77,1.751,3.729,3.313,7.785,2.78
	c1.169-3.112,0.636-8.095-1.112-10.011C231.87,173.917,231.329,178.01,231.062,182.377z M231.618,184.044
	c1.523,5.083,8.793,5.287,13.344,4.448c-0.487-1.808-1.063-5.622-0.556-6.672C240.138,183.985,236.198,189.698,231.618,184.044z"/>
<path d="M144.445,97.181c0,0-3.883-3.065-4.224-2.997c-0.34,0.067-2.997,0.817-4.632,0.613c-1.634-0.205-4.973-2.589-4.973-2.589
	s0.068-2.316,0.546-2.521c0.477-0.204,0.067-0.545-0.682-1.431s-0.749-1.976,0.749-2.657c1.499-0.682,1.908-0.545,1.908-0.545
	s-0.409-2.179,0.34-2.451c0.749-0.273,2.248-0.545,6.54,1.498c4.564-0.546,4.974,0.598,6.063,2.915
	c6.472,1.702,17.221,0.978,22.262-0.589c5.042-1.566,5.124-0.584,8.259-3.172c3.132-2.588,14.559-15.601,33.497-25.409
	c16.144-8.174,30.74-7.371,35.986-9.278c5.245-1.908,5.352-0.871,6.782-3.323c1.432-2.453,1.621-4.944,3.46-6.988
	c1.84-2.044,1.61-3.271,0.997-3.814c-0.613-0.545-4.019-3.679-4.019-8.516s1.022-7.152,2.452-7.698
	c1.43-0.544,2.861,0.546,2.861,0.546s2.52-1.431,3.542-1.431s2.521,1.703,2.521,2.453c1.771-0.75,2.725-0.002,2.861,0.68
	c0.136,0.682,0.272,2.998-1.158,5.246c0.545,0.545,4.428,0.409,7.698,3.747c3.27,3.338,3.542,12.738,1.771,16.758
	c-1.771,4.02-30.859,8.993-37.194,11.921c-6.335,2.93-11.649,5.995-25.341,13.624c-13.693,7.63-13.488,23.026-31.678,25.341
	C163.451,99.429,144.445,97.181,144.445,97.181z"/>
<radialGradient id="SVGID_2_" cx="219.9453" cy="85.1211" r="91.9287" gradientTransform="matrix(0.9189 -0.3946 0.2617 0.6093 -4.4255 120.0441)" gradientUnits="userSpaceOnUse">
	<stop  offset="0" style="stop-color:#C0A595"/>
	<stop  offset="1" style="stop-color:#705849"/>
</radialGradient>
<path fill="url(#SVGID_2_)" d="M132.017,85.077c-0.377,0.075-1.726,3.302-1.126,3.826c0.601,0.523,4.501,0.975,4.501,0.975
	s-4.501-0.525-4.576,0.15c-0.075,0.675,0.824,2.7,2.7,3.675c1.876,0.976,5.176-0.074,6.15,0c0.976,0.075,1.576,1.276,7.951,5.101
	c6.376,3.825,9.694,3.392,12.694,6.168c0,0,2.109,2.929,6.16,6.453c3.133,2.728,5.465,5.877,7.318,10.481
	c2.176,5.401,10.23,17.122,23.207,27.923c12.977,10.8,16.401,13.031,17.301,17.682c0.9,4.65,0.676,8.775,0.301,12.075
	c-0.376,3.301,40.52,13.672,41.12,13.371c0.601-0.3,4.235-4.437,7.461-6.911c3.225-2.474,3.593-2.528,6.698-6.76
	c2.847-3.878,10.984-26.666,10.984-31.917c0-5.25-0.016-7.745,1.41-11.72c1.424-3.976,6.959-24.095,5.834-37.746
	c-1.125-13.65-8.275-33.183-16.076-37.683c0,0-0.352-1.245,0.173-3.421s2.625-9.452,3.525-13.877
	c0.899-4.425-0.075-11.325-2.775-13.726c-2.7-2.399-7.126-2.925-7.126-2.925l-0.074-0.9c0,0-0.826,0.149-0.975-0.301
	c-0.151-0.45-0.525-4.575-0.525-4.575l-1.125,4.876l0.299-4.051c0,0-1.8,1.575-2.023,1.575c-0.226,0-2.701-3.825-2.701-3.825
	l0.225,6.45l-0.749-5.774c0,0-0.526,4.724-2.476,3.824c-1.95-0.9-2.4-2.025-2.4-2.025s-0.225,5.252,1.124,8.102
	c1.352,2.851,2.326,3.676,3.226,5.101c0.9,1.425-0.299,2.024-1.05,3.375c-0.75,1.351-2.176,3.149-2.624,5.25
	c-0.451,2.101-1.426,4.801-9.602,6.151c-8.176,1.35-16.353,1.125-37.053,10.501c-23.103,13.801-27.229,23.402-34.804,25.877
	c0,0-6.375,2.775-15.302,2.775c-8.925,0-11.701-1.275-11.701-1.275s-0.824-1.575-1.8-2.476c-0.976-0.899-4.351-0.374-4.351-0.374
	s-2.25-1.051-2.926-1.426c-0.675-0.374-2.549,0.15-3.225,0.825s0.6,1.275,1.95,1.726s1.351,0.45,1.351,0.45L132.017,85.077z"/>
<g>
	<path fill="#705849" d="M234.027,233.859c0,0,2.729,4.227,3.345,6.164c0.616,1.936,1.057,3.082,0.353,2.729
		c-0.704-0.352-1.937-1.408-2.376-1.674c-0.441-0.264-1.058-0.615-1.058-0.615s-3.17,0.793-2.642,1.496
		c0.529,0.705,0.529,0.705,0.529,0.705s-2.018,0.055-2.904-0.01c-0.885-0.066-2.428,1.51-2.461,2.428
		c-0.033,0.92,0.918,2.43,1.049,2.463c0.133,0.033,0.133-0.492,0.361-1.051c0.23-0.559,1.872-0.59,3.414-0.854
		c1.543-0.262,1.904-0.525,1.971-0.623c0.064-0.1,0.558,0.195-0.395,0.59c-0.953,0.395-4.234,0.984-4.629,1.479
		c-0.393,0.492-0.721,3.051,1.478,3.412c2.198,0.363,5.843-0.59,6.795-1.344c0.951-0.756,0.886-0.822,2.855,0
		c1.97,0.82,3.446,2.328,5.251,1.082c1.806-1.246,2.003-4.137,0.787-3.775c-1.213,0.361-2.953,0.82-4.233,0.428
		c-1.28-0.395-2.134-1.248-2.134-1.248l1.346,0.361c0,0,1.479-5.906,1.347-10.207s-7.976-3.25-8.009-2.068"/>
	<g>
		<path fill="#1E1718" d="M231.938,240.793c-1.361,0.447-1.709,1.424-0.363,1.605s3.392-0.775,2.977-1.217
			C234.139,240.742,233.362,240.328,231.938,240.793z"/>
		<path fill="#1E1718" d="M230.384,243.848c0,0-0.723-1.086-2.795-0.879c-2.071,0.207-2.822,1.164-1.838,2.045
			C226.734,245.895,229.504,246.076,230.384,243.848z"/>
		<path fill="#1E1718" d="M230.099,246.127c-1.396,0.078-1.862,0.129-1.785,1.189c0.078,1.063,1.398,2.021,2.563,1.709
			c1.165-0.311,1.761-0.906,1.477-1.682C232.067,246.566,230.099,246.127,230.099,246.127z"/>
		<path fill="#1E1718" d="M242.396,247.629c0,0,1.036-0.441,2.149-0.881s2.305-0.025,2.305-0.025s-1.27,0.672-2.382,0.879
			C243.354,247.811,242.396,247.629,242.396,247.629z"/>
	</g>
</g>
<path fill="#705849" d="M226.341,167.007c-7.234,2.191-10.096,6.155-12.312,12.558c-2.216,6.404,1.571,12.082,0.738,16.745
	c-1.846,7.634-3.94,10.22-5.417,14.651c-1.477,4.433-2.955,7.017-0.861,12.066c2.092,5.049,7.263,15.391,24.869,13.297
	c6.402,5.664,20.563-0.738,20.932-11.818c5.786-7.758,9.479-19.454,1.723-25.733c0.123-9.726-1.107-13.543-4.556-17.606
	c-3.446-4.063-8.864-9.356-13.42-11.942S230.403,165.777,226.341,167.007z"/>
<path opacity="0.13" fill="#221E1F" d="M229.187,97.181l-1.237,23.726c0,0,11.815,2.449,9.511-2.307
	C235.153,113.845,229.187,97.181,229.187,97.181z"/>
<linearGradient id="SVGID_3_" gradientUnits="userSpaceOnUse" x1="247.71" y1="158.2271" x2="226.2534" y2="110.459">
	<stop  offset="0" style="stop-color:#C0A595"/>
	<stop  offset="1" style="stop-color:#705849"/>
</linearGradient>
<path fill="url(#SVGID_3_)" d="M214.495,99.897l14.655,26.392c0,0,8.536,2.372,8.112-6.505
	C237.011,114.503,214.495,99.897,214.495,99.897z"/>
<linearGradient id="SVGID_4_" gradientUnits="userSpaceOnUse" x1="228.4678" y1="194.876" x2="235.6144" y2="238.9268">
	<stop  offset="0" style="stop-color:#705849"/>
	<stop  offset="1" style="stop-color:#C0A595"/>
</linearGradient>
<path fill="url(#SVGID_4_)" d="M210.247,221.176c0.82-1.477,4.101-2.133,12.469-3.773c8.367-1.641,7.055-1.969,17.227-5.086
	c10.172-3.116,10.828-3.937,11.485-3.608c0.655,0.327,3.28,7.71,3.445,10.5c0.164,2.789-11.534,13.496-17.54,14.383
	c0,0-11.029,3.742-19.203-0.098C211.042,229.059,210.247,221.176,210.247,221.176z"/>
<radialGradient id="SVGID_5_" cx="255.668" cy="211.9146" r="25.9006" gradientUnits="userSpaceOnUse">
	<stop  offset="0" style="stop-color:#705849"/>
	<stop  offset="1" style="stop-color:#C0A595"/>
</radialGradient>
<path fill="url(#SVGID_5_)" d="M237.333,233.59c0,0-3.004-7.531,3.251-16.129c6.254-8.6,9.961-9.884,10.844-8.753
	c0.884,1.13,8.114,11.683-4.785,20.087C239.369,233.535,237.333,233.59,237.333,233.59z"/>
<linearGradient id="SVGID_6_" gradientUnits="userSpaceOnUse" x1="226.9014" y1="216.2314" x2="217.7895" y2="241.8809">
	<stop  offset="0" style="stop-color:#705849"/>
	<stop  offset="1" style="stop-color:#C0A595"/>
</linearGradient>
<path fill="url(#SVGID_6_)" d="M209.498,220.813c0,0,15.792-3.082,27.219,12.197C233.122,235.834,215.917,240.586,209.498,220.813z"
	/>
<g>
	<path fill="#332325" d="M237.054,232.477c0,0-2.166-9.387,5.056-16.805c7.222-7.418,7.942-8.468,8.862-7.944
		c0.919,0.525,3.611,5.843,4.07,9.059c0.459,3.219,0.854,4.201-3.021,6.895c-3.872,2.689-8.337,3.217-8.337,3.217
		s1.97-8.338,2.035-8.797c0.066-0.461,1.773-4.99,2.43-4.728c0.656,0.263,3.281,3.152,3.479,3.611
		c0.197,0.461-1.247,1.969-2.626,3.086c-1.379,1.115-1.51,1.641-1.182,2.035c0.329,0.393,1.051-0.197,2.561-1.379
		s2.102-2.363,2.166-2.955c0.065-0.59-1.772-3.346-2.889-4.265c-1.115-0.92-2.034-0.657-4.464,1.902
		c-2.429,2.561-5.908,7.879-5.908,7.879s6.631-10.109,7.55-10.766s2.757-0.723,3.61,0.065c0.854,0.787,2.691,4.662,2.691,5.449
		c0,0.789-3.938,4.662-4.332,4.727c-0.395,0.066-1.378,0.592-1.838-0.197c-0.461-0.787,0-1.838,0-1.838s-2.064,3.947-1.538,4.408
		c0.525,0.457,3.933-0.508,6.1-2.543s3.336-5.404,1.694-8.557c-1.641-3.15-2.302-5.494-3.813-4.575
		C247.901,210.38,235.872,218.43,237.054,232.477z"/>
	<path fill="#332325" d="M218.411,228.275c0,0,3.348,0.527,3.479,0.789c0.132,0.262,1.379,1.443-0.459,1.246
		c-1.838-0.195-4.859-1.115-4.859-1.115s-0.983-1.379-1.115-3.414c-0.131-2.035-0.131-3.609-0.131-3.609s6.827,4.004,9.519,6.303
		c2.692,2.295,5.646,2.295,2.495,3.084c-3.151,0.787-7.813,2.035-10.438,0.197c-2.626-1.838-4.923-5.318-5.514-7.354
		c-0.59-2.033-1.05-3.609-1.05-3.609s9.189-0.199,15.294,3.281c6.104,3.48,10.043,7.615,10.043,7.615s-4.266-5.58-12.013-9.125
		c-7.746-3.545-15.099-2.191-15.099-2.191s1.972,3.045,3.284,5.998c1.313,2.955,5.645,8.602,13.326,6.697
		c4.332-1.115,4.792-2.166,3.479-3.217c-1.313-1.051-10.504-6.959-11.883-7.482c-1.378-0.527-1.837-0.461-1.837-0.461
		s-0.263,4.857,1.05,6.893c1.313,2.035,6.302,2.102,7.287,1.969c0.984-0.129,0.919-1.508-0.395-2.625
		c-1.313-1.115-6.303-4.135-6.303-4.135S217.887,228.014,218.411,228.275z"/>
</g>
<linearGradient id="SVGID_7_" gradientUnits="userSpaceOnUse" x1="235.9219" y1="230.5918" x2="253.6953" y2="230.5918">
	<stop  offset="0" style="stop-color:#3B2213"/>
	<stop  offset="1" style="stop-color:#221E1F"/>
</linearGradient>
<path fill="url(#SVGID_7_)" d="M253.695,225.592c0,0-4.834,6.014-13.21,8.43c-3.114,0.967-4.563,1.236-4.563,1.236
	s6.175,1.395,11.223-1.504C252.19,230.855,253.695,225.592,253.695,225.592z"/>
<linearGradient id="SVGID_8_" gradientUnits="userSpaceOnUse" x1="214.2324" y1="178.9395" x2="266.7422" y2="178.9395">
	<stop  offset="0" style="stop-color:#221E1F"/>
	<stop  offset="1" style="stop-color:#705849"/>
</linearGradient>
<path fill="url(#SVGID_8_)" d="M214.232,179.508c0,0,4.005-7.036,7.576-10.067c3.572-3.029,11.473-2.922,14.071-1.081
	c2.598,1.84,9.633,6.387,12.88,10.174c3.248,3.789,6.062,5.735,6.712,8.226c0.648,2.489,1.19,6.17,1.19,6.17
	s4.004-7.36,7.576-10.392c3.571-3.029,3.03-2.814,0.217-7.901c-2.814-5.086-1.732-7.685,0-8.333c1.731-0.649-2.274,1.3-8.983,2.165
	c-6.712,0.865-5.846-0.542-11.907-0.867c-6.062-0.324-15.153-4.329-20.673-1.84C217.37,168.25,215.206,175.288,214.232,179.508z"/>
<g>
	<path fill="#201E27" d="M222.416,165.046c-1.158,0-2.598,1.038-2.882,2.55c-0.283,1.512,1.844,4.582,3.308,5.623
		c1.466,1.039,2.692-0.142,2.552-0.709C225.251,171.944,223.408,165.046,222.416,165.046z"/>
	<path fill="#201E27" d="M229.22,163.723c-0.766,0.564-0.425,1.418-0.331,3.826c0.096,2.41,0.284,4.253,0.284,4.253
		s0.283,0.804,0.709,0.804c0.425,0,2.078-0.426,2.646-2.552c0.565-2.126,1.227-3.733,0.046-4.726
		C231.394,164.337,230.307,162.92,229.22,163.723z"/>
	<path fill="#705849" d="M223.584,167.549c0,0,0.331,2.457,0.565,3.686c0.237,1.229,0.993,1.891,0.993,1.891
		S224.197,170.007,223.584,167.549z"/>
	<path fill="#705849" d="M229.3,167.833c0,0,0.851,3.449,0.851,3.732s-0.425,0.661-0.425,0.661S229.064,168.778,229.3,167.833z"/>
	<path fill="#C7A881" d="M222.349,165.601c0,0-1.821,0.491-2.117,1.427c-0.295,0.937-0.591,2.708,1.034,4.234s3.249,1.97,3.249,1.97
		s-1.427-2.363-1.279-4.48S222.349,165.601,222.349,165.601z"/>
	<path fill="#C7A881" d="M229.685,164.075c-0.526-0.056-0.196,3.2,0.296,5.316c0.492,2.117,0.394,2.709,0.394,2.709
		s2.117-1.379,2.314-3.988C232.886,165.501,231.556,164.271,229.685,164.075z"/>
	<path fill="#201E27" d="M229.552,175.713c-0.294,0.018,0.166-1.788,1.953-2.869s3.242-0.83,4.863,0.666s1.746,2.494,1.538,2.535
		c-0.207,0.042-2.951-3.034-5.154-2.453C230.549,174.174,230.217,175.671,229.552,175.713z"/>
	<path fill="#201E27" d="M225.063,176.502c0.452-0.329-1.913-2.452-3.658-2.287c-1.745,0.167-2.493,1.705-2.993,3.118
		c-0.499,1.414-0.083,2.079-0.083,2.079s1.329-4.158,3.366-3.908S224.604,176.834,225.063,176.502z"/>
	<g>
		<g>
			
				<ellipse transform="matrix(0.9872 -0.1594 0.1594 0.9872 -27.0358 38.1189)" fill="#201E27" cx="224.147" cy="187.623" rx="3.949" ry="5.881"/>
			
				<ellipse transform="matrix(0.9872 -0.1596 0.1596 0.9872 -27.0475 38.1692)" fill="#FFFFFF" cx="224.158" cy="187.511" rx="3.602" ry="5.363"/>
			
				<ellipse transform="matrix(0.9872 -0.1595 0.1595 0.9872 -27.0872 38.2184)" fill="#5F3211" cx="224.503" cy="187.824" rx="1.803" ry="2.3"/>
			
				<ellipse transform="matrix(0.9872 -0.1596 0.1596 0.9872 -27.0822 38.2317)" fill="#221E1F" cx="224.515" cy="187.748" rx="1.362" ry="1.738"/>
			<circle fill="#FFFFFF" cx="224.138" cy="187.068" r="0.345"/>
			<circle fill="#FFFFFF" cx="225.368" cy="187.51" r="0.246"/>
		</g>
		<g>
			<path fill="#A16F4E" d="M228.351,189.627c0,0-1.33,1.575-2.117,2.561c-0.788,0.984-2.462,0.837-2.955,1.132
				c-0.492,0.296,1.379,1.379,3.152,0.395C228.203,192.729,228.548,190.464,228.351,189.627z"/>
			<path fill="#332325" d="M228.335,189.299c-0.33,0.064-1.379,1.051-1.839,1.903c-0.46,0.854-1.051,1.248-1.772,1.444
				s-1.313,0-1.706,0.196c-0.394,0.197-0.526,0.985,1.509,0.592c2.036-0.395,2.43-1.51,2.889-2.363
				c0.46-0.854,0.936-1.444,0.936-1.444L228.335,189.299z"/>
			<path fill="#A16F4E" d="M225.346,182.296c0,0-1.891-1.568-3.581-0.92c-1.691,0.646-1.94,2.164-1.891,3.433
				s0.473,1.964,0.473,1.964S219.948,181.003,225.346,182.296z"/>
			<path fill="#332325" d="M216.765,184.584c0,0,1.318,0.695,2.039,0.348s0.895-0.548,1.965-1.89
				c1.07-1.343,3.137-1.789,4.577-0.746c-2.86-0.273-3.72,0.371-4.727,2.661c-0.447,1.02,0.175,1.74-0.771,2.263
				c-0.672,0.372-2.835,0.871-4.104-0.422c2.263,1.044,3.531,0,3.531,0l0.572-0.672c0,0-2.536,1.243-3.806-0.498
				c2.065,1.592,3.855-0.422,3.855-0.422S218.257,186.25,216.765,184.584z"/>
		</g>
	</g>
	<g>
		<g>
			<path fill="#201E27" d="M231.221,186.205c0.404,3.223,2.472,5.621,4.62,5.358c2.147-0.264,3.562-3.089,3.158-6.311
				c-0.403-3.224-2.471-5.622-4.619-5.36C232.233,180.156,230.817,182.983,231.221,186.205z"/>
			<path fill="#FFFFFF" d="M231.521,186.059c0.368,2.938,2.254,5.126,4.213,4.886c1.958-0.239,3.248-2.816,2.882-5.755
				c-0.368-2.941-2.255-5.127-4.213-4.889C232.443,180.542,231.153,183.121,231.521,186.059z"/>
			<path fill="#5F3211" d="M233.052,186.238c0.158,1.26,1.081,2.186,2.061,2.065c0.98-0.121,1.648-1.24,1.489-2.499
				c-0.157-1.262-1.079-2.186-2.06-2.065C233.562,183.858,232.894,184.978,233.052,186.238z"/>
			<path fill="#221E1F" d="M233.454,186.115c0.119,0.953,0.816,1.649,1.557,1.56s1.244-0.937,1.125-1.887
				c-0.119-0.954-0.816-1.652-1.557-1.562C233.839,184.318,233.334,185.162,233.454,186.115z"/>
			<circle fill="#FFFFFF" cx="234.964" cy="185.193" r="0.342"/>
			<circle fill="#FFFFFF" cx="233.915" cy="185.959" r="0.244"/>
		</g>
		<g>
			<path fill="#A16F4E" d="M231.666,188.82c0,0,1.707,1.144,2.732,1.87s2.579,0.121,3.13,0.269c0.552,0.147-0.928,1.706-2.892,1.252
				C232.674,191.756,231.712,189.677,231.666,188.82z"/>
			<path fill="#332325" d="M231.591,188.499c0.33-0.027,1.606,0.627,2.282,1.319c0.677,0.691,1.349,0.905,2.092,0.895
				c0.742-0.012,1.25-0.363,1.68-0.284c0.432,0.081,0.776,0.801-1.272,0.986c-2.048,0.186-2.734-0.777-3.41-1.469
				c-0.678-0.692-1.296-1.126-1.296-1.126L231.591,188.499z"/>
			<path fill="#A16F4E" d="M232.479,180.948c0,0,1.363-2.029,3.154-1.878c1.791,0.153,2.453,1.541,2.76,2.772
				c0.307,1.232,0.099,2.018,0.099,2.018S237.259,178.209,232.479,180.948z"/>
			<path fill="#332325" d="M241.292,180.766c0,0-1.061,1.033-1.845,0.898c-0.784-0.134-1.005-0.278-2.399-1.271
				c-1.394-0.992-3.486-0.849-4.568,0.554c2.65-1.057,3.648-0.676,5.245,1.245c0.713,0.854,0.32,1.719,1.368,1.958
				c0.743,0.171,2.943,0.051,3.79-1.543c-1.864,1.631-3.364,0.979-3.364,0.979l-0.732-0.486c0,0,2.764,0.491,3.485-1.532
				c-1.521,2.101-3.79,0.663-3.79,0.663S240.337,182.78,241.292,180.766z"/>
		</g>
	</g>
</g>
<g>
	<g>
		<path fill-rule="evenodd" clip-rule="evenodd" d="M337.146,118.385c4.135-0.241,3.205,4.579,3.893,7.784
			c-2.837,2.19-3.562,0.308-3.893,5.005c-2.147-1.364-0.042-6.719,1.669-7.784c-0.29-0.823-0.823-1.401-1.112-2.226
			c-1.433,0.135,0.764,0.957,0,2.226c-0.747-0.367-1.035-1.189-1.112-2.226c-0.985,0.127-2.785-0.56-2.225,1.112
			C332.402,119.249,337.574,121.898,337.146,118.385z"/>
		<path fill-rule="evenodd" clip-rule="evenodd" d="M338.259,131.729c0.421-1.826,3.922,3.586,1.113,5.561
			c-1.135-0.162-1.092-1.504-2.226-1.668c0.312-1.609,0.868,0.854,1.669,0.557c-0.615-1.743-0.359-1.567,1.111-2.224
			C340.021,132.563,339.073,132.214,338.259,131.729z"/>
		<path fill-rule="evenodd" clip-rule="evenodd" fill="#1E1718" d="M333.255,126.725c1.629,1.226-1.728,5.377,1.668,5.561
			c-6.526,7.545-15.008,12.83-22.799,18.906c-3.946,3.078-6.616,7.366-10.564,10.564c-8.531,6.91-18.349,11.878-28.914,16.682
			c-8.565-11.483,10.805-17.171,7.229-30.582c12.613-10.37,33.266-12.701,51.157-17.794
			C332.151,129.33,332.911,128.236,333.255,126.725z"/>
	</g>
	<path d="M279.874,147.856c0,0-1.167,1.283-2.742,5.616s-9.453,23.238-9.453,23.238s2.941,2.175,4.967,1.728
		s8.229-16.497,10.1-20.535C284.615,153.866,282.419,144.8,279.874,147.856z"/>
	<path d="M329.715,130.479c0.659-0.553,2.363-1.28,3.446-3.496c1.084-2.215,0.592-5.367,0.936-6.352
		c0.346-0.984,0.689-1.378,0.936-0.64c0.247,0.739,0.689,0,1.379,0.197c0.641-1.822,2.019-3.496,2.019-3.496l-0.196,1.329
		c0,0,2.707,0.492,2.855,2.511c0.147,2.02-0.395,2.167,0.049,3.201s0.936,2.757-1.379,3.545c-1.033,0.541-1.92,1.821-2.412,2.362
		c-0.492,0.542-0.394,0.887,0,1.034c0.395,0.148,1.871-0.345,3.053,1.379c1.182,1.723,0.59,3.939-1.084,4.53
		c0.542,0.788,0.542,0.788,0.542,0.788s-1.87-0.838-2.854-2.217c-0.985-1.379-1.822-2.116-2.315-2.166
		C334.196,132.94,326.663,133.04,329.715,130.479z"/>
	<path fill="#705849" d="M264.231,174.25c1.999,2.248,4.835,4.698,9.706,2.949c4.87-1.748,14.612-8.491,21.98-13.238
		c7.369-4.746,12.738-11.613,17.858-14.986c5.121-3.373,10.991-8.117,14.737-11.74c3.747-3.621,5.745-4.995,5.745-4.995
		s0.473-0.223,1.494,0.713c1.022,0.937,3.236,3.236,3.492,3.208c0.255-0.029,2.61-3.066,0.085-4.344
		c-2.526-1.276-2.641-0.481-3.009-1.306c-0.369-0.822-0.058-0.624,0.965-1.702c1.022-1.079,1.191-1.504,1.646-1.788
		c0.454-0.284,0.993,0,1.59-0.937c0.596-0.938,0.737-1.704,0.511-1.903c-0.228-0.197-0.853,1.136-1.306,1.647
		c-0.455,0.511-0.143,0.511-0.143,0.511s-0.652,0.427-0.483-0.199c0.171-0.624,0.966-1.76,1.506-3.292
		c0.539-1.533,1.078-2.384-0.284-3.463c-1.362-1.078-1.789-1.22-2.414-0.597c-0.623,0.624-1.078,0.823-0.367,1.107
		c0.709,0.284,2.071,1.249,1.873,2.952c-0.199,1.703-1.191,2.583-1.106,2.98c0.084,0.396,0.226,0.795,0.226,0.795
		s-1.049-0.086-0.567-1.334c0.483-1.249,1.164-3.719-0.313-4.627c-1.476-0.909-3.064-0.71-3.179,0.852
		c-0.113,1.561-0.142,3.946-0.313,4.428c-0.17,0.483-1.049,1.532-1.73,2.526c-0.682,0.993-1.221,1.562-2.526,2.101
		s-13.369,4.094-18.365,5.059c-4.995,0.965-12.027,3.28-17.052,5.039c-5.024,1.76-11.332,4.781-13.603,7.364
		s-2.101,3.551-5.763,7.268c-3.66,3.719-3.504,6.605-7.478,8.054C263.673,164.799,264.231,174.25,264.231,174.25z"/>
</g>
</svg>
