<?xml version="1.0" encoding="utf-8"?>
<!-- Generator: Adobe Illustrator 14.0.0, SVG Export Plug-In . SVG Version: 6.00 Build 43363)  -->
<!DOCTYPE svg PUBLIC "-//W3C//DTD SVG 1.1//EN" "http://www.w3.org/Graphics/SVG/1.1/DTD/svg11.dtd">
<svg version="1.1" id="图层_1" xmlns="http://www.w3.org/2000/svg" xmlns:xlink="http://www.w3.org/1999/xlink" x="0px" y="0px"
	 width="99px" height="99px" viewBox="0 0 99 99" enable-background="new 0 0 99 99" xml:space="preserve">
<g>
	<path fill="#009244" d="M60.955,35.933v13.236h-1.523c-1.211-4.147-2.754-6.979-4.629-8.49c-1.875-1.511-4.258-2.268-7.148-2.268
		c-2.188,0-3.965,0.527-5.332,1.582c-1.368,1.055-2.051,2.215-2.051,3.48c0,1.582,0.507,2.936,1.523,4.061
		c0.976,1.16,2.968,2.392,5.977,3.691l6.855,3.059c6.406,2.777,9.609,6.469,9.609,11.074c0,3.516-1.494,6.363-4.482,8.543
		s-6.319,3.27-9.99,3.27c-2.618,0-5.625-0.44-9.023-1.318c-1.055-0.281-1.915-0.422-2.578-0.422c-0.703,0-1.27,0.369-1.699,1.107
		h-1.523V62.669h1.523c0.898,3.974,2.587,6.961,5.068,8.965c2.48,2.004,5.263,3.006,8.35,3.006c2.148,0,3.906-0.571,5.273-1.714
		c1.367-1.142,2.051-2.522,2.051-4.14c0-1.969-0.762-3.612-2.285-4.931s-4.561-2.997-9.111-5.036
		c-4.551-2.038-7.529-3.884-8.936-5.537c-1.406-1.616-2.109-3.656-2.109-6.117c0-3.198,1.21-5.871,3.633-8.016
		c2.421-2.144,5.566-3.217,9.434-3.217c1.718,0,3.789,0.316,6.211,0.949c1.601,0.422,2.656,0.633,3.164,0.633
		c0.507,0,0.908-0.097,1.201-0.29c0.293-0.192,0.634-0.624,1.025-1.292H60.955z"/>
</g>
</svg>
