<?xml version="1.0" encoding="utf-8"?>
<!-- Generator: Adobe Illustrator 14.0.0, SVG Export Plug-In . SVG Version: 6.00 Build 43363)  -->
<!DOCTYPE svg PUBLIC "-//W3C//DTD SVG 1.1//EN" "http://www.w3.org/Graphics/SVG/1.1/DTD/svg11.dtd">
<svg version="1.1" id="图层_1" xmlns="http://www.w3.org/2000/svg" xmlns:xlink="http://www.w3.org/1999/xlink" x="0px" y="0px"
	 width="99px" height="99px" viewBox="0 0 99 99" enable-background="new 0 0 99 99" xml:space="preserve">
<g>
	<path fill="#EF5A28" d="M53.895,70.368c-4.415,3.059-7.188,4.834-8.32,5.326c-1.719,0.703-3.536,1.055-5.449,1.055
		c-2.969,0-5.42-0.914-7.354-2.742c-1.934-1.827-2.9-4.253-2.9-7.277c0-1.898,0.469-3.533,1.406-4.904
		c1.289-1.933,3.525-3.744,6.709-5.432c3.183-1.688,8.486-3.762,15.908-6.223v-1.529c0-3.867-0.684-6.521-2.051-7.963
		c-1.368-1.441-3.36-2.162-5.977-2.162c-1.954,0-3.516,0.475-4.688,1.424c-1.211,0.984-1.816,2.092-1.816,3.322l0.117,2.479
		c0,1.301-0.372,2.303-1.113,3.006c-0.743,0.704-1.699,1.055-2.871,1.055s-2.129-0.369-2.871-1.107
		c-0.743-0.738-1.113-1.74-1.113-3.006c0-2.426,1.386-4.658,4.16-6.697c2.773-2.038,6.66-3.059,11.66-3.059
		c3.828,0,6.973,0.58,9.434,1.74c1.835,0.879,3.203,2.25,4.102,4.113c0.546,1.231,0.82,3.727,0.82,7.488v13.184
		c0,3.691,0.078,5.959,0.234,6.803c0.156,0.844,0.419,1.406,0.791,1.688c0.371,0.282,0.791,0.422,1.26,0.422
		c0.507,0,0.938-0.105,1.289-0.316c0.664-0.351,1.953-1.371,3.867-3.059v2.373c-3.555,4.219-6.934,6.328-10.137,6.328
		c-1.523,0-2.745-0.475-3.662-1.424C54.412,74.323,53.933,72.688,53.895,70.368z M53.895,67.573V52.755
		c-4.727,1.723-7.793,2.936-9.199,3.639c-2.461,1.231-4.229,2.531-5.303,3.902c-1.075,1.371-1.611,2.848-1.611,4.43
		c0,2.039,0.674,3.736,2.021,5.089c1.348,1.354,2.9,2.03,4.658,2.03C46.843,71.845,49.988,70.421,53.895,67.573z"/>
</g>
</svg>
