<?xml version="1.0" encoding="utf-8"?>
<!-- Generator: Adobe Illustrator 14.0.0, SVG Export Plug-In . SVG Version: 6.00 Build 43363)  -->
<!DOCTYPE svg PUBLIC "-//W3C//DTD SVG 1.1//EN" "http://www.w3.org/Graphics/SVG/1.1/DTD/svg11.dtd">
<svg version="1.1" id="图层_1" xmlns="http://www.w3.org/2000/svg" xmlns:xlink="http://www.w3.org/1999/xlink" x="0px" y="0px"
	 width="205.928px" height="79.453px" viewBox="0 0 205.928 79.453" enable-background="new 0 0 205.928 79.453"
	 xml:space="preserve">
<g>
	<path d="M71.279,11.602v13.008c-0.236,2.346-2.813,3.516-7.734,3.516c-2.813,0.236-3.988-0.582-3.516-2.461v-2.813H18.193
		c0,24.846-3.867,40.666-11.602,47.461c-3.049,3.279-5.158,5.152-6.328,5.625c-0.703,0,0-1.643,2.109-4.922
		c2.109-3.746,3.516-8.201,4.219-13.359c0.467-2.34,0.818-5.037,1.055-8.086c0.23-2.576,0.352-6.328,0.352-11.25
		c0-5.152,0-13.008,0-23.555c0-2.34,0-4.219,0-5.625C7.295,2.813,8.58,0.473,11.865,2.109c0.703,0.473,1.988,1.055,3.867,1.758
		c3.746,1.406,6.559,1.994,8.438,1.758h33.75c0.467,0,1.285-0.934,2.461-2.813c0.934-1.406,1.637-2.225,2.109-2.461
		c5.389,2.109,9.256,4.691,11.602,7.734c0,0.703-0.588,1.406-1.758,2.109C71.631,10.898,71.279,11.371,71.279,11.602z
		 M18.545,10.898l-0.352,10.547h41.836V7.031H23.818C19.83,7.268,18.072,8.559,18.545,10.898z M56.162,34.102v17.93
		c2.576-3.043,5.625-8.553,9.141-16.523c0.467-2.109,1.758-2.461,3.867-1.055c0,0.236,0.818,0.939,2.461,2.109
		c3.043,1.879,4.922,3.164,5.625,3.867c-0.236,0.939-1.055,1.643-2.461,2.109c-1.643,0.473-3.164,1.055-4.57,1.758
		c-3.049,2.109-7.734,5.395-14.063,9.844v8.789c-0.236,3.516,1.988,5.273,6.68,5.273c3.043,0,5.389-0.934,7.031-2.813
		c1.17-1.873,2.34-4.57,3.516-8.086c0.467-1.406,0.818-2.109,1.055-2.109c0.23,0,0.352,0.703,0.352,2.109
		c0,4.455,1.521,7.971,4.57,10.547c1.17,1.176,1.758,2.109,1.758,2.813c-0.939,3.516-5.861,5.504-14.766,5.977h-5.625
		c-10.783,0-15.82-3.049-15.117-9.141v-5.625c-3.988,2.109-8.207,5.158-12.656,9.141c-2.109,1.17-4.104,2.813-5.977,4.922
		c-1.176,1.17-1.879,1.758-2.109,1.758c-3.049-2.109-5.158-5.625-6.328-10.547c0-0.23,0.467-0.703,1.406-1.406
		c1.637-0.934,2.461-1.988,2.461-3.164V31.992c-0.236-2.34,0.582-3.516,2.461-3.516c5.152,0.473,8.201,1.176,9.141,2.109
		c0,0.703-0.352,1.406-1.055,2.109c-1.176,0.939-1.643,1.879-1.406,2.813v9.844h1.055c0.23,0,0.934-0.818,2.109-2.461
		c1.406-2.109,2.461-3.164,3.164-3.164c1.637,0.236,4.219,1.994,7.734,5.273V30.938c-0.236-2.34,1.055-3.516,3.867-3.516
		c0.23,0.236,0.703,0.352,1.406,0.352c4.686,0.473,7.146,1.176,7.383,2.109c0,0.473-0.352,1.055-1.055,1.758
		C56.514,32.58,56.162,33.398,56.162,34.102z M31.553,46.758v16.523c0.703,0,2.225-0.352,4.57-1.055
		c5.152-0.934,8.316-1.758,9.492-2.461V46.758H31.553z"/>
	<path d="M158.818,21.094c0,3.049,2.109,3.516,6.328,1.406c3.043,1.176,5.037,3.516,5.977,7.031
		c-0.473,1.879-3.164,2.697-8.086,2.461c-2.109,0-3.988,0-5.625,0c-6.098,0.473-8.789-2.225-8.086-8.086V6.328h-4.57
		c-2.346,0-3.4,1.055-3.164,3.164c-0.236,8.438-1.527,14.414-3.867,17.93c-2.346,3.752-7.268,7.383-14.766,10.898v33.047
		c-0.473,2.576-2.813,4.801-7.031,6.68c-3.988,1.406-5.977,0.703-5.977-2.109c0-1.879-1.758-3.637-5.273-5.273
		c-1.176-0.703-1.291-1.055-0.352-1.055c6.559,0.473,9.607-0.352,9.141-2.461V45.703h-8.438
		c-1.176,12.189-5.395,22.27-12.656,30.234c-3.049,2.813-3.867,3.279-2.461,1.406c3.279-3.988,5.389-11.365,6.328-22.148
		c0.934-9.141,0.934-25.428,0-48.867c-0.473-3.279,0.352-4.449,2.461-3.516c1.17,0.473,2.813,1.176,4.922,2.109
		c1.17,0.473,2.225,0.703,3.164,0.703h5.273l1.406-1.406c0.934-1.406,1.637-2.225,2.109-2.461c3.746,0.703,7.146,3.049,10.195,7.031
		c0,0.703-0.588,1.527-1.758,2.461c-0.703,0.703-1.055,1.176-1.055,1.406v23.555c7.965-2.109,11.25-12.887,9.844-32.344
		c-0.236-1.17-0.121-1.988,0.352-2.461c0.703-0.23,1.758-0.115,3.164,0.352c0.23,0.236,1.406,0.824,3.516,1.758
		c2.34,1.176,3.631,1.643,3.867,1.406h3.867c0.23,0,0.703-0.703,1.406-2.109c0.934-1.637,1.758-2.576,2.461-2.813
		c3.516,0.703,7.031,2.934,10.547,6.68c-0.236,0.703-0.939,1.527-2.109,2.461l-1.055,1.406V21.094z M105.381,26.719l-0.352,17.578
		h8.438V26.719H105.381z M105.381,24.961h8.086V7.383h-4.57c-2.109-0.23-3.164,0.824-3.164,3.164
		C105.496,18.984,105.381,23.791,105.381,24.961z M132.803,39.375h-2.109c-1.176,0-1.994-0.23-2.461-0.703
		c-0.473-0.23-0.121-0.467,1.055-0.703h19.336c0.23,0,0.703-0.582,1.406-1.758c0.934-1.406,1.758-2.225,2.461-2.461
		c3.982,1.176,7.965,3.516,11.953,7.031c0,0.703-0.824,1.527-2.461,2.461c-1.406,0.703-2.109,1.291-2.109,1.758
		c-3.516,7.031-6.564,12.305-9.141,15.82c3.982,3.516,9.723,6.213,17.227,8.086c2.34,0.473,3.279,0.824,2.813,1.055
		c-2.109,0.939-4.219,2.691-6.328,5.273c-0.473,0.467-0.939,1.055-1.406,1.758c-0.939,2.34-2.346,2.928-4.219,1.758
		c-4.922-2.813-9.729-6.449-14.414-10.898c-8.438,6.328-16.875,10.195-25.313,11.602c9.607-5.395,16.639-11.129,21.094-17.227
		C136.67,54.729,134.209,47.109,132.803,39.375z M150.029,39.375h-14.414c1.406,5.861,4.219,11.135,8.438,15.82
		C146.629,50.746,148.623,45.473,150.029,39.375z"/>
	<path d="M198.896,34.102c4.219,0.473,6.559,2.813,7.031,7.031c-0.473,4.455-2.813,6.801-7.031,7.031
		c-4.691-0.23-7.152-2.576-7.383-7.031C191.744,36.914,194.205,34.574,198.896,34.102z M198.896,60.82
		c4.219,0.473,6.559,2.813,7.031,7.031c-0.473,3.982-2.813,6.207-7.031,6.68c-4.691-0.473-7.152-2.697-7.383-6.68
		C191.744,63.633,194.205,61.293,198.896,60.82z"/>
</g>
</svg>
