<?xml version="1.0" encoding="utf-8"?>
<!-- Generator: Adobe Illustrator 14.0.0, SVG Export Plug-In . SVG Version: 6.00 Build 43363)  -->
<!DOCTYPE svg PUBLIC "-//W3C//DTD SVG 1.1//EN" "http://www.w3.org/Graphics/SVG/1.1/DTD/svg11.dtd">
<svg version="1.1" id="图层_1" xmlns="http://www.w3.org/2000/svg" xmlns:xlink="http://www.w3.org/1999/xlink" x="0px" y="0px"
	 width="465px" height="352px" viewBox="0 0 465 352" enable-background="new 0 0 465 352" xml:space="preserve">
<path opacity="0.2" fill="#FFFFCC" d="M52.782,90.498c-13.039,13.038-1,35-9,50s-28,15-37,35s-3.617,41.191,16,51c8,4,19,6,32,9
	s7,23,5,36c-5.027,32.676,2,52,34,60c31.996,8,79.996,2,90.996-1s35,17,100,18s101-19,118-20s55-12,59-27s-8-75-29-118
	s-61-69-122-66s-76,31-90,42s-19,5-22-10s-10-71-3-82s30-28.995,16-51.995s-41-10-51,7s-21,62.995-22,72.995
	S86.782,56.498,52.782,90.498z"/>
</svg>
