<?xml version="1.0" encoding="utf-8"?>
<!-- Generator: Adobe Illustrator 14.0.0, SVG Export Plug-In . SVG Version: 6.00 Build 43363)  -->
<!DOCTYPE svg PUBLIC "-//W3C//DTD SVG 1.1//EN" "http://www.w3.org/Graphics/SVG/1.1/DTD/svg11.dtd">
<svg version="1.1" id="图层_1" xmlns="http://www.w3.org/2000/svg" xmlns:xlink="http://www.w3.org/1999/xlink" x="0px" y="0px"
	 width="16.66px" height="10.641px" viewBox="0 0 16.66 10.641" enable-background="new 0 0 16.66 10.641" xml:space="preserve">
<g>
	<path fill="#1D1718" d="M16.453,9.297c0,0-0.724-0.413-2.068-3.723C13.041,2.264,7.87-1.354,3.734,0.508
		c-4.136,1.861-3.723,9.72-3.723,9.72s3.103-3.413,8.065-2.38c4.964,1.035,8.583,2.793,8.583,2.793L16.453,9.297z"/>
	<path fill="#C7A881" d="M0.085,9.816c0,0,1.684-1.889,4.949-3.572c3.265-1.684,7.805-0.305,9.997,1.889
		c-2.192-4.694-4.641-6.684-8.365-7.602S0.034,2.521,0.085,9.816z"/>
	<path fill="#705849" d="M1.258,9.103c0,0,3.366-3.265,6.888-3.367c3.52-0.103,6.58,2.243,7.192,2.907
		c0.612,0.663,0.664,1.225,0.051,0.817c-0.611-0.41-4.182-2.093-7.447-2.041C4.677,7.47,1.258,9.103,1.258,9.103z"/>
</g>
</svg>
