<?xml version="1.0" encoding="utf-8"?>
<!-- Generator: Adobe Illustrator 14.0.0, SVG Export Plug-In . SVG Version: 6.00 Build 43363)  -->
<!DOCTYPE svg PUBLIC "-//W3C//DTD SVG 1.1//EN" "http://www.w3.org/Graphics/SVG/1.1/DTD/svg11.dtd">
<svg version="1.1" id="图层_1" xmlns="http://www.w3.org/2000/svg" xmlns:xlink="http://www.w3.org/1999/xlink" x="0px" y="0px"
	 width="12.143px" height="18.919px" viewBox="0 0 12.143 18.919" enable-background="new 0 0 12.143 18.919" xml:space="preserve">
<g>
	<path fill="#1D1718" d="M11.27,0.207c0,0-5.583,3.619-8.065,8.893C0.724,14.373,0.725,17.476,0,18.51
		c2.688,0.826,6.721,0.724,8.582-3.413c1.861-4.136,2.172-12.409,3.206-14.063C12.821-0.62,11.27,0.207,11.27,0.207z"/>
	<path fill="#C7A881" d="M10.272,3.331c0,0-2.346,4.59-4.387,7.242s-3.725,4.846-4.388,6.07c-0.663,1.226-0.714,1.583-0.714,1.583
		s2.499,0.969,5.355-1.071C8.997,15.114,10.272,7.922,10.272,3.331z"/>
	<path fill="#705849" d="M10.526,1.596c0,0-3.723,3.264-5.814,5.917c-2.092,2.652-3.01,5.052-3.775,9.693
		c2.194-4.438,4.593-6.837,5.815-8.367C7.977,7.309,10.526,1.596,10.526,1.596z"/>
</g>
</svg>
