<?xml version="1.0" encoding="utf-8"?>
<!-- Generator: Adobe Illustrator 14.0.0, SVG Export Plug-In . SVG Version: 6.00 Build 43363)  -->
<!DOCTYPE svg PUBLIC "-//W3C//DTD SVG 1.1//EN" "http://www.w3.org/Graphics/SVG/1.1/DTD/svg11.dtd">
<svg version="1.1" id="图层_1" xmlns="http://www.w3.org/2000/svg" xmlns:xlink="http://www.w3.org/1999/xlink" x="0px" y="0px"
	 width="299.472px" height="441.926px" viewBox="0 0 299.472 441.926" enable-background="new 0 0 299.472 441.926"
	 xml:space="preserve">
<g>
	<path fill-rule="evenodd" clip-rule="evenodd" fill="#1E1718" d="M187.906,368.759c-3.41-0.274-3.02,3.251-5.227,4.181
		c-10.059-1.713-21.922,2.922-31.357,5.227c5.712,0.476,15.647,3.183,22.996,5.227c-3.603,3.816-7.883-2.036-13.588-2.091
		c-0.911,2.146,5.319,2.086,2.092,3.136c0.367,1.464,1.839,0.09,2.089-1.045c4.427,6.723,11.624,10.675,17.769,15.679
		c-3.387,6.989-13.943,2.981-20.905,2.091c-17.983-12.854-11.298-41.688,0-57.489c-3.641-4.022-7.158-25.031-5.43-32.188
		c3.48,4.138,7.685,24.32,5.43,31.143c13.07-9.358,17.05-10.594,30.314-19.86c-2.979-8.519-3.599-19.398-3.137-31.357
		c4.173,6.338,9.014-2.521,8.362-7.316c-6.975,1.797-9.354,3.192-12.543,7.316c-2.682-2.196-6.941-2.813-10.453-4.181
		c-6.551,2.282-15.985,17.672-16.74,18.825c7.651-34.059-15.705-39.926-36.566-58.545c-9.356-8.35-17.337-17.184-25.088-27.177
		c-10.713-13.811-13.808-28.855-25.084-39.719c-4.475-4.31-9.452-11.627-13.588-14.634c-11.624-8.444-27.624-11.324-36.585-20.905
		c-2.714,1.573-14.504,0.683-5.226,0c8.746-2.464,9.864-9.647,9.407-12.542c-0.081-0.514,1.777-1.498,2.09-1.046
		c-5.085-7.354-13.613-0.822-11.497,12.544c-7.157,0.217-2.565-5.563-10.452-5.227c-2.201,1.267,2.014,4.871,4.18,5.227
		c-1.676,2.935-3.905-2.267-6.271-2.091c1.387-5.726-0.15-6.265-1.044-11.498c4.4-2.327,6.144-2.078,6.271-7.316
		c8.899,0.544,11.926,4.987,19.859,4.181c0.939,1.849,2.523,3.052,3.137,5.227c16.662,2.819,35.928,2.722,50.172-2.091
		c-7.012,15.863-38.735,2.729-43.901,9.406c-2.909-3.85-5.749-0.195-8.361-3.135c-2.622,1.559-3.671,4.692-5.227,7.317
		c1.955,6.033,4.929,2.241,6.271,3.135c1.465,0.369,0.092,1.84-1.044,2.092c1.339,1.438,4.976,3.093,5.226,0
		c14.081-0.14,19.836,13.33,30.313,19.859c-0.896,3.335,1.645,3.232,2.09,5.227c13.383-1.575,9.419,19.203,18.814,18.813
		c2.304,14.541,18.064,26.363,25.087,37.629c2.852,0.095,2.103-1.741,4.181,0c-0.028,1.017-1.279,0.811-2.089,1.045
		c2.271,4.168,5.479-1.275,5.225,4.181c1.502-2.863,2.633-1.207,5.226,0c-0.552-0.84-1.09-1.696-1.045-3.135
		c3.538,4.007,8.135,0.755,10.452,6.271c3.088-0.909-2.424-1.564-1.044-4.181c2.751-2.628,3.52,2.62,6.271,3.136
		c4.078-0.946-3.464-3.849,0-4.182c1.84-1.502,2.383-0.958,2.091,2.09c5.367,0.966,2.433-6.271,4.181-4.181
		c2.911-2.661,1.338,2.695,1.046,4.181c1.372-1.254,1.643-0.406,3.135,0c2.123,0.321-0.214-3.02-1.044-3.135
		c0.287-2.466,3.894,0.096,4.18,1.045c0.04-2.259,4.118-4.181,7.317-2.091c1.076-1.296-0.135-4.034,4.183-2.09
		c-0.68-1.063-2.404-1.081-2.092-3.137c2.184-0.442,2.769,0.718,4.181,1.046c-0.448-1.99-2.251-2.626-2.089-5.227
		c-1.32-2.726,2.892,4.871,5.226,5.227c0.778-3.218-2.869-2.009-2.091-5.227c0.795,1.645,3.314,1.563,3.135,4.181
		c2.466-0.286-0.095-3.893-1.044-4.181c3.416,0.309,2.739-3.402,6.271-5.226c-3.155-0.14-0.424-2.37-2.091-6.272
		c1.778,0.385,1.973-0.813,2.091-2.09c4.896,0.128-1.137,1.521,0,4.182c2.188-0.414,2.62-4.511,4.181,1.045
		c3.392-1.812-2.714-2.739-1.045-6.271c1.267,2.073,3.604-0.264,1.045-1.046c1.027-3.204,2.79,1.202,4.181,1.046
		c-0.876-1.214-1.378-2.803-1.044-5.227c-1.787-0.046-2.707,0.776-3.137,2.091c-1.219-1.568-3.018-2.557-3.135-5.226
		c1.068,1.021,2.114,2.064,3.135,3.135c1.743-1.046,0.74-4.834,3.137-5.227c-0.839-4.379-11.979-18.348-12.544-26.131
		c-6.203-0.943-4.355-8.483-8.361-13.588c7.108,4.04,13.16,9.138,18.814,14.633c2.725-6.53-2.297-13.011,3.135-18.813
		c6.119,9.265,10.424,24.618,18.814,31.356c1.553-0.456-0.411-1.337,0-3.136c6.897-1.546,6.863,2.119,11.499-1.045
		c3.109,1.223-3.43,1.3-3.136,3.136c2.295,0.855,5.162,0.083,6.271,4.182c1.946-3.28,5.29-5.162,6.271-9.407
		c1.844,1.967,3.236-1.429,4.182,2.09c2.77-2.591,0.243-4.414,5.227-5.227c-0.445-1.993-2.987-1.892-2.091-5.227
		c2.424,0.821,4.695-0.355,6.271,3.137c0.73-1.306,2.229-6.12-1.045-7.317c1.418-0.175,4.719,1.282,7.317-2.09
		c0.863-2.954-1.474-2.708-1.046-5.227c2.249,2.346,3.697-0.732,3.135-4.182c-0.84,0.554-1.696,1.092-3.135,1.046
		c1.789-0.977,2.105-4.26,4.181-2.09c-0.145-1.946-0.688-3.494-2.091-4.181c0.251-2.696,1.799,1.435,4.182,0
		c0.294-1.869-0.989-2.146-1.045-1.046c-3.455-1.567,2.172-2.557,1.045-5.227c-6.452,3.948,4.57-4.797,2.09-6.271
		c-0.285,1.462-3.359,3.573-6.271,5.227c1.955-4.823,1.104-2.288,4.182-5.227c-1.553-0.652-2.807-0.534,0-3.136
		c-0.457-1.551-1.339,0.413-3.137,0c1.726-20.919,4.384-24.753-4.181-38.675c-3.702,0.117,2.222,3.456-1.045,3.137
		c-3.635-1.732-0.393-5.681-5.227-7.317c1.026-3.205,2.789,1.202,4.181,1.046c-1.249-4.326-6.903-4.245-6.271-10.453
		c-0.932,0.463-1.87,0.918-2.091,2.091c-0.214-4.588-1.74-5-3.136-11.498c-0.976,0.767-1.585,1.9-2.091,3.136
		c-3.011-1.489-2.109-5.671,0-7.316c-7.854,2.576,2.563-6.546-4.181-6.271c1.757-2.075,5.999-1.666,7.316-4.181
		c2.268-0.177,0.474,3.706,1.045,5.227c3.412-0.693,8.8,2.182,14.634,5.226c3.149-3.708-1.567-6.063-1.044-8.362
		c-1.227,0.169-0.883,1.905-1.046,3.137c-3.099-1.97-1.657-4.505-5.227-4.182c-2.282-9.11,0.554-16.014,5.227-20.904
		c-3.938-8.562-13.636-23.482-5.227-34.493c10.247-0.634,13.757-0.349,22.995,3.135c0.433,4.613-0.283,8.078-2.091,10.453
		c27.898,6.552,18.275,38.488,12.543,61.67c25.608,24.488,34.187,64.389,28.223,111.84c-2.359,18.767-12.976,42.932-11.498,52.264
		c1.236,7.811,11.059,14.963,6.272,28.221c-9.268,25.664-37.624,43.342-53.309,60.625c0,2.788,0,5.574,0,8.362
		c3.567,5.342,9.499,9.643,8.362,20.905c-0.734,7.271-6.93,15.664-11.498,27.176c-4.189,10.557-6.341,22.605-17.769,24.04
		c-5.747,0.722-11.952-2.332-19.861-1.044c2.329,3.245,7.723,3.426,13.588,3.135c0.309,7.973-1.523,13.805-3.135,19.86
		c2.379,2.981,6.126-1.47,10.452,0c0,2.091,0,4.181,0,6.271c-1.017-0.028-0.811-1.279-1.044-2.091
		c-4.636,2.879-10.395,4.069-14.635,0c-1.877,3.002-6.137,3.618-10.452,4.181c-3.549-5.87-10.114-0.843-13.588-12.542
		c-0.005-3.2,7.224-4.543,9.407-2.092c2.17-0.268,0.284-4.591,2.091-5.226c6.605-1.38,7.53,2.922,11.498,4.182
		c-1.729-5.939-5.007-10.325-7.317-15.679c-3.485,0-6.968,0-10.452,0c1.111-2.373,6.571-0.397,9.406-1.046
		c8.219-2.647,17.983-9.805,26.132-15.679c-0.449-2.337-5.151-0.424-7.316-1.045c0.501-3.289-1.489-4.086-2.091-6.272
		c-7.64,0.551-9.741,9.225-7.317,16.725c-11.268-9.897,4.709-23.076,4.183-35.538c2.085,3.445,1.648,0.224,5.226,0
		c0.781-3.221-3.604-1.274-2.091-5.227c-4.049,2.645-9.718,2.475-11.498,9.407C196.454,368.338,188.983,372.045,187.906,368.759z
		 M192.089,279.913c3.794-4.692,4.256-13.604-3.137-14.635C187.44,268.863,192.345,277.413,192.089,279.913z M173.272,279.913
		c-0.543-1.646-4.024-5.598-1.045-7.317c0.857,4.37,3.161,7.293,6.271,9.407c-0.611-5.658-0.529-12.013-4.181-14.633
		C166.806,268.507,172.388,282.859,173.272,279.913z M189.997,310.226c3.326,3.294,7.011,6.229,14.634,5.227
		c2.199-5.849,1.196-15.217-2.09-18.815C191.519,294.324,190.501,302.019,189.997,310.226z M191.043,313.36
		c2.864,9.555,16.53,9.938,25.086,8.362c-0.918-3.398-1.999-10.568-1.046-12.543C207.059,313.249,199.653,323.988,191.043,313.36z"
		/>
	<path d="M27.175,150.076c0,0-7.299-5.763-7.939-5.635c-0.639,0.129-5.633,1.538-8.707,1.153c-3.072-0.385-9.348-4.866-9.348-4.866
		s0.129-4.354,1.025-4.738c0.896-0.384,0.127-1.024-1.281-2.689c-1.408-1.664-1.408-3.712,1.408-4.993
		c2.818-1.281,3.587-1.025,3.587-1.025s-0.769-4.096,0.64-4.609c1.408-0.513,4.225-1.023,12.293,2.817
		c8.58-1.025,9.35,1.124,11.396,5.479c12.165,3.201,32.371,1.839,41.848-1.105s9.632-1.099,15.523-5.963
		c5.889-4.865,27.368-29.325,62.968-47.765c30.35-15.365,57.788-13.854,67.648-17.441c9.859-3.586,10.061-1.636,12.751-6.246
		c2.689-4.61,3.045-9.293,6.503-13.136c3.458-3.842,3.026-6.147,1.875-7.171c-1.154-1.023-7.556-6.915-7.556-16.007
		s1.922-13.446,4.609-14.471c2.688-1.023,5.379,1.025,5.379,1.025S246.535,0,248.456,0c1.922,0,4.738,3.202,4.738,4.61
		c3.329-1.408,5.122-0.002,5.378,1.279c0.257,1.281,0.513,5.636-2.178,9.861c1.025,1.024,8.325,0.769,14.472,7.043
		s6.658,23.944,3.329,31.501c-3.329,7.556-58.009,16.905-69.917,22.41c-11.909,5.506-21.899,11.269-47.638,25.609
		c-25.739,14.342-25.355,43.283-59.547,47.636C62.903,154.303,27.175,150.076,27.175,150.076z"/>
	
		<radialGradient id="SVGID_1_" cx="169.6348" cy="123.0688" r="155.9351" gradientTransform="matrix(0.9298 -0.3679 0.2995 0.7568 -24.9548 92.3488)" gradientUnits="userSpaceOnUse">
		<stop  offset="0" style="stop-color:#C0A595"/>
		<stop  offset="1" style="stop-color:#705849"/>
	</radialGradient>
	<path fill="url(#SVGID_1_)" d="M4.651,127.039c-0.707,0.142-3.242,6.206-2.115,7.192c1.129,0.985,8.46,1.832,8.46,1.832
		s-8.46-0.988-8.601,0.282c-0.143,1.27,1.549,5.077,5.075,6.909c3.525,1.832,9.729-0.141,11.562,0s2.962,2.397,14.945,9.588
		c11.986,7.19,18.225,6.376,23.864,11.594c0,0,3.964,5.505,11.578,12.131c5.89,5.127,10.273,11.047,13.759,19.702
		c4.089,10.152,19.23,32.186,43.624,52.489c24.394,20.304,30.832,24.496,32.523,33.238c1.692,8.742,1.27,16.496,0.564,22.7
		c-0.706,6.203,76.17,25.699,77.298,25.135s7.963-8.34,14.024-12.992c6.063-4.651,6.755-4.754,12.593-12.707
		c5.351-7.289,20.646-50.127,20.646-59.997c0-9.869-0.027-14.561,2.651-22.031c2.678-7.473,13.081-45.292,10.967-70.954
		c-2.114-25.661-15.555-62.377-30.218-70.837c0,0-0.662-2.34,0.323-6.43c0.986-4.089,4.935-17.767,6.627-26.085
		c1.691-8.318-0.141-21.29-5.217-25.802c-5.075-4.512-13.396-5.499-13.396-5.499l-0.14-1.692c0,0-1.552,0.282-1.832-0.564
		c-0.284-0.846-0.988-8.6-0.988-8.6l-2.115,9.164l0.563-7.614c0,0-3.384,2.962-3.806,2.962c-0.423,0-5.076-7.191-5.076-7.191
		l0.422,12.126l-1.408-10.856c0,0-0.988,8.882-4.653,7.19c-3.666-1.692-4.513-3.807-4.513-3.807s-0.422,9.87,2.114,15.228
		c2.54,5.358,4.372,6.91,6.063,9.588c1.692,2.679-0.563,3.807-1.974,6.345s-4.09,5.922-4.934,9.869
		c-0.848,3.948-2.679,9.024-18.048,11.563s-30.739,2.114-69.654,19.739c-43.428,25.943-51.183,43.992-65.424,48.645
		c0,0-11.983,5.217-28.764,5.217c-16.777,0-21.995-2.396-21.995-2.396s-1.551-2.962-3.384-4.653
		c-1.834-1.692-8.179-0.705-8.179-0.705s-4.229-1.975-5.499-2.68c-1.269-0.704-4.792,0.284-6.062,1.552
		c-1.27,1.269,1.127,2.396,3.666,3.242c2.537,0.847,2.537,0.847,2.537,0.847L4.651,127.039z"/>
	<g>
		<path fill="#705849" d="M195.572,407.003c0,0,5.131,7.944,6.289,11.585c1.158,3.642,1.985,5.794,0.662,5.131
			c-1.324-0.662-3.641-2.649-4.468-3.146c-0.828-0.496-1.987-1.158-1.987-1.158s-5.958,1.491-4.965,2.814s0.993,1.323,0.993,1.323
			s-3.791,0.104-5.457-0.019s-4.565,2.837-4.628,4.565c-0.062,1.728,1.727,4.565,1.974,4.627c0.248,0.063,0.248-0.925,0.679-1.974
			c0.433-1.049,3.519-1.109,6.418-1.604c2.899-0.495,3.579-0.988,3.702-1.173c0.123-0.186,1.05,0.37-0.74,1.11
			c-1.791,0.74-7.96,1.852-8.7,2.776c-0.74,0.926-1.356,5.737,2.776,6.417s10.983-1.111,12.772-2.529
			c1.789-1.419,1.666-1.543,5.368,0s6.479,4.38,9.871,2.036c3.394-2.345,3.765-7.776,1.48-7.097
			c-2.281,0.68-5.553,1.543-7.959,0.803s-4.011-2.344-4.011-2.344l2.529,0.678c0,0,2.778-11.104,2.531-19.188
			s-14.993-6.108-15.056-3.887"/>
		<g>
			<path fill="#1E1718" d="M191.646,420.037c-2.56,0.839-3.213,2.676-0.682,3.017c2.53,0.342,6.375-1.459,5.596-2.286
				C195.782,419.94,194.323,419.161,191.646,420.037z"/>
			<path fill="#1E1718" d="M188.725,425.779c0,0-1.36-2.043-5.255-1.654c-3.894,0.39-5.305,2.189-3.455,3.844
				C181.864,429.624,187.07,429.965,188.725,425.779z"/>
			<path fill="#1E1718" d="M188.189,430.062c-2.626,0.146-3.502,0.243-3.357,2.238c0.147,1.996,2.629,3.797,4.818,3.212
				c2.189-0.584,3.309-1.702,2.773-3.162C191.889,430.889,188.189,430.062,188.189,430.062z"/>
			<path fill="#1E1718" d="M211.306,432.885c0,0,1.948-0.827,4.039-1.654c2.095-0.827,4.333-0.05,4.333-0.05
				s-2.386,1.265-4.478,1.654C213.106,433.226,211.306,432.885,211.306,432.885z"/>
		</g>
	</g>
	<path fill="#705849" d="M181.124,281.335c-13.6,4.12-18.979,11.57-23.144,23.606c-4.168,12.036,2.953,22.712,1.388,31.477
		c-3.472,14.35-7.407,19.209-10.184,27.541c-2.776,8.333-5.555,13.192-1.619,22.682c3.934,9.489,13.654,28.931,46.75,24.996
		c12.035,10.646,38.652-1.389,39.347-22.219c10.877-14.581,17.82-36.567,3.239-48.371c0.231-18.283-2.083-25.458-8.564-33.096
		c-6.479-7.639-16.664-17.59-25.227-22.45C194.547,280.641,188.76,279.021,181.124,281.335z"/>
	<path opacity="0.13" fill="#221E1F" d="M186.475,150.077l-2.328,44.598c0,0,22.212,4.605,17.88-4.334
		C197.69,181.4,186.475,150.077,186.475,150.077z"/>
	<linearGradient id="SVGID_2_" gradientUnits="userSpaceOnUse" x1="221.2949" y1="264.8311" x2="180.9602" y2="175.0352">
		<stop  offset="0" style="stop-color:#C0A595"/>
		<stop  offset="1" style="stop-color:#705849"/>
	</linearGradient>
	<path fill="url(#SVGID_2_)" d="M158.855,155.181l27.55,49.612c0,0,16.046,4.457,15.249-12.229
		C201.182,182.64,158.855,155.181,158.855,155.181z"/>
	<linearGradient id="SVGID_3_" gradientUnits="userSpaceOnUse" x1="185.1206" y1="333.7197" x2="198.5549" y2="416.5274">
		<stop  offset="0" style="stop-color:#705849"/>
		<stop  offset="1" style="stop-color:#C0A595"/>
	</linearGradient>
	<path fill="url(#SVGID_3_)" d="M150.868,383.159c1.542-2.774,7.711-4.008,23.44-7.093s13.263-3.701,32.383-9.561
		c19.122-5.859,20.355-7.401,21.591-6.785c1.232,0.616,6.166,14.494,6.476,19.738c0.31,5.243-21.681,25.369-32.972,27.035
		c0,0-20.731,7.034-36.096-0.185C152.363,397.979,150.868,383.159,150.868,383.159z"/>
	<radialGradient id="SVGID_4_" cx="236.2529" cy="365.75" r="48.6866" gradientUnits="userSpaceOnUse">
		<stop  offset="0" style="stop-color:#705849"/>
		<stop  offset="1" style="stop-color:#C0A595"/>
	</radialGradient>
	<path fill="url(#SVGID_4_)" d="M201.786,406.494c0,0-5.646-14.154,6.111-30.319s18.725-18.58,20.385-16.454
		s15.254,21.965-8.995,37.763C205.614,406.392,201.786,406.494,201.786,406.494z"/>
	<linearGradient id="SVGID_5_" gradientUnits="userSpaceOnUse" x1="182.1753" y1="373.8662" x2="165.047" y2="422.0815">
		<stop  offset="0" style="stop-color:#705849"/>
		<stop  offset="1" style="stop-color:#C0A595"/>
	</linearGradient>
	<path fill="url(#SVGID_5_)" d="M149.461,382.477c0,0,29.688-5.793,51.168,22.929C193.87,410.716,161.529,419.646,149.461,382.477z"
		/>
	<g>
		<path fill="#332325" d="M201.263,404.404c0,0-4.072-17.646,9.503-31.591c13.574-13.944,14.931-15.92,16.659-14.933
			c1.728,0.988,6.788,10.982,7.651,17.03s1.604,7.896-5.678,12.957c-7.279,5.06-15.672,6.048-15.672,6.048
			s3.702-15.673,3.825-16.536c0.124-0.864,3.333-9.379,4.567-8.886c1.233,0.493,6.169,5.922,6.539,6.787
			c0.37,0.864-2.345,3.702-4.936,5.8c-2.592,2.099-2.839,3.085-2.222,3.825c0.618,0.74,1.975-0.37,4.813-2.591
			c2.839-2.222,3.95-4.443,4.072-5.554c0.123-1.11-3.331-6.292-5.43-8.021c-2.097-1.728-3.823-1.234-8.391,3.578
			c-4.566,4.813-11.106,14.809-11.106,14.809s12.463-19.002,14.191-20.237c1.728-1.235,5.183-1.358,6.786,0.123
			c1.605,1.48,5.061,8.762,5.061,10.243c0,1.48-7.404,8.762-8.145,8.885s-2.59,1.11-3.455-0.37c-0.865-1.481,0-3.456,0-3.456
			s-3.879,7.421-2.891,8.284c0.987,0.863,7.394-0.953,11.466-4.777c4.072-3.825,6.271-10.161,3.185-16.084
			c-3.084-5.924-4.326-10.328-7.165-8.601C221.653,362.866,199.041,377.997,201.263,404.404z"/>
		<path fill="#332325" d="M166.218,396.507c0,0,6.293,0.988,6.539,1.481c0.247,0.493,2.592,2.714-0.863,2.344
			s-9.133-2.098-9.133-2.098s-1.85-2.592-2.097-6.417s-0.247-6.786-0.247-6.786s12.834,7.528,17.893,11.847
			c5.061,4.317,10.613,4.317,4.69,5.799c-5.924,1.48-14.686,3.824-19.621,0.37c-4.936-3.455-9.256-9.996-10.366-13.821
			c-1.11-3.824-1.974-6.786-1.974-6.786s17.275-0.372,28.752,6.169c11.476,6.541,18.88,14.315,18.88,14.315
			s-8.02-10.489-22.582-17.152c-14.562-6.664-28.385-4.122-28.385-4.122s3.705,5.726,6.172,11.278
			c2.469,5.554,10.613,16.167,25.052,12.588c8.145-2.099,9.009-4.071,6.54-6.047c-2.468-1.976-19.745-13.08-22.337-14.067
			c-2.591-0.988-3.454-0.865-3.454-0.865s-0.493,9.131,1.974,12.957c2.469,3.827,11.847,3.948,13.698,3.702
			c1.851-0.245,1.728-2.837-0.741-4.936c-2.467-2.098-11.847-7.774-11.847-7.774S165.231,396.015,166.218,396.507z"/>
	</g>
	<linearGradient id="SVGID_6_" gradientUnits="userSpaceOnUse" x1="199.1338" y1="400.8613" x2="232.5439" y2="400.8613">
		<stop  offset="0" style="stop-color:#3B2213"/>
		<stop  offset="1" style="stop-color:#221E1F"/>
	</linearGradient>
	<path fill="url(#SVGID_6_)" d="M232.544,391.46c0,0-9.086,11.307-24.832,15.849c-5.854,1.816-8.578,2.321-8.578,2.321
		s11.606,2.624,21.097-2.826C229.717,401.354,232.544,391.46,232.544,391.46z"/>
	<linearGradient id="SVGID_7_" gradientUnits="userSpaceOnUse" x1="158.3623" y1="303.7656" x2="257.0713" y2="303.7656">
		<stop  offset="0" style="stop-color:#221E1F"/>
		<stop  offset="1" style="stop-color:#705849"/>
	</linearGradient>
	<path fill="url(#SVGID_7_)" d="M158.362,304.833c0,0,7.528-13.227,14.242-18.923c6.715-5.696,21.566-5.493,26.451-2.034
		c4.883,3.459,18.108,12.006,24.211,19.126c6.105,7.121,11.395,10.782,12.616,15.462c1.221,4.68,2.238,11.599,2.238,11.599
		s7.527-13.837,14.242-19.533c6.714-5.696,5.697-5.291,0.407-14.854c-5.29-9.562-3.257-14.445,0-15.665
		c3.254-1.221-4.274,2.442-16.888,4.069c-12.616,1.627-10.987-1.019-22.382-1.629c-11.394-0.61-28.484-8.139-38.861-3.459
		C164.262,283.672,160.194,296.898,158.362,304.833z"/>
	<g>
		<path fill="#201E27" d="M173.746,277.647c-2.177,0-4.884,1.953-5.417,4.795c-0.532,2.842,3.465,8.613,6.218,10.568
			c2.754,1.955,5.062-0.266,4.796-1.332C179.076,290.613,175.611,277.647,173.746,277.647z"/>
		<path fill="#201E27" d="M186.535,275.16c-1.438,1.063-0.798,2.665-0.622,7.194c0.18,4.529,0.534,7.993,0.534,7.993
			s0.532,1.51,1.332,1.51s3.907-0.799,4.975-4.796c1.064-3.997,2.308-7.018,0.088-8.882S188.579,273.65,186.535,275.16z"/>
		<path fill="#705849" d="M175.941,282.354c0,0,0.621,4.617,1.064,6.927c0.445,2.31,1.865,3.554,1.865,3.554
			S177.095,286.974,175.941,282.354z"/>
		<path fill="#705849" d="M186.686,282.887c0,0,1.6,6.484,1.6,7.017s-0.798,1.243-0.798,1.243S186.243,284.662,186.686,282.887z"/>
		<path fill="#C7A881" d="M173.62,278.69c0,0-3.425,0.925-3.979,2.684c-0.556,1.759-1.111,5.09,1.943,7.959
			c3.054,2.869,6.108,3.702,6.108,3.702s-2.684-4.442-2.406-8.422S173.62,278.69,173.62,278.69z"/>
		<path fill="#C7A881" d="M187.41,275.821c-0.99-0.104-0.37,6.016,0.556,9.995s0.74,5.091,0.74,5.091s3.979-2.592,4.35-7.497
			S190.927,276.191,187.41,275.821z"/>
		<path fill="#201E27" d="M187.16,297.699c-0.553,0.035,0.313-3.36,3.672-5.393s6.094-1.562,9.141,1.251
			c3.049,2.813,3.283,4.688,2.893,4.767s-5.548-5.704-9.689-4.61C189.034,294.807,188.409,297.621,187.16,297.699z"/>
		<path fill="#201E27" d="M178.721,299.183c0.851-0.617-3.596-4.609-6.877-4.298c-3.281,0.313-4.688,3.205-5.626,5.861
			c-0.938,2.657-0.156,3.906-0.156,3.906s2.5-7.815,6.329-7.345C176.22,297.777,177.861,299.808,178.721,299.183z"/>
		<g>
			<g>
				
					<ellipse transform="matrix(0.9872 -0.1593 0.1593 0.9872 -48.7322 32.2855)" fill="#201E27" cx="177" cy="320.087" rx="7.423" ry="11.055"/>
				<path fill="#FFFFFF" d="M183.704,318.797c0.888,5.498-1.386,10.437-5.077,11.032c-3.692,0.596-7.403-3.378-8.29-8.873
					c-0.888-5.501,1.386-10.438,5.078-11.037C179.105,309.325,182.817,313.3,183.704,318.797z"/>
				<path fill="#5F3211" d="M181.016,319.925c0.38,2.357-0.809,4.511-2.656,4.81c-1.849,0.298-3.653-1.372-4.035-3.728
					c-0.38-2.36,0.809-4.512,2.656-4.812C178.829,315.897,180.635,317.567,181.016,319.925z"/>
				
					<ellipse transform="matrix(0.9872 -0.1596 0.1596 0.9872 -48.8556 32.4734)" fill="#221E1F" cx="177.691" cy="320.322" rx="2.56" ry="3.268"/>
				<circle fill="#FFFFFF" cx="176.982" cy="319.043" r="0.648"/>
				<circle fill="#FFFFFF" cx="179.296" cy="319.876" r="0.463"/>
			</g>
			<g>
				<path fill="#A16F4E" d="M184.901,323.855c0,0-2.499,2.962-3.979,4.813c-1.481,1.852-4.628,1.573-5.554,2.129
					s2.592,2.592,5.924,0.74C184.624,329.687,185.271,325.429,184.901,323.855z"/>
				<path fill="#332325" d="M184.872,323.238c-0.619,0.122-2.591,1.975-3.456,3.579c-0.864,1.604-1.976,2.344-3.332,2.714
					s-2.467,0-3.207,0.37s-0.989,1.852,2.837,1.111c3.826-0.741,4.565-2.839,5.429-4.443c0.865-1.604,1.759-2.714,1.759-2.714
					L184.872,323.238z"/>
				<path fill="#A16F4E" d="M179.253,310.075c0,0-3.554-2.947-6.732-1.73c-3.178,1.216-3.646,4.067-3.553,6.452
					s0.888,3.693,0.888,3.693S169.108,307.645,179.253,310.075z"/>
				<path fill="#332325" d="M163.123,314.376c0,0,2.479,1.308,3.833,0.653c1.355-0.653,1.682-1.029,3.692-3.553
					c2.012-2.523,5.896-3.363,8.604-1.401c-5.377-0.515-6.992,0.697-8.884,5.002c-0.842,1.916,0.328,3.271-1.45,4.253
					c-1.263,0.699-5.328,1.638-7.714-0.794c4.255,1.964,6.639,0,6.639,0l1.075-1.262c0,0-4.767,2.337-7.152-0.936
					c3.881,2.991,7.247-0.794,7.247-0.794S165.928,317.509,163.123,314.376z"/>
			</g>
		</g>
		<g>
			<g>
				<path fill="#201E27" d="M190.298,317.422c0.76,6.058,4.646,10.566,8.683,10.072c4.038-0.495,6.696-5.808,5.938-11.863
					c-0.758-6.061-4.646-10.567-8.683-10.075C192.2,306.051,189.54,311.364,190.298,317.422z"/>
				<path fill="#FFFFFF" d="M190.862,317.146c0.691,5.524,4.237,9.636,7.919,9.185c3.682-0.449,6.106-5.294,5.417-10.816
					c-0.691-5.529-4.237-9.639-7.919-9.189C192.596,306.776,190.171,311.623,190.862,317.146z"/>
				<path fill="#5F3211" d="M193.738,317.483c0.297,2.369,2.032,4.107,3.874,3.882c1.843-0.226,3.098-2.33,2.8-4.697
					c-0.295-2.371-2.028-4.108-3.872-3.883S193.442,315.115,193.738,317.483z"/>
				<path fill="#221E1F" d="M194.495,317.252c0.224,1.791,1.535,3.101,2.927,2.932c1.391-0.169,2.338-1.76,2.114-3.547
					c-0.223-1.792-1.533-3.105-2.927-2.935C195.218,313.874,194.27,315.462,194.495,317.252z"/>
				<path fill="#FFFFFF" d="M196.716,315.699c0.1,0.341,0.457,0.542,0.799,0.442c0.341-0.1,0.535-0.458,0.435-0.803
					c-0.1-0.343-0.458-0.541-0.798-0.44C196.812,314.996,196.616,315.355,196.716,315.699z"/>
				<circle fill="#FFFFFF" cx="195.361" cy="316.96" r="0.459"/>
			</g>
			<g>
				<path fill="#A16F4E" d="M191.134,322.336c0,0,3.209,2.15,5.137,3.517s4.848,0.229,5.883,0.505
					c1.038,0.277-1.744,3.207-5.435,2.353C193.028,327.856,191.221,323.948,191.134,322.336z"/>
				<path fill="#332325" d="M190.992,321.734c0.622-0.054,3.02,1.178,4.291,2.479c1.271,1.301,2.535,1.703,3.932,1.683
					c1.396-0.021,2.351-0.684,3.158-0.535c0.811,0.152,1.458,1.506-2.392,1.854c-3.851,0.349-5.143-1.461-6.412-2.761
					c-1.272-1.302-2.436-2.118-2.436-2.118L190.992,321.734z"/>
				<path fill="#A16F4E" d="M192.664,307.539c0,0,2.563-3.815,5.929-3.529c3.367,0.287,4.61,2.896,5.188,5.211
					c0.577,2.316,0.186,3.793,0.186,3.793S201.648,302.392,192.664,307.539z"/>
				<path fill="#332325" d="M209.23,307.197c0,0-1.995,1.942-3.469,1.689c-1.474-0.252-1.889-0.522-4.511-2.388
					c-2.62-1.865-6.554-1.597-8.587,1.04c4.98-1.985,6.856-1.271,9.859,2.341c1.34,1.605,0.602,3.23,2.571,3.681
					c1.397,0.321,5.533,0.096,7.124-2.899c-3.504,3.064-6.322,1.839-6.322,1.839l-1.377-0.915c0,0,5.194,0.924,6.551-2.879
					c-2.86,3.947-7.124,1.246-7.124,1.246S207.434,310.982,209.23,307.197z"/>
			</g>
		</g>
	</g>
</g>
</svg>
