<?xml version="1.0" encoding="utf-8"?>
<!-- Generator: Adobe Illustrator 14.0.0, SVG Export Plug-In . SVG Version: 6.00 Build 43363)  -->
<!DOCTYPE svg PUBLIC "-//W3C//DTD SVG 1.1//EN" "http://www.w3.org/Graphics/SVG/1.1/DTD/svg11.dtd">
<svg version="1.1" id="图层_1" xmlns="http://www.w3.org/2000/svg" xmlns:xlink="http://www.w3.org/1999/xlink" x="0px" y="0px"
	 width="145.318px" height="116.182px" viewBox="0 0 145.318 116.182" enable-background="new 0 0 145.318 116.182"
	 xml:space="preserve">
<g>
	<g>
		<path fill-rule="evenodd" clip-rule="evenodd" d="M137.114,3.181c7.771-0.453,6.024,8.608,7.317,14.633
			c-5.333,4.118-6.695,0.58-7.317,9.408c-4.036-2.563-0.078-12.63,3.137-14.633c-0.545-1.548-1.547-2.635-2.091-4.183
			c-2.694,0.252,1.436,1.799,0,4.183c-1.403-0.688-1.946-2.234-2.09-4.183c-1.854,0.239-5.235-1.053-4.183,2.091
			C128.196,4.804,137.919,9.783,137.114,3.181z"/>
		<path fill-rule="evenodd" clip-rule="evenodd" d="M139.205,28.266c0.791-3.435,7.373,6.739,2.092,10.453
			c-2.132-0.307-2.051-2.827-4.183-3.136c0.586-3.027,1.631,1.604,3.137,1.046c-1.155-3.276-0.676-2.947,2.09-4.181
			C142.519,29.832,140.735,29.176,139.205,28.266z"/>
		<path fill-rule="evenodd" clip-rule="evenodd" fill="#1E1718" d="M129.799,18.859c3.062,2.304-3.247,10.106,3.135,10.452
			c-12.268,14.183-28.21,24.117-42.855,35.539C82.659,70.638,77.641,78.698,70.22,84.71c-16.038,12.99-34.493,22.328-54.354,31.357
			C-0.235,94.482,36.178,83.789,29.453,58.58c23.711-19.494,62.533-23.876,96.165-33.449
			C127.725,23.754,129.153,21.699,129.799,18.859z"/>
	</g>
	<path d="M29.453,58.58c0,0-2.192,2.412-5.154,10.557c-2.961,8.145-17.77,43.685-17.77,43.685s5.53,4.087,9.336,3.246
		c3.807-0.84,15.468-31.012,18.985-38.602C38.367,69.877,34.238,52.836,29.453,58.58z"/>
	<path d="M123.145,25.915c1.238-1.039,4.442-2.406,6.479-6.571s1.111-10.089,1.759-11.939c0.648-1.851,1.296-2.592,1.759-1.203
		s1.296,0,2.591,0.37C136.935,3.146,139.526,0,139.526,0l-0.37,2.499c0,0,5.091,0.926,5.368,4.72
		c0.277,3.795-0.74,4.072,0.093,6.017c0.833,1.943,1.758,5.183-2.592,6.663c-1.943,1.019-3.609,3.425-4.535,4.442
		c-0.926,1.019-0.74,1.666,0,1.944c0.74,0.277,3.517-0.648,5.738,2.591s1.11,7.404-2.036,8.516c1.019,1.48,1.019,1.48,1.019,1.48
		s-3.518-1.573-5.368-4.165c-1.852-2.592-3.425-3.979-4.351-4.072C131.567,30.542,117.406,30.728,123.145,25.915z"/>
	<path fill="#705849" d="M0.051,108.195c3.757,4.227,9.087,8.833,18.244,5.546c9.155-3.287,27.468-15.964,41.318-24.886
		c13.852-8.921,23.945-21.832,33.57-28.172c9.626-6.34,20.66-15.259,27.702-22.067c7.044-6.809,10.8-9.392,10.8-9.392
		s0.888-0.419,2.809,1.341c1.922,1.76,6.084,6.082,6.563,6.029c0.48-0.054,4.908-5.764,0.161-8.164
		c-4.749-2.4-4.964-0.906-5.657-2.454c-0.693-1.547-0.107-1.174,1.814-3.201s2.24-2.827,3.095-3.361
		c0.854-0.533,1.867,0,2.988-1.761c1.12-1.762,1.388-3.202,0.961-3.575c-0.428-0.373-1.603,2.135-2.455,3.095
		c-0.854,0.96-0.267,0.96-0.267,0.96s-1.226,0.802-0.908-0.373c0.321-1.174,1.815-3.309,2.829-6.189s2.027-4.481-0.534-6.509
		c-2.561-2.027-3.361-2.294-4.536-1.121c-1.173,1.173-2.027,1.548-0.692,2.081c1.335,0.534,3.895,2.348,3.521,5.549
		c-0.373,3.202-2.24,4.856-2.08,5.603c0.159,0.746,0.426,1.494,0.426,1.494s-1.973-0.161-1.067-2.508
		c0.908-2.347,2.188-6.989-0.587-8.697s-5.762-1.333-5.976,1.602c-0.214,2.934-0.267,7.417-0.588,8.323
		c-0.319,0.907-1.972,2.88-3.253,4.748s-2.295,2.936-4.749,3.949s-25.131,7.696-34.522,9.51c-9.39,1.813-22.609,6.166-32.053,9.473
		c-9.446,3.308-21.304,8.988-25.571,13.843s-3.949,6.673-10.831,13.662S13.938,84.987,6.469,87.709
		C-1.002,90.431,0.051,108.195,0.051,108.195z"/>
</g>
</svg>
