<?xml version="1.0" encoding="utf-8"?>
<!-- Generator: Adobe Illustrator 14.0.0, SVG Export Plug-In . SVG Version: 6.00 Build 43363)  -->
<!DOCTYPE svg PUBLIC "-//W3C//DTD SVG 1.1//EN" "http://www.w3.org/Graphics/SVG/1.1/DTD/svg11.dtd">
<svg version="1.1" id="图层_1" xmlns="http://www.w3.org/2000/svg" xmlns:xlink="http://www.w3.org/1999/xlink" x="0px" y="0px"
	 width="422.688px" height="309.816px" viewBox="0 0 422.688 309.816" enable-background="new 0 0 422.688 309.816"
	 xml:space="preserve">
<path d="M115.504,305.477c0,0-2.578,1.365-3.488-4.396c-0.91-5.764,0.91-8.795-0.455-8.645c-1.365,0.152,0.405-4.826,2.781-3.096
	C116.717,291.07,120.963,306.691,115.504,305.477z"/>
<path fill-rule="evenodd" clip-rule="evenodd" fill="#1E1718" d="M1.351,147.839c1.198,0.201,0.587,1.059,0,1.056
	c0.8,10.349,4.041,11.986,9.504,16.895c5.752-3.391,10.714-11.086,21.12-12.671c-1.171-1.997-1.348-4.989-2.112-7.393
	c6.116-21.911-3.254-39.612-1.057-65.47c1.427-1.037,2.11-2.817,3.169-4.225c34.445-4.715,62.343,5.823,66.526,34.848
	c9.501,4.227,13.785,13.671,17.952,23.231c6.177-40.639,10.688-82.943,23.231-117.214c6.11-3.747,11.522-8.189,12.672-16.896
	c3.706,0.834,1.22,3.693,0,5.281c2.839,0.728,2.041-2.184,3.167-3.169c4.227,1.821-0.674,6.243,4.225,7.392
	c4.787-0.493,7.741-2.818,8.448-7.392c3.116-0.02,3.116,8.468,0,8.448c9.373,4.649-4.712,15.646-11.616,7.392
	c-2.96,2.689,4.457,3.931,2.112,9.504c-0.94,0.469-1.889,0.927-2.112,2.111c-4.949,1.079-6.006-1.737-8.447-3.167
	c2.015,18.295,6.184,57.604,8.447,88.702c1.32,18.145-1.807,43.462,12.672,46.464c18.715,3.879,22.61-16.686,40.127-16.896
	c-12.109,12.042-30.588,21.906-34.848,41.183c-7.028-0.506-2.018-5.748-6.335-8.446c-1.726-0.476-1.726,5.756,0,5.279
	c-5.267,13.019-3.271,16.54-10.56,27.455c-3.74,0.572-2.598-3.738-6.336-3.167c1.354-9.637,5.266-13.804,2.111-22.177
	c-2.58,1.055-2.25,0.352-6.336,1.056c3.207-3.565-2.254-5.665,0-7.391c-2.046,0.28-5.309-1.696-6.336-5.28
	c-3.815-1-1.473,4.159-2.111,6.336c-2.984,0.873-2.736-1.488-5.281-1.056c-0.09,1.498-0.174,2.99,1.057,3.168
	c-0.591,3.059-1.646-1.621-3.168-1.057c-11.533,18.185-23.88,30.196-48.574,27.456c-12.406-1.377-20.868,0.315-21.12,9.504
	c1.465,4.18,5.638-0.725,7.392,3.168c1.566-0.461-0.416-1.352,0-3.168c4.057,2.871,1.278,1.244,4.225-1.057
	c3.903-0.604,1.779,4.277,5.279,0c10.54,5.873,17.811,26.307,23.231,27.455c3.594,7.516,16.205,15.604,24.288,16.896
	c-1.418,5.73,14.146,10.393,16.896,21.119c20.388,4.617,50.903,18.982,74.975,12.672c31.947,6.529,54.628-1.359,81.311-10.559
	c-3.426-2.301,10.748-6.729,15.84-10.561c2.713-2.041,5.868-7.443,9.504-10.561c0.37-0.316,1.57,1.602,2.111,1.057
	c1.547-1.555,1.53-4.857,3.17-6.336c1.41-1.273,3.679-0.064,5.278-1.057c2.244-1.393,2.045-6.291,4.226-8.447
	c0.613-0.605,1.255,2.006,1.056,2.113c1.756-0.912,1.58-3.691,4.223-6.338c2.068-2.068,5.9-2.432,7.393-4.223
	c0.704-0.846-0.628-3.309,0-4.225c3.031-4.42,5.909-7.889,7.393-10.561c0.538-0.973,2.851-0.455,3.167-1.055
	c7.726-14.627,7.884-31.683,5.279-48.576c-0.044-2.699,0.786-1.287,2.113-1.056c-3.636-5.117-3.071-11.68-6.337-19.008
	c-4.544-10.198-17.985-22.801-27.456-25.343c-2.852-0.767-6.457-4.724-8.447-5.28c-0.912-0.256-9.748,0.395-12.672-2.111
	c-0.147-0.127,1.468-1.932,1.056-2.112c-4.33-1.894-7.76,0.997-9.504-3.169c-1.62,4.957-7.19,1.877-9.504-1.056
	c-5.553,2.3-7.131-0.126-15.838,1.056c-2.701,0.047-1.289-0.783-1.057-2.111c-2.707,3.419-6.016,0.782-9.504,1.056
	c-2.27,0.178-2.168,3.059-3.17,3.169c-1.355,0.148-1.01-2.496,0-2.113c-3.628-1.377-9.494,3.717-14.781,4.225
	c-6.195,0.594-10.884-3.173-14.785,1.057c-0.738-3.251-0.738-2.03,0-5.281c1.434,0.327,0.877,2.646,1.057,4.225
	c2.153-0.312,2.07-2.856,4.224-3.167c-0.013-2.964-2.881,2.513-2.111-2.113c1.542-1.51,4.089-1.552,3.167,2.113
	c1.346-0.24,1.385-3.153,0-3.169c36.283-15.747,92.37-8.229,120.382,19.008c5.044,4.904,9.681,12.95,14.785,20.063
	c15.847,22.084,31.627,48.132,30.623,85.535c2.019,1.502,3.779,3.262,5.28,5.279c-1.382,5.844,1.036,8.924-1.058,13.727
	c3.482,1.447,4.498,5.361,8.448,6.338c-4.188,7.076-3.51,19.016-16.895,16.895c-10.562,16.287-36.324,5.641-54.911,11.617
	c-4.868,1.564-7.149,6.307-11.615,7.391c-79.956,19.43-201.648,8.633-238.653-49.631c-8.217,2.695-12.1,9.725-15.84,16.895
	c21.994,5.814,43.5,12.117,57.023,26.4c-1.475,13.463-15.42,4.258-19.008-1.055c-0.53,4.4,3.086,4.656,2.111,9.502
	c-2.707,2.105-7.013,3.781-10.559,2.113c0.326-1.434,2.643-0.877,4.223-1.057c-2.975-3.359-3.174-9.498-4.223-14.783
	c-4.651,2.742-5.623,9.162-8.449,13.727c-3.869,0.35-5.867-1.172-8.447-2.111c0.113-5.518,5.131-6.135,5.279-11.615
	c-12.223-0.186-29.69,8.197-42.238,3.168c-12.949-5.189-13.73-30.947-12.673-46.463c1.416-20.762,7.33-40.446,19.009-47.52
	C34.751,190.417-6.498,188.814,1.351,147.839z M133.348,144.67c3.355,0.887-1.873,1.393-3.167,1.056
	c-3.086,5.515-1.067,26.511,4.224,21.121c0.233,0.822,0.885,1.228,2.112,1.056c1.021,6.638,2.672,0.597,8.448,6.335
	c-0.764-5.519-7.524-10.461-1.057-10.56c-3.508-1.744-5.353-4.477-1.056-6.335c-1.407-1.059-3.187-1.741-4.224-3.169
	c1.453-0.046,2.318,0.498,3.168,1.056c-1.443-3.751-2.865-3.239,0-4.224c-2.293-1.504-7.006-4.081-5.28-6.336
	C134.699,145.087,133.81,143.103,133.348,144.67z M136.517,298.844c-3.245-0.275-4.749-2.291-7.392-3.168
	C128.453,299.805,135.445,302.893,136.517,298.844z M152.356,14.783c4.376,1.169,13.27,6.478,15.84,0
	c-5.843-0.844-10.551-2.824-15.84-4.223C152.356,11.968,152.356,13.376,152.356,14.783z M38.31,103.487
	c1.482-3.995-1.637-11.447-6.335-12.672C30.338,95.592,34.25,101.187,38.31,103.487z M40.422,98.208
	c-0.902,3.364,0.92,4.007,2.111,5.279c-10.447,1.26-4.618,14.196-1.055,19.008c0.223-1.186,1.172-1.645,2.111-2.112
	c6.019,6.251,15.811-7.053,21.119-11.615C56.789,105.503,49.426,96.969,40.422,98.208z M39.366,183.741
	c2.532-2.043,3.225-5.926,7.392-6.335c-2.43-6.019-6.564-10.333-9.504-15.84C35.995,166.961,37.846,177.677,39.366,183.741z
	 M30.918,155.229c0.13,3.944,4.044,7.858,6.336,6.337C36.893,157.704,33.639,156.733,30.918,155.229z M23.525,160.51
	c1.328,0.434,2.159,1.362,2.113,3.168c2.697-0.118,3.695-1.937,5.279-3.168C28.635,159.831,24.35,156.555,23.525,160.51z
	 M33.029,172.126c3.882,1.017,4.199-5.188,1.057-5.279C32.536,169.335,31.857,168.811,33.029,172.126z M62.598,274.557
	c0.822,0.232,1.228,0.883,1.057,2.111c2.703-1.146,5.033,3.207,6.335,0c-2.208-1.225-3.969,0.494-5.28-3.168
	c0.587,0.004,1.199-0.855,0-1.057C64.697,273.84,62.859,273.41,62.598,274.557z"/>
<path fill="#705849" d="M6.043,146.381c0,0-2.182,0.361-3.271,1.089c-1.091,0.728-2.363,3.453-0.728,8.178s1.636,4.725,1.636,4.725
	s-0.77,2,1.049,7.815c0,0,0.041,11.267,22.938,18.172c22.896,6.903,27.622,4.9,35.254,7.627s15.082,0.909,23.623-8.54
	c8.541-9.45,19.08-23.624,22.896-28.711c3.816-5.089,6.543-20.353,3.089-26.532c-3.452-6.178-3.999-7.63-5.271-10.72
	c-1.271-3.091-5.249-4.883-9.885-6.43C94.4,98.312,87.268,88.088,78.232,83.688c-4.637-2.614-6.301-2.258-8.678-3.327
	c-2.378-1.07-7.371-3.566-18.309-3.924s-18.189,1.546-19.854,2.734c-1.664,1.189-2.972,7.727-2.377,17.594
	c0.594,9.868,2.854,22.944,2.854,22.944s-3.092,6.898-6.302,11.414C22.357,135.641,14.692,141.665,6.043,146.381z"/>
<path fill="#C0A595" d="M30.577,77.097c-4.172,0.851-0.817,23.437,3.543,45.785c4.36,22.348,4.36,35.428,11.719,36.519
	s47.964,2.999,47.692-35.7C93.258,85,72.002,68.648,30.577,77.097z"/>
<g>
	<g>
		<g>
			<circle cx="30.494" cy="164.697" r="9.849"/>
			<circle fill="#FFFFFF" cx="30.597" cy="164.78" r="9.233"/>
		</g>
		<g>
			<path fill="#A16F4E" d="M28.602,155.547c0,0,2.135-1.58,5.197-0.187c3.063,1.393,5.661,4.178,6.311,9.93
				C37.14,159.536,33.613,155.454,28.602,155.547z"/>
			<path fill="#332325" d="M28.51,155.934c0.59,0.589,6.109,0.926,8.422,4.258c2.314,3.332,3.147,5.924,3.147,5.924
				s-0.278-5.091-3.609-8.053C33.138,155.102,27.862,155.286,28.51,155.934z"/>
		</g>
		<g>
			<circle fill="#5F3211" cx="32.983" cy="163.652" r="4.054"/>
			<ellipse fill="#110E0D" cx="32.945" cy="163.425" rx="3.258" ry="3.069"/>
			<circle fill="#FFFFFF" cx="31.506" cy="161.948" r="0.531"/>
			<circle fill="#FFFFFF" cx="33.325" cy="164.676" r="0.397"/>
		</g>
		<path fill="#A16F4E" d="M25.262,157.031c0,0,3.248,3.713,5.475,7.146c2.227,3.434,5.939,7.702,5.939,7.702
			s-3.898,5.662-11.693,1.578S16.632,159.909,25.262,157.031z"/>
		<path fill="#332325" d="M25.363,157.229c0,0,0.833,1.389,3.332,4.721c2.498,3.332,2.961,4.72,2.498,6.849
			c-0.462,2.129-4.904,5.646-4.904,5.646s3.701-1.296,4.904-3.425c1.204-2.128,1.481-2.684,1.481-2.684s0.278,2.776-0.556,5.368
			c-0.832,2.592-4.164,5.553-4.164,5.553s4.072-1.48,5.367-5.183c1.297-3.702,1.297-3.702,1.297-3.702s0.555,2.499,0.462,4.998
			s-1.573,5.183-1.573,5.183s2.592-2.962,2.592-6.108s0-2.592,0-2.592l0.832,1.296c0,0-1.48-3.609-3.238-5.553
			C31.935,165.652,25.826,156.675,25.363,157.229z"/>
		<path fill="#110E0D" d="M13.517,163.523c-0.839,0.514,0.37,2.592,2.776,6.571s4.628,7.404,6.941,8.607
			c2.314,1.203,5.275,0.185,5.275,0.185s-4.813-2.869-6.756-6.664C19.811,168.429,15.183,162.505,13.517,163.523z"/>
	</g>
	<g>
		<path fill="#FFFFFF" d="M28.855,139.932c0,0-4.913-1.145-10.701,1.615c-5.789,2.759,2.826,14.136,7.201,10.365
			C29.73,148.143,30.404,141.143,28.855,139.932z"/>
		<g>
			<path fill="#5F3211" d="M29.344,145.315c0,0-1.752-2.893-5.991-1.076c-4.24,1.816-2.894,8.48,3.231,6.461
				C30.016,148.816,29.344,145.315,29.344,145.315z"/>
			<path fill="#110E0D" d="M28.268,145.989c0,0-2.021-2.626-5.318-0.54c-3.299,2.087-0.066,5.925,3.299,4.376
				S28.268,145.989,28.268,145.989z"/>
			<circle fill="#FFFFFF" cx="25.036" cy="146.763" r="0.505"/>
			<circle fill="#FFFFFF" cx="25.911" cy="148.715" r="0.379"/>
		</g>
		<g>
			<path fill="#A16F4E" d="M28.973,140.015c0,0,1.018,3.702-0.463,6.664s-2.684,4.721-2.684,4.721s3.239-1.019,4.164-4.721
				C30.916,142.977,29.713,138.72,28.973,140.015z"/>
			<path fill="#332325" d="M29.007,139.729c-0.381,0.191,0.269,0.674,0.269,2.827s-2.221,6.394-2.895,7.942
				c-0.673,1.549-1.346,1.615-1.346,1.615s1.076,0.539,3.163-4.037C30.285,143.499,30.623,138.92,29.007,139.729z"/>
		</g>
		<path fill="#A16F4E" d="M24.253,139.367c0,0-6.386,0.277-11.847,5.368c-5.461,5.09-5.091,8.329-0.833,9.811
			c4.257,1.48,12.113-0.071,12.049-1.287C23.42,149.431,24.253,139.367,24.253,139.367z"/>
		<path fill="#332325" d="M23.555,152.854c0,0-0.405-3.566-0.27-7.471c0.135-3.904-0.202-5.183-3.972-6.058
			s-5.116,0.336-5.116,0.336s2.559-2.152,7.068-0.604c1.346,0.604,2.154,1.48,2.154,1.48s-1.48-2.491-5.049-3.501
			c-3.567-1.01-5.183-0.066-5.183-0.066s5.25-2.021,8.212,0.47c1.48,1.146,1.951,1.818,1.951,1.818s-1.816-4.309-6.865-5.184
			c6.193-0.201,7.674,4.577,7.809,5.317s-0.674,6.327-0.606,8.414S23.757,152.854,23.555,152.854z"/>
		<path fill="#110E0D" d="M5.381,146.527c0,0-2.625,1.482-2.558,3.635c0.067,2.153,1.077,4.98,4.173,9.154
			c0.27,0.673-3.701,0.066-5.182-3.77C0.333,151.71-0.947,147.536,5.381,146.527z"/>
	</g>
</g>
<linearGradient id="SVGID_1_" gradientUnits="userSpaceOnUse" x1="32.2007" y1="91.7363" x2="88.0425" y2="91.7363">
	<stop  offset="0" style="stop-color:#705849"/>
	<stop  offset="1" style="stop-color:#C0A595"/>
</linearGradient>
<path fill="url(#SVGID_1_)" d="M71.813,79.42c0,0-26.464-6.445-38.503-1.212c-6.973,3.03,20.313,28.801,42.444,29.103
	C92.755,107.544,92.732,92.152,71.813,79.42z"/>
<radialGradient id="SVGID_2_" cx="148.7192" cy="-2556.2104" r="111.7394" gradientTransform="matrix(0.9205 0 0 1.5043 -76.2072 4023.3054)" gradientUnits="userSpaceOnUse">
	<stop  offset="0" style="stop-color:#705849"/>
	<stop  offset="1" style="stop-color:#C0A595"/>
</radialGradient>
<path fill="url(#SVGID_2_)" d="M79.365,109.157c0,0-20.564,1.034-27.42,18.618c-6.854,17.583-6.854,27.512-5.902,32.063
	c0.953,4.551,3.237,25.442,22.277,20.892c19.041-4.551,25.324-18.409,27.99-31.441S100.117,103.364,79.365,109.157z"/>
<g>
	<path fill="#332325" d="M81.24,109.139c0,0-12.245-0.583-20.992,8.602c-8.746,9.185-13.119,17.492-15.307,32.363
		c-1.75,11.08,2.624,9.913,2.624,9.913s16.327,0.147,25.804-3.353c6.996-2.332,6.851-4.811,6.996-14.142
		c0.146-9.33-5.685-17.057-6.414-16.765c-0.729,0.292-14.285,5.832-21.866,22.305c2.187,1.604,16.911,4.958,18.66,3.208
		s2.915-13.121,2.04-13.267c-0.874-0.146-11.809,1.749-11.371,3.79c0.438,2.04,5.395,4.957,5.395,4.957s1.457-1.021,1.749-1.75
		c0.292-0.729,2.188-2.332,2.188-2.332s-0.438,6.996-1.604,7.288c-1.166,0.292-14.725-1.311-14.287-2.477
		c0.438-1.168,4.811-13.85,18.369-18.369c8.747,7.58,5.978,23.18,4.374,24.491c-1.604,1.312-25.221,7.581-30.614,5.248
		C45.379,157.247,45.232,115.115,81.24,109.139z"/>
	<path fill="#332325" d="M56.36,85.986c0,0-2.401-0.135-3.733,1.065s-0.133,1.602,5.6,1.067c5.732-0.533,6.666-2.4,2-6.8
		c-4.666-4.398-8.398-2.533-14.398-0.666c-5.999,1.866-8.266,1.2,1.066,6.266c9.332,5.066,20.264,7.865,21.73,7.066
		c1.467-0.8,4.533-13.198-5.066-17.331c0,0-29.863-2.533-32.262,1.066c-2.399,3.599,17.865,28.397,43.461,30.13
		c-31.596-6.399-43.727-28.397-42.261-29.464c0,0,12.532-3.866,30.13-1.2c7.73,5.732,6.131,16.132,4.531,16.132
		s-23.195-6.532-21.596-8.665c1.732-0.534,10.531-1.6,11.998-0.8c1.466,0.8,3.066,2.932,2,3.332c-1.067,0.4-2.666,0.801-2.134,0.134
		C57.959,86.653,57.427,86.254,56.36,85.986z"/>
</g>
<radialGradient id="SVGID_3_" cx="297.6201" cy="180.5996" r="144.2356" gradientTransform="matrix(0.3877 -0.9218 0.7183 0.3021 52.5222 400.3891)" gradientUnits="userSpaceOnUse">
	<stop  offset="0" style="stop-color:#C0A595"/>
	<stop  offset="1" style="stop-color:#705849"/>
</radialGradient>
<path fill="url(#SVGID_3_)" d="M69.116,200.37c0,0-5.41-0.602-12.924,15.028c-7.514,15.629-9.919,48.691-3.307,67.627
	c0,0,3.502,6.801,11.092,8.836c7.59,2.037,22.768-0.184,38.131-4.256c0.371-4.072,5.554-6.664,5.554-6.664s-1.851,2.961-3.517,5.738
	c-1.666,2.775-6.664,12.031-3.703,14.438c2.963,2.406,5.369,1.295,6.664-2.035c1.296-3.332,3.146-7.035,4.628-7.221
	c1.481-0.184,2.036,0.74,1.851,4.998c-0.185,4.258,2.037,8.145,5.738,7.775c3.703-0.371,6.109-2.592,4.072-7.219
	c-2.035-4.629-0.926-8.516,0.371-8.145c1.295,0.369,0.555,2.221,1.851,4.627s5.738,7.404,9.44,7.404s7.59-4.443,4.072-7.59
	s-8.33-8.145-9.811-8.885s-10.922-5.184-13.328-6.479s-4.627-2.037-8.885-2.961c-4.257-0.926-20.916-3.889-22.953-6.295
	c-2.035-2.406,8.886-15.918,12.588-17.77c-4.998-7.773-4.628-12.771-4.628-12.771s1.666,4.813,8.7,13.143
	c7.033,8.328,20.062,26.447,57.012,39.797c37.131,13.414,82.632,16.914,115.321,15.734c32.559-1.176,58.492-6.85,74.412-14.809
	c9.439-3.332,32.393-2.037,42.943-3.703s15.92-10.736,11.477-18.695c-4.441-7.959-10.18-15.549-15.178-14.252
	c-4.998,1.295-6.479-6.109-4.258-11.293c2.221-5.182,1.111-32.021-0.74-47.2s-11.641-43.906-27.211-56.271
	c-14.992-11.907-29.309-18.818-29.309-18.818s19.129,6.046,33.197,19.188c14.066,13.143,29.986,39.982,29.986,39.982
	s-5.184-14.993-9.07-20.917c-3.887-5.923-13.514-22.953-25.73-31.098s-42.018-23.508-85.332-19.991
	c-43.314,3.518-66.824,39.982-85.335,49.608c-12.957,6.849-17.584,2.221-17.584,2.221s0.555,6.85,1.851,8.7
	c1.296,1.852-8.329-8.145-9.811-16.845c-1.481-8.699-0.185-31.282-2.406-48.312c-2.222-17.03-3.147-24.063-3.702-40.168
	c-0.555-16.104-5.184-37.206-5.184-37.206s-4.072-6.108-1.295-7.034c2.776-0.925,0.555,1.296,1.295,3.332
	c0.741,2.036,3.888,7.404,7.22,6.108c3.332-1.295,5.738-4.442,3.147-7.403c-2.592-2.962-4.813-4.072-5.369-5.184
	c-0.555-1.11,0.556-2.776,0.556-2.776s-0.556,3.702,2.962,3.888c3.517,0.185,4.813,3.887,9.439,2.406
	c4.629-1.481,5.924-5.184,4.998-5.738c-0.926-0.556-6.293-1.296-8.329-2.406c-2.036-1.111-3.888-2.962-3.888-2.962
	s3.888,1.666,5.924,2.591c2.036,0.926,9.07-1.295,6.479-6.479c-2.592-5.183-4.258-1.295-7.404,0.37
	c-3.146,1.666-4.442,1.111-5.367,1.296c-0.926,0.186-0.186-4.257-2.223-3.702c-2.035,0.556-3.516,3.702-4.997,6.108
	s-5.554,6.294-7.774,7.774c-2.221,1.481-2.221,4.258-9.996,29.432c-7.773,25.175-8.329,38.687-9.07,50.903
	c-0.74,12.218-4.813,33.134-4.813,38.688c0,5.553,1.297,18.325-2.961,25.544s-13.513,14.623-19.251,24.619
	C89.707,196.719,69.116,200.37,69.116,200.37z"/>
<path fill="#705849" d="M374.849,165.73c0,0,7.946,9.535,10.064,28.87c2.119,19.334,1.323,25.692,1.323,37.345
	c0,11.654-5.031,11.654,2.916,18.012c7.944,6.355,18.01-0.795,16.951-20.66C405.042,209.432,394.977,173.677,374.849,165.73z"/>
<path fill="#705849" d="M409.673,241.371c0,0-3.468,6.826-6.068,8.992c-2.6,2.168-8.668,3.576-8.668,3.576s3.685,4.66,5.093,6.719
	c1.409,2.057,2.167,2.057,2.167,2.057s-0.107-1.951,2.71-1.516c2.816,0.434,3.898,0.758,3.898,0.758l-5.092-3.684l5.525,1.301
	c0,0,3.251-6.826,3.902-6.936c0.65-0.107-5.094-1.191-5.094-1.191l5.527-0.434C413.574,251.014,415.415,241.264,409.673,241.371z"/>
<path fill="#705849" d="M405.8,267.701c0,0,1.517,3.359,1.732,6.936c0.217,3.574-1.732,6.5-1.732,6.5s10.944-0.758,12.136-5.525
	c0.649-3.143,1.299-3.469,1.299-3.469s-2.06-0.324-2.383-1.949c-0.324-1.625,0.757-5.311,0.757-5.311s-5.851,3.902-6.717,3.143
	s-0.866-1.191-0.866-1.191L405.8,267.701z"/>
<g>
	<path fill="#1E1718" d="M102.418,294.875c-1.834-0.662-4.711,1.193-5.336,3.293c-0.623,2.1,0.113,3.691,2.84,3.123
		C102.646,300.723,106.506,296.352,102.418,294.875z"/>
	<path fill="#1E1718" d="M117.917,295.104c-2.417-0.344-3.52,2.1-3.235,3.121c0.283,1.023,2.668,4.713,6.584,3.975
		C125.183,301.461,125.921,296.238,117.917,295.104z"/>
	<path fill="#1E1718" d="M134.039,291.924c-2.012,0.779-1.875,3.01,0.17,4.201c2.044,1.191,5.223,1.475,6.473-0.057
		c1.248-1.533-0.795-3.066-2.555-3.805C136.366,291.527,135.061,291.527,134.039,291.924z"/>
</g>
<g>
	<path fill="#1E1718" d="M152.451,0.689c-0.871-0.193-3.344,5.54-2.09,5.748C151.615,6.646,155.273,1.317,152.451,0.689z"/>
	<path fill="#1E1718" d="M167.189,0.271c0.037-0.893-4.076,2.822-4.912,3.973C161.441,5.393,167.086,2.777,167.189,0.271z"/>
	<path fill="#1E1718" d="M162.068,12.918c0,0,8.466-0.836,8.57-0.104c0.105,0.732-2.926,2.402-5.121,2.09
		S161.232,13.44,162.068,12.918z"/>
	<path fill="#1E1718" d="M152.033,20.861c-2.452,0.194-3.344,2.615-1.984,5.75c1.357,3.135,6.689,2.195,6.584-0.731
		C156.528,22.953,156.006,20.548,152.033,20.861z"/>
</g>
<g>
	<path fill="#65463D" d="M97.626,113.135c0,0,3.737,1.301,5.201,1.789c1.464,0.487,8.128,5.525,8.615,17.229
		s0.487,23.082-21.456,36.572C103.64,152.634,102.016,122.236,97.626,113.135z"/>
	<path fill="#302521" d="M97.789,113.298c0,0,12.027,8.291,7.314,31.696c-4.227,17.555-13.166,21.131-13.166,21.131
		S108.029,146.294,97.789,113.298z"/>
	<path fill="#1E1718" d="M99.415,119.148c0,0,4.063,7.316,3.738,18.044s-7.478,23.567-7.478,23.567S101.691,146.293,99.415,119.148z
		"/>
	<path fill="#F4F2ED" d="M99.859,126.961c0,0,3.479,6.467,1.322,12.172c0,0-0.836,0.559-1.461,0.349
		C99.998,136.351,99.859,126.961,99.859,126.961z"/>
	<path fill="#F4F2ED" d="M98.607,149.15c0,0-0.983,5.426-1.331,6.538c1.53,0.765,1.748-0.069,1.748-0.069s3.062-3.827,2.574-6.053
		C99.65,149.428,98.607,149.15,98.607,149.15z"/>
</g>
<linearGradient id="SVGID_4_" gradientUnits="userSpaceOnUse" x1="93.3779" y1="171.1177" x2="116.6661" y2="185.3498">
	<stop  offset="0" style="stop-color:#221E1F"/>
	<stop  offset="1" style="stop-color:#705849"/>
</linearGradient>
<path fill="url(#SVGID_4_)" d="M71.855,198.077c0,0,7.033-0.74,17.029-11.106c9.995-10.366,14.067-18.881,19.99-24.434
	c5.924-5.553,5.924-13.697,5.924-16.659s2.962-5.924,2.962-5.924s4.072,1.481,5.923,12.587c1.852,11.106-1.48,13.328,1.852,19.991
	c3.332,6.664,14.068,22.583-15.549,28.136c-29.617,5.554-44.055,1.852-42.574,0C68.893,198.817,71.855,198.077,71.855,198.077z"/>
</svg>
