<?xml version="1.0" encoding="utf-8"?>
<!-- Generator: Adobe Illustrator 14.0.0, SVG Export Plug-In . SVG Version: 6.00 Build 43363)  -->
<!DOCTYPE svg PUBLIC "-//W3C//DTD SVG 1.1//EN" "http://www.w3.org/Graphics/SVG/1.1/DTD/svg11.dtd">
<svg version="1.1" id="图层_1" xmlns="http://www.w3.org/2000/svg" xmlns:xlink="http://www.w3.org/1999/xlink" x="0px" y="0px"
	 width="255.906px" height="52.664px" viewBox="0 0 255.906 52.664" enable-background="new 0 0 255.906 52.664"
	 xml:space="preserve">
<g>
	<path d="M10.078,0v18.984c2.317-2.32,4.16-3.803,5.527-4.447s2.728-0.967,4.082-0.967c1.641,0,3.047,0.404,4.219,1.213
		s2.044,2.08,2.617,3.814c0.391,1.219,0.586,3.434,0.586,6.645v9.141c0,1.641,0.156,2.766,0.469,3.375
		c0.208,0.445,0.56,0.803,1.055,1.072c0.494,0.27,1.419,0.404,2.773,0.404v1.02H17.266v-1.02h0.664c1.328,0,2.252-0.182,2.773-0.545
		c0.521-0.363,0.885-0.908,1.094-1.635c0.078-0.305,0.117-1.195,0.117-2.672v-9.141c0-2.836-0.163-4.699-0.488-5.59
		c-0.326-0.891-0.847-1.559-1.563-2.004c-0.717-0.445-1.582-0.668-2.598-0.668s-2.077,0.246-3.184,0.738
		c-1.107,0.492-2.441,1.488-4.004,2.988v13.676c0,1.781,0.11,2.889,0.332,3.322c0.221,0.434,0.631,0.797,1.23,1.09
		c0.599,0.293,1.627,0.439,3.086,0.439v1.02H0.469v-1.02c1.275,0,2.278-0.176,3.008-0.527c0.416-0.188,0.748-0.545,0.996-1.072
		c0.247-0.527,0.371-1.611,0.371-3.252V10.934c0-2.953-0.078-4.77-0.234-5.449S4.212,4.342,3.887,4.096
		C3.561,3.85,3.125,3.727,2.578,3.727c-0.417,0-1.12,0.152-2.109,0.457L0,3.164L8.633,0H10.078z"/>
	<path d="M43.75,13.57v20.813c0,1.641,0.13,2.725,0.391,3.252c0.26,0.527,0.645,0.926,1.152,1.195s1.451,0.404,2.832,0.404v1.02
		H34.141v-1.02c1.406,0,2.35-0.123,2.832-0.369c0.481-0.246,0.859-0.65,1.133-1.213s0.41-1.652,0.41-3.27v-9.984
		c0-2.813-0.092-4.629-0.273-5.449c-0.156-0.609-0.391-1.031-0.703-1.266s-0.742-0.352-1.289-0.352
		c-0.573,0-1.276,0.141-2.109,0.422l-0.469-1.02l8.672-3.164H43.75z M41.133,0c0.885,0,1.634,0.281,2.246,0.844
		c0.611,0.563,0.918,1.242,0.918,2.039c0,0.773-0.307,1.447-0.918,2.021c-0.612,0.574-1.361,0.861-2.246,0.861
		c-0.886,0-1.641-0.287-2.266-0.861S37.93,3.656,37.93,2.883c0-0.797,0.306-1.477,0.918-2.039C39.459,0.281,40.221,0,41.133,0z"/>
	<path d="M49.609,16.91l8.867-3.234h1.211v6.047c1.484-2.273,2.975-3.867,4.473-4.781c1.497-0.914,3.079-1.371,4.746-1.371
		c2.891,0,5.299,1.02,7.227,3.059c2.369,2.484,3.555,5.73,3.555,9.738c0,4.477-1.433,8.168-4.297,11.074
		c-2.344,2.414-5.3,3.621-8.867,3.621c-1.537,0-2.878-0.199-4.023-0.598c-0.834-0.281-1.771-0.855-2.813-1.723v7.91
		c0,1.781,0.123,2.912,0.371,3.393c0.247,0.48,0.664,0.861,1.25,1.143s1.673,0.422,3.262,0.422v1.055H49.453v-1.055h0.781
		c1.172,0.023,2.161-0.176,2.969-0.598c0.391-0.211,0.696-0.545,0.918-1.002c0.221-0.457,0.332-1.635,0.332-3.533V21.973
		c0-1.688-0.085-2.754-0.254-3.199c-0.17-0.445-0.437-0.785-0.801-1.02c-0.365-0.234-0.859-0.352-1.484-0.352
		c-0.495,0-1.133,0.141-1.914,0.422L49.609,16.91z M59.688,21.41v9.668c0,2.109,0.091,3.492,0.273,4.148
		c0.313,1.078,1.035,2.033,2.168,2.865s2.571,1.248,4.316,1.248c2.109,0,3.802-0.738,5.078-2.215
		c1.719-1.922,2.578-4.629,2.578-8.121c0-3.961-0.964-7.008-2.891-9.141c-1.354-1.453-2.956-2.18-4.805-2.18
		c-0.99,0-1.979,0.223-2.969,0.668C62.682,18.68,61.432,19.699,59.688,21.41z"/>
	<path d="M81.797,16.91l8.867-3.234h1.211v6.047c1.484-2.273,2.975-3.867,4.473-4.781c1.497-0.914,3.079-1.371,4.746-1.371
		c2.891,0,5.299,1.02,7.227,3.059c2.369,2.484,3.555,5.73,3.555,9.738c0,4.477-1.433,8.168-4.297,11.074
		c-2.344,2.414-5.3,3.621-8.867,3.621c-1.537,0-2.878-0.199-4.023-0.598c-0.834-0.281-1.771-0.855-2.813-1.723v7.91
		c0,1.781,0.123,2.912,0.371,3.393c0.247,0.48,0.664,0.861,1.25,1.143s1.673,0.422,3.262,0.422v1.055H81.641v-1.055h0.781
		c1.172,0.023,2.161-0.176,2.969-0.598c0.391-0.211,0.696-0.545,0.918-1.002c0.221-0.457,0.332-1.635,0.332-3.533V21.973
		c0-1.688-0.085-2.754-0.254-3.199c-0.17-0.445-0.437-0.785-0.801-1.02c-0.365-0.234-0.859-0.352-1.484-0.352
		c-0.495,0-1.133,0.141-1.914,0.422L81.797,16.91z M91.875,21.41v9.668c0,2.109,0.091,3.492,0.273,4.148
		c0.313,1.078,1.035,2.033,2.168,2.865s2.571,1.248,4.316,1.248c2.109,0,3.802-0.738,5.078-2.215
		c1.719-1.922,2.578-4.629,2.578-8.121c0-3.961-0.964-7.008-2.891-9.141c-1.354-1.453-2.956-2.18-4.805-2.18
		c-0.99,0-1.979,0.223-2.969,0.668C94.869,18.68,93.619,19.699,91.875,21.41z"/>
	<path d="M130.156,13.57c4.375,0,7.877,1.488,10.508,4.465c2.239,2.555,3.359,5.484,3.359,8.789c0,2.32-0.619,4.664-1.855,7.031
		c-1.237,2.367-2.937,4.16-5.098,5.379c-2.162,1.219-4.584,1.828-7.266,1.828c-4.323,0-7.773-1.559-10.352-4.676
		c-2.136-2.625-3.203-5.566-3.203-8.824c0-2.391,0.65-4.758,1.953-7.102c1.302-2.344,3.021-4.078,5.156-5.203
		C125.494,14.133,127.76,13.57,130.156,13.57z M129.18,15.398c-1.094,0-2.207,0.299-3.34,0.896s-2.045,1.641-2.734,3.129
		c-0.69,1.488-1.035,3.404-1.035,5.748c0,3.773,0.833,7.025,2.5,9.756c1.666,2.73,3.867,4.096,6.602,4.096
		c2.031,0,3.704-0.75,5.02-2.25c1.314-1.5,1.973-4.09,1.973-7.77c0-4.617-1.094-8.25-3.281-10.898
		C133.398,16.301,131.497,15.398,129.18,15.398z"/>
	<path d="M179.031,11.904c0.873-2.363-0.064,1.239-2.813,10.8c-0.501,1.239-1.438,3.994-2.813,8.269
		c-0.252,1.126-0.126,3.151,0.375,6.075c0.498,2.813,0.563,4.611,0.188,5.399c-2.877,2.363-5.063,1.968-6.563-1.181
		c-0.126-0.564,0.062-1.63,0.563-3.206c0.873-2.136,1.187-3.655,0.938-4.557c-0.375-0.899-1.626-1.743-3.75-2.531
		c-1.002-0.338-0.938-0.506,0.188-0.506c2.499,0.227,4.248-0.225,5.25-1.351C173.342,24.505,176.154,18.768,179.031,11.904z
		 M171.719,17.473c1.248,1.35,1.313,2.758,0.188,4.219c-1.5,1.577-2.877,1.745-4.125,0.506c-0.375-0.224-0.563-0.729-0.563-1.519
		c-0.126-1.688-0.938-3.037-2.438-4.05c-0.627-0.448,0.311-0.562,2.813-0.338C169.592,16.519,170.969,16.911,171.719,17.473z
		 M175.656,8.022c1.749,1.351,1.875,2.982,0.375,4.894c-1.875,1.577-3.375,1.351-4.5-0.675c-0.126-0.11-0.252-0.448-0.375-1.013
		c-0.126-1.798-0.814-3.093-2.063-3.881c-0.75-0.448,0-0.562,2.25-0.338C173.093,7.124,174.531,7.461,175.656,8.022z
		 M206.969,10.554h-3c-0.627,0.113-0.938,0.675-0.938,1.688v28.013c-0.126,2.587-2.438,3.881-6.938,3.881
		c-0.75,0-1.189-0.396-1.313-1.181c-0.126-1.577-1.189-2.477-3.188-2.7c-1.251-0.224-1.752-0.393-1.5-0.506
		c0.249-0.111,1.313-0.169,3.188-0.169c2.625,0.113,3.938-0.617,3.938-2.194V10.554h-16.688c-0.627,0-1.063-0.11-1.313-0.337
		c-0.126-0.111,0.123-0.225,0.75-0.338h19.688l0.75-0.844c1.248-1.461,2.124-2.193,2.625-2.193c1.749,0.675,3.437,1.745,5.063,3.206
		C208.094,10.385,207.719,10.554,206.969,10.554z M194.406,20.173v10.462c0.249,1.239-1.002,1.915-3.75,2.025
		c-1.251,0.227-1.813-0.169-1.688-1.182v-1.688h-3.75v2.194c-0.126,0.788-1.189,1.35-3.188,1.688h-0.375
		c-1.125,0.337-1.626-0.056-1.5-1.182V17.135c-0.375-1.236,1.313-1.123,5.063,0.338h2.813c0.249,0.113,0.624-0.224,1.125-1.013
		c0.375-0.675,0.75-1.013,1.125-1.013c3.249,1.239,4.998,2.252,5.25,3.038c0,0.227-0.188,0.506-0.563,0.844
		C194.594,19.666,194.406,19.948,194.406,20.173z M185.219,20.004v8.943h3.75v-10.8h-2.25
		C185.594,18.147,185.093,18.768,185.219,20.004z"/>
	<path d="M244.281,33.335h-30.938c-0.375,0-0.688-0.055-0.938-0.169c-0.126-0.224,0-0.393,0.375-0.506h24.188
		c0.123,0,0.563-0.448,1.313-1.35c0.873-1.461,1.562-2.194,2.063-2.194c1.374,0.451,3,1.577,4.875,3.375
		c0.375,0.451,0.498,0.675,0.375,0.675C245.468,33.394,245.031,33.448,244.281,33.335z M247.094,11.397l-1.875,13.5h2.25
		c0.123,0,0.375-0.279,0.75-0.844c0.498-0.675,0.938-1.123,1.313-1.35c2.748,0.337,4.875,1.576,6.375,3.712
		c0,0.338-0.375,0.733-1.125,1.182c-0.375,0.338-0.563,0.564-0.563,0.675c-0.627,7.876-1.688,12.487-3.188,13.838
		c-1.875,1.688-4.313,2.531-7.313,2.531c-0.501-0.227-0.814-0.675-0.938-1.351c-0.375-1.576-1.626-2.645-3.75-3.206
		c-1.5-0.448-1.377-0.675,0.375-0.675c2.748-0.11,4.688-0.393,5.813-0.844c1.749,0.113,2.813-4.161,3.188-12.825h-19.875
		c-0.126,0-0.439,0.282-0.938,0.844c-0.75,0.902-1.251,1.351-1.5,1.351c-1.5-0.111-3-0.73-4.5-1.856
		c-0.876-0.448-0.876-0.955,0-1.519c0.624-0.448,0.938-0.786,0.938-1.013c0.249-1.688,0.624-5.4,1.125-11.138
		c0-1.013,0.563-1.461,1.688-1.35c4.5,0.45,5.874,1.294,4.125,2.531l-0.375,0.337l-1.125,10.969h11.625l2.063-16.031h-23.063
		c-0.501,0-0.814-0.11-0.938-0.337c-0.126-0.225,0.062-0.394,0.563-0.507h22.5l0.938-1.013c0.624-0.785,1.061-1.236,1.313-1.35
		c2.25,0.227,4.248,1.464,6,3.713c0,0.337-0.375,0.732-1.125,1.181C247.343,11.005,247.094,11.287,247.094,11.397z"/>
</g>
</svg>
