<?xml version="1.0" encoding="utf-8"?>
<!-- Generator: Adobe Illustrator 14.0.0, SVG Export Plug-In . SVG Version: 6.00 Build 43363)  -->
<!DOCTYPE svg PUBLIC "-//W3C//DTD SVG 1.1//EN" "http://www.w3.org/Graphics/SVG/1.1/DTD/svg11.dtd">
<svg version="1.1" id="图层_1" xmlns="http://www.w3.org/2000/svg" xmlns:xlink="http://www.w3.org/1999/xlink" x="0px" y="0px"
	 width="191.531px" height="52.664px" viewBox="0 0 191.531 52.664" enable-background="new 0 0 191.531 52.664"
	 xml:space="preserve">
<g>
	<path fill="#EB1B23" d="M10.079,0v18.984c2.317-2.32,4.16-3.803,5.527-4.447s2.728-0.967,4.082-0.967
		c1.641,0,3.047,0.404,4.219,1.213s2.044,2.08,2.617,3.814c0.391,1.219,0.586,3.434,0.586,6.645v9.141
		c0,1.641,0.156,2.766,0.469,3.375c0.208,0.445,0.56,0.803,1.055,1.072c0.494,0.27,1.419,0.404,2.773,0.404v1.02H17.266v-1.02h0.664
		c1.328,0,2.252-0.182,2.773-0.545c0.521-0.363,0.885-0.908,1.094-1.635c0.078-0.305,0.117-1.195,0.117-2.672v-9.141
		c0-2.836-0.163-4.699-0.488-5.59c-0.326-0.891-0.847-1.559-1.563-2.004c-0.717-0.445-1.582-0.668-2.598-0.668
		s-2.077,0.246-3.184,0.738c-1.107,0.492-2.441,1.488-4.004,2.988v13.676c0,1.781,0.11,2.889,0.332,3.322
		c0.221,0.434,0.631,0.797,1.23,1.09c0.599,0.293,1.627,0.439,3.086,0.439v1.02H0.469v-1.02c1.275,0,2.278-0.176,3.008-0.527
		c0.416-0.188,0.748-0.545,0.996-1.072c0.247-0.527,0.371-1.611,0.371-3.252V10.934c0-2.953-0.078-4.77-0.234-5.449
		S4.212,4.342,3.887,4.096C3.561,3.85,3.125,3.727,2.579,3.727c-0.417,0-1.12,0.152-2.109,0.457L0,3.164L8.633,0H10.079z"/>
	<path fill="#EB1B23" d="M43.75,13.57v20.813c0,1.641,0.13,2.725,0.391,3.252c0.26,0.527,0.645,0.926,1.152,1.195
		s1.451,0.404,2.832,0.404v1.02H34.141v-1.02c1.406,0,2.35-0.123,2.832-0.369c0.481-0.246,0.859-0.65,1.133-1.213
		s0.41-1.652,0.41-3.27v-9.984c0-2.813-0.092-4.629-0.273-5.449c-0.156-0.609-0.391-1.031-0.703-1.266s-0.742-0.352-1.289-0.352
		c-0.573,0-1.276,0.141-2.109,0.422l-0.469-1.02l8.672-3.164H43.75z M41.133,0c0.885,0,1.634,0.281,2.246,0.844
		c0.611,0.563,0.918,1.242,0.918,2.039c0,0.773-0.307,1.447-0.918,2.021c-0.612,0.574-1.361,0.861-2.246,0.861
		c-0.886,0-1.641-0.287-2.266-0.861S37.93,3.656,37.93,2.883c0-0.797,0.306-1.477,0.918-2.039C39.459,0.281,40.221,0,41.133,0z"/>
	<path fill="#EB1B23" d="M49.61,16.91l8.867-3.234h1.211v6.047c1.484-2.273,2.975-3.867,4.473-4.781
		c1.497-0.914,3.079-1.371,4.746-1.371c2.891,0,5.299,1.02,7.227,3.059c2.369,2.484,3.555,5.73,3.555,9.738
		c0,4.477-1.433,8.168-4.297,11.074c-2.344,2.414-5.3,3.621-8.867,3.621c-1.537,0-2.878-0.199-4.023-0.598
		c-0.834-0.281-1.771-0.855-2.813-1.723v7.91c0,1.781,0.123,2.912,0.371,3.393c0.247,0.48,0.664,0.861,1.25,1.143
		s1.673,0.422,3.262,0.422v1.055H49.454v-1.055h0.781c1.172,0.023,2.161-0.176,2.969-0.598c0.391-0.211,0.696-0.545,0.918-1.002
		c0.221-0.457,0.332-1.635,0.332-3.533V21.973c0-1.688-0.085-2.754-0.254-3.199c-0.17-0.445-0.437-0.785-0.801-1.02
		c-0.365-0.234-0.859-0.352-1.484-0.352c-0.495,0-1.133,0.141-1.914,0.422L49.61,16.91z M59.688,21.41v9.668
		c0,2.109,0.091,3.492,0.273,4.148c0.313,1.078,1.035,2.033,2.168,2.865s2.571,1.248,4.316,1.248c2.109,0,3.802-0.738,5.078-2.215
		c1.719-1.922,2.578-4.629,2.578-8.121c0-3.961-0.964-7.008-2.891-9.141c-1.354-1.453-2.956-2.18-4.805-2.18
		c-0.99,0-1.979,0.223-2.969,0.668C62.682,18.68,61.432,19.699,59.688,21.41z"/>
	<path d="M138.282,11.566v6.244c-0.126,1.126-1.5,1.688-4.125,1.688c-1.5,0.113-2.127-0.28-1.875-1.182v-1.35h-22.313
		c0,11.926-2.063,19.52-6.188,22.781c-1.626,1.573-2.751,2.473-3.375,2.699c-0.375,0,0-0.788,1.125-2.362
		c1.125-1.798,1.875-3.937,2.25-6.412c0.249-1.123,0.437-2.418,0.563-3.882c0.123-1.236,0.188-3.037,0.188-5.399
		c0-2.474,0-6.244,0-11.307c0-1.123,0-2.024,0-2.7c-0.375-3.037,0.311-4.16,2.063-3.375c0.375,0.228,1.061,0.507,2.063,0.844
		c1.998,0.676,3.498,0.958,4.5,0.844h18c0.249,0,0.686-0.448,1.313-1.35c0.498-0.675,0.873-1.067,1.125-1.182
		c2.874,1.013,4.937,2.252,6.188,3.713c0,0.338-0.313,0.675-0.938,1.013C138.469,11.229,138.282,11.456,138.282,11.566z
		 M110.157,11.229l-0.188,5.063h22.313V9.373h-19.313C110.842,9.486,109.905,10.105,110.157,11.229z M130.219,22.366v8.606
		c1.374-1.461,3-4.105,4.875-7.932c0.249-1.012,0.938-1.181,2.063-0.506c0,0.113,0.437,0.451,1.313,1.013
		c1.623,0.901,2.625,1.519,3,1.856c-0.126,0.45-0.563,0.788-1.313,1.012c-0.876,0.228-1.688,0.507-2.438,0.844
		c-1.626,1.013-4.125,2.59-7.5,4.726v4.219c-0.126,1.688,1.061,2.531,3.563,2.531c1.623,0,2.874-0.448,3.75-1.351
		c0.624-0.898,1.248-2.193,1.875-3.881c0.249-0.675,0.437-1.013,0.563-1.013c0.123,0,0.188,0.338,0.188,1.013
		c0,2.139,0.812,3.826,2.438,5.063c0.624,0.564,0.938,1.013,0.938,1.35c-0.501,1.688-3.126,2.643-7.875,2.869h-3
		c-5.751,0-8.438-1.464-8.063-4.388v-2.7c-2.127,1.013-4.377,2.477-6.75,4.388c-1.125,0.562-2.188,1.351-3.188,2.362
		c-0.627,0.562-1.002,0.844-1.125,0.844c-1.626-1.012-2.751-2.699-3.375-5.063c0-0.11,0.249-0.337,0.75-0.675
		c0.873-0.448,1.313-0.954,1.313-1.519V21.354c-0.126-1.123,0.311-1.688,1.313-1.688c2.748,0.228,4.374,0.564,4.875,1.013
		c0,0.338-0.188,0.675-0.563,1.013c-0.627,0.451-0.876,0.901-0.75,1.35v4.726h0.563c0.123,0,0.498-0.393,1.125-1.182
		c0.75-1.013,1.313-1.519,1.688-1.519c0.873,0.113,2.25,0.957,4.125,2.531v-6.75c-0.126-1.123,0.563-1.688,2.063-1.688
		c0.123,0.113,0.375,0.169,0.75,0.169c2.499,0.227,3.812,0.564,3.938,1.013c0,0.227-0.188,0.506-0.563,0.844
		C130.407,21.636,130.219,22.029,130.219,22.366z M117.094,28.441v7.932c0.375,0,1.187-0.169,2.438-0.507
		c2.748-0.448,4.436-0.844,5.063-1.181v-6.244H117.094z"/>
	<path d="M184.969,16.123c0,1.463,1.125,1.688,3.375,0.675c1.623,0.564,2.688,1.688,3.188,3.375
		c-0.252,0.901-1.688,1.295-4.313,1.181c-1.125,0-2.127,0-3,0c-3.252,0.228-4.688-1.067-4.313-3.881V9.035h-2.438
		c-1.25,0-1.813,0.506-1.688,1.519c-0.125,4.05-0.814,6.919-2.063,8.606c-1.25,1.801-3.875,3.544-7.875,5.231v15.862
		c-0.251,1.236-1.5,2.305-3.75,3.206c-2.127,0.675-3.188,0.338-3.188-1.013c0-0.901-0.938-1.745-2.813-2.531
		c-0.627-0.337-0.688-0.506-0.188-0.506c3.498,0.227,5.124-0.169,4.875-1.182V27.936h-4.5c-0.627,5.851-2.877,10.688-6.75,14.512
		c-1.626,1.351-2.063,1.574-1.313,0.676c1.749-1.915,2.874-5.456,3.375-10.632c0.498-4.388,0.498-12.205,0-23.456
		c-0.252-1.574,0.188-2.136,1.313-1.688c0.624,0.227,1.5,0.564,2.625,1.013c0.624,0.227,1.187,0.337,1.688,0.337h2.813l0.75-0.675
		c0.498-0.675,0.873-1.067,1.125-1.181c1.998,0.337,3.812,1.463,5.437,3.375c0,0.337-0.313,0.732-0.938,1.181
		c-0.375,0.338-0.563,0.564-0.563,0.675v11.307c4.248-1.013,6-6.186,5.25-15.525c-0.125-0.562-0.064-0.954,0.188-1.181
		c0.375-0.111,0.938-0.056,1.688,0.169c0.123,0.113,0.75,0.396,1.875,0.844c1.248,0.563,1.938,0.788,2.063,0.675h2.063
		c0.123,0,0.375-0.338,0.75-1.013c0.498-0.786,0.938-1.236,1.313-1.35c1.875,0.337,3.75,1.407,5.625,3.206
		c-0.125,0.337-0.5,0.732-1.125,1.181l-0.563,0.676V16.123z M156.469,18.822l-0.188,8.438h4.5v-8.438H156.469z M156.469,17.979
		h4.313V9.541h-2.438c-1.125-0.11-1.688,0.396-1.688,1.52C156.531,15.11,156.469,17.417,156.469,17.979z M171.094,24.897h-1.125
		c-0.627,0-1.063-0.11-1.313-0.337c-0.252-0.111-0.064-0.225,0.563-0.338h10.313c0.123,0,0.375-0.279,0.75-0.844
		c0.498-0.675,0.938-1.067,1.313-1.182c2.125,0.564,4.248,1.688,6.375,3.375c0,0.338-0.439,0.733-1.313,1.182
		c-0.75,0.338-1.125,0.62-1.125,0.844c-1.875,3.375-3.5,5.906-4.875,7.594c2.125,1.688,5.186,2.982,9.188,3.881
		c1.248,0.228,1.75,0.396,1.5,0.507c-1.125,0.451-2.25,1.292-3.375,2.531c-0.252,0.224-0.5,0.506-0.75,0.844
		c-0.5,1.123-1.25,1.405-2.25,0.844c-2.625-1.351-5.188-3.096-7.688-5.231c-4.5,3.037-9,4.894-13.5,5.568
		c5.125-2.589,8.875-5.342,11.25-8.269C173.156,32.268,171.844,28.61,171.094,24.897z M180.281,24.897h-7.688
		c0.75,2.813,2.25,5.345,4.5,7.594C178.469,30.355,179.531,27.824,180.281,24.897z"/>
</g>
</svg>
