<?xml version="1.0" encoding="utf-8"?>
<!-- Generator: Adobe Illustrator 14.0.0, SVG Export Plug-In . SVG Version: 6.00 Build 43363)  -->
<!DOCTYPE svg PUBLIC "-//W3C//DTD SVG 1.1//EN" "http://www.w3.org/Graphics/SVG/1.1/DTD/svg11.dtd">
<svg version="1.1" id="图层_1" xmlns="http://www.w3.org/2000/svg" xmlns:xlink="http://www.w3.org/1999/xlink" x="0px" y="0px"
	 width="641.25px" height="39.577px" viewBox="0 0 641.25 39.577" enable-background="new 0 0 641.25 39.577" xml:space="preserve">
<g>
	<path fill="#FF0099" d="M26.719,22.228l0.791,0.158l-2.754,7.805H0v-0.791h1.201c1.348,0,2.314-0.396,2.9-1.187
		C4.434,27.756,4.6,26.71,4.6,25.075V6.513c0-1.811-0.225-2.936-0.674-3.375C3.32,2.505,2.412,2.188,1.201,2.188H0V1.397h14.473
		v0.791c-1.699-0.018-2.891,0.123-3.574,0.422c-0.684,0.299-1.147,0.677-1.392,1.134C9.262,4.201,9.141,5.282,9.141,6.987v18.088
		c0,1.178,0.117,1.986,0.352,2.426C9.687,27.8,9.98,28.02,10.371,28.16c0.391,0.141,1.621,0.211,3.691,0.211h2.314
		c2.461,0,4.185-0.162,5.171-0.487c0.986-0.325,1.89-0.901,2.71-1.728S25.898,24.021,26.719,22.228z"/>
	<path fill="#FF0099" d="M33.662,18.062c0,2.9,0.781,5.168,2.344,6.803c1.582,1.635,3.428,2.452,5.537,2.452
		c1.425,0,2.661-0.347,3.706-1.042c1.045-0.693,1.919-1.894,2.622-3.599l0.732,0.422c-0.333,1.934-1.289,3.7-2.871,5.3
		s-3.574,2.399-5.977,2.399c-2.598,0-4.819-0.909-6.665-2.729c-1.846-1.818-2.769-4.267-2.769-7.343
		c0-3.322,0.947-5.915,2.842-7.778c1.894-1.863,4.277-2.795,7.148-2.795c2.421,0,4.409,0.717,5.962,2.148
		c1.553,1.434,2.329,3.354,2.329,5.762H33.662z M33.662,16.849h10.02c-0.078-1.248-0.245-2.127-0.498-2.637
		c-0.392-0.791-0.978-1.415-1.758-1.872c-0.781-0.457-1.593-0.686-2.432-0.686c-1.309,0-2.48,0.457-3.516,1.371
		C34.443,13.939,33.838,15.214,33.662,16.849z"/>
	<path fill="#FF0099" d="M65.449,10.178v6.618h-0.762c-0.605-2.074-1.377-3.489-2.314-4.245s-2.129-1.134-3.574-1.134
		c-1.095,0-1.982,0.264-2.666,0.791c-0.685,0.527-1.025,1.107-1.025,1.74c0,0.791,0.253,1.468,0.762,2.03
		c0.487,0.58,1.483,1.195,2.988,1.846l3.428,1.529c3.203,1.389,4.805,3.234,4.805,5.537c0,1.758-0.747,3.182-2.241,4.271
		s-3.16,1.635-4.995,1.635c-1.309,0-2.813-0.22-4.512-0.659c-0.527-0.141-0.957-0.211-1.289-0.211c-0.352,0-0.635,0.185-0.85,0.554
		h-0.762v-6.935h0.762c0.449,1.986,1.294,3.48,2.534,4.482s2.632,1.503,4.175,1.503c1.073,0,1.952-0.285,2.637-0.856
		c0.684-0.571,1.025-1.262,1.025-2.07c0-0.984-0.381-1.807-1.143-2.465c-0.762-0.66-2.28-1.499-4.556-2.519
		s-3.765-1.942-4.468-2.769c-0.703-0.809-1.055-1.828-1.055-3.059c0-1.6,0.604-2.936,1.816-4.008
		c1.211-1.072,2.783-1.608,4.717-1.608c0.859,0,1.894,0.158,3.105,0.475c0.801,0.211,1.328,0.316,1.582,0.316
		c0.253,0,0.454-0.048,0.601-0.146c0.146-0.096,0.317-0.312,0.513-0.646H65.449z"/>
	<path fill="#FF0099" d="M84.258,10.178v6.618h-0.762c-0.605-2.074-1.377-3.489-2.314-4.245s-2.129-1.134-3.574-1.134
		c-1.095,0-1.982,0.264-2.666,0.791c-0.685,0.527-1.025,1.107-1.025,1.74c0,0.791,0.253,1.468,0.762,2.03
		c0.487,0.58,1.483,1.195,2.988,1.846l3.428,1.529c3.203,1.389,4.805,3.234,4.805,5.537c0,1.758-0.747,3.182-2.241,4.271
		s-3.16,1.635-4.995,1.635c-1.309,0-2.813-0.22-4.512-0.659c-0.527-0.141-0.957-0.211-1.289-0.211c-0.352,0-0.635,0.185-0.85,0.554
		H71.25v-6.935h0.762c0.449,1.986,1.294,3.48,2.534,4.482s2.632,1.503,4.175,1.503c1.073,0,1.952-0.285,2.637-0.856
		c0.684-0.571,1.025-1.262,1.025-2.07c0-0.984-0.381-1.807-1.143-2.465c-0.762-0.66-2.28-1.499-4.556-2.519
		s-3.765-1.942-4.468-2.769c-0.703-0.809-1.055-1.828-1.055-3.059c0-1.6,0.604-2.936,1.816-4.008
		c1.211-1.072,2.783-1.608,4.717-1.608c0.859,0,1.894,0.158,3.105,0.475c0.801,0.211,1.328,0.316,1.582,0.316
		c0.253,0,0.454-0.048,0.601-0.146c0.146-0.096,0.317-0.312,0.513-0.646H84.258z"/>
	<path fill="#FF0099" d="M99.668,10.178c3.281,0,5.907,1.116,7.881,3.349c1.68,1.916,2.52,4.113,2.52,6.592
		c0,1.74-0.464,3.498-1.392,5.273s-2.202,3.12-3.823,4.034c-1.622,0.914-3.438,1.371-5.449,1.371c-3.242,0-5.83-1.169-7.764-3.507
		c-1.602-1.969-2.402-4.175-2.402-6.618c0-1.793,0.487-3.568,1.465-5.326c0.977-1.758,2.266-3.059,3.867-3.902
		C96.171,10.6,97.87,10.178,99.668,10.178z M98.936,11.549c-0.82,0-1.655,0.224-2.505,0.673c-0.85,0.447-1.533,1.23-2.051,2.346
		c-0.518,1.117-0.776,2.554-0.776,4.312c0,2.83,0.625,5.27,1.875,7.317c1.249,2.048,2.9,3.071,4.951,3.071
		c1.523,0,2.778-0.563,3.765-1.688s1.479-3.067,1.479-5.827c0-3.463-0.82-6.188-2.461-8.174
		C102.1,12.226,100.674,11.549,98.936,11.549z"/>
	<path fill="#FF0099" d="M119.531,14.291c2.538-2.742,4.961-4.113,7.266-4.113c1.172,0,2.183,0.264,3.032,0.791
		s1.527,1.397,2.036,2.61c0.332,0.861,0.498,2.171,0.498,3.929v8.279c0,1.23,0.117,2.065,0.352,2.505
		c0.176,0.352,0.454,0.629,0.835,0.83c0.381,0.203,1.088,0.304,2.124,0.304v0.765H124.98v-0.765h0.469
		c0.996,0,1.694-0.136,2.095-0.409c0.4-0.271,0.678-0.681,0.835-1.226c0.077-0.211,0.117-0.879,0.117-2.004v-7.963
		c0-1.758-0.259-3.036-0.776-3.837c-0.518-0.799-1.382-1.199-2.593-1.199c-1.875,0-3.74,0.923-5.596,2.769v10.23
		c0,1.318,0.088,2.136,0.264,2.452c0.234,0.404,0.542,0.703,0.923,0.896s1.157,0.29,2.329,0.29v0.765h-10.664v-0.765h0.469
		c1.094,0,1.835-0.251,2.227-0.751c0.391-0.502,0.586-1.464,0.586-2.888v-7.198c0-2.338-0.059-3.762-0.176-4.271
		s-0.298-0.857-0.542-1.041c-0.244-0.186-0.571-0.277-0.981-0.277c-0.45,0-0.978,0.105-1.582,0.316l-0.352-0.765l6.504-2.373h0.996
		V14.291z"/>
	<path fill="#FF0099" d="M165.615,0.738c4.141,0,7.734,1.42,10.781,4.259s4.57,6.385,4.57,10.639c0,4.377-1.534,8.007-4.6,10.89
		c-3.066,2.883-6.778,4.324-11.133,4.324c-4.395,0-8.091-1.406-11.089-4.219s-4.497-6.46-4.497-10.942
		c0-4.57,1.729-8.297,5.186-11.18C157.841,1.995,161.436,0.738,165.615,0.738z M165.176,2.294c-2.871,0-5.167,0.958-6.885,2.874
		c-2.168,2.373-3.252,5.854-3.252,10.441c0,4.693,1.123,8.306,3.369,10.837c1.699,1.934,3.955,2.9,6.768,2.9
		c3.007,0,5.493-1.055,7.456-3.164s2.944-5.432,2.944-9.967c0-4.939-1.084-8.613-3.252-11.021
		C170.605,3.261,168.223,2.294,165.176,2.294z"/>
	<path fill="#FF0099" d="M190.635,14.291c2.538-2.742,4.961-4.113,7.266-4.113c1.172,0,2.183,0.264,3.032,0.791
		s1.527,1.397,2.036,2.61c0.332,0.861,0.498,2.171,0.498,3.929v8.279c0,1.23,0.117,2.065,0.352,2.505
		c0.176,0.352,0.454,0.629,0.835,0.83c0.381,0.203,1.088,0.304,2.124,0.304v0.765h-10.693v-0.765h0.469
		c0.996,0,1.694-0.136,2.095-0.409c0.4-0.271,0.678-0.681,0.835-1.226c0.077-0.211,0.117-0.879,0.117-2.004v-7.963
		c0-1.758-0.259-3.036-0.776-3.837c-0.518-0.799-1.382-1.199-2.593-1.199c-1.875,0-3.74,0.923-5.596,2.769v10.23
		c0,1.318,0.088,2.136,0.264,2.452c0.234,0.404,0.542,0.703,0.923,0.896s1.157,0.29,2.329,0.29v0.765h-10.664v-0.765h0.469
		c1.094,0,1.835-0.251,2.227-0.751c0.391-0.502,0.586-1.464,0.586-2.888v-7.198c0-2.338-0.059-3.762-0.176-4.271
		s-0.298-0.857-0.542-1.041c-0.244-0.186-0.571-0.277-0.981-0.277c-0.45,0-0.978,0.105-1.582,0.316l-0.352-0.765l6.504-2.373h0.996
		V14.291z"/>
	<path fill="#FF0099" d="M212.109,18.062c0,2.9,0.78,5.168,2.344,6.803c1.582,1.635,3.428,2.452,5.537,2.452
		c1.425,0,2.661-0.347,3.706-1.042c1.045-0.693,1.919-1.894,2.622-3.599l0.732,0.422c-0.333,1.934-1.289,3.7-2.871,5.3
		s-3.574,2.399-5.977,2.399c-2.598,0-4.819-0.909-6.665-2.729c-1.846-1.818-2.769-4.267-2.769-7.343
		c0-3.322,0.947-5.915,2.842-7.778c1.894-1.863,4.277-2.795,7.148-2.795c2.421,0,4.409,0.717,5.962,2.148
		c1.553,1.434,2.329,3.354,2.329,5.762H212.109z M212.109,16.849h10.02c-0.078-1.248-0.245-2.127-0.498-2.637
		c-0.392-0.791-0.978-1.415-1.758-1.872c-0.781-0.457-1.593-0.686-2.432-0.686c-1.309,0-2.48,0.457-3.516,1.371
		C212.89,13.939,212.285,15.214,212.109,16.849z"/>
	<path fill="#0099CC" d="M274.57,14.766h14.854V6.513c0-1.459-0.099-2.426-0.293-2.9c-0.157-0.352-0.488-0.65-0.996-0.896
		c-0.685-0.352-1.396-0.527-2.139-0.527h-1.143V1.397h13.682v0.791h-1.143c-0.743,0-1.455,0.167-2.139,0.501
		c-0.509,0.229-0.85,0.571-1.025,1.028s-0.264,1.389-0.264,2.795v18.589c0,1.459,0.098,2.417,0.293,2.874
		c0.156,0.352,0.479,0.659,0.967,0.923c0.703,0.334,1.425,0.501,2.168,0.501h1.143v0.791h-13.682v-0.791h1.143
		c1.289,0,2.236-0.343,2.842-1.028c0.391-0.457,0.586-1.547,0.586-3.27v-8.78H274.57v8.78c0,1.459,0.098,2.417,0.293,2.874
		c0.156,0.352,0.487,0.659,0.996,0.923c0.684,0.334,1.396,0.501,2.139,0.501h1.172v0.791h-13.711v-0.791h1.143
		c1.308,0,2.266-0.343,2.871-1.028c0.37-0.457,0.557-1.547,0.557-3.27V6.513c0-1.459-0.099-2.426-0.293-2.9
		c-0.157-0.352-0.479-0.65-0.967-0.896c-0.703-0.352-1.426-0.527-2.168-0.527h-1.143V1.397h13.711v0.791h-1.172
		c-0.743,0-1.455,0.167-2.139,0.501c-0.488,0.229-0.825,0.571-1.011,1.028s-0.278,1.389-0.278,2.795V14.766z"/>
	<path fill="#0099CC" d="M308.496,10.178v15.609c0,1.23,0.098,2.044,0.293,2.438c0.194,0.396,0.483,0.695,0.864,0.896
		c0.381,0.203,1.088,0.304,2.124,0.304v0.765h-10.488v-0.765c1.055,0,1.763-0.093,2.124-0.276c0.361-0.186,0.645-0.488,0.85-0.91
		s0.308-1.239,0.308-2.452v-7.488c0-2.109-0.069-3.472-0.205-4.087c-0.117-0.457-0.293-0.773-0.527-0.949s-0.557-0.264-0.967-0.264
		c-0.43,0-0.957,0.105-1.582,0.316l-0.352-0.765l6.504-2.373H308.496z M306.533,0c0.663,0,1.226,0.211,1.685,0.633
		s0.688,0.932,0.688,1.529c0,0.58-0.229,1.086-0.688,1.517s-1.021,0.646-1.685,0.646c-0.664,0-1.23-0.215-1.699-0.646
		s-0.703-0.937-0.703-1.517c0-0.598,0.229-1.107,0.688-1.529S305.849,0,306.533,0z"/>
	<path fill="#0099CC" d="M312.891,12.683l6.65-2.426h0.908v4.535c1.113-1.705,2.231-2.9,3.354-3.586s2.31-1.028,3.56-1.028
		c2.168,0,3.974,0.765,5.42,2.294c1.776,1.863,2.666,4.298,2.666,7.304c0,3.357-1.074,6.126-3.223,8.306
		c-1.758,1.811-3.975,2.716-6.65,2.716c-1.153,0-2.158-0.149-3.018-0.448c-0.626-0.211-1.329-0.642-2.109-1.292v5.933
		c0,1.336,0.093,2.184,0.278,2.545c0.186,0.359,0.498,0.646,0.938,0.856s1.255,0.316,2.446,0.316v0.791h-11.338v-0.791h0.586
		c0.879,0.018,1.621-0.132,2.227-0.448c0.293-0.158,0.522-0.408,0.688-0.752c0.166-0.342,0.249-1.226,0.249-2.649V16.479
		c0-1.266-0.063-2.065-0.19-2.399s-0.327-0.589-0.601-0.765c-0.274-0.176-0.645-0.264-1.113-0.264c-0.371,0-0.85,0.105-1.436,0.316
		L312.891,12.683z M320.449,16.058v7.251c0,1.582,0.068,2.619,0.205,3.111c0.234,0.809,0.776,1.525,1.626,2.149
		s1.929,0.936,3.237,0.936c1.582,0,2.852-0.554,3.809-1.661c1.289-1.441,1.934-3.472,1.934-6.091c0-2.971-0.723-5.256-2.168-6.855
		c-1.016-1.09-2.217-1.635-3.604-1.635c-0.743,0-1.484,0.167-2.227,0.501C322.694,14.01,321.757,14.774,320.449,16.058z"/>
	<path fill="#0099CC" d="M337.031,12.683l6.65-2.426h0.908v4.535c1.113-1.705,2.231-2.9,3.354-3.586s2.31-1.028,3.56-1.028
		c2.168,0,3.974,0.765,5.42,2.294c1.776,1.863,2.666,4.298,2.666,7.304c0,3.357-1.074,6.126-3.223,8.306
		c-1.758,1.811-3.975,2.716-6.65,2.716c-1.153,0-2.158-0.149-3.018-0.448c-0.626-0.211-1.329-0.642-2.109-1.292v5.933
		c0,1.336,0.093,2.184,0.278,2.545c0.186,0.359,0.498,0.646,0.938,0.856s1.255,0.316,2.446,0.316v0.791h-11.338v-0.791h0.586
		c0.879,0.018,1.621-0.132,2.227-0.448c0.293-0.158,0.522-0.408,0.688-0.752c0.166-0.342,0.249-1.226,0.249-2.649V16.479
		c0-1.266-0.063-2.065-0.19-2.399s-0.327-0.589-0.601-0.765c-0.274-0.176-0.645-0.264-1.113-0.264c-0.371,0-0.85,0.105-1.436,0.316
		L337.031,12.683z M344.59,16.058v7.251c0,1.582,0.068,2.619,0.205,3.111c0.234,0.809,0.776,1.525,1.626,2.149
		s1.929,0.936,3.237,0.936c1.582,0,2.852-0.554,3.809-1.661c1.289-1.441,1.934-3.472,1.934-6.091c0-2.971-0.723-5.256-2.168-6.855
		c-1.016-1.09-2.217-1.635-3.604-1.635c-0.743,0-1.484,0.167-2.227,0.501C346.835,14.01,345.897,14.774,344.59,16.058z"/>
	<path fill="#0099CC" d="M373.301,10.178c3.281,0,5.907,1.116,7.881,3.349c1.68,1.916,2.52,4.113,2.52,6.592
		c0,1.74-0.464,3.498-1.392,5.273s-2.202,3.12-3.823,4.034c-1.622,0.914-3.438,1.371-5.449,1.371c-3.242,0-5.83-1.169-7.764-3.507
		c-1.602-1.969-2.402-4.175-2.402-6.618c0-1.793,0.487-3.568,1.465-5.326c0.977-1.758,2.266-3.059,3.867-3.902
		C369.804,10.6,371.503,10.178,373.301,10.178z M372.568,11.549c-0.82,0-1.655,0.224-2.505,0.673
		c-0.85,0.447-1.533,1.23-2.051,2.346c-0.518,1.117-0.776,2.554-0.776,4.312c0,2.83,0.625,5.27,1.875,7.317
		c1.249,2.048,2.9,3.071,4.951,3.071c1.523,0,2.778-0.563,3.765-1.688s1.479-3.067,1.479-5.827c0-3.463-0.82-6.188-2.461-8.174
		C375.732,12.226,374.307,11.549,372.568,11.549z"/>
	<path fill="#0099CC" d="M405.293,0v14.238c1.738-1.74,3.12-2.852,4.146-3.335s2.046-0.726,3.062-0.726
		c1.23,0,2.285,0.304,3.164,0.909c0.879,0.607,1.533,1.561,1.963,2.861c0.293,0.914,0.439,2.575,0.439,4.983v6.855
		c0,1.23,0.117,2.074,0.352,2.531c0.156,0.334,0.42,0.603,0.791,0.804c0.37,0.203,1.064,0.304,2.08,0.304v0.765h-10.605v-0.765
		h0.498c0.996,0,1.688-0.136,2.08-0.409c0.391-0.271,0.663-0.681,0.82-1.226c0.059-0.229,0.088-0.896,0.088-2.004v-6.855
		c0-2.127-0.122-3.524-0.366-4.192s-0.635-1.169-1.172-1.503s-1.187-0.501-1.948-0.501s-1.558,0.185-2.388,0.554
		s-1.831,1.116-3.003,2.241v10.257c0,1.336,0.083,2.167,0.249,2.491c0.166,0.326,0.473,0.599,0.923,0.818
		c0.449,0.22,1.22,0.329,2.314,0.329v0.765h-10.693v-0.765c0.956,0,1.709-0.132,2.256-0.396c0.312-0.141,0.562-0.408,0.747-0.805
		c0.186-0.395,0.278-1.208,0.278-2.438V8.2c0-2.215-0.059-3.577-0.176-4.087s-0.298-0.856-0.542-1.042
		c-0.244-0.184-0.571-0.276-0.981-0.276c-0.313,0-0.84,0.114-1.582,0.343l-0.352-0.765L404.209,0H405.293z"/>
	<path fill="#0099CC" d="M435.322,27.396c-2.208,1.529-3.594,2.417-4.16,2.663c-0.86,0.352-1.769,0.527-2.725,0.527
		c-1.484,0-2.71-0.457-3.677-1.371s-1.45-2.127-1.45-3.639c0-0.949,0.234-1.767,0.703-2.452c0.645-0.967,1.763-1.872,3.354-2.716
		s4.243-1.881,7.954-3.111v-0.765c0-1.934-0.342-3.261-1.025-3.981c-0.685-0.721-1.681-1.081-2.988-1.081
		c-0.978,0-1.758,0.237-2.344,0.712c-0.605,0.492-0.908,1.046-0.908,1.661l0.059,1.239c0,0.65-0.187,1.151-0.557,1.503
		c-0.371,0.352-0.85,0.527-1.436,0.527s-1.065-0.185-1.436-0.554c-0.371-0.369-0.557-0.87-0.557-1.503
		c0-1.213,0.692-2.329,2.08-3.349c1.387-1.02,3.329-1.529,5.83-1.529c1.914,0,3.486,0.29,4.717,0.87
		c0.918,0.439,1.601,1.125,2.051,2.057c0.273,0.615,0.41,1.863,0.41,3.744v6.592c0,1.846,0.039,2.979,0.117,3.401
		c0.077,0.422,0.21,0.703,0.396,0.844s0.396,0.211,0.63,0.211c0.253,0,0.469-0.053,0.645-0.158c0.332-0.176,0.977-0.686,1.934-1.529
		v1.187c-1.777,2.109-3.468,3.164-5.068,3.164c-0.762,0-1.372-0.237-1.831-0.712S435.341,28.556,435.322,27.396z M435.322,25.998
		v-7.409c-2.363,0.861-3.896,1.468-4.6,1.819c-1.23,0.615-2.114,1.266-2.651,1.951s-0.806,1.424-0.806,2.215
		c0,1.02,0.337,1.868,1.011,2.544c0.674,0.678,1.45,1.016,2.329,1.016C431.796,28.134,433.369,27.422,435.322,25.998z"/>
	<path fill="#0099CC" d="M458.496,10.178v6.618h-0.762c-0.605-2.074-1.377-3.489-2.314-4.245s-2.129-1.134-3.574-1.134
		c-1.095,0-1.982,0.264-2.666,0.791c-0.685,0.527-1.025,1.107-1.025,1.74c0,0.791,0.253,1.468,0.762,2.03
		c0.487,0.58,1.483,1.195,2.988,1.846l3.428,1.529c3.203,1.389,4.805,3.234,4.805,5.537c0,1.758-0.747,3.182-2.241,4.271
		s-3.16,1.635-4.995,1.635c-1.309,0-2.813-0.22-4.512-0.659c-0.527-0.141-0.957-0.211-1.289-0.211c-0.352,0-0.635,0.185-0.85,0.554
		h-0.762v-6.935h0.762c0.449,1.986,1.294,3.48,2.534,4.482s2.632,1.503,4.175,1.503c1.073,0,1.952-0.285,2.637-0.856
		c0.684-0.571,1.025-1.262,1.025-2.07c0-0.984-0.381-1.807-1.143-2.465c-0.762-0.66-2.28-1.499-4.556-2.519
		s-3.765-1.942-4.468-2.769c-0.703-0.809-1.055-1.828-1.055-3.059c0-1.6,0.604-2.936,1.816-4.008
		c1.211-1.072,2.783-1.608,4.717-1.608c0.859,0,1.894,0.158,3.105,0.475c0.801,0.211,1.328,0.316,1.582,0.316
		c0.253,0,0.454-0.048,0.601-0.146c0.146-0.096,0.317-0.312,0.513-0.646H458.496z"/>
	<path fill="#0099CC" d="M487.646,27.396c-2.208,1.529-3.594,2.417-4.16,2.663c-0.86,0.352-1.769,0.527-2.725,0.527
		c-1.484,0-2.71-0.457-3.677-1.371s-1.45-2.127-1.45-3.639c0-0.949,0.234-1.767,0.703-2.452c0.645-0.967,1.763-1.872,3.354-2.716
		s4.243-1.881,7.954-3.111v-0.765c0-1.934-0.342-3.261-1.025-3.981c-0.685-0.721-1.681-1.081-2.988-1.081
		c-0.978,0-1.758,0.237-2.344,0.712c-0.605,0.492-0.908,1.046-0.908,1.661l0.059,1.239c0,0.65-0.187,1.151-0.557,1.503
		c-0.371,0.352-0.85,0.527-1.436,0.527s-1.065-0.185-1.436-0.554c-0.371-0.369-0.557-0.87-0.557-1.503
		c0-1.213,0.692-2.329,2.08-3.349c1.387-1.02,3.329-1.529,5.83-1.529c1.914,0,3.486,0.29,4.717,0.87
		c0.918,0.439,1.601,1.125,2.051,2.057c0.273,0.615,0.41,1.863,0.41,3.744v6.592c0,1.846,0.039,2.979,0.117,3.401
		c0.077,0.422,0.21,0.703,0.396,0.844s0.396,0.211,0.63,0.211c0.253,0,0.469-0.053,0.645-0.158c0.332-0.176,0.977-0.686,1.934-1.529
		v1.187c-1.777,2.109-3.468,3.164-5.068,3.164c-0.762,0-1.372-0.237-1.831-0.712S487.665,28.556,487.646,27.396z M487.646,25.998
		v-7.409c-2.363,0.861-3.896,1.468-4.6,1.819c-1.23,0.615-2.114,1.266-2.651,1.951s-0.806,1.424-0.806,2.215
		c0,1.02,0.337,1.868,1.011,2.544c0.674,0.678,1.45,1.016,2.329,1.016C484.12,28.134,485.693,27.422,487.646,25.998z"/>
	<path fill="#0099CC" d="M514.863,14.106c2.09-2.619,4.346-3.929,6.768-3.929c2.207,0,4.136,0.853,5.786,2.558
		s2.476,4.034,2.476,6.987c0,3.463-1.271,6.24-3.809,8.332c-2.188,1.828-4.629,2.742-7.324,2.742c-1.25,0-2.524-0.207-3.823-0.62
		c-1.299-0.412-2.622-1.032-3.97-1.858V8.174c0-2.197-0.059-3.551-0.176-4.061s-0.304-0.856-0.557-1.042
		c-0.254-0.184-0.567-0.276-0.938-0.276c-0.45,0-1.007,0.114-1.67,0.343l-0.322-0.765L513.779,0h1.084V14.106z M514.863,15.451
		v11.628c0.801,0.721,1.626,1.262,2.476,1.621c0.85,0.361,1.724,0.541,2.622,0.541c1.445,0,2.783-0.707,4.014-2.123
		c1.23-1.414,1.846-3.476,1.846-6.183c0-2.496-0.615-4.412-1.846-5.748s-2.637-2.004-4.219-2.004c-0.84,0-1.67,0.193-2.49,0.58
		C516.621,14.045,515.819,14.607,514.863,15.451z"/>
	<path fill="#0099CC" d="M540.527,10.178v15.609c0,1.23,0.098,2.044,0.293,2.438c0.194,0.396,0.483,0.695,0.864,0.896
		c0.381,0.203,1.088,0.304,2.124,0.304v0.765H533.32v-0.765c1.055,0,1.763-0.093,2.124-0.276c0.361-0.186,0.645-0.488,0.85-0.91
		s0.308-1.239,0.308-2.452v-7.488c0-2.109-0.069-3.472-0.205-4.087c-0.117-0.457-0.293-0.773-0.527-0.949s-0.557-0.264-0.967-0.264
		c-0.43,0-0.957,0.105-1.582,0.316l-0.352-0.765l6.504-2.373H540.527z M538.564,0c0.663,0,1.226,0.211,1.685,0.633
		s0.688,0.932,0.688,1.529c0,0.58-0.229,1.086-0.688,1.517s-1.021,0.646-1.685,0.646c-0.664,0-1.23-0.215-1.699-0.646
		s-0.703-0.937-0.703-1.517c0-0.598,0.229-1.107,0.688-1.529S537.88,0,538.564,0z"/>
	<path fill="#0099CC" d="M552.275,23.098c-1.329-0.58-2.344-1.389-3.047-2.426s-1.055-2.188-1.055-3.454
		c0-1.916,0.806-3.568,2.417-4.957s3.677-2.083,6.196-2.083c2.051,0,3.827,0.448,5.332,1.345h4.57c0.684,0,1.079,0.018,1.187,0.053
		s0.19,0.097,0.249,0.185c0.098,0.141,0.146,0.369,0.146,0.686c0,0.369-0.04,0.624-0.117,0.765c-0.059,0.07-0.146,0.128-0.264,0.172
		s-0.518,0.065-1.201,0.065h-2.783c0.879,1.02,1.318,2.32,1.318,3.902c0,1.811-0.772,3.362-2.314,4.653
		c-1.543,1.293-3.614,1.938-6.211,1.938c-1.074,0-2.168-0.149-3.281-0.448c-0.685,0.545-1.147,1.02-1.392,1.424
		s-0.366,0.747-0.366,1.028c0,0.246,0.127,0.479,0.381,0.698c0.253,0.221,0.762,0.383,1.523,0.488
		c0.449,0.053,1.553,0.105,3.311,0.158c3.241,0.07,5.342,0.167,6.299,0.29c1.465,0.176,2.632,0.664,3.501,1.464
		s1.304,1.779,1.304,2.939c0,1.6-0.831,3.094-2.49,4.482c-2.461,2.074-5.665,3.111-9.609,3.111c-3.028,0-5.596-0.615-7.705-1.846
		c-1.172-0.703-1.758-1.441-1.758-2.215c0-0.334,0.088-0.677,0.264-1.028c0.273-0.51,0.82-1.23,1.641-2.162
		c0.117-0.141,0.918-0.905,2.402-2.294c-0.802-0.439-1.372-0.835-1.714-1.187s-0.513-0.747-0.513-1.187
		c0-0.492,0.224-1.072,0.674-1.74C549.619,25.251,550.653,24.311,552.275,23.098z M552.041,30.19
		c-0.743,0.721-1.304,1.393-1.685,2.018c-0.381,0.623-0.571,1.199-0.571,1.727c0,0.668,0.458,1.257,1.377,1.767
		c1.563,0.879,3.838,1.318,6.826,1.318c2.813,0,4.893-0.448,6.24-1.345s2.021-1.854,2.021-2.874c0-0.738-0.4-1.266-1.201-1.582
		c-0.82-0.299-2.442-0.475-4.863-0.527C556.65,30.604,553.935,30.437,552.041,30.19z M556.377,11.206
		c-1.172,0-2.149,0.418-2.93,1.252c-0.781,0.836-1.172,2.114-1.172,3.837c0,2.232,0.527,3.964,1.582,5.194
		c0.82,0.932,1.864,1.397,3.135,1.397c1.19,0,2.173-0.404,2.944-1.213s1.157-2.074,1.157-3.797c0-2.25-0.547-4.008-1.641-5.273
		C558.651,11.672,557.626,11.206,556.377,11.206z"/>
	<path fill="#0099CC" d="M589.043,0v14.238c1.738-1.74,3.12-2.852,4.146-3.335s2.046-0.726,3.062-0.726
		c1.23,0,2.285,0.304,3.164,0.909c0.879,0.607,1.533,1.561,1.963,2.861c0.293,0.914,0.439,2.575,0.439,4.983v6.855
		c0,1.23,0.117,2.074,0.352,2.531c0.156,0.334,0.42,0.603,0.791,0.804c0.37,0.203,1.064,0.304,2.08,0.304v0.765h-10.605v-0.765
		h0.498c0.996,0,1.688-0.136,2.08-0.409c0.391-0.271,0.663-0.681,0.82-1.226c0.059-0.229,0.088-0.896,0.088-2.004v-6.855
		c0-2.127-0.122-3.524-0.366-4.192s-0.635-1.169-1.172-1.503s-1.187-0.501-1.948-0.501s-1.558,0.185-2.388,0.554
		s-1.831,1.116-3.003,2.241v10.257c0,1.336,0.083,2.167,0.249,2.491c0.166,0.326,0.473,0.599,0.923,0.818
		c0.449,0.22,1.22,0.329,2.314,0.329v0.765h-10.693v-0.765c0.956,0,1.709-0.132,2.256-0.396c0.312-0.141,0.562-0.408,0.747-0.805
		c0.186-0.395,0.278-1.208,0.278-2.438V8.2c0-2.215-0.059-3.577-0.176-4.087s-0.298-0.856-0.542-1.042
		c-0.244-0.184-0.571-0.276-0.981-0.276c-0.313,0-0.84,0.114-1.582,0.343l-0.352-0.765L587.959,0H589.043z"/>
	<path fill="#0099CC" d="M614.297,10.178v15.609c0,1.23,0.098,2.044,0.293,2.438c0.194,0.396,0.483,0.695,0.864,0.896
		c0.381,0.203,1.088,0.304,2.124,0.304v0.765H607.09v-0.765c1.055,0,1.763-0.093,2.124-0.276c0.361-0.186,0.645-0.488,0.85-0.91
		s0.308-1.239,0.308-2.452v-7.488c0-2.109-0.069-3.472-0.205-4.087c-0.117-0.457-0.293-0.773-0.527-0.949s-0.557-0.264-0.967-0.264
		c-0.43,0-0.957,0.105-1.582,0.316l-0.352-0.765l6.504-2.373H614.297z M612.334,0c0.663,0,1.226,0.211,1.685,0.633
		s0.688,0.932,0.688,1.529c0,0.58-0.229,1.086-0.688,1.517s-1.021,0.646-1.685,0.646c-0.664,0-1.23-0.215-1.699-0.646
		s-0.703-0.937-0.703-1.517c0-0.598,0.229-1.107,0.688-1.529S611.649,0,612.334,0z"/>
	<path fill="#0099CC" d="M618.691,12.683l6.65-2.426h0.908v4.535c1.113-1.705,2.231-2.9,3.354-3.586s2.31-1.028,3.56-1.028
		c2.168,0,3.974,0.765,5.42,2.294c1.776,1.863,2.666,4.298,2.666,7.304c0,3.357-1.074,6.126-3.223,8.306
		c-1.758,1.811-3.975,2.716-6.65,2.716c-1.153,0-2.158-0.149-3.018-0.448c-0.626-0.211-1.329-0.642-2.109-1.292v5.933
		c0,1.336,0.093,2.184,0.278,2.545c0.186,0.359,0.498,0.646,0.938,0.856s1.255,0.316,2.446,0.316v0.791h-11.338v-0.791h0.586
		c0.879,0.018,1.621-0.132,2.227-0.448c0.293-0.158,0.522-0.408,0.688-0.752c0.166-0.342,0.249-1.226,0.249-2.649V16.479
		c0-1.266-0.063-2.065-0.19-2.399s-0.327-0.589-0.601-0.765c-0.274-0.176-0.645-0.264-1.113-0.264c-0.371,0-0.85,0.105-1.436,0.316
		L618.691,12.683z M626.25,16.058v7.251c0,1.582,0.068,2.619,0.205,3.111c0.234,0.809,0.776,1.525,1.626,2.149
		s1.929,0.936,3.237,0.936c1.582,0,2.852-0.554,3.809-1.661c1.289-1.441,1.934-3.472,1.934-6.091c0-2.971-0.723-5.256-2.168-6.855
		c-1.016-1.09-2.217-1.635-3.604-1.635c-0.743,0-1.484,0.167-2.227,0.501C628.495,14.01,627.558,14.774,626.25,16.058z"/>
</g>
</svg>
