<?xml version="1.0" encoding="utf-8"?>
<!-- Generator: Adobe Illustrator 14.0.0, SVG Export Plug-In . SVG Version: 6.00 Build 43363)  -->
<!DOCTYPE svg PUBLIC "-//W3C//DTD SVG 1.1//EN" "http://www.w3.org/Graphics/SVG/1.1/DTD/svg11.dtd">
<svg version="1.1" id="图层_1" xmlns="http://www.w3.org/2000/svg" xmlns:xlink="http://www.w3.org/1999/xlink" x="0px" y="0px"
	 width="99px" height="99px" viewBox="0 0 99 99" enable-background="new 0 0 99 99" xml:space="preserve">
<g>
	<path d="M58.735,68.11c-2.109,1.97-4.17,3.394-6.182,4.271c-2.012,0.878-4.17,1.318-6.475,1.318c-4.727,0-8.848-1.784-12.363-5.353
		c-3.516-3.567-5.273-8.129-5.273-13.685c0-5.59,1.943-10.696,5.83-15.319c3.886-4.622,8.896-6.935,15.029-6.935
		c3.828,0,6.973,1.09,9.434,3.27v-7.172c0-4.43-0.117-7.153-0.352-8.174c-0.234-1.02-0.596-1.714-1.084-2.083
		c-0.489-0.369-1.124-0.554-1.904-0.554c-0.82,0-1.895,0.229-3.223,0.686l-0.645-1.529l12.891-4.746h2.109v44.982
		c0,4.535,0.117,7.313,0.352,8.332c0.234,1.021,0.615,1.723,1.143,2.109c0.527,0.388,1.143,0.58,1.846,0.58
		c0.82,0,1.934-0.245,3.34-0.738l0.527,1.529L60.903,73.7h-2.168V68.11z M58.735,65.157V45.118c-0.157-1.933-0.713-3.691-1.67-5.273
		c-0.958-1.582-2.208-2.776-3.75-3.586c-1.543-0.809-3.057-1.213-4.541-1.213c-2.774,0-5.254,1.126-7.441,3.375
		c-2.852,2.919-4.277,7.207-4.277,12.867c0,5.73,1.386,10.117,4.16,13.157c2.773,3.041,5.859,4.562,9.258,4.562
		C53.324,69.007,56.078,67.724,58.735,65.157z"/>
</g>
</svg>
