<?xml version="1.0" encoding="utf-8"?>
<!-- Generator: Adobe Illustrator 14.0.0, SVG Export Plug-In . SVG Version: 6.00 Build 43363)  -->
<!DOCTYPE svg PUBLIC "-//W3C//DTD SVG 1.1//EN" "http://www.w3.org/Graphics/SVG/1.1/DTD/svg11.dtd">
<svg version="1.1" id="图层_1" xmlns="http://www.w3.org/2000/svg" xmlns:xlink="http://www.w3.org/1999/xlink" x="0px" y="0px"
	 width="99px" height="99px" viewBox="0 0 99 99" enable-background="new 0 0 99 99" xml:space="preserve">
<g>
	<path d="M40.013,53.441c-2.657-1.16-4.688-2.776-6.094-4.852c-1.406-2.074-2.109-4.377-2.109-6.908
		c0-3.831,1.611-7.137,4.834-9.914c3.223-2.776,7.354-4.166,12.393-4.166c4.102,0,7.655,0.896,10.664,2.689h9.141
		c1.366,0,2.157,0.035,2.373,0.105c0.214,0.071,0.381,0.193,0.498,0.369c0.194,0.282,0.293,0.738,0.293,1.371
		c0,0.738-0.079,1.248-0.234,1.529c-0.117,0.141-0.293,0.256-0.527,0.343c-0.234,0.088-1.036,0.132-2.402,0.132h-5.566
		c1.758,2.039,2.637,4.641,2.637,7.805c0,3.621-1.544,6.724-4.629,9.308c-3.087,2.584-7.228,3.876-12.422,3.876
		c-2.149,0-4.336-0.298-6.563-0.896c-1.368,1.09-2.296,2.039-2.783,2.848c-0.489,0.81-0.732,1.495-0.732,2.057
		c0,0.493,0.253,0.958,0.762,1.397c0.507,0.44,1.523,0.765,3.047,0.976c0.897,0.105,3.105,0.211,6.621,0.316
		c6.483,0.141,10.683,0.335,12.598,0.58c2.93,0.352,5.263,1.327,7.002,2.927c1.737,1.601,2.607,3.56,2.607,5.88
		c0,3.198-1.661,6.188-4.98,8.965C61.517,84.325,55.109,86.4,47.22,86.4c-6.056,0-11.191-1.231-15.41-3.691
		c-2.344-1.406-3.516-2.883-3.516-4.43c0-0.668,0.176-1.354,0.527-2.057c0.546-1.021,1.641-2.461,3.281-4.324
		c0.234-0.282,1.835-1.812,4.805-4.588c-1.603-0.878-2.745-1.669-3.428-2.373c-0.685-0.703-1.025-1.494-1.025-2.373
		c0-0.983,0.448-2.144,1.348-3.48C34.699,57.748,36.77,55.867,40.013,53.441z M39.544,67.626c-1.485,1.441-2.607,2.786-3.369,4.034
		c-0.762,1.247-1.143,2.399-1.143,3.454c0,1.336,0.917,2.513,2.754,3.533c3.124,1.758,7.676,2.637,13.652,2.637
		c5.625,0,9.785-0.896,12.48-2.689s4.043-3.71,4.043-5.748c0-1.477-0.802-2.531-2.402-3.164c-1.641-0.599-4.884-0.949-9.727-1.055
		C48.762,68.452,43.332,68.119,39.544,67.626z M48.216,29.658c-2.344,0-4.298,0.836-5.859,2.505
		c-1.563,1.67-2.344,4.228-2.344,7.673c0,4.465,1.055,7.929,3.164,10.389c1.641,1.864,3.729,2.795,6.27,2.795
		c2.382,0,4.345-0.809,5.889-2.426c1.542-1.616,2.314-4.147,2.314-7.594c0-4.5-1.095-8.016-3.281-10.547
		C52.766,30.589,50.715,29.658,48.216,29.658z"/>
</g>
</svg>
