<?xml version="1.0" encoding="utf-8"?>
<!-- Generator: Adobe Illustrator 14.0.0, SVG Export Plug-In . SVG Version: 6.00 Build 43363)  -->
<!DOCTYPE svg PUBLIC "-//W3C//DTD SVG 1.1//EN" "http://www.w3.org/Graphics/SVG/1.1/DTD/svg11.dtd">
<svg version="1.1" id="图层_1" xmlns="http://www.w3.org/2000/svg" xmlns:xlink="http://www.w3.org/1999/xlink" x="0px" y="0px"
	 width="115.821px" height="80.775px" viewBox="0 0 115.821 80.775" enable-background="new 0 0 115.821 80.775"
	 xml:space="preserve">
<g>
	<path d="M43.048,18.408h17.578c0.23,0,0.818-0.818,1.758-2.461c0.934-2.109,1.758-3.279,2.461-3.516
		c6.328,1.879,10.426,4.807,12.305,8.789c-0.236,0.236-0.703,0.588-1.406,1.055c-1.176,0.939-1.758,1.643-1.758,2.109
		c0,16.875,0,29.18,0,36.914c-0.236,7.504-0.473,11.48-0.703,11.953c-1.176,2.813-3.867,5.037-8.086,6.68
		c-4.922,1.406-7.383,1.055-7.383-1.055c0.23-2.813-1.879-5.043-6.328-6.68c-1.176-0.467-1.055-0.703,0.352-0.703
		c5.152,0,8.438-0.582,9.844-1.758c0.934-0.703,1.521-4.098,1.758-10.195c0.23-5.389,0.352-18.512,0.352-39.375H42.345
		c-1.176,1.643-2.582,3.516-4.219,5.625c-1.643,2.813-2.697,4.455-3.164,4.922c0.703,0.236,1.758,0.588,3.164,1.055
		c1.406,0.703,2.813,1.055,4.219,1.055h4.57l0.703-1.406c0.467-0.934,0.934-1.637,1.406-2.109c4.922,0.939,8.316,2.697,10.195,5.273
		c0,0.473-0.236,1.055-0.703,1.758c-0.939,0.939-1.291,1.758-1.055,2.461V57.08c0,2.109-1.406,3.4-4.219,3.867
		c-3.516,0.939-5.043,0-4.57-2.813v-3.164H41.29v4.219c0.23,2.109-1.758,3.285-5.977,3.516c-2.109,0.473-2.934-0.352-2.461-2.461
		v-27.07c-1.879,2.109-4.104,4.219-6.68,6.328c-0.473,0.473-0.824,0.703-1.055,0.703c1.406,17.111,0.582,28.713-2.461,34.805
		c-1.643,2.576-4.455,4.449-8.438,5.625c-3.516,0.467-5.158-0.473-4.922-2.813c0.23-2.582-1.758-4.34-5.977-5.273
		c-1.406-0.23-1.291-0.467,0.352-0.703c4.922-0.23,8.086-0.703,9.492-1.406c3.279-3.043,4.57-11.25,3.867-24.609
		C5.546,57.08,0.036,61.299,0.509,58.486C8.71,48.176,13.632,38.568,15.274,29.658c-0.473-1.17-0.588-1.521-0.352-1.055
		c-0.703-2.34-1.055-3.746-1.055-4.219c-11.02,7.268-15.469,9.729-13.359,7.383c5.855-5.389,9.607-9.492,11.25-12.305
		c-2.109-4.219-5.043-7.85-8.789-10.898c0-1.637,4.098,0,12.305,4.922c1.17-1.873,2.813-5.037,4.922-9.492V3.643
		c0.23-2.109,1.521-2.576,3.867-1.406c7.031,4.219,9.02,6.916,5.977,8.086l-1.055,0.703c-1.643,1.176-3.988,3.4-7.031,6.68
		c-0.473,0.473-0.939,0.939-1.406,1.406c2.576,4.922,3.982,11.135,4.219,18.633c5.625-5.625,9.844-17.105,12.656-34.453V2.588
		c-0.236-2.109,1.055-2.928,3.867-2.461c10.074,2.813,13.008,4.922,8.789,6.328l-0.703,0.352
		C47.97,8.686,45.86,12.553,43.048,18.408z M41.29,37.393v16.172h7.383V34.229h-4.922C41.872,34.229,41.054,35.283,41.29,37.393z"/>
	<path d="M108.79,35.283c4.219,0.473,6.559,2.813,7.031,7.031c-0.473,4.455-2.813,6.801-7.031,7.031
		c-4.691-0.23-7.152-2.576-7.383-7.031C101.638,38.096,104.099,35.756,108.79,35.283z M108.79,62.002
		c4.219,0.473,6.559,2.813,7.031,7.031c-0.473,3.982-2.813,6.207-7.031,6.68c-4.691-0.473-7.152-2.697-7.383-6.68
		C101.638,64.814,104.099,62.475,108.79,62.002z"/>
</g>
</svg>
