<?xml version="1.0" encoding="utf-8"?>
<!-- Generator: Adobe Illustrator 14.0.0, SVG Export Plug-In . SVG Version: 6.00 Build 43363)  -->
<!DOCTYPE svg PUBLIC "-//W3C//DTD SVG 1.1//EN" "http://www.w3.org/Graphics/SVG/1.1/DTD/svg11.dtd">
<svg version="1.1" id="图层_1" xmlns="http://www.w3.org/2000/svg" xmlns:xlink="http://www.w3.org/1999/xlink" x="0px" y="0px"
	 width="222.223px" height="53.024px" viewBox="0 0 222.223 53.024" enable-background="new 0 0 222.223 53.024"
	 xml:space="preserve">
<g>
	<path d="M10.59,0.127V34.51c0,1.641,0.13,2.725,0.391,3.252c0.26,0.527,0.664,0.926,1.211,1.195s1.563,0.404,3.047,0.404v1.02
		H1.137v-1.02c1.328,0,2.232-0.123,2.715-0.369c0.481-0.246,0.853-0.65,1.113-1.213c0.26-0.563,0.391-1.652,0.391-3.27v-23.52
		c0-2.93-0.072-4.729-0.215-5.396C4.997,4.926,4.763,4.469,4.438,4.223c-0.326-0.246-0.736-0.369-1.23-0.369
		c-0.547,0-1.237,0.152-2.07,0.457L0.59,3.292l8.594-3.164H10.59z"/>
	<path d="M32.66,13.698c4.375,0,7.877,1.488,10.508,4.465c2.239,2.555,3.359,5.484,3.359,8.789c0,2.32-0.619,4.664-1.855,7.031
		c-1.237,2.367-2.937,4.16-5.098,5.379c-2.162,1.219-4.584,1.828-7.266,1.828c-4.323,0-7.773-1.559-10.352-4.676
		c-2.136-2.625-3.203-5.566-3.203-8.824c0-2.391,0.65-4.758,1.953-7.102c1.302-2.344,3.021-4.078,5.156-5.203
		C27.998,14.26,30.264,13.698,32.66,13.698z M31.684,15.526c-1.094,0-2.207,0.299-3.34,0.896s-2.045,1.641-2.734,3.129
		c-0.69,1.488-1.035,3.404-1.035,5.748c0,3.773,0.833,7.025,2.5,9.756c1.666,2.73,3.867,4.096,6.602,4.096
		c2.031,0,3.704-0.75,5.02-2.25c1.314-1.5,1.973-4.09,1.973-7.77c0-4.617-1.094-8.25-3.281-10.898
		C35.902,16.428,34.001,15.526,31.684,15.526z"/>
	<path d="M59.145,19.182c3.385-3.656,6.614-5.484,9.688-5.484c1.563,0,2.91,0.352,4.043,1.055s2.037,1.863,2.715,3.48
		c0.442,1.148,0.664,2.895,0.664,5.238V34.51c0,1.641,0.156,2.754,0.469,3.34c0.234,0.469,0.605,0.838,1.113,1.107
		s1.451,0.404,2.832,0.404v1.02H66.41v-1.02h0.625c1.328,0,2.259-0.182,2.793-0.545c0.533-0.363,0.904-0.908,1.113-1.635
		c0.104-0.281,0.156-1.172,0.156-2.672V23.893c0-2.344-0.346-4.049-1.035-5.115c-0.69-1.066-1.843-1.6-3.457-1.6
		c-2.5,0-4.987,1.23-7.461,3.691V34.51c0,1.758,0.117,2.848,0.352,3.27c0.313,0.539,0.723,0.938,1.23,1.195s1.543,0.387,3.105,0.387
		v1.02H49.613v-1.02h0.625c1.458,0,2.447-0.334,2.969-1.002c0.521-0.668,0.781-1.951,0.781-3.85v-9.598
		c0-3.117-0.078-5.016-0.234-5.695s-0.397-1.143-0.723-1.389c-0.326-0.246-0.762-0.369-1.309-0.369c-0.6,0-1.303,0.141-2.109,0.422
		l-0.469-1.02l8.672-3.164h1.328V19.182z"/>
	<path d="M90.668,30.924c-1.771-0.773-3.125-1.852-4.063-3.234s-1.406-2.918-1.406-4.605c0-2.555,1.074-4.758,3.223-6.609
		s4.902-2.777,8.262-2.777c2.734,0,5.104,0.598,7.109,1.793h6.094c0.911,0,1.438,0.023,1.582,0.07
		c0.143,0.047,0.254,0.129,0.332,0.246c0.13,0.188,0.195,0.492,0.195,0.914c0,0.492-0.053,0.832-0.156,1.02
		c-0.078,0.094-0.195,0.17-0.352,0.229s-0.69,0.088-1.602,0.088h-3.711c1.172,1.359,1.758,3.094,1.758,5.203
		c0,2.414-1.029,4.482-3.086,6.205c-2.058,1.723-4.818,2.584-8.281,2.584c-1.433,0-2.891-0.199-4.375-0.598
		c-0.912,0.727-1.53,1.359-1.855,1.898c-0.326,0.539-0.488,0.996-0.488,1.371c0,0.328,0.169,0.639,0.508,0.932
		c0.338,0.293,1.016,0.51,2.031,0.65c0.599,0.07,2.07,0.141,4.414,0.211c4.322,0.094,7.122,0.223,8.398,0.387
		c1.953,0.234,3.509,0.885,4.668,1.951c1.158,1.066,1.738,2.373,1.738,3.92c0,2.133-1.107,4.125-3.32,5.977
		c-3.281,2.766-7.553,4.148-12.813,4.148c-4.037,0-7.461-0.82-10.273-2.461c-1.563-0.938-2.344-1.922-2.344-2.953
		c0-0.445,0.117-0.902,0.352-1.371c0.364-0.68,1.094-1.641,2.188-2.883c0.156-0.188,1.224-1.207,3.203-3.059
		c-1.068-0.586-1.83-1.113-2.285-1.582c-0.456-0.469-0.684-0.996-0.684-1.582c0-0.656,0.299-1.43,0.898-2.32
		C87.126,33.795,88.506,32.542,90.668,30.924z M90.355,40.381c-0.99,0.961-1.738,1.857-2.246,2.689s-0.762,1.6-0.762,2.303
		c0,0.891,0.611,1.676,1.836,2.355c2.083,1.172,5.117,1.758,9.102,1.758c3.75,0,6.523-0.598,8.32-1.793s2.695-2.473,2.695-3.832
		c0-0.984-0.534-1.688-1.602-2.109c-1.094-0.398-3.256-0.633-6.484-0.703C96.501,40.932,92.881,40.709,90.355,40.381z
		 M96.137,15.069c-1.563,0-2.865,0.557-3.906,1.67c-1.042,1.113-1.563,2.818-1.563,5.115c0,2.977,0.703,5.285,2.109,6.926
		c1.094,1.242,2.486,1.863,4.18,1.863c1.588,0,2.896-0.539,3.926-1.617c1.028-1.078,1.543-2.766,1.543-5.063
		c0-3-0.729-5.344-2.188-7.031C99.17,15.69,97.803,15.069,96.137,15.069z"/>
	<path d="M147.41,9.332v14.006h18.75c0.123,0,0.498-0.448,1.125-1.35c1.125-1.574,1.875-2.362,2.25-2.362
		c0.75,0,2.063,0.788,3.938,2.362c0.249,0.227,0.498,0.337,0.75,0.337c0.498,0.564,0.75,1.013,0.75,1.351
		c0,0.337-0.252,0.506-0.75,0.506h-19.5c1.125,4.388,3.812,7.989,8.063,10.8c2.373,1.577,5.813,2.982,10.313,4.219l1.875,0.507
		c0,0.113-0.313,0.282-0.938,0.506c-2.127,0.225-3.688,1.013-4.688,2.362c-1.251,2.136-2.625,2.418-4.125,0.844
		c-7.251-4.498-11.127-10.91-11.625-19.237h-6.188V37.85c0,0.227,1.436,0,4.313-0.675c0.249,0,0.437-0.056,0.563-0.169
		c1.374-0.338,2.124-0.448,2.25-0.338c0.123,0.228-0.375,0.676-1.5,1.351c-0.252,0.227-1.063,0.844-2.438,1.856
		c-2.376,1.573-4.189,2.868-5.438,3.881c-0.876,0.899-1.438,1.292-1.688,1.182c-0.375,0-0.938-0.564-1.688-1.688
		c-0.75-1.013-1.251-1.688-1.5-2.025l-0.188-0.506c-0.501-0.448-0.375-0.844,0.375-1.182c0.873-0.338,1.313-0.899,1.313-1.688
		V24.012h-8.438c-0.627,0-1.063-0.11-1.313-0.337c-0.375-0.111-0.252-0.225,0.375-0.338h9.375v-16.2
		c-0.126-1.236,0.686-1.742,2.438-1.519c0.498,0.113,0.999,0.227,1.5,0.338c1.749,0.113,2.625,0.282,2.625,0.506
		c0,0.338-0.126,0.675-0.375,1.013C147.598,8.04,147.41,8.657,147.41,9.332z M165.223,7.306c3.123,2.139,4.749,3.544,4.875,4.219
		c0,0.227-0.313,0.396-0.938,0.507c-1.377,0.227-2.438,0.563-3.188,1.012c-0.501,0.228-2.376,1.239-5.625,3.038
		c-2.877,1.576-4.939,2.645-6.188,3.206c-2.877,1.464-4.626,2.193-5.25,2.193c-0.501,0.114,0.188-0.506,2.063-1.855
		c4.623-4.051,8.312-8.155,11.063-12.319C162.533,6.07,163.597,6.07,165.223,7.306z"/>
	<path d="M208.16,15.238h5.438c0.123,0,0.498-0.338,1.125-1.013c0.624-0.899,1.125-1.35,1.5-1.35c1.749,0.45,3.75,1.576,6,3.375
		c0,0.337-0.313,0.675-0.938,1.012c-0.75,0.564-1.125,1.013-1.125,1.351c0,4.163,0,8.326,0,12.487
		c-0.126,4.614-0.313,7.483-0.563,8.606c-0.375,1.461-1.002,2.586-1.875,3.375c-1.626,0.898-3.688,1.405-6.188,1.519
		c-1.125,0-1.813-0.506-2.063-1.519c-0.252-1.464-1.189-2.362-2.813-2.7c-1.125-0.224-1.688-0.393-1.688-0.506
		c-0.126-0.225,0.375-0.338,1.5-0.338c3.873,0.227,6.123-0.224,6.75-1.35c0.873-0.676,1.374-3.769,1.5-9.281
		c-0.126-2.587-0.188-6.919-0.188-12.994h-6.75c-1.125,1.801-2.625,3.881-4.5,6.244c3.873,1.012,6.498,2.362,7.875,4.05
		c1.125,3.264,0,5.12-3.375,5.568c-1.5,0-2.314-1.236-2.438-3.712c-0.126-2.925-0.938-4.726-2.438-5.4
		c-1.626,1.577-2.751,2.589-3.375,3.037v8.606v5.4c-0.126,1.013-1.125,1.574-3,1.688c-1.5,0-2.188-0.338-2.063-1.013v-2.193h-6.75
		v2.531c-0.126,1.236-1.313,1.911-3.563,2.024c-1.002-0.113-1.5-0.396-1.5-0.844v-27c0-0.675,0.686-0.785,2.063-0.337
		c1.374,0.45,2.438,0.675,3.188,0.675c0-3.262-0.064-5.455-0.188-6.581c-0.126-1.461,0-2.305,0.375-2.531
		c0.75-0.111,2.312,0,4.688,0.337c1.623,0.338,2.499,0.675,2.625,1.013c0,0.338-0.313,0.675-0.938,1.013
		c-0.501,0.451-0.814,0.788-0.938,1.013c-0.876,1.126-1.875,2.699-3,4.725c-0.252,0.564-0.439,0.957-0.563,1.182h3.188
		c0.249,0.113,0.624-0.225,1.125-1.013c0.498-0.675,0.873-1.068,1.125-1.182c2.874,0.902,4.749,2.083,5.625,3.544
		c0,0.338-0.252,0.62-0.75,0.844c-0.627,0.227-0.876,0.451-0.75,0.675v6.75c1.5-2.362,3-6.243,4.5-11.644
		c0-0.224,0.062-0.448,0.188-0.675c0.375-2.025,0.498-3.6,0.375-4.726c0-1.123,0.188-1.855,0.563-2.193
		c3.75,0.451,6.188,1.239,7.313,2.362c0,0.227-0.252,0.507-0.75,0.844c-0.501,0.338-0.814,0.675-0.938,1.013
		C209.66,12.369,208.784,14.115,208.16,15.238z M187.723,17.6v7.932h6.75V16.25h-5.25C188.347,16.364,187.846,16.814,187.723,17.6z
		 M187.723,26.207v11.138h6.75V26.207H187.723z"/>
</g>
</svg>
