<?xml version="1.0" encoding="utf-8"?>
<!-- Generator: Adobe Illustrator 14.0.0, SVG Export Plug-In . SVG Version: 6.00 Build 43363)  -->
<!DOCTYPE svg PUBLIC "-//W3C//DTD SVG 1.1//EN" "http://www.w3.org/Graphics/SVG/1.1/DTD/svg11.dtd">
<svg version="1.1" id="图层_1" xmlns="http://www.w3.org/2000/svg" xmlns:xlink="http://www.w3.org/1999/xlink" x="0px" y="0px"
	 width="433.203px" height="49.4px" viewBox="0 0 433.203 49.4" enable-background="new 0 0 433.203 49.4" xml:space="preserve">
<g>
	<path d="M32.422,7.525h6.25c0.391,0,0.977-0.586,1.758-1.758c0.909-1.432,1.69-2.018,2.344-1.758
		c1.822,1.172,3.058,2.084,3.711,2.734c0.391,0.521,0.586,0.977,0.586,1.367c0,0.263-0.195,0.391-0.586,0.391h-12.5
		c3.775,1.563,5.142,3.646,4.102,6.25c2.472,1.435,3.775,2.411,3.906,2.93c0,0.391-0.195,0.717-0.586,0.977
		c-0.522,0.391-0.717,0.717-0.586,0.977v3.906c-0.263,1.563-1.563,2.344-3.906,2.344c-1.303,0.263-1.825-0.195-1.563-1.367h-7.617
		v5.859h9.57c0.391,0.131,0.845-0.323,1.367-1.367c0.391-0.781,0.781-1.236,1.172-1.367c3.125,1.172,4.947,2.606,5.469,4.297
		c0,0.391-0.263,0.781-0.781,1.172c-0.522,0.263-0.781,0.521-0.781,0.781c-0.391,5.078-2.148,7.748-5.273,8.008
		c-2.216,0.26-3.452-0.128-3.711-1.172c-0.131-1.3-0.717-2.213-1.758-2.734c-1.044-0.26-1.563-0.455-1.563-0.586
		c0-0.128,0.519-0.195,1.563-0.195c4.034,0.912,5.923-1.041,5.664-5.859H27.734v13.281c-0.131,1.822-1.367,2.734-3.711,2.734
		c-1.172,0-1.694-0.391-1.563-1.172V34.674c-5.991,4.818-11.328,7.94-16.016,9.375c-1.694,0.519-2.67,0.714-2.93,0.586
		c-0.391,0,0-0.326,1.172-0.977c6.641-4.034,10.742-8.136,12.305-12.305h-2.734c-0.391,0.131-0.781,0.521-1.172,1.172
		c-0.263,0.521-0.458,0.781-0.586,0.781c-2.344,0-4.038-0.586-5.078-1.758c0-0.128,0.064-0.323,0.195-0.586
		c0.519-0.65,0.845-1.3,0.977-1.953c0.519-3.125,0.845-5.206,0.977-6.25c0-0.909,0.845-0.977,2.539-0.195
		c1.3,0.653,2.344,0.977,3.125,0.977h7.227v-5.859H8.789c-0.391,0-0.653-0.128-0.781-0.391c-0.131-0.26,0-0.455,0.391-0.586h8.398
		c-0.781-0.519-1.172-1.236-1.172-2.148c-0.131-3.385-0.913-5.401-2.344-6.055c-0.391,0.391-0.781,0.717-1.172,0.977
		c-2.216,1.953-4.038,3.516-5.469,4.688c-2.475,1.693-3.256,1.953-2.344,0.781c2.994-3.775,5.011-7.813,6.055-12.109
		c0.259-1.041,0.519-1.69,0.781-1.953c0.781-0.128,2.276,0,4.492,0.391c1.69,0.391,2.603,0.781,2.734,1.172
		c0,0.391-0.327,0.781-0.977,1.172C16.729,4.01,16.275,4.4,16.016,4.791c-0.653,1.044-1.367,1.953-2.148,2.734h5.859
		c0.259,0,0.714-0.455,1.367-1.367c0.909-1.432,1.758-2.018,2.539-1.758c1.822,1.303,2.994,2.279,3.516,2.93
		c0.781-1.822,1.236-3.58,1.367-5.273c0-0.65,0.195-1.104,0.586-1.367c3.516,0.131,5.923,0.717,7.227,1.758
		c0,0.263-0.263,0.586-0.781,0.977C34.244,4.596,33.203,5.963,32.422,7.525z M14.063,25.689l-0.586,4.883h8.984v-6.055h-5.469
		C14.908,24.39,13.931,24.78,14.063,25.689z M18.945,16.705h2.539c2.212-2.604,3.97-5.338,5.273-8.203H15.625
		c2.472,1.172,4.102,2.411,4.883,3.711C21.158,14.038,20.636,15.533,18.945,16.705z M23.047,16.705h10.938l0.781-0.977
		c-0.781-0.519-1.367-1.69-1.758-3.516c-0.263-1.69-0.781-2.799-1.563-3.32C28.58,12.28,25.781,14.883,23.047,16.705z
		 M35.352,17.682h-7.617v1.172v4.688h7.617V17.682z"/>
	<path d="M94.141,11.822v28.711c0.128,1.303-1.172,2.018-3.906,2.148c-1.303,0.26-1.889-0.263-1.758-1.563v-2.344H61.133v2.93
		c0.128,0.65-1.108,1.172-3.711,1.563c-1.044-0.131-1.563-0.586-1.563-1.367V7.33c0-1.041,1.3-0.977,3.906,0.195
		c1.3,0.653,2.212,0.977,2.734,0.977h24.414c0.128,0,0.391-0.391,0.781-1.172c0.519-1.172,1.041-1.886,1.563-2.148
		c2.603,1.044,4.883,2.539,6.836,4.492c-0.131,0.521-0.586,1.044-1.367,1.563C94.336,11.499,94.141,11.694,94.141,11.822z
		 M61.133,33.893v4.102h27.344v-8.203c-0.522,0.391-1.499,0.653-2.93,0.781c-1.303,0.263-3.061,0.326-5.273,0.195
		c-2.997,0-4.428-1.953-4.297-5.859V9.283h-1.758c-0.781,0.263-1.239,1.239-1.367,2.93c-0.391,7.294-1.239,11.981-2.539,14.063
		C68.75,29.01,65.689,31.549,61.133,33.893z M61.133,12.018v20.898c4.034-2.344,6.119-6.25,6.25-11.719
		c0.128-2.344,0.195-6.314,0.195-11.914h-4.297C61.847,9.546,61.133,10.455,61.133,12.018z M81.445,11.432v12.109
		c-0.131,2.084,0.259,2.997,1.172,2.734c0.519,0,1.236-0.128,2.148-0.391c0.259-0.128,0.455-0.26,0.586-0.391
		c0.391-0.128,0.977,0.195,1.758,0.977c0.391,0.263,0.845,0.521,1.367,0.781V9.283h-4.688C82.227,9.414,81.445,10.132,81.445,11.432
		z"/>
	<path d="M113.281,21.197v15.234c2.603-1.172,3.97-1.758,4.102-1.758h0.195c2.862-1.69,3.189-1.367,0.977,0.977
		c-0.131,0.131-0.327,0.326-0.586,0.586c-3.778,4.297-5.927,6.9-6.445,7.813c-0.522,0.781-0.913,1.172-1.172,1.172
		c-0.391,0-0.781-0.326-1.172-0.977c-0.391-0.391-1.044-1.172-1.953-2.344c-0.263-0.26-0.391-0.455-0.391-0.586
		c-0.781-1.041-0.653-1.953,0.391-2.734c0.391-0.391,0.65-1.104,0.781-2.148V19.244h-5.273c-0.391,0-0.653-0.128-0.781-0.391
		c-0.131-0.128,0-0.26,0.391-0.391h4.688l0.586-0.781c0.781-1.3,1.431-1.953,1.953-1.953c2.994,1.044,4.815,2.216,5.469,3.516
		c0,0.263-0.327,0.586-0.977,0.977C113.409,20.742,113.15,21.069,113.281,21.197z M106.836,3.033
		c4.556,0.521,7.291,1.953,8.203,4.297c0.391,3.646-1.172,5.209-4.688,4.688c-0.913-0.26-1.435-1.3-1.563-3.125
		c0-2.344-0.781-3.971-2.344-4.883c-0.653-0.391-0.977-0.65-0.977-0.781C105.597,3.101,106.055,3.033,106.836,3.033z M143.359,8.111
		v11.328c0.259,1.435-0.781,2.216-3.125,2.344c-0.263,0.131-0.522,0.195-0.781,0.195c-1.563,0.263-2.216,0.067-1.953-0.586v-0.586
		h-4.297v5.664h5.664c0.259,0,0.781-0.519,1.563-1.563c0.781-1.3,1.431-1.953,1.953-1.953c0.909,0,2.539,1.044,4.883,3.125
		c0.391,0.521,0.586,0.849,0.586,0.977c-0.131,0.263-0.522,0.326-1.172,0.195h-10.938c1.563,4.818,5.401,8.466,11.523,10.938
		c0.781,0.263,0.977,0.521,0.586,0.781c-0.522,0.263-0.913,0.521-1.172,0.781c-1.172,0.781-2.148,1.63-2.93,2.539
		c-0.653,1.041-1.435,1.172-2.344,0.391c-3.778-2.344-6.055-7.486-6.836-15.43h-1.367v17.383c0.128,0.909-1.044,1.627-3.516,2.148
		c-1.563,0.26-2.216-0.263-1.953-1.563V33.697c-7.163,7.031-11.914,10.352-14.258,9.961c5.206-5.078,8.722-10.479,10.547-16.211
		h-7.617c-0.522,0-0.913-0.128-1.172-0.391c-0.263-0.26-0.131-0.455,0.391-0.586h12.109v-5.469h-3.516v0.586
		c0,0.781-0.913,1.303-2.734,1.563c-2.084,0.391-2.997-0.064-2.734-1.367V4.4c-0.131-0.781,0-1.236,0.391-1.367
		c0.128-0.128,0.65-0.128,1.563,0c0.128,0.131,0.455,0.326,0.977,0.586c1.172,0.521,2.081,0.717,2.734,0.586h11.133
		c0.128,0,0.391-0.26,0.781-0.781c0.519-0.909,1.041-1.495,1.563-1.758c2.603,0.263,4.947,1.498,7.031,3.711
		c0,0.521-0.327,1.107-0.977,1.758C143.555,7.656,143.359,7.983,143.359,8.111z M124.219,6.939v5.078h3.516V4.986h-1.758
		C124.673,4.986,124.087,5.64,124.219,6.939z M124.219,12.994v7.031h3.516v-7.031H124.219z M133.203,6.744v5.273h4.102V4.986h-2.344
		C133.658,4.986,133.072,5.572,133.203,6.744z M133.203,12.799v7.227h4.297v-7.227H133.203z"/>
	<path d="M202.148,5.963v16.211h19.531c0.128,0,0.519-0.519,1.172-1.563c1.172-1.822,1.953-2.734,2.344-2.734
		c0.781,0,2.148,0.912,4.102,2.734c0.259,0.263,0.519,0.391,0.781,0.391c0.519,0.653,0.781,1.172,0.781,1.563
		s-0.263,0.586-0.781,0.586h-20.313c1.172,5.078,3.97,9.247,8.398,12.5c2.472,1.825,6.055,3.451,10.742,4.883l1.953,0.586
		c0,0.131-0.327,0.326-0.977,0.586c-2.216,0.26-3.842,1.172-4.883,2.734c-1.303,2.472-2.734,2.799-4.297,0.977
		c-7.553-5.206-11.591-12.628-12.109-22.266h-6.445v15.82c0,0.263,1.495,0,4.492-0.781c0.259,0,0.455-0.064,0.586-0.195
		c1.431-0.391,2.212-0.519,2.344-0.391c0.128,0.263-0.391,0.781-1.563,1.563c-0.263,0.263-1.108,0.977-2.539,2.148
		c-2.475,1.822-4.364,3.32-5.664,4.492c-0.913,1.041-1.499,1.495-1.758,1.367c-0.391,0-0.977-0.653-1.758-1.953
		c-0.781-1.172-1.303-1.953-1.563-2.344l-0.195-0.586c-0.522-0.519-0.391-0.977,0.391-1.367c0.909-0.391,1.367-1.041,1.367-1.953
		V22.955H187.5c-0.653,0-1.108-0.128-1.367-0.391c-0.391-0.128-0.263-0.26,0.391-0.391h9.766V3.424
		c-0.131-1.432,0.714-2.018,2.539-1.758c0.519,0.131,1.041,0.263,1.563,0.391c1.822,0.131,2.734,0.326,2.734,0.586
		c0,0.391-0.131,0.781-0.391,1.172C202.344,4.468,202.148,5.182,202.148,5.963z M220.703,3.619c3.253,2.475,4.947,4.102,5.078,4.883
		c0,0.263-0.327,0.458-0.977,0.586c-1.435,0.263-2.539,0.653-3.32,1.172c-0.522,0.263-2.475,1.435-5.859,3.516
		c-2.997,1.825-5.146,3.061-6.445,3.711c-2.997,1.693-4.819,2.539-5.469,2.539c-0.522,0.131,0.195-0.586,2.148-2.148
		c4.815-4.688,8.658-9.439,11.523-14.258C217.901,2.188,219.009,2.188,220.703,3.619z"/>
	<path d="M252.148,5.963v16.211h19.531c0.128,0,0.519-0.519,1.172-1.563c1.172-1.822,1.953-2.734,2.344-2.734
		c0.781,0,2.148,0.912,4.102,2.734c0.259,0.263,0.519,0.391,0.781,0.391c0.519,0.653,0.781,1.172,0.781,1.563
		s-0.263,0.586-0.781,0.586h-20.313c1.172,5.078,3.97,9.247,8.398,12.5c2.472,1.825,6.055,3.451,10.742,4.883l1.953,0.586
		c0,0.131-0.327,0.326-0.977,0.586c-2.216,0.26-3.842,1.172-4.883,2.734c-1.303,2.472-2.734,2.799-4.297,0.977
		c-7.553-5.206-11.591-12.628-12.109-22.266h-6.445v15.82c0,0.263,1.495,0,4.492-0.781c0.259,0,0.455-0.064,0.586-0.195
		c1.431-0.391,2.212-0.519,2.344-0.391c0.128,0.263-0.391,0.781-1.563,1.563c-0.263,0.263-1.108,0.977-2.539,2.148
		c-2.475,1.822-4.364,3.32-5.664,4.492c-0.913,1.041-1.499,1.495-1.758,1.367c-0.391,0-0.977-0.653-1.758-1.953
		c-0.781-1.172-1.303-1.953-1.563-2.344l-0.195-0.586c-0.522-0.519-0.391-0.977,0.391-1.367c0.909-0.391,1.367-1.041,1.367-1.953
		V22.955H237.5c-0.653,0-1.108-0.128-1.367-0.391c-0.391-0.128-0.263-0.26,0.391-0.391h9.766V3.424
		c-0.131-1.432,0.714-2.018,2.539-1.758c0.519,0.131,1.041,0.263,1.563,0.391c1.822,0.131,2.734,0.326,2.734,0.586
		c0,0.391-0.131,0.781-0.391,1.172C252.344,4.468,252.148,5.182,252.148,5.963z M270.703,3.619c3.253,2.475,4.947,4.102,5.078,4.883
		c0,0.263-0.327,0.458-0.977,0.586c-1.435,0.263-2.539,0.653-3.32,1.172c-0.522,0.263-2.475,1.435-5.859,3.516
		c-2.997,1.825-5.146,3.061-6.445,3.711c-2.997,1.693-4.819,2.539-5.469,2.539c-0.522,0.131,0.195-0.586,2.148-2.148
		c4.815-4.688,8.658-9.439,11.523-14.258C267.901,2.188,269.009,2.188,270.703,3.619z"/>
	<path d="M315.43,12.799h5.664c0.128,0,0.519-0.391,1.172-1.172c0.65-1.041,1.172-1.563,1.563-1.563
		c1.822,0.521,3.906,1.825,6.25,3.906c0,0.391-0.327,0.781-0.977,1.172c-0.781,0.653-1.172,1.172-1.172,1.563
		c0,4.818,0,9.638,0,14.453c-0.131,5.341-0.327,8.661-0.586,9.961c-0.391,1.69-1.044,2.994-1.953,3.906
		c-1.694,1.041-3.842,1.627-6.445,1.758c-1.172,0-1.889-0.586-2.148-1.758c-0.263-1.693-1.239-2.734-2.93-3.125
		c-1.172-0.26-1.758-0.455-1.758-0.586c-0.131-0.26,0.391-0.391,1.563-0.391c4.034,0.263,6.378-0.26,7.031-1.563
		c0.909-0.781,1.431-4.361,1.563-10.742c-0.131-2.994-0.195-8.008-0.195-15.039h-7.031c-1.172,2.084-2.734,4.492-4.688,7.227
		c4.034,1.172,6.769,2.734,8.203,4.688c1.172,3.778,0,5.927-3.516,6.445c-1.563,0-2.411-1.432-2.539-4.297
		c-0.131-3.385-0.977-5.469-2.539-6.25c-1.694,1.825-2.866,2.997-3.516,3.516v9.961v6.25c-0.131,1.172-1.172,1.822-3.125,1.953
		c-1.563,0-2.28-0.391-2.148-1.172v-2.539h-7.031v2.93c-0.131,1.432-1.367,2.213-3.711,2.344c-1.044-0.131-1.563-0.458-1.563-0.977
		v-31.25c0-0.781,0.714-0.909,2.148-0.391c1.431,0.521,2.539,0.781,3.32,0.781c0-3.775-0.067-6.314-0.195-7.617
		c-0.131-1.69,0-2.667,0.391-2.93c0.781-0.128,2.408,0,4.883,0.391c1.69,0.391,2.603,0.781,2.734,1.172
		c0,0.391-0.327,0.781-0.977,1.172c-0.522,0.521-0.849,0.912-0.977,1.172c-0.913,1.303-1.953,3.125-3.125,5.469
		c-0.263,0.653-0.458,1.107-0.586,1.367h3.32c0.259,0.131,0.65-0.26,1.172-1.172c0.519-0.781,0.909-1.236,1.172-1.367
		c2.994,1.044,4.947,2.411,5.859,4.102c0,0.391-0.263,0.717-0.781,0.977c-0.653,0.263-0.913,0.521-0.781,0.781v7.813
		c1.563-2.734,3.125-7.227,4.688-13.477c0-0.26,0.064-0.519,0.195-0.781c0.391-2.344,0.519-4.166,0.391-5.469
		c0-1.3,0.195-2.148,0.586-2.539c3.906,0.521,6.445,1.435,7.617,2.734c0,0.263-0.263,0.586-0.781,0.977
		c-0.522,0.391-0.849,0.781-0.977,1.172C316.992,9.479,316.08,11.499,315.43,12.799z M294.141,15.533v9.18h7.031V13.971h-5.469
		C294.791,14.102,294.269,14.624,294.141,15.533z M294.141,25.494v12.891h7.031V25.494H294.141z"/>
	<path d="M378.516,7.721v35.742c0.26,1.432-0.977,2.344-3.711,2.734c-1.693,0.26-2.475,0-2.344-0.781v-2.148h-28.32v1.172
		c0.26,1.432-1.107,2.276-4.102,2.539c-1.563,0.128-2.216-0.263-1.953-1.172V2.838c-0.131-0.65-0.067-1.041,0.195-1.172
		c0.259-0.128,0.909,0,1.953,0.391c1.69,0.653,2.862,1.172,3.516,1.563c0.65,0.263,1.104,0.391,1.367,0.391h26.172l0.391-0.586
		c0.519-1.3,1.104-2.018,1.758-2.148c2.472,0.781,4.62,2.084,6.445,3.906c0,0.391-0.263,0.781-0.781,1.172
		C378.711,6.744,378.516,7.202,378.516,7.721z M344.141,7.721v34.57h28.32V4.986h-26.172C344.727,4.858,344.01,5.768,344.141,7.721z
		 M369.727,36.236c1.432,2.216,1.104,3.906-0.977,5.078c-1.825,0.521-3.061,0-3.711-1.563c-0.131-0.128-0.195-0.26-0.195-0.391
		c-0.781-2.344-2.67-4.102-5.664-5.273c-1.435,2.997-4.818,5.209-10.156,6.641c-4.428,0.781-5.6,0.717-3.516-0.195
		c4.166-1.563,6.836-3.32,8.008-5.273c1.432-2.081,1.953-5.469,1.563-10.156c-0.263-1.3,0.195-1.953,1.367-1.953
		c3.125,0.131,4.815,0.458,5.078,0.977c0,0.391-0.195,0.781-0.586,1.172c-0.263,0.521-0.391,0.912-0.391,1.172
		c-0.263,2.865-0.586,4.95-0.977,6.25C364.518,33.374,367.901,34.546,369.727,36.236z M352.344,20.611h9.961
		c0.128,0,0.391-0.26,0.781-0.781c0.65-0.781,1.236-1.236,1.758-1.367c2.862,0.781,4.688,2.084,5.469,3.906
		c-0.131,0.131-0.326,0.326-0.586,0.586c-0.391,0.391-0.586,0.653-0.586,0.781v7.031c0.26,1.303-0.717,2.021-2.93,2.148
		c-2.084,0.391-3.061-0.195-2.93-1.758v-9.766h-9.57c-1.044-0.128-1.498,0.586-1.367,2.148v8.398
		c0.128,1.435-0.781,2.344-2.734,2.734c-1.563,0.521-2.411,0.326-2.539-0.586V20.025c0-1.041,0.519-1.367,1.563-0.977
		c0.128,0.131,0.65,0.391,1.563,0.781C351.236,20.352,351.953,20.611,352.344,20.611z M367.773,11.627v3.711
		c0.128,1.693-1.107,2.606-3.711,2.734c-1.435,0.263-2.021,0-1.758-0.781v-1.172h-8.594v0.586c0.26,1.172-0.912,1.758-3.516,1.758
		c-1.172,0.131-1.693-0.391-1.563-1.563V8.502c-0.131-0.65-0.067-1.041,0.195-1.172c0.26-0.128,0.714-0.128,1.367,0
		c0.781,0.391,1.758,0.849,2.93,1.367c0.391,0.131,0.714,0.195,0.977,0.195h7.031c0.128,0,0.323-0.195,0.586-0.586
		c0.391-0.909,0.909-1.495,1.563-1.758c2.344,0.653,4.166,1.889,5.469,3.711c0,0.263-0.195,0.521-0.586,0.781
		C367.773,11.304,367.643,11.499,367.773,11.627z M353.711,10.846v4.492h8.594V9.674h-6.25
		C354.229,9.674,353.448,10.064,353.711,10.846z"/>
	<path d="M411.328,14.557h8.984l0.977-1.563c1.041-2.213,1.822-3.32,2.344-3.32c0.781,0.391,2.081,1.825,3.906,4.297
		c0.391,0.653,0.519,1.107,0.391,1.367c-0.131,0.263-0.586,0.326-1.367,0.195h-12.891c3.253,10.028,8.854,16.342,16.797,18.945
		l1.172,0.391c0,0.263-0.326,0.521-0.977,0.781c-1.563,0.521-2.802,1.303-3.711,2.344c-0.391,0.391-0.717,0.849-0.977,1.367
		c-0.521,0.781-0.912,1.239-1.172,1.367c-7.553-4.947-11.654-13.346-12.305-25.195h-1.172v29.688
		c0.26,1.822-0.912,2.862-3.516,3.125c-1.825,0.128-2.67-0.717-2.539-2.539V25.494c-3.646,6.513-9.247,11.85-16.797,16.016
		c-2.084,0.909-3.192,1.236-3.32,0.977c-0.131-0.131,0.714-0.909,2.539-2.344c7.422-6.769,12.237-14.972,14.453-24.609h-13.867
		c-0.521,0-0.912-0.128-1.172-0.391c-0.263-0.26-0.131-0.455,0.391-0.586h17.773V3.814c-0.391-1.172,0.195-1.69,1.758-1.563
		c4.425,0.391,5.987,1.172,4.688,2.344l-0.391,0.391V14.557z"/>
</g>
</svg>
