<?xml version="1.0" encoding="utf-8"?>
<!-- Generator: Adobe Illustrator 14.0.0, SVG Export Plug-In . SVG Version: 6.00 Build 43363)  -->
<!DOCTYPE svg PUBLIC "-//W3C//DTD SVG 1.1//EN" "http://www.w3.org/Graphics/SVG/1.1/DTD/svg11.dtd">
<svg version="1.1" id="图层_1" xmlns="http://www.w3.org/2000/svg" xmlns:xlink="http://www.w3.org/1999/xlink" x="0px" y="0px"
	 width="453.058px" height="39.577px" viewBox="0 0 453.058 39.577" enable-background="new 0 0 453.058 39.577"
	 xml:space="preserve">
<g>
	<path fill="#FF0099" d="M29.542,22.228l0.791,0.158l-2.754,7.805H2.823v-0.791h1.201c1.348,0,2.314-0.396,2.9-1.187
		c0.332-0.457,0.498-1.503,0.498-3.138V6.513c0-1.811-0.225-2.936-0.674-3.375C6.144,2.505,5.235,2.188,4.024,2.188H2.823V1.397
		h14.473v0.791c-1.699-0.018-2.891,0.123-3.574,0.422c-0.684,0.299-1.147,0.677-1.392,1.134c-0.245,0.457-0.366,1.538-0.366,3.243
		v18.088c0,1.178,0.117,1.986,0.352,2.426c0.195,0.299,0.488,0.519,0.879,0.659c0.391,0.141,1.621,0.211,3.691,0.211H19.2
		c2.461,0,4.185-0.162,5.171-0.487c0.986-0.325,1.89-0.901,2.71-1.728S28.722,24.021,29.542,22.228z"/>
	<path fill="#FF0099" d="M36.485,18.062c0,2.9,0.781,5.168,2.344,6.803c1.582,1.635,3.428,2.452,5.537,2.452
		c1.425,0,2.661-0.347,3.706-1.042c1.044-0.693,1.919-1.894,2.622-3.599l0.732,0.422c-0.333,1.934-1.289,3.7-2.871,5.3
		s-3.574,2.399-5.977,2.399c-2.598,0-4.819-0.909-6.665-2.729c-1.846-1.818-2.769-4.267-2.769-7.343
		c0-3.322,0.947-5.915,2.842-7.778c1.894-1.863,4.277-2.795,7.148-2.795c2.421,0,4.409,0.717,5.962,2.148
		c1.553,1.434,2.329,3.354,2.329,5.762H36.485z M36.485,16.849h10.02c-0.078-1.248-0.245-2.127-0.498-2.637
		c-0.391-0.791-0.977-1.415-1.758-1.872c-0.781-0.457-1.592-0.686-2.432-0.686c-1.309,0-2.48,0.457-3.516,1.371
		C37.266,13.939,36.661,15.214,36.485,16.849z"/>
	<path fill="#FF0099" d="M68.272,10.178v6.618h-0.762c-0.605-2.074-1.377-3.489-2.314-4.245s-2.129-1.134-3.574-1.134
		c-1.094,0-1.982,0.264-2.666,0.791c-0.684,0.527-1.025,1.107-1.025,1.74c0,0.791,0.253,1.468,0.762,2.03
		c0.488,0.58,1.484,1.195,2.988,1.846l3.428,1.529c3.203,1.389,4.805,3.234,4.805,5.537c0,1.758-0.747,3.182-2.241,4.271
		s-3.16,1.635-4.995,1.635c-1.309,0-2.813-0.22-4.512-0.659c-0.527-0.141-0.957-0.211-1.289-0.211c-0.352,0-0.635,0.185-0.85,0.554
		h-0.762v-6.935h0.762c0.449,1.986,1.293,3.48,2.534,4.482c1.24,1.002,2.632,1.503,4.175,1.503c1.074,0,1.953-0.285,2.637-0.856
		c0.684-0.571,1.025-1.262,1.025-2.07c0-0.984-0.381-1.807-1.143-2.465c-0.762-0.66-2.281-1.499-4.556-2.519
		c-2.275-1.02-3.765-1.942-4.468-2.769c-0.703-0.809-1.055-1.828-1.055-3.059c0-1.6,0.605-2.936,1.816-4.008
		c1.211-1.072,2.783-1.608,4.717-1.608c0.859,0,1.894,0.158,3.105,0.475c0.801,0.211,1.328,0.316,1.582,0.316
		c0.253,0,0.454-0.048,0.601-0.146c0.146-0.096,0.317-0.312,0.513-0.646H68.272z"/>
	<path fill="#FF0099" d="M87.081,10.178v6.618h-0.762c-0.605-2.074-1.377-3.489-2.314-4.245s-2.129-1.134-3.574-1.134
		c-1.094,0-1.982,0.264-2.666,0.791c-0.684,0.527-1.025,1.107-1.025,1.74c0,0.791,0.253,1.468,0.762,2.03
		c0.488,0.58,1.484,1.195,2.988,1.846l3.428,1.529c3.203,1.389,4.805,3.234,4.805,5.537c0,1.758-0.747,3.182-2.241,4.271
		s-3.16,1.635-4.995,1.635c-1.309,0-2.813-0.22-4.512-0.659c-0.527-0.141-0.957-0.211-1.289-0.211c-0.352,0-0.635,0.185-0.85,0.554
		h-0.762v-6.935h0.762c0.449,1.986,1.293,3.48,2.534,4.482c1.24,1.002,2.632,1.503,4.175,1.503c1.074,0,1.953-0.285,2.637-0.856
		c0.684-0.571,1.025-1.262,1.025-2.07c0-0.984-0.381-1.807-1.143-2.465c-0.762-0.66-2.281-1.499-4.556-2.519
		c-2.275-1.02-3.765-1.942-4.468-2.769c-0.703-0.809-1.055-1.828-1.055-3.059c0-1.6,0.605-2.936,1.816-4.008
		c1.211-1.072,2.783-1.608,4.717-1.608c0.859,0,1.894,0.158,3.105,0.475c0.801,0.211,1.328,0.316,1.582,0.316
		c0.253,0,0.454-0.048,0.601-0.146c0.146-0.096,0.317-0.312,0.513-0.646H87.081z"/>
	<path fill="#FF0099" d="M102.491,10.178c3.281,0,5.908,1.116,7.881,3.349c1.68,1.916,2.52,4.113,2.52,6.592
		c0,1.74-0.464,3.498-1.392,5.273c-0.928,1.775-2.202,3.12-3.823,4.034c-1.622,0.914-3.438,1.371-5.449,1.371
		c-3.242,0-5.83-1.169-7.764-3.507c-1.602-1.969-2.402-4.175-2.402-6.618c0-1.793,0.488-3.568,1.465-5.326
		c0.977-1.758,2.266-3.059,3.867-3.902C98.995,10.6,100.694,10.178,102.491,10.178z M101.759,11.549
		c-0.82,0-1.655,0.224-2.505,0.673c-0.85,0.447-1.534,1.23-2.051,2.346c-0.518,1.117-0.776,2.554-0.776,4.312
		c0,2.83,0.625,5.27,1.875,7.317c1.25,2.048,2.9,3.071,4.951,3.071c1.523,0,2.778-0.563,3.765-1.688
		c0.986-1.125,1.479-3.067,1.479-5.827c0-3.463-0.82-6.188-2.461-8.174C104.923,12.226,103.497,11.549,101.759,11.549z"/>
	<path fill="#FF0099" d="M122.354,14.291c2.539-2.742,4.961-4.113,7.266-4.113c1.172,0,2.183,0.264,3.032,0.791
		s1.528,1.397,2.036,2.61c0.332,0.861,0.498,2.171,0.498,3.929v8.279c0,1.23,0.117,2.065,0.352,2.505
		c0.176,0.352,0.454,0.629,0.835,0.83c0.381,0.203,1.088,0.304,2.124,0.304v0.765h-10.693v-0.765h0.469
		c0.996,0,1.694-0.136,2.095-0.409c0.4-0.271,0.678-0.681,0.835-1.226c0.078-0.211,0.117-0.879,0.117-2.004v-7.963
		c0-1.758-0.259-3.036-0.776-3.837c-0.518-0.799-1.382-1.199-2.593-1.199c-1.875,0-3.74,0.923-5.596,2.769v10.23
		c0,1.318,0.088,2.136,0.264,2.452c0.234,0.404,0.542,0.703,0.923,0.896s1.157,0.29,2.329,0.29v0.765h-10.664v-0.765h0.469
		c1.094,0,1.835-0.251,2.227-0.751c0.391-0.502,0.586-1.464,0.586-2.888v-7.198c0-2.338-0.059-3.762-0.176-4.271
		s-0.298-0.857-0.542-1.041c-0.245-0.186-0.571-0.277-0.981-0.277c-0.45,0-0.977,0.105-1.582,0.316l-0.352-0.765l6.504-2.373h0.996
		V14.291z"/>
	<path fill="#FF0099" d="M160.646,2.979v11.312h5.83c1.348,0,2.329-0.264,2.944-0.791s1.03-1.582,1.245-3.164h0.85v9.756h-0.85
		c-0.02-1.125-0.186-1.946-0.498-2.466c-0.313-0.518-0.737-0.909-1.274-1.173c-0.538-0.264-1.343-0.396-2.417-0.396h-5.83v9.044
		c0,1.459,0.107,2.417,0.322,2.874c0.156,0.352,0.488,0.659,0.996,0.923c0.684,0.334,1.406,0.501,2.168,0.501h1.143v0.791h-13.711
		v-0.791h1.113c1.328,0,2.285-0.343,2.871-1.028c0.391-0.457,0.586-1.547,0.586-3.27V6.513c0-1.459-0.107-2.426-0.322-2.9
		c-0.157-0.352-0.479-0.65-0.967-0.896c-0.664-0.352-1.387-0.527-2.168-0.527h-1.113V1.397h23.789l0.293,6.328h-0.82
		c-0.41-1.336-0.884-2.32-1.421-2.953c-0.538-0.633-1.206-1.09-2.007-1.371c-0.801-0.281-2.032-0.422-3.691-0.422H160.646z"/>
	<path fill="#FF0099" d="M189.708,10.178c3.281,0,5.908,1.116,7.881,3.349c1.68,1.916,2.52,4.113,2.52,6.592
		c0,1.74-0.464,3.498-1.392,5.273c-0.928,1.775-2.202,3.12-3.823,4.034c-1.622,0.914-3.438,1.371-5.449,1.371
		c-3.242,0-5.83-1.169-7.764-3.507c-1.602-1.969-2.402-4.175-2.402-6.618c0-1.793,0.488-3.568,1.465-5.326
		c0.977-1.758,2.266-3.059,3.867-3.902C186.211,10.6,187.911,10.178,189.708,10.178z M188.976,11.549
		c-0.82,0-1.655,0.224-2.505,0.673c-0.85,0.447-1.534,1.23-2.051,2.346c-0.518,1.117-0.776,2.554-0.776,4.312
		c0,2.83,0.625,5.27,1.875,7.317c1.25,2.048,2.9,3.071,4.951,3.071c1.523,0,2.778-0.563,3.765-1.688
		c0.986-1.125,1.479-3.067,1.479-5.827c0-3.463-0.82-6.188-2.461-8.174C192.14,12.226,190.714,11.549,188.976,11.549z"/>
	<path fill="#FF0099" d="M222.228,10.758v11.76c0,2.25,0.059,3.63,0.176,4.14s0.308,0.861,0.571,1.055s0.561,0.29,0.894,0.29
		c0.488,0,1.044-0.123,1.67-0.369l0.322,0.765l-6.475,2.399h-1.055v-4.14c-1.856,1.811-3.271,2.953-4.248,3.428
		c-0.977,0.475-2.002,0.712-3.076,0.712c-1.211,0-2.261-0.316-3.149-0.949c-0.889-0.633-1.509-1.445-1.86-2.438
		s-0.527-2.396-0.527-4.206v-8.675c0-0.914-0.107-1.551-0.322-1.912c-0.215-0.359-0.538-0.633-0.967-0.816
		c-0.43-0.186-1.211-0.277-2.344-0.277v-0.765h7.559v12.999c0,1.811,0.352,3.002,1.055,3.572c0.703,0.572,1.542,0.857,2.52,0.857
		c0.684,0,1.455-0.193,2.314-0.58c0.859-0.387,1.875-1.116,3.047-2.188V14.396c0-1.107-0.225-1.854-0.674-2.241
		c-0.45-0.387-1.377-0.598-2.783-0.633v-0.765H222.228z"/>
	<path fill="#FF0099" d="M233.741,10.178v4.377c1.816-2.918,3.672-4.377,5.566-4.377c0.879,0,1.597,0.237,2.153,0.712
		s0.835,1.02,0.835,1.635c0,0.563-0.201,1.033-0.601,1.41c-0.4,0.379-0.884,0.567-1.45,0.567c-0.567,0-1.191-0.241-1.875-0.726
		c-0.684-0.482-1.182-0.725-1.494-0.725c-0.293,0-0.605,0.141-0.938,0.422c-0.703,0.58-1.436,1.529-2.197,2.848v9.334
		c0,1.072,0.156,1.881,0.469,2.426c0.195,0.387,0.552,0.708,1.069,0.963c0.517,0.255,1.264,0.382,2.241,0.382v0.765h-11.045v-0.765
		c1.094,0,1.904-0.158,2.432-0.475c0.391-0.229,0.664-0.589,0.82-1.081c0.078-0.229,0.117-0.914,0.117-2.057v-7.541
		c0-2.25-0.049-3.595-0.146-4.034c-0.098-0.439-0.283-0.756-0.557-0.949c-0.274-0.193-0.615-0.29-1.025-0.29
		c-0.488,0-1.036,0.105-1.641,0.316l-0.264-0.765l6.533-2.373H233.741z"/>
	<path fill="#0099CC" d="M305.899,22.228l0.791,0.158l-2.754,7.805h-24.756v-0.791h1.201c1.348,0,2.314-0.396,2.9-1.187
		c0.332-0.457,0.498-1.503,0.498-3.138V6.513c0-1.811-0.225-2.936-0.674-3.375c-0.605-0.633-1.514-0.949-2.725-0.949h-1.201V1.397
		h14.473v0.791c-1.699-0.018-2.891,0.123-3.574,0.422c-0.684,0.299-1.147,0.677-1.392,1.134c-0.245,0.457-0.366,1.538-0.366,3.243
		v18.088c0,1.178,0.117,1.986,0.352,2.426c0.195,0.299,0.488,0.519,0.879,0.659c0.391,0.141,1.621,0.211,3.691,0.211h2.314
		c2.461,0,4.185-0.162,5.171-0.487s1.89-0.901,2.71-1.728S305.079,24.021,305.899,22.228z"/>
	<path fill="#0099CC" d="M319.786,10.178c3.281,0,5.907,1.116,7.881,3.349c1.68,1.916,2.52,4.113,2.52,6.592
		c0,1.74-0.464,3.498-1.392,5.273s-2.202,3.12-3.823,4.034c-1.622,0.914-3.438,1.371-5.449,1.371c-3.242,0-5.83-1.169-7.764-3.507
		c-1.602-1.969-2.402-4.175-2.402-6.618c0-1.793,0.487-3.568,1.465-5.326c0.977-1.758,2.266-3.059,3.867-3.902
		C316.289,10.6,317.988,10.178,319.786,10.178z M319.054,11.549c-0.82,0-1.655,0.224-2.505,0.673
		c-0.85,0.447-1.533,1.23-2.051,2.346c-0.518,1.117-0.776,2.554-0.776,4.312c0,2.83,0.625,5.27,1.875,7.317
		c1.249,2.048,2.9,3.071,4.951,3.071c1.523,0,2.778-0.563,3.765-1.688s1.479-3.067,1.479-5.827c0-3.463-0.82-6.188-2.461-8.174
		C322.218,12.226,320.792,11.549,319.054,11.549z"/>
	<path fill="#0099CC" d="M339.649,14.291c2.538-2.742,4.961-4.113,7.266-4.113c1.172,0,2.183,0.264,3.032,0.791
		s1.527,1.397,2.036,2.61c0.332,0.861,0.498,2.171,0.498,3.929v8.279c0,1.23,0.117,2.065,0.352,2.505
		c0.176,0.352,0.454,0.629,0.835,0.83c0.381,0.203,1.088,0.304,2.124,0.304v0.765h-10.693v-0.765h0.469
		c0.996,0,1.694-0.136,2.095-0.409c0.4-0.271,0.678-0.681,0.835-1.226c0.077-0.211,0.117-0.879,0.117-2.004v-7.963
		c0-1.758-0.259-3.036-0.776-3.837c-0.518-0.799-1.382-1.199-2.593-1.199c-1.875,0-3.74,0.923-5.596,2.769v10.23
		c0,1.318,0.088,2.136,0.264,2.452c0.234,0.404,0.542,0.703,0.923,0.896s1.157,0.29,2.329,0.29v0.765h-10.664v-0.765h0.469
		c1.094,0,1.835-0.251,2.227-0.751c0.391-0.502,0.586-1.464,0.586-2.888v-7.198c0-2.338-0.059-3.762-0.176-4.271
		s-0.298-0.857-0.542-1.041c-0.244-0.186-0.571-0.277-0.981-0.277c-0.45,0-0.978,0.105-1.582,0.316l-0.352-0.765l6.504-2.373h0.996
		V14.291z"/>
	<path fill="#0099CC" d="M363.292,23.098c-1.329-0.58-2.344-1.389-3.047-2.426s-1.055-2.188-1.055-3.454
		c0-1.916,0.806-3.568,2.417-4.957s3.677-2.083,6.196-2.083c2.051,0,3.827,0.448,5.332,1.345h4.57c0.684,0,1.079,0.018,1.187,0.053
		s0.19,0.097,0.249,0.185c0.098,0.141,0.146,0.369,0.146,0.686c0,0.369-0.04,0.624-0.117,0.765c-0.059,0.07-0.146,0.128-0.264,0.172
		s-0.518,0.065-1.201,0.065h-2.783c0.879,1.02,1.318,2.32,1.318,3.902c0,1.811-0.772,3.362-2.314,4.653
		c-1.543,1.293-3.614,1.938-6.211,1.938c-1.074,0-2.168-0.149-3.281-0.448c-0.685,0.545-1.147,1.02-1.392,1.424
		s-0.366,0.747-0.366,1.028c0,0.246,0.127,0.479,0.381,0.698c0.253,0.221,0.762,0.383,1.523,0.488
		c0.449,0.053,1.553,0.105,3.311,0.158c3.241,0.07,5.342,0.167,6.299,0.29c1.465,0.176,2.632,0.664,3.501,1.464
		s1.304,1.779,1.304,2.939c0,1.6-0.831,3.094-2.49,4.482c-2.461,2.074-5.665,3.111-9.609,3.111c-3.028,0-5.596-0.615-7.705-1.846
		c-1.172-0.703-1.758-1.441-1.758-2.215c0-0.334,0.088-0.677,0.264-1.028c0.273-0.51,0.82-1.23,1.641-2.162
		c0.117-0.141,0.918-0.905,2.402-2.294c-0.802-0.439-1.372-0.835-1.714-1.187s-0.513-0.747-0.513-1.187
		c0-0.492,0.224-1.072,0.674-1.74C360.636,25.251,361.67,24.311,363.292,23.098z M363.058,30.19
		c-0.743,0.721-1.304,1.393-1.685,2.018c-0.381,0.623-0.571,1.199-0.571,1.727c0,0.668,0.458,1.257,1.377,1.767
		c1.563,0.879,3.838,1.318,6.826,1.318c2.813,0,4.893-0.448,6.24-1.345s2.021-1.854,2.021-2.874c0-0.738-0.4-1.266-1.201-1.582
		c-0.82-0.299-2.442-0.475-4.863-0.527C367.667,30.604,364.951,30.437,363.058,30.19z M367.394,11.206
		c-1.172,0-2.149,0.418-2.93,1.252c-0.781,0.836-1.172,2.114-1.172,3.837c0,2.232,0.527,3.964,1.582,5.194
		c0.82,0.932,1.864,1.397,3.135,1.397c1.19,0,2.173-0.404,2.944-1.213s1.157-2.074,1.157-3.797c0-2.25-0.547-4.008-1.641-5.273
		C369.668,11.672,368.643,11.206,367.394,11.206z"/>
	<path fill="#0099CC" d="M401.144,0v25.787c0,1.23,0.098,2.044,0.293,2.438c0.194,0.396,0.498,0.695,0.908,0.896
		c0.41,0.203,1.172,0.304,2.285,0.304v0.765h-10.576v-0.765c0.996,0,1.675-0.093,2.036-0.276c0.361-0.186,0.64-0.488,0.835-0.91
		c0.194-0.422,0.293-1.239,0.293-2.452V8.147c0-2.197-0.054-3.547-0.161-4.047c-0.107-0.502-0.283-0.844-0.527-1.029
		c-0.244-0.184-0.553-0.276-0.923-0.276c-0.41,0-0.928,0.114-1.553,0.343l-0.41-0.765L400.089,0H401.144z"/>
	<path fill="#0099CC" d="M417.696,10.178c3.281,0,5.907,1.116,7.881,3.349c1.68,1.916,2.52,4.113,2.52,6.592
		c0,1.74-0.464,3.498-1.392,5.273s-2.202,3.12-3.823,4.034c-1.622,0.914-3.438,1.371-5.449,1.371c-3.242,0-5.83-1.169-7.764-3.507
		c-1.602-1.969-2.402-4.175-2.402-6.618c0-1.793,0.487-3.568,1.465-5.326c0.977-1.758,2.266-3.059,3.867-3.902
		C414.199,10.6,415.898,10.178,417.696,10.178z M416.964,11.549c-0.82,0-1.655,0.224-2.505,0.673
		c-0.85,0.447-1.533,1.23-2.051,2.346c-0.518,1.117-0.776,2.554-0.776,4.312c0,2.83,0.625,5.27,1.875,7.317
		c1.249,2.048,2.9,3.071,4.951,3.071c1.523,0,2.778-0.563,3.765-1.688s1.479-3.067,1.479-5.827c0-3.463-0.82-6.188-2.461-8.174
		C420.128,12.226,418.702,11.549,416.964,11.549z"/>
	<path fill="#0099CC" d="M437.062,23.098c-1.329-0.58-2.344-1.389-3.047-2.426s-1.055-2.188-1.055-3.454
		c0-1.916,0.806-3.568,2.417-4.957s3.677-2.083,6.196-2.083c2.051,0,3.827,0.448,5.332,1.345h4.57c0.684,0,1.079,0.018,1.187,0.053
		s0.19,0.097,0.249,0.185c0.098,0.141,0.146,0.369,0.146,0.686c0,0.369-0.04,0.624-0.117,0.765c-0.059,0.07-0.146,0.128-0.264,0.172
		s-0.518,0.065-1.201,0.065h-2.783c0.879,1.02,1.318,2.32,1.318,3.902c0,1.811-0.772,3.362-2.314,4.653
		c-1.543,1.293-3.614,1.938-6.211,1.938c-1.074,0-2.168-0.149-3.281-0.448c-0.685,0.545-1.147,1.02-1.392,1.424
		s-0.366,0.747-0.366,1.028c0,0.246,0.127,0.479,0.381,0.698c0.253,0.221,0.762,0.383,1.523,0.488
		c0.449,0.053,1.553,0.105,3.311,0.158c3.241,0.07,5.342,0.167,6.299,0.29c1.465,0.176,2.632,0.664,3.501,1.464
		s1.304,1.779,1.304,2.939c0,1.6-0.831,3.094-2.49,4.482c-2.461,2.074-5.665,3.111-9.609,3.111c-3.028,0-5.596-0.615-7.705-1.846
		c-1.172-0.703-1.758-1.441-1.758-2.215c0-0.334,0.088-0.677,0.264-1.028c0.273-0.51,0.82-1.23,1.641-2.162
		c0.117-0.141,0.918-0.905,2.402-2.294c-0.802-0.439-1.372-0.835-1.714-1.187s-0.513-0.747-0.513-1.187
		c0-0.492,0.224-1.072,0.674-1.74C434.405,25.251,435.439,24.311,437.062,23.098z M436.827,30.19
		c-0.743,0.721-1.304,1.393-1.685,2.018c-0.381,0.623-0.571,1.199-0.571,1.727c0,0.668,0.458,1.257,1.377,1.767
		c1.563,0.879,3.838,1.318,6.826,1.318c2.813,0,4.893-0.448,6.24-1.345s2.021-1.854,2.021-2.874c0-0.738-0.4-1.266-1.201-1.582
		c-0.82-0.299-2.442-0.475-4.863-0.527C441.437,30.604,438.721,30.437,436.827,30.19z M441.163,11.206
		c-1.172,0-2.149,0.418-2.93,1.252c-0.781,0.836-1.172,2.114-1.172,3.837c0,2.232,0.527,3.964,1.582,5.194
		c0.82,0.932,1.864,1.397,3.135,1.397c1.19,0,2.173-0.404,2.944-1.213s1.157-2.074,1.157-3.797c0-2.25-0.547-4.008-1.641-5.273
		C443.438,11.672,442.412,11.206,441.163,11.206z"/>
</g>
</svg>
