<?xml version="1.0" encoding="utf-8"?>
<!-- Generator: Adobe Illustrator 14.0.0, SVG Export Plug-In . SVG Version: 6.00 Build 43363)  -->
<!DOCTYPE svg PUBLIC "-//W3C//DTD SVG 1.1//EN" "http://www.w3.org/Graphics/SVG/1.1/DTD/svg11.dtd">
<svg version="1.1" id="图层_1" xmlns="http://www.w3.org/2000/svg" xmlns:xlink="http://www.w3.org/1999/xlink" x="0px" y="0px"
	 width="620.54px" height="155.447px" viewBox="0 0 620.54 155.447" enable-background="new 0 0 620.54 155.447"
	 xml:space="preserve">
<g>
	<path fill-rule="evenodd" clip-rule="evenodd" fill="#221E1F" d="M26.431,17.342c0,0-25.43,14.895-25.43,60.105
		s21.102,60.359,25.43,60.359s533.074,17.641,557.6,17.641c0,0,37.912-7.253,36.47-82.994c-2-65.5-34-73-45.848-72.424
		L26.431,17.342z"/>
	<linearGradient id="SVGID_1_" gradientUnits="userSpaceOnUse" x1="312.0996" y1="17.5845" x2="307.3076" y2="123.6682">
		<stop  offset="0" style="stop-color:#CC8E2B"/>
		<stop  offset="1" style="stop-color:#814415"/>
	</linearGradient>
	<path fill-rule="evenodd" clip-rule="evenodd" fill="url(#SVGID_1_)" d="M27.695,18.231c0,0-24.263,14.022-24.263,59.233
		s20.361,57.106,24.689,57.106s528.823,16.021,553.349,16.021c0,0,33.925-5.278,33.925-75.955
		c-1.885-67.095-32.744-72.75-39.957-72.75L27.695,18.231z"/>
	<g>
		
			<ellipse transform="matrix(0.9998 -0.0184 0.0184 0.9998 -1.3018 10.6193)" fill-rule="evenodd" clip-rule="evenodd" fill="#EADA98" cx="577.975" cy="76.242" rx="38.634" ry="75.034"/>
		<path fill-rule="evenodd" clip-rule="evenodd" fill="#C2994C" d="M592.294,76.632c-0.268-14.58-5.966-26.299-12.729-26.175
			c-6.762,0.123-12.027,12.044-11.759,26.624c0.267,14.579,5.966,26.298,12.728,26.174
			C587.296,103.13,592.562,91.211,592.294,76.632z M580.565,96.22c-5.243,0.096-9.651-8.308-9.843-18.768
			c-0.193-10.462,3.905-19.021,9.148-19.116c5.246-0.097,9.652,8.307,9.845,18.768S585.813,96.123,580.565,96.22z"/>
		<path fill-rule="evenodd" clip-rule="evenodd" fill="#C2994C" d="M600.431,76.306c-0.454-24.761-10.132-44.662-21.616-44.45
			c-11.484,0.21-20.425,20.453-19.97,45.214c0.453,24.761,10.132,44.661,21.615,44.451
			C591.944,121.31,600.885,101.067,600.431,76.306z M580.395,114.049c-10.103,0.185-18.598-16.383-18.977-37.006
			c-0.378-20.623,7.503-37.491,17.605-37.676C589.126,39.18,597.621,55.749,598,76.372
			C598.378,96.995,590.495,113.864,580.395,114.049z"/>
		<path fill-rule="evenodd" clip-rule="evenodd" fill="#C2994C" d="M611.45,75.227c-0.659-35.975-15.625-64.871-33.426-64.545
			S546.329,40.436,546.99,76.41c0.659,35.975,15.624,64.872,33.425,64.546S612.111,111.201,611.45,75.227z M579.762,134.486
			c-15.885,0.291-29.239-25.425-29.826-57.44c-0.588-32.013,11.813-58.202,27.699-58.493c15.887-0.291,29.24,25.425,29.827,57.438
			C608.051,108.005,595.648,134.195,579.762,134.486z"/>
	</g>
	<path fill-rule="evenodd" clip-rule="evenodd" fill="#643119" d="M542.28,105.594c0,0-94.035,0.702-116.491,4.211
		s-80,4.912-80,4.912s68.771,2.808,91.93-1.403s70.878-1.403,84.913-3.509s22.456,1.403,22.456,1.403L542.28,105.594z"/>
	<path fill-rule="evenodd" clip-rule="evenodd" fill="#643119" d="M547.334,116.788c0,0-18.666,0.667-26,0.667s-21.334,0-21.334,0
		s22.75,1.249,23.5,1.249s24.5,0.75,24.5,0.75L547.334,116.788z"/>
	<path fill-rule="evenodd" clip-rule="evenodd" fill="#8A471D" d="M10.993,38.569c0,0,21.482-1.194,23.87-0.955
		s4.059,1.194,7.639,0.955s63.493-1.671,74.951-2.148s24.825,0.238,24.825,0.238s-46.308,0.477-63.971,1.671
		s-37.953,1.193-42.011,0.955s-26.018,1.433-26.018,1.433L10.993,38.569z"/>
	<path fill-rule="evenodd" clip-rule="evenodd" fill="#AD6D25" d="M557.719,11.815c0,0-90.476,2.475-96.483,4.241
		s-54.073,7.422-54.073,7.422s54.427-5.654,62.202-7.068s86.588-2.121,86.588-2.121L557.719,11.815z"/>
	<path fill-rule="evenodd" clip-rule="evenodd" fill="#AD6D25" d="M557.719,11.815c0,0,4.781,13.639,8.781,16.639s13.5,36,13.5,36
		s-6.5-18.5-10-25s-12.5-18.5-12.5-20.5s-1.548-4.665-1.548-4.665L557.719,11.815z"/>
	<path fill-rule="evenodd" clip-rule="evenodd" fill="#AD6D25" d="M542.28,105.594c0,0,13.72-7.474,17.72-8.807s5.334-4,5.334-4
		l-21.334,16L542.28,105.594z"/>
	<polygon fill-rule="evenodd" clip-rule="evenodd" fill="#AD6D25" points="547.334,116.788 556.667,109.455 548,119.454 	"/>
	<polygon fill-rule="evenodd" clip-rule="evenodd" fill="#AD6D25" points="596.948,104.411 604.37,112.186 609.318,120.667 
		610.378,117.487 605.431,110.772 	"/>
	<path fill-rule="evenodd" clip-rule="evenodd" fill="#8A471D" d="M6.5,50.454c0,0,27-3,36-2s127,1,170.5,1.5s139-1,162-2s69-1,69-1
		l-115.5,4c0,0-102.5,1-112.5,1s-158-0.5-168.5-1s-41.5,2-41.5,2L6.5,50.454z"/>
	<path fill-rule="evenodd" clip-rule="evenodd" fill="#643119" d="M16.366,125.525c0,0,14.255,0.413,23.139,0.413
		s59.295,2.686,59.295,2.686s-52.478-1.033-54.75-1.033s-25.825,0.62-25.825,0.62l-2.273-3.512L16.366,125.525z"/>
	<path fill-rule="evenodd" clip-rule="evenodd" fill="#643119" d="M20.94,130.869c0,0,15.35-1.204,21.972-0.301
		s27.69,1.806,27.69,1.806l-32.807-0.602l-14.748,0.902L20.94,130.869z"/>
	<path fill-rule="evenodd" clip-rule="evenodd" fill="#643119" d="M566.808,147.89c0,0-21.581-1.541-31.271-1.541
		s-32.151-1.763-39.419-2.863s-46.466-1.321-46.466-1.321s51.972-0.22,55.274-0.22s7.929,1.541,16.517,1.981
		s41.841,1.542,41.841,1.542L566.808,147.89z"/>
	<path fill-rule="evenodd" clip-rule="evenodd" fill="#643119" d="M11.314,116.589c0,0,66.198-2.347,79.813-1.408
		s84.507-0.47,118.779,1.878s110.329-0.939,110.329-0.939s-77.935,3.287-98.592,3.287s-76.056-2.347-96.713-1.878
		S11.314,116.589,11.314,116.589z"/>
</g>
</svg>
