<?xml version="1.0" encoding="utf-8"?>
<!-- Generator: Adobe Illustrator 14.0.0, SVG Export Plug-In . SVG Version: 6.00 Build 43363)  -->
<!DOCTYPE svg PUBLIC "-//W3C//DTD SVG 1.1//EN" "http://www.w3.org/Graphics/SVG/1.1/DTD/svg11.dtd">
<svg version="1.1" id="图层_1" xmlns="http://www.w3.org/2000/svg" xmlns:xlink="http://www.w3.org/1999/xlink" x="0px" y="0px"
	 width="226.77px" height="99px" viewBox="0 0 226.77 99" enable-background="new 0 0 226.77 99" xml:space="preserve">
<g>
	<path d="M92.247,60.06c-1.582,1.478-3.127,2.545-4.636,3.204c-1.509,0.659-3.127,0.989-4.856,0.989
		c-3.545,0-6.636-1.339-9.272-4.015s-3.955-6.098-3.955-10.264c0-4.192,1.457-8.022,4.373-11.489
		c2.915-3.467,6.672-5.201,11.272-5.201c2.871,0,5.229,0.817,7.075,2.452v-5.379c0-3.322-0.088-5.365-0.264-6.13
		s-0.447-1.286-0.813-1.563c-0.367-0.277-0.842-0.416-1.428-0.416c-0.615,0-1.421,0.172-2.417,0.515l-0.483-1.147l9.668-3.559h1.582
		v33.736c0,3.401,0.088,5.484,0.264,6.249s0.461,1.292,0.857,1.582s0.857,0.435,1.384,0.435c0.615,0,1.45-0.184,2.505-0.553
		l0.396,1.146l-9.624,3.6h-1.626V60.06z M92.247,57.845V42.815c-0.117-1.449-0.535-2.768-1.252-3.955
		c-0.718-1.186-1.655-2.082-2.813-2.689c-1.158-0.605-2.292-0.909-3.406-0.909c-2.081,0-3.94,0.844-5.581,2.531
		c-2.139,2.188-3.208,5.405-3.208,9.65c0,4.298,1.04,7.588,3.12,9.868c2.08,2.28,4.395,3.421,6.943,3.421
		C88.189,60.732,90.254,59.771,92.247,57.845z"/>
	<path d="M116.769,33.323v23.414c0,1.847,0.146,3.065,0.439,3.659c0.292,0.593,0.726,1.042,1.296,1.345
		c0.572,0.303,1.633,0.455,3.187,0.455v1.146h-15.732v-1.146c1.582,0,2.644-0.139,3.186-0.416c0.542-0.276,0.967-0.731,1.274-1.364
		s0.461-1.858,0.461-3.679V45.505c0-3.164-0.103-5.207-0.308-6.13c-0.176-0.686-0.439-1.16-0.791-1.424s-0.835-0.396-1.45-0.396
		c-0.645,0-1.436,0.158-2.373,0.475l-0.527-1.146l9.756-3.561H116.769z M113.824,18.058c0.996,0,1.838,0.316,2.527,0.949
		c0.688,0.633,1.032,1.397,1.032,2.293c0,0.871-0.345,1.629-1.032,2.274c-0.689,0.646-1.531,0.97-2.527,0.97
		s-1.846-0.323-2.549-0.97c-0.703-0.646-1.055-1.403-1.055-2.274c0-0.896,0.344-1.66,1.033-2.293
		C111.941,18.374,112.798,18.058,113.824,18.058z"/>
	<path d="M134.391,52.704c-1.992-0.871-3.516-2.083-4.57-3.639s-1.582-3.283-1.582-5.182c0-2.874,1.209-5.353,3.625-7.436
		c2.418-2.083,5.516-3.125,9.295-3.125c3.076,0,5.742,0.673,7.998,2.018h6.855c1.025,0,1.619,0.026,1.779,0.079
		c0.161,0.053,0.286,0.146,0.374,0.276c0.146,0.212,0.22,0.555,0.22,1.029c0,0.553-0.059,0.936-0.176,1.146
		c-0.088,0.105-0.22,0.191-0.396,0.257c-0.176,0.066-0.776,0.099-1.802,0.099h-4.175c1.318,1.53,1.978,3.48,1.978,5.854
		c0,2.717-1.158,5.043-3.472,6.981c-2.314,1.938-5.421,2.907-9.316,2.907c-1.611,0-3.252-0.225-4.922-0.673
		c-1.026,0.817-1.722,1.529-2.087,2.136c-0.367,0.606-0.55,1.121-0.55,1.543c0,0.369,0.19,0.718,0.571,1.048
		s1.143,0.573,2.285,0.731c0.674,0.079,2.329,0.158,4.966,0.237c4.862,0.105,8.013,0.251,9.448,0.435
		c2.197,0.265,3.947,0.996,5.252,2.195c1.303,1.2,1.955,2.67,1.955,4.41c0,2.399-1.246,4.641-3.735,6.724
		c-3.691,3.111-8.497,4.667-14.414,4.667c-4.542,0-8.394-0.923-11.558-2.769c-1.758-1.055-2.637-2.162-2.637-3.322
		c0-0.501,0.132-1.016,0.396-1.542c0.41-0.766,1.23-1.847,2.461-3.244c0.176-0.211,1.377-1.357,3.604-3.44
		c-1.202-0.659-2.059-1.252-2.571-1.78c-0.512-0.526-0.769-1.12-0.769-1.779c0-0.738,0.337-1.608,1.011-2.61
		S131.959,54.522,134.391,52.704z M134.039,63.343c-1.113,1.081-1.955,2.09-2.527,3.025c-0.57,0.936-0.856,1.8-0.856,2.591
		c0,1.002,0.688,1.885,2.065,2.649c2.344,1.318,5.757,1.979,10.239,1.979c4.219,0,7.339-0.673,9.36-2.018s3.032-2.782,3.032-4.311
		c0-1.107-0.601-1.898-1.802-2.373c-1.23-0.449-3.662-0.713-7.295-0.791C140.953,63.962,136.881,63.712,134.039,63.343z
		 M140.543,34.866c-1.758,0-3.223,0.627-4.395,1.879s-1.758,3.171-1.758,5.754c0,3.35,0.791,5.946,2.373,7.792
		c1.23,1.397,2.797,2.097,4.702,2.097c1.786,0,3.259-0.606,4.417-1.82c1.156-1.212,1.735-3.11,1.735-5.695
		c0-3.374-0.82-6.012-2.461-7.91C143.955,35.565,142.418,34.866,140.543,34.866z"/>
</g>
</svg>
