<?xml version="1.0" encoding="utf-8"?>
<!-- Generator: Adobe Illustrator 14.0.0, SVG Export Plug-In . SVG Version: 6.00 Build 43363)  -->
<!DOCTYPE svg PUBLIC "-//W3C//DTD SVG 1.1//EN" "http://www.w3.org/Graphics/SVG/1.1/DTD/svg11.dtd">
<svg version="1.1" id="图层_1" xmlns="http://www.w3.org/2000/svg" xmlns:xlink="http://www.w3.org/1999/xlink" x="0px" y="0px"
	 width="226.77px" height="99px" viewBox="0 0 226.77 99" enable-background="new 0 0 226.77 99" xml:space="preserve">
<g>
	<path d="M77.921,60.06c-1.582,1.478-3.127,2.545-4.636,3.204c-1.509,0.659-3.127,0.989-4.856,0.989
		c-3.545,0-6.636-1.339-9.272-4.015s-3.955-6.098-3.955-10.264c0-4.192,1.457-8.022,4.373-11.489
		c2.915-3.467,6.672-5.201,11.272-5.201c2.871,0,5.229,0.817,7.075,2.452v-5.379c0-3.322-0.088-5.365-0.264-6.13
		s-0.447-1.286-0.813-1.563c-0.367-0.277-0.842-0.416-1.428-0.416c-0.615,0-1.421,0.172-2.417,0.515l-0.483-1.147l9.668-3.559h1.582
		v33.736c0,3.401,0.088,5.484,0.264,6.249s0.461,1.292,0.857,1.582s0.857,0.435,1.384,0.435c0.615,0,1.45-0.184,2.505-0.553
		l0.396,1.146l-9.624,3.6h-1.626V60.06z M77.921,57.845V42.815c-0.117-1.449-0.535-2.768-1.252-3.955
		c-0.718-1.186-1.655-2.082-2.813-2.689c-1.158-0.605-2.292-0.909-3.406-0.909c-2.081,0-3.94,0.844-5.581,2.531
		c-2.139,2.188-3.208,5.405-3.208,9.65c0,4.298,1.04,7.588,3.12,9.868c2.08,2.28,4.395,3.421,6.943,3.421
		C73.863,60.732,75.928,59.771,77.921,57.845z"/>
	<path d="M102.442,33.323v23.414c0,1.847,0.146,3.065,0.439,3.659c0.292,0.593,0.725,1.042,1.296,1.345s1.633,0.455,3.186,0.455
		v1.146H91.632v-1.146c1.582,0,2.644-0.139,3.186-0.416c0.542-0.276,0.967-0.731,1.274-1.364s0.461-1.858,0.461-3.679V45.505
		c0-3.164-0.103-5.207-0.308-6.13c-0.176-0.686-0.439-1.16-0.791-1.424s-0.835-0.396-1.45-0.396c-0.645,0-1.436,0.158-2.373,0.475
		l-0.527-1.146l9.756-3.561H102.442z M99.498,18.058c0.996,0,1.838,0.316,2.527,0.949c0.688,0.633,1.033,1.397,1.033,2.293
		c0,0.871-0.345,1.629-1.033,2.274c-0.688,0.646-1.531,0.97-2.527,0.97c-0.996,0-1.846-0.323-2.549-0.97
		c-0.703-0.646-1.055-1.403-1.055-2.274c0-0.896,0.344-1.66,1.033-2.293C97.615,18.374,98.472,18.058,99.498,18.058z"/>
	<path d="M132.325,33.323v9.928h-1.143c-0.908-3.111-2.065-5.233-3.472-6.367s-3.193-1.701-5.361-1.701
		c-1.641,0-2.974,0.396-3.999,1.187c-1.026,0.791-1.538,1.661-1.538,2.61c0,1.187,0.381,2.202,1.143,3.045
		c0.732,0.871,2.227,1.794,4.482,2.77l5.142,2.293c4.805,2.084,7.207,4.853,7.207,8.307c0,2.637-1.12,4.772-3.362,6.406
		c-2.24,1.635-4.738,2.453-7.492,2.453c-1.963,0-4.219-0.33-6.768-0.989c-0.791-0.211-1.436-0.316-1.934-0.316
		c-0.527,0-0.952,0.276-1.274,0.831h-1.143V53.376h1.143c0.674,2.979,1.94,5.221,3.802,6.724c1.859,1.503,3.947,2.255,6.262,2.255
		c1.611,0,2.93-0.429,3.955-1.286c1.025-0.856,1.538-1.892,1.538-3.104c0-1.477-0.571-2.709-1.714-3.698
		c-1.143-0.988-3.421-2.247-6.834-3.776c-3.412-1.529-5.646-2.914-6.701-4.153c-1.055-1.213-1.582-2.742-1.582-4.588
		c0-2.399,0.908-4.403,2.725-6.012c1.816-1.608,4.175-2.413,7.075-2.413c1.289,0,2.841,0.238,4.658,0.713
		c1.201,0.316,1.992,0.475,2.373,0.475c0.38,0,0.681-0.073,0.901-0.218c0.219-0.145,0.476-0.468,0.769-0.97H132.325z"/>
	<path d="M149.2,18.058v28.99l8.218-6.724c1.758-1.45,2.769-2.359,3.032-2.729c0.204-0.263,0.308-0.526,0.308-0.791
		c0-0.421-0.197-0.784-0.594-1.087c-0.395-0.303-1.032-0.481-1.911-0.534v-0.988h14.063v0.988c-1.934,0.053-3.545,0.323-4.834,0.811
		c-1.29,0.488-2.696,1.365-4.219,2.631l-8.306,6.881l8.306,9.453c2.313,2.61,3.867,4.271,4.658,4.983
		c1.143,1.002,2.138,1.648,2.988,1.938c0.586,0.211,1.61,0.316,3.076,0.316v1.146h-15.732v-1.146
		c0.879-0.026,1.479-0.152,1.802-0.376s0.483-0.534,0.483-0.93c0-0.501-0.469-1.292-1.406-2.373L149.2,47.087v9.69
		c0,1.898,0.146,3.145,0.439,3.737c0.292,0.594,0.71,1.016,1.253,1.266c0.541,0.251,1.721,0.39,3.537,0.416v1.146H137.95v-1.146
		c1.641,0,2.871-0.185,3.691-0.555c0.498-0.236,0.879-0.593,1.143-1.067c0.352-0.712,0.527-1.925,0.527-3.639V30.397
		c0-3.375-0.081-5.438-0.241-6.19c-0.162-0.751-0.434-1.271-0.813-1.562c-0.381-0.29-0.879-0.436-1.494-0.436
		c-0.499,0-1.245,0.185-2.241,0.554l-0.571-1.147l9.624-3.559H149.2z"/>
</g>
</svg>
