<?xml version="1.0" encoding="utf-8"?>
<!-- Generator: Adobe Illustrator 14.0.0, SVG Export Plug-In . SVG Version: 6.00 Build 43363)  -->
<!DOCTYPE svg PUBLIC "-//W3C//DTD SVG 1.1//EN" "http://www.w3.org/Graphics/SVG/1.1/DTD/svg11.dtd">
<svg version="1.1" id="图层_1" xmlns="http://www.w3.org/2000/svg" xmlns:xlink="http://www.w3.org/1999/xlink" x="0px" y="0px"
	 width="226.77px" height="99px" viewBox="0 0 226.77 99" enable-background="new 0 0 226.77 99" xml:space="preserve">
<g>
	<path d="M75.924,23.318h10.664l0.547-0.82c0.727-1.457,1.367-2.277,1.914-2.461c4.008,0.914,6.926,2.828,8.75,5.742
		c-0.367,0.547-1.094,1.277-2.188,2.188v9.023h4.375c0,0.184,0.547-0.637,1.641-2.461c1.094-1.82,1.73-2.734,1.914-2.734
		c1.641,0.184,3.918,1.641,6.836,4.375c0.363,0.73,0.453,1.277,0.273,1.641c-0.184,0.184-0.641,0.273-1.367,0.273H95.611v10.117
		c0,2.555-0.73,4.285-2.188,5.195c5.102,2.188,7.836,4.012,8.203,5.469c0,0.547-0.457,1.277-1.367,2.188
		c-0.367,0.367-0.547,0.641-0.547,0.82v12.031h1.094c0-0.184,0.273-0.73,0.82-1.641c1.094-1.641,2.004-2.641,2.734-3.008
		c1.273-0.18,3.281,1.188,6.016,4.102c0.363,0.363,0.453,0.727,0.273,1.094c0,0.18-0.273,0.363-0.82,0.547H48.033
		c-0.73-0.184-1.277-0.367-1.641-0.547c-0.184-0.367,0.09-0.547,0.82-0.547H57.33V54.764c-1.824,0.914-3.738,1.734-5.742,2.461
		c-1.461,0.73-2.281,1.004-2.461,0.82c-0.184-0.18,0.453-0.727,1.914-1.641c6.926-4.738,10.664-10.844,11.211-18.32H48.58
		c-0.73,0-1.277-0.09-1.641-0.273c-0.367-0.363-0.184-0.637,0.547-0.82h14.766c0-4.738,0-9.297,0-13.672
		c0-2.551,1.914-2.914,5.742-1.094c1.273,0.547,2.551,0.914,3.828,1.094c0-2.004-0.094-3.555-0.273-4.648
		c0-1.457,0.18-2.367,0.547-2.734c1.094-0.18,3.281,0,6.563,0.547c2.004,0.367,3.098,0.82,3.281,1.367
		c0,0.367-0.457,0.82-1.367,1.367C78.385,20.311,76.834,21.678,75.924,23.318z M65.807,56.404h25.156v-0.547
		c0.363-0.547,0.727-1.094,1.094-1.641c-1.461,0.547-3.191,0.82-5.195,0.82c-0.914,0-1.551-0.637-1.914-1.914
		c-0.73-2.188-2.008-3.555-3.828-4.102c-2.188,1.277-4.012,1.188-5.469-0.273c-0.367-0.363-0.547-1.273-0.547-2.734
		c0-2.551-0.547-4.375-1.641-5.469c-0.73-0.363-1.094-0.637-1.094-0.82c0.18-0.18,0.82-0.273,1.914-0.273
		c6.742,0.73,9.387,3.465,7.93,8.203c3.828,0.914,5.742,0.094,5.742-2.461v-7.109H69.088c-0.184,6.199-3.465,11.484-9.844,15.859
		c0.363,0.367,1,0.73,1.914,1.094C63.893,56.131,65.439,56.588,65.807,56.404z M68.268,57.771h-1.914
		c-1.277,0.184-1.914,0.73-1.914,1.641v14.492h3.828V57.771z M87.955,24.686H73.189h-0.273c-1.824,0-2.828,1.094-3.008,3.281
		c-0.184,1.277-0.367,2.918-0.547,4.922c0,1.641,0,3.008,0,4.102h9.023c-1.461-0.727-2.188-2.004-2.188-3.828
		c0-2.004-0.547-3.555-1.641-4.648c-1.094-0.727-1.551-1.094-1.367-1.094c0-0.363,0.547-0.547,1.641-0.547
		c5.648,0.73,8.566,2.461,8.75,5.195c0.18,2.555-0.641,4.195-2.461,4.922h6.836V24.686z M75.65,59.686v14.219h4.648V57.771h-2.734
		C76.104,57.955,75.467,58.592,75.65,59.686z M91.783,57.771h-3.281c-1.094,0.184-1.641,0.82-1.641,1.914v14.219h4.922V57.771z"/>
	<path d="M153.854,37.264v5.195h14.219l1.094-1.641c1.82-2.734,3.188-4.191,4.102-4.375c1.457,0.184,3.555,1.734,6.289,4.648
		c0.91,1.094,1.273,1.824,1.094,2.188c-0.184,0.547-0.82,0.73-1.914,0.547h-24.883v27.07c-0.184,2.734-1.734,4.828-4.648,6.289
		c-2.734,1.094-5.195,1.457-7.383,1.094c-0.73-0.184-1.367-0.82-1.914-1.914c-1.094-2.734-3.465-4.648-7.109-5.742
		c-1.641-0.547-1.004-0.82,1.914-0.82c6.563-0.18,9.844-1.184,9.844-3.008V43.826h-27.891c-0.73,0-1.094-0.18-1.094-0.547
		c-0.184-0.363,0.09-0.637,0.82-0.82h28.164v-7.383c-1.094-2.367,1.367-3.188,7.383-2.461c3.645-4.922,6.289-9.113,7.93-12.578
		h-33.633c-0.73,0-1.188-0.18-1.367-0.547c-0.184-0.363,0.09-0.637,0.82-0.82h33.906c1.457-2.004,2.641-3.188,3.555-3.555
		c1.273-0.18,3.555,0.914,6.836,3.281c3.461,2.734,5.012,4.559,4.648,5.469c-0.547,0.73-1.277,1.004-2.188,0.82
		c-1.641-0.18-3.102,0-4.375,0.547c-6.383,3.102-10.938,5.652-13.672,7.656c-0.184,0.184-0.367,0.273-0.547,0.273
		C155.674,33.709,155.674,35.076,153.854,37.264z"/>
</g>
</svg>
