<?xml version="1.0" encoding="utf-8"?>
<!-- Generator: Adobe Illustrator 14.0.0, SVG Export Plug-In . SVG Version: 6.00 Build 43363)  -->
<!DOCTYPE svg PUBLIC "-//W3C//DTD SVG 1.1//EN" "http://www.w3.org/Graphics/SVG/1.1/DTD/svg11.dtd">
<svg version="1.1" id="图层_1" xmlns="http://www.w3.org/2000/svg" xmlns:xlink="http://www.w3.org/1999/xlink" x="0px" y="0px"
	 width="226.77px" height="99px" viewBox="0 0 226.77 99" enable-background="new 0 0 226.77 99" xml:space="preserve">
<g>
	<path d="M69.361,30.701v27.07c0,1.641-2.008,2.371-6.016,2.188c-1.277,0-1.914-0.547-1.914-1.641v-3.008h-4.648v4.648
		c0,1.824-1.914,2.645-5.742,2.461c-1.641,0.184-2.371-0.453-2.188-1.914v-35c-0.184-1.094,0-1.73,0.547-1.914
		c0.363-0.363,1.273-0.273,2.734,0.273c0.91,0.547,2.188,1.094,3.828,1.641c0.363,0,0.637,0,0.82,0h3.008
		c0.18,0,0.727-0.547,1.641-1.641c0.727-0.91,1.273-1.457,1.641-1.641c2.367,0.367,5.012,2.008,7.93,4.922
		c0,0.547-0.273,1.094-0.82,1.641C69.635,29.701,69.361,30.338,69.361,30.701z M56.783,29.607v24.609h4.648V26.873h-2.461
		C57.146,26.693,56.416,27.604,56.783,29.607z M106.275,55.584l0.273,19.141c-0.184,2.367-2.188,3.645-6.016,3.828
		c-2.008,0-2.918-0.73-2.734-2.188v-4.102H80.025v3.555c-0.184,1.82-2.008,2.824-5.469,3.008c-1.824,0-2.645-0.547-2.461-1.641
		V49.842c-0.184-1.273-0.094-2.004,0.273-2.188c0.363-0.18,1.367-0.09,3.008,0.273c1.457,0.547,3.188,1.188,5.195,1.914h15.859
		c0.18,0,0.453-0.453,0.82-1.367c0.727-1.457,1.367-2.277,1.914-2.461c4.555,1.824,7.656,3.738,9.297,5.742
		c0,0.547-0.273,1.094-0.82,1.641C106.912,54.311,106.455,55.037,106.275,55.584z M103.814,25.779v15.586
		c0,2.371-1.824,3.465-5.469,3.281c-2.008,0.184-3.008-0.453-3.008-1.914v-1.367H83.307v1.094c-0.184,2.008-2.281,3.008-6.289,3.008
		c-1.461,0-2.008-0.547-1.641-1.641V20.584c-0.184-1.273,0-1.914,0.547-1.914c0.363-0.18,1.457,0,3.281,0.547
		c1.273,0.547,2.824,1.188,4.648,1.914h9.297c0.363,0,0.91-0.547,1.641-1.641c0.91-1.457,1.73-2.277,2.461-2.461
		c4.008,1.641,6.926,3.555,8.75,5.742c-0.184,0.547-0.547,1.094-1.094,1.641C104.178,24.959,103.814,25.416,103.814,25.779z
		 M97.799,50.936H83.58c-2.734-0.18-3.922,1.004-3.555,3.555v6.289h17.773V50.936z M80.025,61.873v9.023h17.773v-9.023H80.025z
		 M95.338,22.225h-8.477c-2.734-0.18-3.922,0.82-3.555,3.008v5.195h12.031V22.225z M95.338,31.521H83.307v8.477h12.031V31.521z"/>
	<path d="M158.229,18.67v16.68h7.656c0.18,0,0.91-0.82,2.188-2.461c1.641-2.188,2.734-3.281,3.281-3.281
		c1.457,0.184,3.828,1.641,7.109,4.375c0.727,0.914,1,1.641,0.82,2.188c-0.367,0.367-1.277,0.547-2.734,0.547h-41.563
		c-0.547,7.656-0.82,12.305-0.82,13.945h15.586c0.547,0,1.273-0.727,2.188-2.188c0.727-1.457,1.367-2.188,1.914-2.188
		c4.008,1.461,6.926,3.375,8.75,5.742c0,0.547-0.457,1.094-1.367,1.641c-1.094,0.547-1.551,1.004-1.367,1.367v20.508
		c-0.184,2.004-2.098,3.098-5.742,3.281c-2.008,0-2.918-0.641-2.734-1.914V52.029h-17.5c-1.094,8.75-4.648,15.77-10.664,21.055
		c-3.102,2.367-5.016,3.555-5.742,3.555c-0.547-0.184,0.363-1.551,2.734-4.102c4.375-5.469,6.469-13.945,6.289-25.43
		c0-15.492,0-23.789,0-24.883c-0.367-2.367,0.363-3.555,2.188-3.555c4.922,0.73,7.563,1.277,7.93,1.641
		c0,0.367-0.184,0.82-0.547,1.367c-0.547,0.73-0.82,1.461-0.82,2.188c-0.184,3.465-0.273,7.293-0.273,11.484h14.766V15.936
		c-0.184-1.273,0.453-1.82,1.914-1.641c5.832,0.184,8.566,0.82,8.203,1.914c0,0.367-0.273,0.73-0.82,1.094
		C158.502,17.85,158.229,18.307,158.229,18.67z"/>
</g>
</svg>
