<?xml version="1.0" encoding="utf-8"?>
<!-- Generator: Adobe Illustrator 14.0.0, SVG Export Plug-In . SVG Version: 6.00 Build 43363)  -->
<!DOCTYPE svg PUBLIC "-//W3C//DTD SVG 1.1//EN" "http://www.w3.org/Graphics/SVG/1.1/DTD/svg11.dtd">
<svg version="1.1" id="图层_1" xmlns="http://www.w3.org/2000/svg" xmlns:xlink="http://www.w3.org/1999/xlink" x="0px" y="0px"
	 width="226.77px" height="99px" viewBox="0 0 226.77 99" enable-background="new 0 0 226.77 99" xml:space="preserve">
<g>
	<path d="M125.143,24.959h9.297l0.547-0.82c1.457-2.004,2.461-3.008,3.008-3.008c5.285,2.008,8.293,5.016,9.023,9.023
		c-0.184,0.547-1.094,0.914-2.734,1.094c-3.465,0.184-6.289,1.094-8.477,2.734c3.281,2.008,5.195,4.375,5.742,7.109
		c0,3.281-1.277,5.195-3.828,5.742c-2.918,0-4.648-1.82-5.195-5.469c-0.184-1.094-0.273-1.82-0.273-2.188
		c-1.094-2.188-3.191-4.375-6.289-6.563c-0.914-0.727-1.277-1.184-1.094-1.367c1.457,0,4.465,0.641,9.023,1.914
		c0.727-2.551,1.184-4.828,1.367-6.836h-22.695c1.641,6.199,0,9.664-4.922,10.391c-3.648,0-4.742-1.914-3.281-5.742h-5.742v9.844
		c0.547,0,1.367-0.18,2.461-0.547c4.191-1.273,6.379-1.82,6.563-1.641c0,0.184-1.551,1.277-4.648,3.281
		c-2.371,1.461-3.828,2.371-4.375,2.734v22.968c0.547,5.469-1.641,8.383-6.563,8.75c-2.918,0.363-4.469-0.273-4.648-1.914
		c-0.184-0.73-0.367-1.277-0.547-1.641c-1.277-1.277-2.918-2.188-4.922-2.734c-0.547-0.18-0.73-0.363-0.547-0.547
		c0-0.18,0.727-0.18,2.188,0c4.922,0,7.383-1,7.383-3.008V49.569c-1.641,1.093-3.008,2.007-4.102,2.734
		c-2.008,1.277-3.191,1.914-3.555,1.914c-2.008-2.004-3.191-4.648-3.555-7.929c0.18-0.18,0.82-0.363,1.914-0.547
		c1.273-0.18,4.375-1.094,9.297-2.734V30.702h-8.75c-0.547,0-1.004-0.18-1.367-0.547c-0.184-0.18,0-0.363,0.547-0.547h9.57V15.936
		c-0.73-2.367,0.547-3.281,3.828-2.734c5.648,0.547,7.016,1.914,4.102,4.102l-0.273,0.273v12.305
		c1.82-3.281,3.098-4.922,3.828-4.922c1.094,0.184,2.734,1.277,4.922,3.281c1.094-0.91,1.547-2.551,1.367-4.922
		c0-0.727,0.09-1.094,0.273-1.094c0.547-0.18,1.457,0.73,2.734,2.734h9.57c-1.461-0.727-2.098-2.367-1.914-4.922
		c0.18-2.188-0.641-4.102-2.461-5.742c-0.367-0.363-0.457-0.637-0.273-0.82c6.742,0,10.57,1.734,11.484,5.195
		C128.697,21.588,127.693,23.686,125.143,24.959z M102.994,47.928c-0.184,0,0.18-0.453,1.094-1.367
		c3.098-2.551,5.648-5.195,7.656-7.93c1.641-2.367,2.641-4.102,3.008-5.195c0.547-1.094,1.094-1.73,1.641-1.914
		c4.738,0.914,7.563,2.461,8.477,4.648c-0.184,0.367-0.82,0.82-1.914,1.367c-1.641,0.73-3.281,1.551-4.922,2.461
		C110.193,45.104,105.182,47.749,102.994,47.928z M109.283,46.014h12.305l1.094-0.82c1.094-1.273,1.914-1.914,2.461-1.914
		c5.102,1.461,8.203,3.648,9.297,6.563c-0.184,0.367-0.914,0.73-2.188,1.093c-1.641,0.184-2.645,0.457-3.008,0.82
		c-4.195,3.648-7.02,7.203-8.477,10.664c-1.461,2.918-1.641,4.742-0.547,5.469c0.91,0.914,3.734,1.277,8.477,1.094
		c6.563,0.184,10.297-1.367,11.211-4.648c0.363-0.727,0.91-2.094,1.641-4.102c0.727-2.188,1.273-3.188,1.641-3.008
		c0,0.184,0,0.73,0,1.641c-0.367,3.828,0.09,6.473,1.367,7.93c0.18,0.547,0.637,1.094,1.367,1.641
		c1.273,0.547,1.82,1.367,1.641,2.461c-0.73,3.645-7.383,5.559-19.961,5.742c-12.945,0.18-18.594-3.102-16.953-9.844
		c0-2.551,3.828-9.023,11.484-19.414h-12.031c-0.914,0-1.461-0.18-1.641-0.547C108.096,46.471,108.369,46.198,109.283,46.014z"/>
</g>
</svg>
