<?xml version="1.0" encoding="utf-8"?>
<!-- Generator: Adobe Illustrator 14.0.0, SVG Export Plug-In . SVG Version: 6.00 Build 43363)  -->
<!DOCTYPE svg PUBLIC "-//W3C//DTD SVG 1.1//EN" "http://www.w3.org/Graphics/SVG/1.1/DTD/svg11.dtd">
<svg version="1.1" id="图层_1" xmlns="http://www.w3.org/2000/svg" xmlns:xlink="http://www.w3.org/1999/xlink" x="0px" y="0px"
	 width="226.77px" height="99px" viewBox="0 0 226.77 99" enable-background="new 0 0 226.77 99" xml:space="preserve">
<g>
	<path d="M84.205,60.06c-1.582,1.478-3.127,2.545-4.636,3.204c-1.509,0.659-3.127,0.989-4.856,0.989
		c-3.545,0-6.636-1.339-9.272-4.015s-3.955-6.098-3.955-10.264c0-4.192,1.457-8.022,4.373-11.489
		c2.915-3.467,6.672-5.201,11.272-5.201c2.871,0,5.229,0.817,7.075,2.452v-5.379c0-3.322-0.088-5.365-0.264-6.13
		s-0.447-1.286-0.813-1.563c-0.367-0.277-0.842-0.416-1.428-0.416c-0.615,0-1.421,0.172-2.417,0.515L78.8,21.616l9.668-3.559h1.582
		v33.736c0,3.401,0.088,5.484,0.264,6.249s0.461,1.292,0.857,1.582s0.857,0.435,1.384,0.435c0.615,0,1.45-0.184,2.505-0.553
		l0.396,1.146l-9.624,3.6h-1.626V60.06z M84.205,57.845V42.815c-0.117-1.449-0.535-2.768-1.252-3.955
		c-0.718-1.186-1.655-2.082-2.813-2.689c-1.158-0.605-2.292-0.909-3.406-0.909c-2.081,0-3.94,0.844-5.581,2.531
		c-2.139,2.188-3.208,5.405-3.208,9.65c0,4.298,1.04,7.588,3.12,9.868c2.08,2.28,4.395,3.421,6.943,3.421
		C80.147,60.732,82.212,59.771,84.205,57.845z"/>
	<path d="M113.385,33.323c4.922,0,8.861,1.675,11.821,5.023c2.52,2.874,3.779,6.17,3.779,9.888c0,2.61-0.696,5.247-2.087,7.91
		c-1.393,2.663-3.304,4.681-5.735,6.052c-2.433,1.37-5.157,2.057-8.174,2.057c-4.863,0-8.745-1.754-11.646-5.261
		c-2.402-2.953-3.604-6.262-3.604-9.927c0-2.689,0.732-5.353,2.197-7.99c1.465-2.636,3.398-4.588,5.801-5.854
		C108.14,33.956,110.689,33.323,113.385,33.323z M112.286,35.38c-1.23,0-2.483,0.337-3.757,1.009
		c-1.274,0.673-2.3,1.846-3.076,3.521c-0.776,1.675-1.165,3.83-1.165,6.467c0,4.245,0.938,7.903,2.813,10.975
		c1.875,3.072,4.351,4.607,7.427,4.607c2.285,0,4.168-0.843,5.646-2.531c1.479-1.687,2.22-4.601,2.22-8.74
		c0-5.194-1.23-9.281-3.691-12.261C117.032,36.396,114.894,35.38,112.286,35.38z"/>
	<path d="M142.433,52.704c-1.993-0.871-3.516-2.083-4.57-3.639s-1.582-3.283-1.582-5.182c0-2.874,1.208-5.353,3.626-7.436
		c2.416-2.083,5.515-3.125,9.294-3.125c3.076,0,5.741,0.673,7.998,2.018h6.855c1.025,0,1.618,0.026,1.78,0.079
		c0.16,0.053,0.285,0.146,0.373,0.276c0.146,0.212,0.22,0.555,0.22,1.029c0,0.553-0.06,0.936-0.176,1.146
		c-0.088,0.105-0.22,0.191-0.396,0.257c-0.176,0.066-0.776,0.099-1.802,0.099h-4.175c1.318,1.53,1.978,3.48,1.978,5.854
		c0,2.717-1.157,5.043-3.472,6.981c-2.314,1.938-5.42,2.907-9.316,2.907c-1.611,0-3.252-0.225-4.922-0.673
		c-1.025,0.817-1.721,1.529-2.088,2.136c-0.366,0.606-0.549,1.121-0.549,1.543c0,0.369,0.19,0.718,0.571,1.048
		c0.38,0.33,1.143,0.573,2.285,0.731c0.674,0.079,2.329,0.158,4.966,0.237c4.863,0.105,8.013,0.251,9.448,0.435
		c2.197,0.265,3.948,0.996,5.251,2.195c1.304,1.2,1.956,2.67,1.956,4.41c0,2.399-1.245,4.641-3.735,6.724
		c-3.691,3.111-8.496,4.667-14.414,4.667c-4.541,0-8.394-0.923-11.558-2.769c-1.758-1.055-2.637-2.162-2.637-3.322
		c0-0.501,0.132-1.016,0.396-1.542c0.41-0.766,1.23-1.847,2.461-3.244c0.176-0.211,1.377-1.357,3.604-3.44
		c-1.201-0.659-2.059-1.252-2.57-1.78c-0.514-0.526-0.77-1.12-0.77-1.779c0-0.738,0.336-1.608,1.011-2.61
		C138.448,55.934,140,54.522,142.433,52.704z M142.081,63.343c-1.114,1.081-1.956,2.09-2.526,3.025
		c-0.572,0.936-0.857,1.8-0.857,2.591c0,1.002,0.688,1.885,2.065,2.649c2.344,1.318,5.757,1.979,10.239,1.979
		c4.219,0,7.339-0.673,9.36-2.018s3.032-2.782,3.032-4.311c0-1.107-0.601-1.898-1.802-2.373c-1.23-0.449-3.663-0.713-7.295-0.791
		C148.995,63.962,144.922,63.712,142.081,63.343z M148.585,34.866c-1.758,0-3.224,0.627-4.395,1.879
		c-1.172,1.252-1.758,3.171-1.758,5.754c0,3.35,0.791,5.946,2.373,7.792c1.23,1.397,2.798,2.097,4.702,2.097
		c1.787,0,3.259-0.606,4.416-1.82c1.158-1.212,1.736-3.11,1.736-5.695c0-3.374-0.82-6.012-2.461-7.91
		C151.998,35.565,150.459,34.866,148.585,34.866z"/>
</g>
</svg>
