<?xml version="1.0" encoding="utf-8"?>
<!-- Generator: Adobe Illustrator 14.0.0, SVG Export Plug-In . SVG Version: 6.00 Build 43363)  -->
<!DOCTYPE svg PUBLIC "-//W3C//DTD SVG 1.1//EN" "http://www.w3.org/Graphics/SVG/1.1/DTD/svg11.dtd">
<svg version="1.1" id="图层_1" xmlns="http://www.w3.org/2000/svg" xmlns:xlink="http://www.w3.org/1999/xlink" x="0px" y="0px"
	 width="503.638px" height="296.743px" viewBox="0 0 503.638 296.743" enable-background="new 0 0 503.638 296.743"
	 xml:space="preserve">
<radialGradient id="SVGID_1_" cx="254.3359" cy="169.2974" r="243.5677" gradientTransform="matrix(1 0 0 0.5234 0 80.6793)" gradientUnits="userSpaceOnUse">
	<stop  offset="0" style="stop-color:#8AC43F"/>
	<stop  offset="1" style="stop-color:#8AC43F;stop-opacity:0"/>
</radialGradient>
<rect fill="url(#SVGID_1_)" width="503.638" height="296.743"/>
<path fill-rule="evenodd" clip-rule="evenodd" fill="#FFFFFF" d="M347.991,220.333c0,0,3.333-14.001-12.334-14.667
	c-15.666-0.666-40.332-4.333-43.332-4.333s-43.668-26.333-54.667-32c-11-5.667-16.333-16.334-31.333-10.667
	s-27.436,13.754-28.051,20.377s1.384,24.623,4.384,32.29s9.334,16,11.667,17s26,4.334,28.333-7.333s-12-18-12-18s-8-21.333,0.667-26
	s7.667-3.334,11,5.666s9.333,22,25,23c3.666-0.666,5.666,0.333,3.666,6s8.334,12.001,20,12.334s27.666-1,33,1.333s13,8.333,22,7
	S339.325,231,347.991,220.333z"/>
<path fill-rule="evenodd" clip-rule="evenodd" fill="#FFFFFF" d="M375.679,159.472c0,0,9.139-1.687,20.34,4.141
	c11.201,5.826,20.891,8.218,30.842,5.442c9.951-2.774,18.697,6.054,17.807,12.94c-0.889,6.885-3.854,11.118-12.896,13.193
	c-9.043,2.076-13.508,0.357-22.756-3.41c-9.251-3.768-9.9-5.188-22.035-6.078c-12.136-0.89-17.516-3.063-17.516-3.063
	S371.737,160.524,375.679,159.472z"/>
<path fill="#C99A66" d="M382.25,160.417c0,0,6.309,1.199,17.529,5.85s26.22,3.598,26.22,3.598s4.501,0.553-1.999,7.803
	s-11.5,11-24.5,5.25s-21.004-8.985-21.004-8.985S383,171.417,382.25,160.417z"/>
<path fill-rule="evenodd" clip-rule="evenodd" d="M369.464,182.638c3.109-1.685,5.283,0.597,8.475,1.13
	c6.781,1.131,15.55-0.585,22.602,1.695c7.818,2.527,16.033,14.747,25.989,7.909c0.46-7.429-2.257-11.68-6.78-14.125
	c6.621-1.441,10.894,7.059,9.039,14.125c2.408,1.553,5.721-0.098,7.346-1.131c0.273-8.935-1.318-16.008-7.91-18.079
	c7.473-0.877,9.064,9.014,10.17,16.385c5.897-3.348,0.326-18.889-6.779-18.645c6.497-0.656,10.787,5.783,10.17,14.124
	c4.171-8.248-2.206-16.076-9.605-16.949c-7.162-0.845-14.474,2.286-21.469,1.13c-13.012-2.146-23.599-12.315-36.16-9.605
	c0.25-0.501,0.495-1.009,1.129-1.13c12.838-5.086,23.602,7.313,36.16,9.04c9.619,1.325,21.994-3.871,28.814,1.13
	c4.566,3.351,4.992,10.334,5.65,15.821c-2.283,1.615-2.965,5.449-5.086,7.344c-0.704,0.63-2.633,0.363-3.953,1.13
	c-1.904,1.107-2.195,2.504-3.391,2.825c-1.611,0.433-3.201-0.835-5.65-0.564c-2.873,0.317-5.281,2.845-7.345,2.824
	c-6.847-0.064-13.536-8.132-20.339-10.735C389.108,183.913,377.452,190.24,369.464,182.638z"/>
<g>
	<path fill-rule="evenodd" clip-rule="evenodd" fill="#C99A66" d="M187.909,45.247c0,0,11.502,0.106,16.382,9.146
		c4.88,9.043,8.469,10.49,11.174,27.88c1.957,12.576,8.055,17.213,8.055,17.213s-10.126,7.463-14.961,1.419
		c-11.359-14.2-0.582-30.012-9.668-41.853C190.817,48.529,187.909,45.247,187.909,45.247z"/>
	<path fill-rule="evenodd" clip-rule="evenodd" d="M185.649,43.552c0.752,0,1.506,0,2.26,0c3.473,1.789,9.35,2.25,12.43,3.955
		c15.67,8.673,13.298,31.762,20.905,46.896c0.601,1.196,4.025,3.958,1.129,5.649c-10.997-13.888-8.105-38.496-22.035-49.72
		c-3.152-2.54-7.305-3.776-12.43-5.085c4.279,7.501,9.829,7.148,13.56,15.82c4.511,10.485-0.179,26.333,4.52,35.594
		c1.599,3.152,6.587,3.988,6.215,7.91c-17.388-4.015-4.786-35.122-16.385-49.154c-1.357-1.643-4.954-4.452-6.215-5.65
		C188.591,48.805,182.093,44.423,185.649,43.552z"/>
</g>
<path fill="#FFFFFF" d="M358.046,127.06c0,0,5.68,14.695,6.521,15.214c0.844,0.516,5.851,0.731,7.059,2.76
	c1.208,2.03,0.168,2.453,1.695,3.972c0,0,5.842,1.104,7.346,4.52c1.502,3.416,2.449,10.046,1.097,14.241
	c-1.353,4.193-4.33,6.763-5.683,7.44c-1.354,0.677-2.842,2.029-2.842,2.029l5.143,10.012c0,0-5.412,12.584-13.531,11.907
	c-8.117-0.677-17.588-6.901-24.895-5.818c-7.307,1.082-12.177,2.571-15.559,1.896c-3.383-0.677-3.789,4.6-3.789,4.6l-11.635,5.683
	c0,0-33.961,1.354-20.43-27.194C302.073,149.771,344.476,97.718,358.046,127.06z"/>
<path fill="#C99A66" d="M200.75,107.667c-12.419,9.689-15.523,16.877-12.762,30.563s1.012,30.937-6.488,39.437
	s-1.72,21.252-1.72,21.252s4.72,4.998,12.47-0.502s20.75-26,23.75-26.25s10,6,19.75,12.5s13.428,11.359,13.839,18.68
	s-1.339,10.57-1.089,12.82s7,6.25,11.25,4.5s16.5-5.25,30.75-1.5s23.5,4,23.5-4s-8-10.75-9.5-10.75s-18-4.75-18-6.5
	s1.158-6.857,5.829-8.554S303.5,177.917,298,173.917s-6.75-6.25,2.5-5.5s13.75,3.5,21-9.75s7.75-15.25,12.75-9s12,11.25,16.75,13
	s14.5-2.5,10.75-7.25s-8.25-10.75-7-16.5s3.296-11.19,3.296-11.19l-3.796-8.56l-11.5-1l-22.75-4l-18,8.75l-16.75-4.75l-8.25,2
	l-2,8.5l-1.25,11.25l-9.75-13.25l-15.25-21.5C248.75,105.167,223.5,89.917,200.75,107.667z"/>
<path fill-rule="evenodd" clip-rule="evenodd" fill="#E5ACCB" d="M344.808,95.35l-19.26,5.702l-3.025,11.703
	c0,0,5.961,2.657,12.381,4.544c6.418,1.886,12.43,0.066,12.43,0.066S341.723,115.388,344.808,95.35z"/>
<path fill-rule="evenodd" clip-rule="evenodd" fill="#E5ACCB" d="M296.357,150.428c0,0-3.136,6.487-1.569,12.701
	c-4.646,1.414-11.662,0.469-10.732-2.342C284.985,157.978,296.357,150.428,296.357,150.428z"/>
<g>
	<path fill-rule="evenodd" clip-rule="evenodd" d="M211.168,132.054c3.14-0.194,6.851,0.031,7.345,3.955
		c0.944,7.484-14.507,9.732-15.254,2.261C202.859,134.268,205.127,132.431,211.168,132.054z"/>
	<path fill-rule="evenodd" clip-rule="evenodd" d="M334.903,137.704c-6.653,3.518-12.615,7.727-12.996,17.516
		c-3.707-0.059-1.785-5.747-2.26-9.04C322.071,141.157,327.006,133.6,334.903,137.704z"/>
	<path fill-rule="evenodd" clip-rule="evenodd" d="M214.559,145.614c3.902-1.136,7.921-1.168,8.475,2.825
		C224.613,159.826,199.855,149.895,214.559,145.614z"/>
	<path fill-rule="evenodd" clip-rule="evenodd" fill="#FFFFFF" d="M358.632,147.875c0.565,0,1.131,0,1.695,0
		c0.24,1.18-0.387,1.496-0.564,2.26C358.769,149.999,358.474,149.163,358.632,147.875z"/>
	<path fill-rule="evenodd" clip-rule="evenodd" d="M339.987,154.655c9.68,2.528,6.689,17.541-1.694,16.949
		c-3.416-0.24-6.349-3.818-6.78-6.78c-1.086-7.456,5.69-9.698,10.17-12.43C344.384,152.585,341.091,154.701,339.987,154.655z
		 M341.117,155.785c-9.409-2.579-12.66,14.498-1.694,14.689c-1.392-1.146-3.771-11.513,2.26-11.301
		C347.521,164.287,343.898,156.547,341.117,155.785z M339.987,163.129c0.565,0,1.13,0,1.695,0c0.158-1.287-0.136-2.123-1.13-2.26
		C340.375,161.634,339.749,161.948,339.987,163.129z"/>
	<path fill-rule="evenodd" clip-rule="evenodd" d="M373.886,152.96c2.174,1.593,1.698,5.835,1.695,9.604
		c-0.662-0.091-0.477-1.03-0.564-1.695c-2.466,1.266,1.896,3.649,0.564,7.345c-1.242,0.643-1.877,1.891-3.391,2.261
		c-2.459-0.364-2.711-2.938-5.084-3.391c-0.865,2.749,1.641,2.128,1.695,3.955c-8,0.291-14.619-3.214-11.865-11.865
		C361.174,155.689,365.775,152.57,373.886,152.96z M364.281,163.694c4.33-1.886,7.366-5.063,9.604-9.039
		C369.382,151.879,362.647,158.534,364.281,163.694z"/>
	<path fill-rule="evenodd" clip-rule="evenodd" fill="#FFFFFF" d="M373.886,154.655c-2.238,3.976-5.274,7.153-9.604,9.039
		C362.647,158.534,369.382,151.879,373.886,154.655z"/>
	<path fill-rule="evenodd" clip-rule="evenodd" fill="#FFFFFF" d="M340.553,160.869c0.994,0.137,1.288,0.973,1.13,2.26
		c-0.565,0-1.13,0-1.695,0C339.749,161.948,340.375,161.634,340.553,160.869z"/>
	<path fill-rule="evenodd" clip-rule="evenodd" d="M275.013,184.599c5.432-0.341,8.939,1.134,9.041,5.085
		c0.208,8.125-17.152,9.361-18.646,2.825C263.929,186.029,269.622,184.938,275.013,184.599z"/>
	<path fill-rule="evenodd" clip-rule="evenodd" d="M350.723,82.899c0.753,0,1.507,0,2.259,0c0,0.189,0,0.378,0,0.565
		c9.08,2.409,18.339,4.638,24.295,10.17c-8.233,3.82-19.113,4.993-31.074,5.086c-2.431,5.194-2.34,14.719,1.131,18.645
		c3.541,0.602,4.084,1.243,7.344,0c6.061,9.007,4.93,25.204,18.645,26.555c0.697,1.598,0.697,3.487,0,5.085
		c7.688,0.035,9.693,5.749,10.17,12.994c0,0.378,0,0.754,0,1.13c0.163,8.073-4.975,10.846-9.605,14.126
		c1.922,3.164,3.826,6.344,5.65,9.604c-3.834,5.757-7.143,12.325-14.125,12.996c-8.413,0.809-16.959-7.561-27.118-5.65
		c-3.612,2.956-8.271,2.426-14.125,2.26c-2.256,4.147-6.287,6.52-10.169,9.04c17.027-2.28,34.439-5.978,35.049,13.144
		c0.026,0.847,0.021,1.738-0.02,2.676c-3.184,3.318-4.178,5.975-8.476,9.041c-4.423,3.156-10.45,1.082-15.82,5.085
		c-0.564,0-1.13,0-1.694,0c-4.568-0.568-15.496-9.05-21.469-10.169c-6.039-1.132-13.805,0.579-19.775,0.564
		c-7.654-0.02-30.629-2.36-33.336-7.911c-1.594-3.269,0.881-7.61,0.564-10.169c-20.296-1.173-24.326-18.614-31.639-32.771
		c-3.519,1.263-7.338,4.791-8.475,8.475c-1.169,3.789-1.289,12.409,1.13,16.95c2.362,4.435,9.959,4.2,11.865,10.169
		c6.242,19.553-15.026,22.563-28.815,19.211c-2.552-5.971-10.028-10.812-12.43-18.08c-1.245-3.767-1.396-9.571-2.259-14.689
		c-0.804-4.761-2.801-10.259-2.26-14.125c1.168-8.348,9.625-11.351,11.3-20.905c2.749-15.688-4.937-31.894,1.13-44.634
		c7.454-15.657,41.205-29.259,61.584-12.996c8.828,7.046,12.677,21.639,20.34,30.51c0.371,0.431,1.367,3.218,2.824,1.695
		c1.441-5.175-0.225-11.044,1.131-14.689c3.769-10.134,18.477-5.071,25.99-1.13c3.482-2.806,7.074-2.148,9.605-5.085
		c6.077-7.053,3.959-20.389,12.994-24.295c4.35-1.879,7.83-0.232,12.43-1.13C340.985,89.17,344.843,83.921,350.723,82.899z
		 M255.804,117.365c0.733,3.163-5.908,4.405-3.391,5.649c6.381,1.136,10.568,2.451,10.734,6.779
		c0.361,9.347-24.006,11.406-24.294,1.695c-0.098-3.288,2.153-3.276,3.39-6.214c-11.487,0.51-25.418-0.466-23.73-10.171
		c1.628-9.356,20.657-9.812,29.945-7.91c-8.338-6.002-17.41-8.298-27.12-7.344c-8.77,0.861-25.035,7.78-29.945,17.515
		c-6.139,12.174,0.978,29.975-1.13,44.634c-1.175,8.181-9.616,14.937-10.735,20.905c-0.665,3.544,1.163,8.597,1.695,12.995
		c0.519,4.275,0.099,9.705,1.13,12.995c2.025,6.46,10.657,10.197,10.169,16.386c2.774,2.123,6.411,3.381,11.866,2.823
		c1.279-8.815-2.042-16.033-4.521-19.209c6.227,2.438,7.54,9.787,6.78,19.209c2.697,0.437,3.636-0.883,6.215-0.564
		c2.515-8.277-1.194-17.932-4.521-20.34c6.512,2.339,6.391,11.314,7.346,19.211c6.659-3.453,1.764-15.632-1.13-19.775
		c4.163,2.429,4.375,8.809,6.215,13.559c2.534-9.977-4.204-14.798-11.865-16.384c-1.783-6.731-5.254-15.858-2.825-21.47
		c3.894-8.995,16.211-15.938,18.645-30.51c1.083-6.478-0.947-11.831,2.825-17.516c0.779,16.787-2.755,29.262-9.605,38.42
		c9.423,11.105,8.481,32.576,31.641,29.945c1.545-3.163-0.081-9.498,2.26-11.866c1.27,9.226,2.52,17.698-1.695,24.295
		c11.604,8.927,33.434,7.625,53.676,7.911c5.885,4.5,16.41,11.383,25.988,6.779c1.496-8.277-4.822-11.746-6.779-14.69
		c7.629,0.472,8.947,7.251,9.604,14.69c2.651-0.362,5.288-0.739,6.78-2.26c-0.133-8.53-2.037-15.29-8.475-17.516
		c9.104-0.251,7.428,10.276,11.299,15.257c4.507-4.848-1.392-16.418-7.344-18.081c7.623,0.476,8.328,7.867,10.734,13.56
		c2.707-23.28-18.658-11.82-33.898-13.56c-10.88-1.24-17.062-8.342-24.861-6.78c8.609,3.537-4.271,12.089-8.475,6.216
		c-1.141-1.307-0.576-4.334,0.564-5.086c-2.973,0.242-5.67,3.73-7.346,3.391c2.83-3.951,7.368-6.193,13.561-6.78
		c4.342-15.223-4.738-24.532-11.3-28.814c11.479,2.646,15.392,12.86,13.56,28.814c9.881,0.103,15.526,4.439,23.167,6.78
		c4.384-2.772,9.724-4.589,12.429-9.04c-4.732-1.294-9.668-2.386-10.17-7.911c3.552,4.24,7.859,6.875,15.819,6.78
		c3.169-0.036,6.44-1.957,10.171-2.26c10.081-0.813,19.143,7.349,27.684,5.65c5.433-1.08,8.929-8.477,10.734-12.431
		c-1.453-2.501-2.959-4.95-4.521-7.344c-0.899,1.547-2.108,2.788-2.824,4.52c1.021,1.429,3.47,1.429,3.954,3.39
		c-2.744,9.925-18.279,5.661-23.163,0.564c-2.269-0.624-4.501-0.031-5.65-0.564c-0.054-2.314,0.079-4.442,2.261-4.52
		c0.41,1.728-0.975,1.661-0.565,3.39c6.991,0.361,14.745,3.173,19.774,0c5.273-3.324,4.281-15.047,12.43-12.995
		c3.049-3.583,2.623-12.875,1.695-18.645c-5.809-7.275-14.715,1.054-20.34,0c-7.66-1.435-6.825-12.802-11.865-18.08
		c3.714,0.996,4.01,5.407,6.215,7.91c0.959-1.323,4.367-3.138,5.086-2.825c-2.372,3.339,6.475,3.65,4.519,10.171
		c2.208-1.184,5.989-0.791,7.345-2.825c0.336-4.104-3.516-4.017-6.215-5.086c-5.131-2.064-6.421-21.229-11.863-20.904
		c-3.64,0.217-1.486,4.469-5.086,5.65c-0.33-3.721,0.238-6.542,1.695-8.476c-13.648,2.585-27.001-8.085-38.418-1.13
		c1.332,0.552,3.582,0.183,3.389,2.26c-1.084,3.034-5.904,3.492-8.475,3.391c3.211,5.453,9.992,7.333,11.299,14.689
		c-8.238,7.551-25.377,8.681-23.164,24.859c-1.398-2.004,0-8.488-0.564-9.604c-2.838,3.189-7.475,4.578-10.17,7.909
		c3.224,2.432,13.215,1.094,13.561,4.521c-4.27-1.946-11.984-0.447-14.126-4.521c-2.548,1.007-5.38,2.7-7.345,0
		c8.469-1.257,13.648-7.426,19.21-11.864c5.96-4.756,12.188-7.915,18.646-12.43c-7.84-9.299-16.141-18.138-33.9-17.515
		c-5.865,2.207-1.979,8.923-2.261,14.124c-0.491,9.059-8.47,17.03-6.78,27.12c11.049,3.077,14.343,13.907,29.381,12.995
		c-5.705,6.253-13.793-0.8-20.34-4.52c-4.939-2.808-11.586-6.417-12.43-10.171c-1.555-6.901,3.865-10.765,4.52-18.079
		C266.97,132.941,261.644,124.897,255.804,117.365z M325.862,113.409c4.922,1.862,12.867,3.703,18.645,2.825
		c-2.674-4.652-1.407-11.828-0.564-17.514C332.413,97.896,322.354,101.019,325.862,113.409z M371.626,186.858
		c-3.488-2.337-12.208,2.912-18.078,0.565C357.063,190.947,370.329,195.598,371.626,186.858z M363.151,146.745
		c-1.455-2.311-3.505-4.028-7.909-3.391c-0.077,2.337,1.284,3.235,2.261,4.521C357.76,144.807,362.894,147.016,363.151,146.745z
		 M359.763,150.135c0.178-0.764,0.805-1.08,0.564-2.26c-0.564,0-1.13,0-1.695,0C358.474,149.163,358.769,149.999,359.763,150.135z"
		/>
	<path fill-rule="evenodd" clip-rule="evenodd" fill="#FFFFFF" d="M353.548,187.424c5.87,2.347,14.59-2.902,18.078-0.565
		C370.329,195.598,357.063,190.947,353.548,187.424z"/>
	<path fill-rule="evenodd" clip-rule="evenodd" fill="#FFFFFF" d="M357.503,147.875c-0.977-1.285-2.338-2.184-2.261-4.521
		c4.404-0.638,6.454,1.08,7.909,3.391C362.894,147.016,357.76,144.807,357.503,147.875z"/>
	<path fill-rule="evenodd" clip-rule="evenodd" fill="#FFFFFF" d="M341.683,159.174c-6.031-0.212-3.651,10.154-2.26,11.301
		c-10.966-0.191-7.715-17.269,1.694-14.689C343.898,156.547,347.521,164.287,341.683,159.174z"/>
</g>
<radialGradient id="SVGID_2_" cx="235.75" cy="100" r="0" gradientTransform="matrix(1 0 0 0.5234 0 47.6554)" gradientUnits="userSpaceOnUse">
	<stop  offset="0" style="stop-color:#8AC43F"/>
	<stop  offset="1" style="stop-color:#8AC43F;stop-opacity:0"/>
</radialGradient>
<path fill="url(#SVGID_2_)" d="M235.75,100"/>
</svg>
