<?xml version="1.0" encoding="utf-8"?>
<!-- Generator: Adobe Illustrator 14.0.0, SVG Export Plug-In . SVG Version: 6.00 Build 43363)  -->
<!DOCTYPE svg PUBLIC "-//W3C//DTD SVG 1.1//EN" "http://www.w3.org/Graphics/SVG/1.1/DTD/svg11.dtd">
<svg version="1.1" id="图层_1" xmlns="http://www.w3.org/2000/svg" xmlns:xlink="http://www.w3.org/1999/xlink" x="0px" y="0px"
	 width="99px" height="99px" viewBox="0 0 99 99" enable-background="new 0 0 99 99" xml:space="preserve">
<g>
	<path fill="#EF5A28" d="M51.609,24.277v12.814h10.078v2.953H51.609v25.207c0,2.531,0.399,4.237,1.201,5.115
		c0.8,0.879,1.825,1.318,3.076,1.318c1.015,0,2.011-0.29,2.988-0.87c0.976-0.58,1.737-1.45,2.285-2.61h1.816
		c-1.095,2.777-2.647,4.87-4.658,6.275c-2.013,1.406-4.072,2.109-6.182,2.109c-1.485,0-2.911-0.361-4.277-1.081
		c-1.368-0.72-2.384-1.748-3.047-3.085c-0.665-1.336-0.996-3.409-0.996-6.223V40.045h-6.855v-1.424
		c1.718-0.598,3.486-1.643,5.303-3.138c1.816-1.494,3.428-3.261,4.834-5.3c0.741-1.055,1.758-3.023,3.047-5.906H51.609z"/>
</g>
</svg>
