<?xml version="1.0" encoding="utf-8"?>
<!-- Generator: Adobe Illustrator 14.0.0, SVG Export Plug-In . SVG Version: 6.00 Build 43363)  -->
<!DOCTYPE svg PUBLIC "-//W3C//DTD SVG 1.1//EN" "http://www.w3.org/Graphics/SVG/1.1/DTD/svg11.dtd">
<svg version="1.1" id="图层_1" xmlns="http://www.w3.org/2000/svg" xmlns:xlink="http://www.w3.org/1999/xlink" x="0px" y="0px"
	 width="323.587px" height="459.145px" viewBox="0 0 323.587 459.145" enable-background="new 0 0 323.587 459.145"
	 xml:space="preserve">
<path opacity="0.5" fill="none" stroke="#D1D16B" stroke-width="3" stroke-linecap="round" stroke-dasharray="5.6693,5.6693" d="
	M240.557,148.321c3.904-19.516,32.529-9.107,42.938-53.346c10.41-44.24-37.721-90.906-104.087-92.383
	C120.856,1.292,24.571,31.868,21.968,118.396c-4.553,57.9,30.578,69.611,22.771,84.574c0,0-35.783,46.187-40.986,87.823
	c-5.205,41.639,22.77,85.227,45.539,126.213s88.479,41.635,137.922,37.082c49.44-4.555,77.415-41.637,102.786-82.623
	c25.373-40.986,40.146-55.176,24.072-107.996c-18.217-59.849-29.869-76.728-53.861-88.726
	C236.791,163.032,240.557,148.321,240.557,148.321z"/>
</svg>
