<?xml version="1.0" encoding="utf-8"?>
<!-- Generator: Adobe Illustrator 14.0.0, SVG Export Plug-In . SVG Version: 6.00 Build 43363)  -->
<!DOCTYPE svg PUBLIC "-//W3C//DTD SVG 1.1//EN" "http://www.w3.org/Graphics/SVG/1.1/DTD/svg11.dtd">
<svg version="1.1" id="图层_1" xmlns="http://www.w3.org/2000/svg" xmlns:xlink="http://www.w3.org/1999/xlink" x="0px" y="0px"
	 width="51.003px" height="67.395px" viewBox="0 0 51.003 67.395" enable-background="new 0 0 51.003 67.395" xml:space="preserve">
<g>
	<linearGradient id="SVGID_1_" gradientUnits="userSpaceOnUse" x1="8.6323" y1="55.2422" x2="20.2098" y2="60.4543">
		<stop  offset="0.0061" style="stop-color:#FFFFFF"/>
		<stop  offset="0.3818" style="stop-color:#D5EFDF"/>
		<stop  offset="0.4304" style="stop-color:#C1E7DF"/>
		<stop  offset="0.5295" style="stop-color:#8FD3DF"/>
		<stop  offset="0.6692" style="stop-color:#3DB2DF"/>
		<stop  offset="0.7091" style="stop-color:#25A8DF"/>
		<stop  offset="0.8263" style="stop-color:#2BADE1"/>
		<stop  offset="0.9758" style="stop-color:#3BB9E5"/>
	</linearGradient>
	<path fill="url(#SVGID_1_)" d="M10.271,50.415c-1.134,2.721-6.167,10.666-2.667,13.333s7.5,4.999,11.5,1.333
		s6.168-13.333,3.334-13.166C19.604,52.081,11.104,48.415,10.271,50.415z"/>
	<radialGradient id="SVGID_2_" cx="31.624" cy="43.1538" r="34.4813" gradientUnits="userSpaceOnUse">
		<stop  offset="0.0061" style="stop-color:#FF5C00"/>
		<stop  offset="1" style="stop-color:#FFFF8A"/>
	</radialGradient>
	<path fill="url(#SVGID_2_)" d="M14.105,49.748c0,0-5.167-1.333-4-5s3.834-6.667-0.333-16.167s1.166-25,19.666-24.333
		s23.001,16.167,20.334,26.5s-12.166,12.333-18.5,15.333s-7.5,6.667-7.5,6.667L14.105,49.748z"/>
	<g>
		<circle fill="#FFFFFF" cx="30.938" cy="8.081" r="2.167"/>
		<path fill="#FFFFFF" d="M13.605,15.581c-0.996-1.494-3.334,2.334-4.167,3.834s-0.166,3.166,2.167,1.5
			C13.938,19.248,14.272,16.581,13.605,15.581z"/>
		<path fill="#FFFFFF" d="M37.271,9.081c-1.071,0.321-0.5,2.167,2.167,5.667s2.667,9.666,2.5,10.833s2.167,2.167,2.5-1.833
			s-0.834-7.834-2.667-10.667S38.937,8.581,37.271,9.081z"/>
		<path fill="#FFFFFF" d="M41.771,28.248c0.86-1.032,2.001,3.666-0.666,4.833S40.104,30.248,41.771,28.248z"/>
		<path fill="#FFFFFF" d="M12.271,45.915c0,0,3.167,0.332,4.167-4.834s-1-11.166-0.5-13.333S12.271,45.915,12.271,45.915z"/>
		<path fill="#FFFFFF" d="M20.938,47.415c-1.5,0.166-3.334-3,2.833-8.167s8.334-8.5,8.334-8.5s3.5-2.167,1.833,2
			s-5.333,7.5-5.333,7.5s3.334-0.167,2.5,0.667c-0.834,0.833-5.834,3-7.167,4.5S20.938,47.415,20.938,47.415z"/>
	</g>
	<g>
		<path fill="#203562" d="M7.833,45.047c0,0,1.757-3.805-1.463-8.487C3.15,31.876-4.021,24.413,3.15,12.413
			C10.321,0.412,25.833-2.954,37.979,2.607s13.024,18.878,13.024,18.878S45.15,5.534,30.955,3.192
			C13.115,0.251,0.516,15.046,5.492,26.607S10.028,42.267,7.833,45.047z"/>
		<linearGradient id="SVGID_3_" gradientUnits="userSpaceOnUse" x1="24.4473" y1="11.6895" x2="37.6636" y2="37.51">
			<stop  offset="0" style="stop-color:#1F2D64"/>
			<stop  offset="0.2759" style="stop-color:#222E63"/>
			<stop  offset="0.4941" style="stop-color:#2C325F"/>
			<stop  offset="0.6925" style="stop-color:#3D3858"/>
			<stop  offset="0.8781" style="stop-color:#54414F"/>
			<stop  offset="1" style="stop-color:#684947"/>
		</linearGradient>
		<path fill="url(#SVGID_3_)" d="M46.76,17.095c0,0,3.072,13.172-4.83,19.757s-12.732,7.171-15.22,9.659
			c-2.487,2.487-1.902,4.243-1.902,4.243s0.879-4.099,6.586-5.122s11.27-3.658,15.366-9.658S50.126,22.363,46.76,17.095z"/>
		<linearGradient id="SVGID_4_" gradientUnits="userSpaceOnUse" x1="12.9141" y1="17.5928" x2="26.1308" y2="43.4141">
			<stop  offset="0" style="stop-color:#1F2D64"/>
			<stop  offset="0.2759" style="stop-color:#222E63"/>
			<stop  offset="0.4941" style="stop-color:#2C325F"/>
			<stop  offset="0.6925" style="stop-color:#3D3858"/>
			<stop  offset="0.8781" style="stop-color:#54414F"/>
			<stop  offset="1" style="stop-color:#684947"/>
		</linearGradient>
		<path fill="url(#SVGID_4_)" d="M11.188,46.998c0,0,4.167-9.417,3.25-17.667s3.416-10,3.666-6.75s-0.916,2.834,0.834,3.334
			s1.916-0.668,1.666-1.084s-0.834-3.583,2.75-1.833s2.167,3.083,2.167,3.083s1.917-2.333,3.667-0.333s0.5,4.833,0.5,4.833
			s2.084-0.083,2.75-1.166c0.666-1.084,0.5-3.334,1.833-2.417s1.583,4.333-1.25,7.167c-2.833,2.833-8.667,9.833-10,12.833
			c-1.167-2,3.166-9.25,6.083-12.5s-1.082-0.417-2.166-2.25s2.5-5.917-0.417-4.75s-3.417,5.167-4.75,3.417s2.833-3.5,1.083-5.167
			s-0.75,3.333-3.5,2.333s-2.749,1.084-2.416,5.334S14.938,43.998,11.188,46.998z"/>
		<linearGradient id="SVGID_5_" gradientUnits="userSpaceOnUse" x1="0.5532" y1="23.9199" x2="13.7695" y2="49.7404">
			<stop  offset="0" style="stop-color:#1F2D64"/>
			<stop  offset="0.2759" style="stop-color:#222E63"/>
			<stop  offset="0.4941" style="stop-color:#2C325F"/>
			<stop  offset="0.6925" style="stop-color:#3D3858"/>
			<stop  offset="0.8781" style="stop-color:#54414F"/>
			<stop  offset="1" style="stop-color:#684947"/>
		</linearGradient>
		<path fill="url(#SVGID_5_)" d="M5.411,51.835c0,0-2.105-1.977-0.256-3.891c1.85-1.913,3.955-0.701,7.463,0.83
			c3.508,1.53,8.419,0.383,10.843,2.168c2.424,1.786,2.361,4.784-0.765,6.251c-0.383-4.337-0.446-4.146-3.827-4.146
			s-5.55-0.51-8.483-2.488C7.452,48.583,5.156,47.817,5.411,51.835z"/>
		<linearGradient id="SVGID_6_" gradientUnits="userSpaceOnUse" x1="-3.4141" y1="25.9541" x2="9.8013" y2="51.7728">
			<stop  offset="0" style="stop-color:#1F2D64"/>
			<stop  offset="0.2759" style="stop-color:#222E63"/>
			<stop  offset="0.4941" style="stop-color:#2C325F"/>
			<stop  offset="0.6925" style="stop-color:#3D3858"/>
			<stop  offset="0.8781" style="stop-color:#54414F"/>
			<stop  offset="1" style="stop-color:#684947"/>
		</linearGradient>
		<path fill="url(#SVGID_6_)" d="M3.751,57.513c0,0-1.722-1.658-0.446-3.381s2.423-2.041,4.911-0.766s5.421,2.36,9.567,2.68
			c4.146,0.318,6.761,3.571,2.87,5.421c0.064-2.487,0.255-2.806-2.679-3.188s-4.974,0.445-8.674-2.105S3.177,54.45,3.751,57.513z"/>
		<linearGradient id="SVGID_7_" gradientUnits="userSpaceOnUse" x1="-5.0981" y1="26.8091" x2="8.1193" y2="52.6317">
			<stop  offset="0" style="stop-color:#1F2D64"/>
			<stop  offset="0.2759" style="stop-color:#222E63"/>
			<stop  offset="0.4941" style="stop-color:#2C325F"/>
			<stop  offset="0.6925" style="stop-color:#3D3858"/>
			<stop  offset="0.8781" style="stop-color:#54414F"/>
			<stop  offset="1" style="stop-color:#684947"/>
		</linearGradient>
		<path fill="url(#SVGID_7_)" d="M5.155,59.043c0,0,0.829,2.042,5.485,2.998s5.933,0.382,6.825,1.403
			c0.893,1.02,0.446,2.232,0.446,2.232s3.063-1.148,1.34-3.381s-4.466-1.148-8.994-2.105C5.729,59.234,5.155,59.043,5.155,59.043z"
			/>
		<linearGradient id="SVGID_8_" gradientUnits="userSpaceOnUse" x1="-8.8911" y1="28.7539" x2="4.3252" y2="54.5743">
			<stop  offset="0" style="stop-color:#1F2D64"/>
			<stop  offset="0.2759" style="stop-color:#222E63"/>
			<stop  offset="0.4941" style="stop-color:#2C325F"/>
			<stop  offset="0.6925" style="stop-color:#3D3858"/>
			<stop  offset="0.8781" style="stop-color:#54414F"/>
			<stop  offset="1" style="stop-color:#684947"/>
		</linearGradient>
		<path fill="url(#SVGID_8_)" d="M3.433,59.106c0,0-1.021,3.508,1.722,5.74s6.889,2.998,10.524,2.297
			C5.666,65.357,3.879,60.638,3.433,59.106z"/>
	</g>
</g>
</svg>
