<?xml version="1.0" encoding="utf-8"?>
<!-- Generator: Adobe Illustrator 14.0.0, SVG Export Plug-In . SVG Version: 6.00 Build 43363)  -->
<!DOCTYPE svg PUBLIC "-//W3C//DTD SVG 1.1//EN" "http://www.w3.org/Graphics/SVG/1.1/DTD/svg11.dtd">
<svg version="1.1" id="图层_1" xmlns="http://www.w3.org/2000/svg" xmlns:xlink="http://www.w3.org/1999/xlink" x="0px" y="0px"
	 width="91.851px" height="49.5px" viewBox="0 0 91.851 49.5" enable-background="new 0 0 91.851 49.5" xml:space="preserve">
<g>
	<path fill="#F8EB30" d="M18.167,28.414c0.944,1.129,0.792,2.812-0.339,3.754l0,0c-1.131,0.944-2.812,0.793-3.755-0.338
		L0.619,15.705c-0.943-1.131-0.792-2.813,0.339-3.756l0,0c1.131-0.943,2.813-0.791,3.757,0.34L18.167,28.414z"/>
	<path fill="#F8EB30" d="M28.23,24.203c0.381,1.422-0.464,2.885-1.887,3.266l0,0c-1.422,0.381-2.883-0.463-3.265-1.887L17.647,5.296
		c-0.381-1.422,0.463-2.884,1.886-3.265l0,0c1.422-0.382,2.885,0.463,3.266,1.886L28.23,24.203z"/>
	<path fill="#F8EB30" d="M42.148,23.83c-0.157,1.465-1.471,2.525-2.936,2.369l0,0c-1.464-0.156-2.523-1.469-2.368-2.934
		l2.227-20.883c0.157-1.463,1.469-2.523,2.934-2.367l0,0c1.464,0.155,2.524,1.469,2.369,2.934L42.148,23.83z"/>
	<path fill="#F8EB30" d="M53.726,28.38c-0.838,1.211-2.5,1.512-3.71,0.672l0,0c-1.21-0.839-1.51-2.499-0.672-3.71L61.311,8.085
		c0.84-1.21,2.501-1.511,3.711-0.672l0,0c1.21,0.839,1.511,2.501,0.672,3.711L53.726,28.38z"/>
	<path fill="#F8EB30" d="M65.632,37.593c-1.245,0.785-2.892,0.412-3.677-0.834l0,0c-0.785-1.246-0.411-2.892,0.835-3.678
		l17.768-11.193c1.246-0.785,2.892-0.411,3.678,0.834l0,0c0.784,1.246,0.411,2.893-0.836,3.678L65.632,37.593z"/>
	<path fill="#F8EB30" d="M68.896,49.465c-1.452,0.237-2.825-0.747-3.064-2.2l0,0c-0.238-1.452,0.746-2.823,2.198-3.063l20.723-3.406
		c1.453-0.238,2.824,0.744,3.063,2.198l0,0c0.239,1.452-0.745,2.824-2.199,3.063L68.896,49.465z"/>
</g>
</svg>
