<?xml version="1.0" encoding="utf-8"?>
<!-- Generator: Adobe Illustrator 14.0.0, SVG Export Plug-In . SVG Version: 6.00 Build 43363)  -->
<!DOCTYPE svg PUBLIC "-//W3C//DTD SVG 1.1//EN" "http://www.w3.org/Graphics/SVG/1.1/DTD/svg11.dtd">
<svg version="1.1" id="图层_1" xmlns="http://www.w3.org/2000/svg" xmlns:xlink="http://www.w3.org/1999/xlink" x="0px" y="0px"
	 width="262.899px" height="415.749px" viewBox="0 0 262.899 415.749" enable-background="new 0 0 262.899 415.749"
	 xml:space="preserve">
<path fill="#FDEEDF" d="M120.392,45.372c-31.529,10.614-60.828,62.816-61.623,75.936s0.795,25.842,18.288,31.806
	s42.142,9.541,71.96-7.952c29.817-17.492,54.227-29.946,53.551-63.477C201.893,48.155,160.546,31.855,120.392,45.372z"/>
<path fill="#F2CEC3" d="M95.839,146.595c-15.543,4.783-22.715-7.572-20.822-12.777c1.894-5.205,8.045,0.947,15.144-0.945
	s8.045-10.884,16.089-5.205C114.294,133.345,108.142,142.809,95.839,146.595z"/>
<path fill="#F2CEC3" d="M191.901,88.862c-8.045,4.26-12.777,0.474-17.035,7.572c-4.26,7.098,13.25,15.143,21.295,7.57
	c8.044-7.57,8.518-26.5,2.839-24.133C193.321,82.237,191.901,88.862,191.901,88.862z"/>
<path fill="#EFCFAF" d="M102.63,16.245c0,0-2.08-3.898-8.318-2.599s-7.799,1.3-7.799,1.3s6.759,2.339,8.059,3.639
	c-8.318,0.78-20.275,8.318-29.373,14.037s-18.196,4.419-18.196,4.419s3.12,4.679,9.878,4.938
	c-14.816,7.279-24.694,19.756-27.294,26.255s-5.719,13.517-5.719,13.517l5.979-3.379c0,0-3.64,5.198-7.019,19.756
	c-3.379,14.557-4.605,20.087,0.853,23.467c5.458,3.379,12.737,2.079,18.716,5.459c5.979,3.379,8.059,5.979,8.059,5.979
	s5.719-1.3,9.098-0.52c3.639-18.457,16.824-30.227,16.824-30.227s0.779,9.359,6.498,15.338c-3.119-10.918-1.819-20.536-1.819-20.536
	s-0.521,12.218,5.458,19.495c-3.119-25.734,6.239-34.313,6.239-34.313s-1.04,20.536,11.697,34.313
	c-5.979-28.594,2.079-41.33,2.079-41.33s0,17.936,16.377,31.193c-9.878-25.215-2.34-46.53-2.34-46.53s22.096,2.599,36.393,30.933
	c0-20.275-11.438-33.012-11.438-33.012s15.855,5.199,24.174,25.475c0.261-10.918-10.396-26.255-10.396-26.255
	s8.318,1.819,21.314,18.976c-2.34-12.217-9.357-18.195-9.357-18.195s7.018-2.08,24.954,11.438
	c-0.52-23.915,4.938-26.775,4.679-32.233s-1.039-6.238-16.116-12.478c-15.077-6.238-27.554-7.798-27.554-7.798l2.859-5.198
	c0,0-4.68,1.559-14.037,1.559s-18.195-3.119-35.352,2.859c0.52-4.938,4.158-8.318,4.158-8.318S108.349,8.447,102.63,16.245z"/>
<path fill="#4E040B" d="M102.183,10.125c0,0-2.079-3.898-8.318-2.599c-6.238,1.299-7.798,1.299-7.798,1.299s6.759,2.34,8.058,3.639
	c-8.317,0.781-20.275,8.318-29.373,14.037s-18.195,4.42-18.195,4.42s3.119,4.679,9.877,4.938
	C41.616,43.138,31.739,55.615,29.14,62.114c-2.6,6.498-5.719,13.517-5.719,13.517l5.979-3.38c0,0-3.641,5.199-7.02,19.756
	s-5.978,27.294-0.52,30.674c5.459,3.379,12.738,2.079,18.717,5.459c5.979,3.379,8.058,5.979,8.058,5.979s5.72-1.3,9.099-0.52
	c3.639-18.457,18.195-37.433,18.195-37.433s0.779,9.358,6.498,15.337c-3.119-10.918-1.818-20.535-1.818-20.535
	s-0.521,12.217,5.458,19.495c-3.119-25.734,6.239-34.313,6.239-34.313s-1.041,20.536,11.697,34.313
	c-5.979-28.594,2.079-41.331,2.079-41.331s0,17.936,16.376,31.193c-9.877-25.215-2.339-46.529-2.339-46.529
	s22.095,2.599,36.392,30.933c0-20.275-11.438-33.013-11.438-33.013s15.856,5.199,24.175,25.475
	c0.261-10.918-10.397-26.254-10.397-26.254s8.318,1.819,21.315,18.976c-2.34-12.218-9.358-18.196-9.358-18.196
	s7.019-2.08,24.955,11.438c-0.52-23.914,4.938-26.774,4.679-32.232c-0.26-5.459-1.04-6.238-16.116-12.478
	c-15.077-6.239-27.555-7.798-27.555-7.798l2.859-5.199c0,0-4.679,1.56-14.037,1.56c-9.357,0-18.195-3.119-35.352,2.859
	c0.52-4.938,4.159-8.318,4.159-8.318S107.901,2.327,102.183,10.125z"/>
<path fill-rule="evenodd" clip-rule="evenodd" fill="#D7D0CC" d="M39.552,313.013c0,0-10,13-7,31s15,59,45,69s43-11,59-6
	s61,13,73-21s44-51,29-65S60.552,280.013,39.552,313.013z"/>
<linearGradient id="SVGID_1_" gradientUnits="userSpaceOnUse" x1="133.1147" y1="261.3613" x2="133.8309" y2="191.6275">
	<stop  offset="0" style="stop-color:#DCC094"/>
	<stop  offset="0.697" style="stop-color:#AF8966"/>
	<stop  offset="1" style="stop-color:#A4725C"/>
</linearGradient>
<path fill-rule="evenodd" clip-rule="evenodd" fill="url(#SVGID_1_)" d="M41.219,189.013L2.931,280.308
	c0,0,93.621-4.629,153.621-3.295c60,1.332,106.348,4.313,106.348,4.313l-38.639-95.584
	C224.261,185.741,79.886,183.679,41.219,189.013z"/>
<linearGradient id="SVGID_2_" gradientUnits="userSpaceOnUse" x1="127.9136" y1="254.5781" x2="128.9072" y2="220.0439">
	<stop  offset="0" style="stop-color:#A29885"/>
	<stop  offset="1" style="stop-color:#958670"/>
</linearGradient>
<path fill-rule="evenodd" clip-rule="evenodd" fill="url(#SVGID_2_)" d="M86.854,211.229l-8.469,22.289l-28.085-22.512
	c0,0-10.03,4.903-11.367,7.354c-1.337,2.453-0.001,5.127,1.782,7.802s0.893,4.681,2.676,5.796c1.783,1.113,5.35,1.56,8.47,7.578
	c3.12,6.018,16.271,19.613,16.271,19.613l-1.561,4.459l5.35-2.229c0,0,10.699,4.012,11.813,4.012s3.343-1.783,3.343-1.783
	s-1.561-6.688,7.355-7.578c8.916-0.893,34.326-0.225,49.482,9.807c20.729-9.361,39.006-1.115,66.199,12.928
	c2.451-2.229,3.343-15.156,4.68-30.76c1.338-15.602,4.904-37.891,4.904-37.891s-24.741-1.561-38.115,0.668
	C168.21,213.012,86.854,211.229,86.854,211.229z"/>
<linearGradient id="SVGID_3_" gradientUnits="userSpaceOnUse" x1="86.0718" y1="229.0791" x2="154.7764" y2="229.0791">
	<stop  offset="0" style="stop-color:#D8D3C8"/>
	<stop  offset="1" style="stop-color:#FFFFFF"/>
</linearGradient>
<path fill-rule="evenodd" clip-rule="evenodd" fill="url(#SVGID_3_)" d="M106.647,195.91c0,0,28.854-3.454,48.129,14.574
	c-10.225,52.028-10.225,52.028-10.225,52.028s-37.095-19.631-56.547-14.066c-7.453,3.066,9.047-40.934,9.047-40.934L106.647,195.91z
	"/>
<linearGradient id="SVGID_4_" gradientUnits="userSpaceOnUse" x1="144.5518" y1="232.2041" x2="213.7529" y2="232.2041">
	<stop  offset="0" style="stop-color:#D8D3C8"/>
	<stop  offset="1" style="stop-color:#FFFFFF"/>
</linearGradient>
<path fill-rule="evenodd" clip-rule="evenodd" fill="url(#SVGID_4_)" d="M154.776,210.484l-10.225,52.028
	c0,0,6.733-4.117,28.867-3.559c22.133,0.559,28.633,6.559,28.633,6.559l8-48.5l3.701-14.663c0,0-23.701-5.837-36.201-2.337
	S154.776,210.484,154.776,210.484z"/>
<path fill-rule="evenodd" clip-rule="evenodd" fill="#FFEFE0" d="M202.568,81.685c-0.49-5.271-1.789-9.734-3.39-13.896
	c1.904-3.181,5.34-4.829,9.151-6.102c-3.413-0.36-7.161,1.876-9.829,3.39c-2.818-2.596-2.315-5.742-2.033-10.846
	c11.615-6.289,23.557,4.671,22.37,15.93C218.066,77.478,211.616,81.348,202.568,81.685z"/>
<path fill-rule="evenodd" clip-rule="evenodd" fill="#FFEEE0" d="M57.5,133.544c1.659,1.391,1.372,4.729,2.712,6.439
	c-3.213,3.454-6.638,6.695-8.813,11.186c3.591-2.283,5.832-5.918,10.168-7.456c2.836,2.474,5.382,5.237,8.135,7.795
	c-2.822,14.884-30.398,15.356-30.506-2.033C39.138,139.725,45.642,132.892,57.5,133.544z"/>
<path fill-rule="evenodd" clip-rule="evenodd" fill="#FDEEDF" d="M130.374,136.595c0.611,6.275-6.906,7.32-8.474,12.541
	c1.198,0.834,3.558,0.509,4.405,1.693c-0.912,3.771,1.551,6.395,1.695,9.152c0.136,2.59-2.268,4.63-1.355,8.135
	c-1.311,2.991-6.199,2.367-9.491,4.067c-3.919,2.024-7.949,11.409-10.847,17.964c-3.479,7.871-8.182,18.05-16.269,19.32
	c-11.874,1.865-10.502-15.211-12.88-24.743c3.441-0.513,7.271-0.638,10.846-1.017c-0.215,1.254-0.919,2.018-0.678,3.729
	c2.775-5.139,7.195-8.803,11.186-13.896c3.377-4.313,7.72-8.225,8.474-13.898c0.825-6.207-2.626-16.641,3.39-18.979
	c2.547,1.771,2.546,6.774,2.033,9.829C118.534,146.218,121.085,136.577,130.374,136.595z"/>
<path fill-rule="evenodd" clip-rule="evenodd" fill="#FDEEDF" d="M124.272,212.519c0.771-3.297,4.87-3.265,6.439-5.763
	c-3.857-0.344-9.795,6.855-13.558,2.372c1.554-4.32,7.973-3.777,10.847-6.778c-5.084,0.642-9.133,5.676-14.914,3.39
	c1.106-5.446,7.969-5.137,12.201-7.457c-3.612-1.016-8.547,3.861-12.201,0.678c2.254-5.641,11.355-5.27,16.27-8.473
	c-1.282-2.561-6.754-0.93-6.102-5.424c7.306-2.734,13.65,3.564,20.337,1.695c11.868-3.32,24.668-9.296,35.59-13.559
	c-0.733-3.221-1.747-6.161-2.034-9.829c4.174-1.362,8.66-2.413,12.541-4.067c0.289-0.063,0.32,0.132,0.339,0.338
	c1.94,7.362,6.972,19.595,1.355,25.76c-3.165,3.477-11.671,4.549-17.624,6.102c-6.797,1.773-13.268,3.346-18.982,4.746
	c-6.96,1.705-10.624,4.957-15.252,8.473C134.763,208.341,130.868,212.067,124.272,212.519z"/>
<path fill-rule="evenodd" clip-rule="evenodd" fill="#D66B4E" d="M67.33,213.874c-1.755,4.877-7.558,5.336-11.524,7.796
	c-2.695,1.671-4.354,4.905-7.796,5.084c-3.818-3.364,0.854-7.172,3.39-9.151c3.083-2.408,7.181-4.143,10.168-5.424
	c-5.752,0.688-11.934,3.883-15.252,8.135c-1.729-2.027-4.057-3.398-4.406-6.102c-0.757-5.842,8.165-12.688,14.574-12.201
	c4.757,0.361,5.798,5.303,6.779,9.83C63.942,212.168,66.977,212.185,67.33,213.874z"/>
<linearGradient id="SVGID_5_" gradientUnits="userSpaceOnUse" x1="191.2148" y1="377.5029" x2="189.1193" y2="391.2677">
	<stop  offset="0" style="stop-color:#C4AA8E"/>
	<stop  offset="1" style="stop-color:#8F6654"/>
</linearGradient>
<path fill-rule="evenodd" clip-rule="evenodd" fill="url(#SVGID_5_)" d="M198.841,360.976c-1.357,5.111-3.25,16.377-5.763,24.404
	c-0.806,2.574-1.897,7.379-5.084,7.117c-5.229-0.43-2.356-10.629-1.694-14.574c0.979-5.834,1.84-10.891,2.371-16.27
	c0-0.34,0-0.678,0-1.016C192.438,360.372,195.183,361.13,198.841,360.976z"/>
<path fill-rule="evenodd" clip-rule="evenodd" fill="#F8EED9" d="M51.738,227.432c3.241-4.894,9.538-6.731,14.913-9.49
	c7.408,12.702,18.658,21.563,22.709,37.622c-3.421,0.986-5.469,3.346-6.778,6.439C67.345,255.435,61.198,239.778,51.738,227.432z
	 M71.735,254.886c0.574-3.607,4.453-3.908,8.475-4.066c0.854-1.293,0.455-3.838,1.016-5.424c0.615-1.08,2.621-0.77,3.729-1.355
	c-4.316-1.619-5.431,2.325-5.423,6.1c-2.124,0.207-3.584-0.256-5.423-0.338C72.661,250.62,71.138,253.151,71.735,254.886z
	 M70.72,233.532c2.865,4.15,5.511,8.727,9.15,11.186c-6.195-7.475-10.654-16.686-17.286-23.727
	C64.923,225.181,67.897,229.446,70.72,233.532z M73.431,249.802c-5.832-8.517-11.625-17.072-17.964-25.082
	C60.776,233.76,66.5,242.384,73.431,249.802z"/>
<linearGradient id="SVGID_6_" gradientUnits="userSpaceOnUse" x1="124.1958" y1="303.4063" x2="131.6937" y2="277.1206">
	<stop  offset="0" style="stop-color:#C19663"/>
	<stop  offset="1" style="stop-color:#A5725B"/>
</linearGradient>
<path fill-rule="evenodd" clip-rule="evenodd" fill="url(#SVGID_6_)" d="M256.12,282.001c-6.144,13.178-15.365,26.209-19.656,42.367
	c-48.577-1.584-101.1-3.389-153.204-3.389c-21.07,0-43.928-0.434-58.976,6.102c-5.5-16.531-12.559-31.506-19.32-46.773
	C91.137,281.067,178.406,276.212,256.12,282.001z"/>
<linearGradient id="SVGID_7_" gradientUnits="userSpaceOnUse" x1="38.1807" y1="342.1367" x2="219.1758" y2="342.1367">
	<stop  offset="0" style="stop-color:#C4AA8E"/>
	<stop  offset="1" style="stop-color:#8F6654"/>
</linearGradient>
<path fill-rule="evenodd" clip-rule="evenodd" fill="url(#SVGID_7_)" d="M38.181,327.081l17.625,32.877c0,0,48.08-8.279,64.08-6.945
	s86.75,2.541,86.75,2.541l12.54-27.795C219.176,327.759,77.142,320.483,38.181,327.081z"/>
<linearGradient id="SVGID_8_" gradientUnits="userSpaceOnUse" x1="70.6416" y1="376.7676" x2="77.7076" y2="397.1958">
	<stop  offset="0" style="stop-color:#C4AA8E"/>
	<stop  offset="1" style="stop-color:#8F6654"/>
</linearGradient>
<path fill-rule="evenodd" clip-rule="evenodd" fill="url(#SVGID_8_)" d="M58.855,363.349l13.219-3.051
	c0,0,8.397,23.314,8.397,29.814s-3.25,11.699-5.85,11.699S58.855,363.349,58.855,363.349z"/>
<path fill-rule="evenodd" clip-rule="evenodd" fill="#00A5DA" d="M78.854,156.931c0,0-5.352,4.177-6.88,9.609
	c-1.527,5.433-1.188,15.11-1.188,15.11l19.185-0.509c0,0,16.808-18.847,16.299-21.393
	C105.761,157.202,78.854,156.931,78.854,156.931z"/>
<path fill-rule="evenodd" clip-rule="evenodd" fill="#00A5DA" d="M128.052,153.679c0,0,13.666-5.333,30.166-14.666
	c16.5-9.334,16.5-9.334,16.5-9.334s14.834,6.833,19.5,18c2.168,5.834,2.168,5.834,2.168,5.834l-21.168,8.5l-3.666-12.667
	c0,0-7,7.833-22.334,10.5c-15.332,2.667-20.5,2.5-20.5,2.5s0.834-4.167-0.5-4.833C126.886,156.846,127.052,155.345,128.052,153.679z
	"/>
<path fill-rule="evenodd" clip-rule="evenodd" fill="#00A5DA" d="M114.552,176.179c0,0,12,1.5,32.666-1
	c20.668-2.5,28.5-9.333,28.5-9.333l2.334,6.5c0,0-27.666,10.666-30.666,11.333s-19.168-1.166-22.834-0.333
	s-14.666,1.667-14.666,1.667S111.552,180.512,114.552,176.179z"/>
<path fill-rule="evenodd" clip-rule="evenodd" fill="#CE9B36" d="M53.478,214.663c-9.865,6.278-9.193,10.987-6.502,11.885
	c2.69,0.896,6.727-2.691,8.744-4.709c2.019-2.019,8.745-3.363,10.539-5.83s1.793-5.158-2.018-5.158
	C60.429,210.851,53.478,214.663,53.478,214.663z"/>
<polygon fill-rule="evenodd" clip-rule="evenodd" fill="#F4BA65" points="55.467,224.72 74.108,249.802 71.735,257.259 
	51.737,227.432 "/>
<polygon fill-rule="evenodd" clip-rule="evenodd" fill="#F7BA67" points="61.052,220.013 81.226,245.396 84.954,244.04 
	66.651,217.941 "/>
<polygon fill-rule="evenodd" clip-rule="evenodd" fill="#F8D677" points="55.467,224.72 61.052,220.013 81.226,245.396 
	80.209,250.819 73.552,252.013 "/>
<path fill-rule="evenodd" clip-rule="evenodd" fill="#E4A688" d="M51.593,204.109c-0.315,0.746-0.201,1.257,2.111,2.864
	c2.313,1.609,3.669,4.172,3.669,4.172s3.77-0.15,3.669-2.262s-0.654-4.573-3.367-5.528C54.96,202.4,52.146,202.803,51.593,204.109z"
	/>
<g>
	<radialGradient id="SVGID_9_" cx="87.0146" cy="120.6001" r="10.3806" gradientUnits="userSpaceOnUse">
		<stop  offset="0" style="stop-color:#0084C7"/>
		<stop  offset="0.2657" style="stop-color:#0082C4"/>
		<stop  offset="0.4759" style="stop-color:#007DBA"/>
		<stop  offset="0.667" style="stop-color:#0073A9"/>
		<stop  offset="0.8458" style="stop-color:#006692"/>
		<stop  offset="1" style="stop-color:#005777"/>
	</radialGradient>
	<circle fill="url(#SVGID_9_)" cx="87.015" cy="120.601" r="10.381"/>
	<path fill="#FFFFFF" d="M83.399,116.751c-1.915,3.83,0.232,7.231-2.566,7.698s-4.432-3.966-3.032-8.631s7.697-6.065,8.864-3.732
		C87.831,114.419,84.565,114.419,83.399,116.751z"/>
</g>
<g>
	<radialGradient id="SVGID_10_" cx="183.6812" cy="79.9336" r="10.3801" gradientUnits="userSpaceOnUse">
		<stop  offset="0" style="stop-color:#0084C7"/>
		<stop  offset="0.2657" style="stop-color:#0082C4"/>
		<stop  offset="0.4759" style="stop-color:#007DBA"/>
		<stop  offset="0.667" style="stop-color:#0073A9"/>
		<stop  offset="0.8458" style="stop-color:#006692"/>
		<stop  offset="1" style="stop-color:#005777"/>
	</radialGradient>
	<circle fill="url(#SVGID_10_)" cx="183.681" cy="79.934" r="10.38"/>
	<path fill="#FFFFFF" d="M180.065,76.085c-1.914,3.83,0.233,7.23-2.566,7.697c-2.799,0.467-4.432-3.965-3.031-8.631
		c1.398-4.665,7.697-6.064,8.863-3.732C184.497,73.753,181.231,73.753,180.065,76.085z"/>
</g>
<path fill-rule="evenodd" clip-rule="evenodd" fill="#C49582" d="M134.787,104.646c0,0-0.745-5.428,4.257-7.982
	c5.002-2.554,11.388,1.064,9.686,2.022c-1.703,0.958-4.789-1.063-7.77,0.745S135.638,105.284,134.787,104.646z"/>
<path fill-rule="evenodd" clip-rule="evenodd" fill="#E77483" d="M140.281,121.354c-2.644-0.61-4.47,2.66-5.108,6.066
	c-0.639,3.405,0.852,7.875,2.66,7.875c1.81,0,2.314-2.262,3.805-5.88S144.433,122.313,140.281,121.354z"/>
<g>
	<path fill-rule="evenodd" clip-rule="evenodd" d="M178.503,70.839c-3.958,1.811-5.939,7.249-4.745,12.203
		C171.655,77.997,174.323,70.675,178.503,70.839z"/>
	<path fill-rule="evenodd" clip-rule="evenodd" d="M181.894,75.925c7.614-2.494,7.674,8.666,2.032,8.811
		C179.503,84.851,176.857,77.571,181.894,75.925z"/>
	<path fill-rule="evenodd" clip-rule="evenodd" d="M75.803,95.583c2.689,1.266,2.44,8.404,5.423,10.506
		c-0.197,1.893,1.014,2.377,1.017,4.068c0.361,0.805,1.562-0.727,2.034,0.339c0.531,1.032-2.07,0.575-0.678,1.355
		c-0.36,1.286-1.148-1.472-1.695,0c-0.256-2.757-3.007-5.138-3.729-8.474c-1.125,0.344-1.061,1.876-2.711,1.694
		c0.09-1.603,1.48-1.907,2.033-3.05C76.673,100.135,76.313,97.783,75.803,95.583z"/>
	<path fill-rule="evenodd" clip-rule="evenodd" d="M85.971,116.258c2.452-0.622,6.812,1.292,5.423,6.101
		c-1.429,4.954-10.891,3.162-8.813-3.727C82.947,117.419,84.183,116.712,85.971,116.258z"/>
	<path fill-rule="evenodd" clip-rule="evenodd" d="M46.314,121.003c0.944,2.307-1.339,4.305-1.694,6.439
		C43.983,125.444,46.091,123.271,46.314,121.003z"/>
	<path fill-rule="evenodd" clip-rule="evenodd" d="M83.599,135.577c0.824,0.125,0.57,2.354,0.339,3.391
		C83.164,138.497,83.812,136.607,83.599,135.577z"/>
	<path fill-rule="evenodd" clip-rule="evenodd" d="M187.993,206.417c-1.67,2.5-6.549,0.898-10.168,1.018
		c-8.196,0.269-14.096,4.664-18.98,9.49C164.95,206.765,176.436,206.724,187.993,206.417z"/>
	<path fill-rule="evenodd" clip-rule="evenodd" fill="#F3B511" d="M212.397,208.112c1.271,0.31,2.396,0.767,3.729,1.016
		c-4.842,19.451-8.409,40.174-10.508,62.367c-1.14,0.703-2.203-0.84-3.051-1.355c-7.908-4.814-18.025-9.354-29.148-11.186
		c11.349,0.061,21.466,4.293,30.166,8.133C205.967,246.874,208.891,227.201,212.397,208.112z"/>
	<path fill-rule="evenodd" clip-rule="evenodd" d="M185.62,219.297c0.02,2.045-3.672,1.658-4.405,1.017
		c-2.921,1.01-6.462,0.615-9.491,1.356c-6.72,1.642-11.548,5.519-16.27,8.812c5.047-6.126,13.387-9.618,21.354-10.506
		c1.516-0.17,3.037,0.481,4.068-0.679c0.449,0.341,1.261,0.321,1.355,1.017C183.03,219.645,184.5,219.646,185.62,219.297z"/>
	<path fill-rule="evenodd" clip-rule="evenodd" d="M200.534,226.076c-1.188,1.431-2.126-1.065-3.051-1.694
		c-2.453-1.674-5.939-2.619-8.813-3.729c-0.55,0.509-2.5,0.509-3.051,0c0.797-2.288,3.666,0.24,5.084-0.678
		c0.1,1.548,5.353,1.693,7.457,3.729C198.953,224.469,198.906,225.851,200.534,226.076z"/>
	<path fill-rule="evenodd" clip-rule="evenodd" d="M62.583,220.991c6.632,7.041,11.092,16.252,17.287,23.727
		c-3.641-2.459-6.286-7.035-9.151-11.186C67.897,229.446,64.922,225.181,62.583,220.991z"/>
	<path fill-rule="evenodd" clip-rule="evenodd" d="M130.373,225.397c-2.487,2.441-7.035-2.592-11.186-0.678
		c0.71-2.813,4.065-0.039,5.763-1.016C126.271,224.853,128.772,225.519,130.373,225.397z"/>
	<path fill-rule="evenodd" clip-rule="evenodd" d="M118.849,223.704c-1.84,1.688-4.957,1.064-7.457,1.693
		c-5.555,1.399-10.828,4.518-15.93,5.424C102.759,227.351,111.535,223.394,118.849,223.704z"/>
	<path fill-rule="evenodd" clip-rule="evenodd" d="M55.466,224.72c6.34,8.01,12.133,16.565,17.965,25.082
		C66.499,242.384,60.775,233.76,55.466,224.72z"/>
	<path fill-rule="evenodd" clip-rule="evenodd" d="M144.608,236.244c-0.533,1.493-2.419-1.072-2.711-2.034
		c-3.661-2.327-6.111-5.864-10.847-7.117c-0.394,0.055-0.603-0.074-0.678-0.339c4.908-1.276,8.044,5.05,12.202,6.778
		C142.456,235.233,143.727,235.544,144.608,236.244z"/>
	<path fill-rule="evenodd" clip-rule="evenodd" d="M199.856,239.973c-0.102,1.437-1.426-0.219-1.695,0.678
		c-2.384-3.978-8.611-4.632-12.541-6.101c1.438-1.914,4.369,0.512,4.746,0.678c2.52,1.107,6.184,1.301,7.795,4.406
		C198.583,240.136,199.147,238.81,199.856,239.973z"/>
	<path fill-rule="evenodd" clip-rule="evenodd" d="M126.306,237.938c-0.417,2.611-4.018,0.463-4.746-0.678
		c-4.75-0.422-10.994-1.959-17.285-0.678c-4.375,0.891-7.914,2.586-11.863,4.406c6.627-5.707,20.728-7.916,27.115-4.067
		c0.786,0.108,1.302-0.054,1.695-0.339C123.097,237.558,124.179,238.419,126.306,237.938z"/>
	<path fill-rule="evenodd" clip-rule="evenodd" d="M140.202,249.802c-5.098-3.037-9.23-7.039-13.896-10.507
		c4.63,0.358,6.781,6.085,11.523,7.456C137.515,248.874,140.26,247.937,140.202,249.802z"/>
	<path fill-rule="evenodd" clip-rule="evenodd" d="M74.108,249.802c1.838,0.082,3.299,0.545,5.422,0.338
		c-0.008-3.774,1.107-7.719,5.424-6.1c-1.108,0.586-3.114,0.275-3.729,1.355c-0.561,1.586-0.162,4.131-1.017,5.424
		c-4.021,0.158-7.899,0.459-8.474,4.066C71.138,253.151,72.661,250.62,74.108,249.802z"/>
	<path fill-rule="evenodd" clip-rule="evenodd" d="M185.282,247.091c0.418,1.096-1.098,0.259-0.678,1.355
		c-10.436-3.818-23.882-1.502-31.861,2.711c6.445-4.705,15.76-6.477,24.064-5.424c1.142,0.146,2.989,0.367,4.068,0.68
		C181.772,246.671,183.345,248.101,185.282,247.091z"/>
	<path fill-rule="evenodd" clip-rule="evenodd" d="M55.806,35.928c-3.225-1.521-7.918-1.573-9.491-4.745
		c19.853-0.711,27.549-16.514,46.437-19.32c-1.852-2.443-6.543-2.044-8.475-4.406c6.458-0.271,14.306-3.098,18.303,1.357
		c2.051-4.955,7.015-6.996,12.202-8.813c-0.316,1.495-3.169,3.38-3.729,5.763c-1.002-0.594,0.197-1.807,0-2.713
		c-3.539,1.317-6.098,3.617-7.795,6.779c-2.349-2.621-8.013-3.152-12.202-2.033c1.835,1.667,4.958,2.047,5.763,4.746
		C76.87,13.071,69.601,29.141,51.06,32.2c1.716,1.447,4.472,1.854,7.796,1.693c-6.302,5.844-14.356,9.846-20.337,15.932
		c-6.107,6.215-8.463,14.57-12.541,23.048c1.124,0.688,2.153-3.146,3.39-2.372c-3.847,11.471-7.142,26.444-8.134,41.012
		c-0.256,3.752-0.215,7.396,1.355,9.829c0.789-1.921,1.398-4.024,2.033-6.101c0.598,0.621-0.375,2.546-0.338,3.729
		c1.742-2.775,2.79-6.248,4.404-9.151c0.182,3.962-4.129,9.81-2.711,13.896c1.934-0.733,2.105-3.368,2.711-5.082
		c1.922-5.43,3.795-11.615,7.119-15.932c-1.157,6.188-5.74,13.691-4.746,22.031c2.344,0.339,2.222-2.68,2.712-4.067
		c0.626-1.771,1.374-3.391,2.034-4.745c0.252,2.404-2.145,5.084-1.695,8.813c0.67,0.572,2.115,0.369,3.051,0.678
		c3.367-10.416,7.119-20.447,12.879-28.472c-2.528,9.334-9.688,16.976-10.506,29.149c0.547,0.695,1.631,0.854,2.373,1.355
		c1.672-4.201,2.584-9.164,5.083-12.541c0.452,4.238-5.046,9.928-2.372,14.236c1.711-0.437,0.914-3.379,2.711-3.729
		c-0.299,2.359-2.473,4.895,0.339,5.762c2.532-9.557,5.705-18.473,10.847-25.42c-2.38,8.242-8.439,15.738-9.15,26.776
		c0.752,0.714,1.633-0.357,3.05,0c1.487-3.598,1.565-8.601,3.39-11.863c0.256,3.218-2.232,8.358-1.695,11.863
		c1.9,0.319,2.298-0.865,3.729-1.017c2.262-15.365,8.545-26.705,17.285-35.59c-2.872,4.975-6.234,10.475-9.49,16.947
		c-2.759,5.488-8.735,15.979-5.762,22.709c6.393,14.467,25.186,22.791,45.758,21.354c-0.139-6.883-0.563-17.867,5.084-17.286
		c3.048,0.313,3.513,4.923,3.051,8.474c4.051-3.977,8.994-16.445,18.642-11.523c-0.12,6.32-6.222,6.658-7.796,11.523
		c2.272,0.666,3.59,2.286,4.746,4.068c16.139-5.613,31.245-13.824,46.096-23.727c13.652-9.104,26.777-21.457,26.777-42.707
		c0-19.594-11.475-30.111-28.811-33.555c8.687-0.326,16.311,3.346,21.354,7.795c1.059-9.533-8.625-8.322-13.558-11.863
		c5.536,0.564,10.017,2.184,13.558,4.746c0-1.018,0-2.034,0-3.051c-1.121-0.801-3.365-0.479-4.746-1.018
		c1.133-1.107,4.342,0.381,5.084-0.338c-1.17-2.141-4.559-2.76-7.117-3.391c-2.93-0.723-6.068-0.99-8.813-1.694
		c5.246-0.95,11.74,1.59,16.608,1.017c-0.87-2.971-6.032-1.65-8.474-3.051c2.834-1.631,8.326,1.432,9.49-0.678
		c-0.559-1.628-2.98-1.943-4.406-2.372c-4.949-1.487-11.039-2.62-16.947-3.39c7.035-1.707,15.152,1.021,22.371,1.355
		c2.049-3.992-2.825-4.754-5.763-5.762c2.417-0.941,4.679,1.191,6.779,1.695c-0.126-3.751-4.757-3.291-7.458-4.068
		c-2.904-0.835-6.02-2.658-9.15-2.372c5.775-0.69,12,1.104,16.27,3.051c-2.947-6.622-12.979-7.88-19.998-11.186
		c-7.214-3.397-15.337-6.735-24.065-7.457c1.163-2.339,1.372-1.322,2.712-3.728c-12.488,1.586-29.699-1.072-42.368,1.016
		c13.069-4.818,32.862,0.948,45.757-4.066c-0.811,2.126-1.676,4.198-2.711,6.102c11.264,1.012,22.117,6.916,32.199,10.846
		c4.688,1.826,9.471,2.539,11.186,6.779c-0.19,9.412-3.881,15.325-4.406,24.403c14.273-5.184,26.53,4.522,25.082,17.964
		c-0.861,7.993-8.805,17.592-18.98,14.914c0.764,23.504-13.387,34.945-26.777,45.418c10.162,4.752,16.148,13.68,21.693,23.049
		c-0.794,2.258-3.17,2.932-4.406,4.744c1.885,7.055,4.734,16.58,2.372,24.743c10.146,0.768,21.618-0.073,31.861-0.339
		c7.276,30.668,19.669,58.484,30.843,87.109c1.355,3.469,4.729,9.27,4.406,12.203c-0.244,2.229-5.451,9.5-6.779,11.861
		c-6.717,11.963-13.443,23.639-19.318,35.928c-4.074-0.557-8.092-1.172-12.541-1.355c-5.762,10.734-10.816,22.174-15.932,33.555
		c-0.629,0.383-2.518-0.24-4.066,0c-4.139,7.051-4.951,23.143-9.83,30.846c-3.087,4.877-9.25,5.633-12.879,0.338
		c0.517-11.459,3.073-20.879,4.066-31.859c-38.881-1.25-89.432-7.83-124.053,2.033c2.169,7.855,6.9,19.369,9.151,28.471
		c1.056,4.268,2.777,10.906,8.135,6.439c-0.657-14.031-4.597-24.777-6.779-37.283c1.657-0.377,3.328-0.74,5.085-1.018
		c0.277,10.012,5.526,23.982,5.422,34.912c-0.024,2.609-0.654,6.037-2.372,7.457c-1.952,1.611-6.778,1.873-8.813,0.338
		c-3.107-2.342-5.06-14.836-6.439-19.318c-2.121-6.893-4.617-12.678-6.101-19.32c-1.988,0.221-3.816,1.021-5.762,0.338
		c-4.009-12.939-10.236-25.465-14.913-36.605c3.19,0.154,4.625,4.754,5.761,7.117c3.905,8.129,7.964,17.252,11.864,25.76
		c43.084-10.762,104.749-10.381,150.83-4.404c4.584-8.861,8.242-18.648,12.54-27.795c-4.194-1.465-8.825-0.842-13.218-1.018
		c-44.436-1.764-98.765,1.441-145.408-0.676c-12.291-0.559-26.313,0.137-37.961,3.389c-5.322-17.615-12.783-33.088-19.658-49.146
		c-0.905,0-1.809,0-2.713,0c0.682-0.9,2.84-0.324,3.051-1.695c0.962-0.059,0.662,1.146,2.033,0.678
		c23.805-2.746,48.392-2.262,73.213-3.389c41.275-1.875,83.891-3.004,125.07-1.018c-12.749-10.66-38.854-21.082-58.977-11.186
		c-13.297-8.213-34.289-10.873-53.554-7.457c0.513,3.58,3.066,6.844,2.712,10.168c-5.113,1.143-11.526-5.48-16.27-5.762
		c-1.804-0.105-2.861,1.396-4.406,1.695c-1.163,0.225-2.158-1.209-3.05,0c0.406-1.854,1.358-3.16,1.694-5.084
		c-8.134-8.926-15.23-18.891-21.693-29.488c-1.021,0.457-2.704,0.457-3.728,0c-1.366-1.23-2.236-3.773-1.017-5.763
		c-2.518-2.328-6.055-4.469-6.439-8.134c-0.703-6.676,10.992-15.438,18.641-13.897c4.697,0.946,5.224,6.014,7.119,10.847
		c2.016,1.23,5.08,2.551,3.728,6.102c3.581,6.136,6.801,12.632,11.863,17.285c3.468-6.926,6.567-14.222,9.829-21.354
		c-11.791,0.846-14.645-12.238-15.93-24.064c-10.047,2.397-19.234-2.514-28.472,0.338c-6.106,1.887-8.985,15.17-11.524,21.354
		c-9.311,22.673-18.943,48.554-29.827,67.79c12.044-28.969,22.412-62.551,35.251-91.855c12,0.139,22.781-0.943,33.895-1.694
		c-0.177-1.632-3.668,0.052-4.406-1.017c-0.283-12.146,1.262-22.465,8.135-27.455c-1.441-1.496-3.9-1.975-5.424-3.389
		c-3.363,16.49-34.001,16.681-34.233-3.729c-0.089-7.822,4.2-12.088,9.49-15.252c-3.378-2.951-7.601-4.5-13.219-6.102
		c-6.874-1.961-14.74-1.442-15.591-9.15c-0.431-3.898,0.947-8.281,1.355-12.543c1.166-12.198,4.451-23.564,8.474-32.539
		c-0.981-0.067-2.44,2.299-4.406,2.375C29.142,57.394,39.997,44.187,55.806,35.928z M218.837,70.161
		c1.188-11.259-10.754-22.219-22.369-15.93c-0.283,5.104-0.786,8.25,2.033,10.846c2.668-1.514,6.416-3.75,9.828-3.39
		c-3.812,1.272-7.246,2.921-9.15,6.102c1.6,4.161,2.898,8.625,3.389,13.896C211.615,81.348,218.065,77.478,218.837,70.161z
		 M174.436,131.511c-0.724-0.141-1.024,0.461-1.355,0.678c-12.444,8.133-29.391,18.056-44.741,23.048
		c2.072,4.204,2.023,10.771-0.338,14.235c-2.681,3.93-7.379,1.868-11.186,4.406c-3.338,2.227-3.233,6.67-4.746,9.83
		c5.412,0.671,10.289-0.939,15.254-1.018c7.018-0.109,14.351,1.611,21.691,0.34c1.934-0.335,3.965-1.842,6.102-2.712
		c6.738-2.745,13.852-5.163,19.998-7.456c0.798-10.059-5.17-18.623-6.779-28.473c3.457,4.564,5.094,10.949,7.457,16.609
		c6.739-2.524,14.18-4.35,18.641-9.152C189.435,144.312,183.493,133.263,174.436,131.511z M39.196,149.475
		c0.107,17.39,27.684,16.917,30.506,2.033c-2.754-2.558-5.299-5.321-8.135-7.795c-4.336,1.538-6.578,5.173-10.169,7.456
		c2.175-4.49,5.601-7.731,8.813-11.186c-1.341-1.71-1.053-5.049-2.713-6.439C45.642,132.892,39.137,139.725,39.196,149.475z
		 M112.409,150.491c0.512-3.055,0.514-8.059-2.033-9.829c-6.016,2.339-2.564,12.772-3.391,18.979
		c-0.754,5.674-5.096,9.585-8.473,13.898c-3.99,5.094-8.41,8.758-11.186,13.896c-0.242-1.711,0.463-2.475,0.678-3.729
		c-3.575,0.379-7.404,0.504-10.846,1.017c2.377,9.532,1.006,26.608,12.879,24.743c8.088-1.271,12.791-11.449,16.27-19.32
		c2.896-6.555,6.928-15.939,10.846-17.964c3.293-1.7,8.182-1.076,9.491-4.067c-0.912-3.505,1.491-5.545,1.356-8.135
		c-0.146-2.758-2.608-5.381-1.695-9.152c-0.848-1.185-3.208-0.859-4.406-1.693c1.568-5.221,9.086-6.266,8.474-12.541
		C121.085,136.577,118.533,146.218,112.409,150.491z M71.735,180.318c5.718,0.204,12.363,0.745,17.965,0
		c5.027-6.608,11.969-11.306,14.912-19.998c-10.295,0.579-18.68-0.753-25.759-3.39C73.229,161.476,71.851,170.265,71.735,180.318z
		 M139.524,204.722c4.627-3.516,8.291-6.768,15.252-8.473c5.714-1.4,12.186-2.973,18.981-4.746
		c5.954-1.553,14.46-2.625,17.624-6.102c5.616-6.165,0.586-18.397-1.355-25.76c-0.019-0.206-0.05-0.4-0.338-0.338
		c-3.881,1.654-8.368,2.705-12.542,4.067c0.287,3.668,1.302,6.608,2.034,9.829c-10.922,4.263-23.721,10.238-35.59,13.559
		c-6.687,1.869-13.031-4.43-20.336-1.695c-0.652,4.494,4.818,2.863,6.102,5.424c-4.915,3.203-14.017,2.832-16.27,8.473
		c3.653,3.184,8.588-1.693,12.201-0.678c-4.232,2.32-11.096,2.011-12.201,7.457c5.78,2.286,9.83-2.748,14.914-3.39
		c-2.875,3.001-9.293,2.458-10.848,6.778c3.764,4.483,9.701-2.716,13.559-2.372c-1.57,2.498-5.668,2.466-6.439,5.763
		C130.867,212.067,134.762,208.341,139.524,204.722z M203.245,185.741c-2.682,0.127-6.389-0.361-9.15,0.339
		c-1.651,0.419-3.139,2.244-4.746,3.05c-13.262,6.658-31.327,5.297-44.401,12.203c2.975,3.352,7.151,5.502,9.829,9.151
		c10.648-12.712,40.088-15.329,58.977-8.135c-0.384,1.085-0.689,2.248-0.678,3.728c1.334,0.701,3.698,0.369,4.067,2.035
		c-4.229,20.738-7.136,42.802-8.135,66.771c16.536,1.541,34.879,3.084,50.841,4.068c-13.744-29.668-25.885-60.236-35.588-93.211
		C216.936,185.981,210.046,185.421,203.245,185.741z M120.544,187.437c-3.286,0.217-6.526,0.479-10.168,0.338
		c-0.683,1.691-1.217,3.531-2.035,5.086c7.891,0.44,14.143,0.373,18.982-2.713C124.17,190.137,122.354,188.79,120.544,187.437z
		 M106.647,195.91c-0.719,4.109-5.133,7.032-7.457,11.185c-2.47,4.41-4.836,11.602-7.118,17.287
		c-0.985,2.453-2.157,5.561-3.39,8.813c-2.396,6.328-3.831,10.252-0.678,15.252c23.602-2.754,41.908,4.887,56.604,13.219
		c14.779-8.402,43.391-6.217,56.943,1.693c1.863-21.521,6.598-40.175,11.185-58.975c-18.86-6.57-46.847-4.014-58.638,7.117
		c-2.058,17.488-5.031,34.061-9.49,49.146c2.383-16.937,6.056-32.583,9.151-48.807c-2.327-4-6.571-6.084-10.169-8.813
		c-5.681,4.148-10.086,9.571-18.641,10.847c-1.572-0.01-1.133-2.032-2.373-2.373c-1.525,0.856-4.236,0.856-5.762,0
		c-0.756-0.463-0.998-2.561-0.34-3.389c-6.074,1.007-5.682-4.723-2.372-6.44c-4.081-0.333-1.959-5.114-1.017-6.101
		C111.612,196.356,108.685,195.688,106.647,195.91z M63.262,211.841c-0.981-4.527-2.022-9.469-6.779-9.83
		c-6.409-0.486-15.331,6.359-14.573,12.201c0.349,2.703,2.677,4.074,4.405,6.102c3.318-4.252,9.5-7.446,15.253-8.135
		c-2.988,1.281-7.086,3.016-10.169,5.424c-2.535,1.979-7.208,5.787-3.39,9.151c3.441-0.179,5.101-3.413,7.797-5.084
		c3.966-2.46,9.77-2.919,11.523-7.796C66.976,212.185,63.942,212.168,63.262,211.841z M203.585,267.087
		c-8.7-3.84-18.817-8.072-30.166-8.133c11.123,1.832,21.24,6.371,29.148,11.186c0.848,0.516,1.911,2.059,3.051,1.355
		c2.099-22.193,5.666-42.916,10.508-62.367c-1.332-0.249-2.457-0.706-3.729-1.016C208.891,227.201,205.967,246.874,203.585,267.087z
		 M91.394,212.519c-3.081,8.215-6.496,16.1-9.828,24.064c0.475,1.445,1.416,2.424,2.372,3.39
		c3.544-10.127,8.534-20.615,11.862-29.827C94.753,211.358,92.868,211.731,91.394,212.519z M82.581,262.003
		c1.311-3.094,3.357-5.453,6.779-6.439c-4.051-16.059-15.301-24.92-22.709-37.622c-5.375,2.759-11.672,4.597-14.914,9.49
		C61.198,239.778,67.344,255.435,82.581,262.003z M115.459,251.835c-8.161-1.189-17.185-2.252-26.437-1.354
		c-0.092,1.218,0.625,1.632,0.678,2.709C97.743,251.737,107.381,251.512,115.459,251.835z M4.963,280.308
		c6.763,15.268,13.82,30.242,19.321,46.773c15.047-6.535,37.904-6.102,58.975-6.102c52.105,0,104.627,1.805,153.204,3.389
		c4.291-16.158,13.513-29.189,19.657-42.367C178.405,276.212,91.136,281.067,4.963,280.308z M188.671,360.638
		c0,0.338,0,0.676,0,1.016c-0.532,5.379-1.394,10.436-2.372,16.27c-0.662,3.945-3.534,14.145,1.694,14.574
		c3.187,0.262,4.279-4.543,5.084-7.117c2.513-8.027,4.406-19.293,5.763-24.404C195.183,361.13,192.437,360.372,188.671,360.638z"/>
	<path fill-rule="evenodd" clip-rule="evenodd" d="M160.2,51.52c3.421,4.985,7.031,12.079,7.795,17.625
		c-2.59-7.69-6.486-14.076-10.508-20.337c10.918,3.658,17.725,11.426,23.049,20.676c17.588-4.576,18.468,25.857,0.34,21.016
		c6.854-0.016,11.507-2.324,12.541-7.457c1.813-9.008-6.297-14.297-13.559-12.203C177.243,63.048,168.522,55.829,160.2,51.52z"/>
	<path fill-rule="evenodd" clip-rule="evenodd" d="M152.404,54.57c-0.151,0.493-0.298-0.035-0.679,0
		c4.645,3.605,10.02,8.936,12.881,12.202c-0.15,0.492-0.298-0.035-0.678,0c2.391,3.146,4.715,6.357,6.101,10.506
		c-5.94-9.312-12.846-17.658-22.71-23.047c3.084,6.068,7.532,13.709,8.813,22.709c-2.354-8.191-7.128-19.119-12.202-26.776
		C148.318,52.019,149.123,53.142,152.404,54.57z"/>
	<path fill-rule="evenodd" clip-rule="evenodd" d="M160.878,62.704c-0.769-1.428-4.892-4.374-3.729-4.406
		C157.918,59.728,162.041,62.673,160.878,62.704z"/>
	<path fill-rule="evenodd" clip-rule="evenodd" d="M102.579,83.042c-2.095,6.17-0.407,15.529,0.678,21.691
		c-1.287-0.607-1.729-3.119-2.033-5.084c-1.677-10.807-0.373-26.746,5.424-32.877c2.358,10.721,5.249,19.189,8.812,24.742
		c0.065,0.103,4.046,4.244,2.372,4.068c1.557,0.804,1.865,2.502,2.713,2.711c-1.076-5.99-3.666-10.839-4.406-21.016
		c-0.678-9.302,0.88-18.495,3.728-25.42c19.243,4.145,29.077,17.697,37.284,32.877c-1.34,0.461-1.969-2.395-3.051-4.066
		c-7.281-11.26-17.955-22.544-33.895-25.42c-1.793,1.948-1.359,5.081-1.694,7.795c-1.553,12.57-0.755,28.433,4.406,37.962
		c-1.048,0.463-2.273-0.929-3.051-1.695c-6.478-6.393-11.566-16.74-14.235-27.114c-4.793,6.003-0.308,20.392,0.678,24.741
		C104.563,92.808,103.149,88.347,102.579,83.042z"/>
	<path fill-rule="evenodd" clip-rule="evenodd" d="M93.427,74.907c0.889,13.573,4.419,24.505,9.491,33.895
		c0.771,1.064,1.015-0.076,1.356,0.338c0.027,0.537-0.164,1.293,0.338,1.356c-4.07-2.195-6.793-8.62-8.813-13.897
		c-2.14-5.594-4.191-12.057-4.745-18.642C89.877,78.86,92.245,73.833,93.427,74.907z"/>
	<path fill-rule="evenodd" clip-rule="evenodd" d="M155.794,77.278c1.285,0.41,0.506,2.885,1.017,4.068
		C156.3,81.502,156.104,78.448,155.794,77.278z"/>
	<path fill-rule="evenodd" clip-rule="evenodd" d="M86.649,110.496c-0.675,0.774,0.541,1.712,1.017,2.372
		c-2.376-0.934-3.385-4.293-4.407-7.117c-1.697-4.693-3.206-9.744-3.389-15.931c1.924,5.307,2.361,12.101,4.746,16.947
		c-1.021-10.382,0.318-21.599,5.084-28.132c-2.305,7.623-6.281,19.41-3.729,30.844c14.907-0.627,15.112,21.789,2.034,22.369
		c-9.705,0.432-16.145-13.745-7.796-20.336c0.704,2.028-2.272,2.544-3.05,4.745c-0.785,2.22-0.419,5.847,0.678,8.474
		c3.284,7.871,16.842,7.852,18.642-1.355C97.825,116.486,93.657,111.468,86.649,110.496z"/>
	<path fill-rule="evenodd" clip-rule="evenodd" d="M138.169,135.239c0.781-0.461,1.891-0.595,1.693-2.034
		c0.675,1.576-0.416,3.243-1.693,3.39c-5.285,0.604-4.107-15.382,1.693-15.592c2.598-0.094,4.703,3.23,2.373,7.117
		c0.598-2.338,1.363-5.929-2.033-6.101C135.435,121.78,133.782,132.755,138.169,135.239z"/>
	<path fill-rule="evenodd" clip-rule="evenodd" d="M187.993,207.772c4.313-1.943,8.179,1.629,12.88,0.34
		c0.456,1.97,2.905,0.146,3.05,2.033C199.567,208.691,193.163,208.878,187.993,207.772z"/>
	<path fill-rule="evenodd" clip-rule="evenodd" fill="#F1B91E" d="M95.8,210.146c-3.328,9.212-8.318,19.7-11.862,29.827
		c-0.956-0.966-1.897-1.944-2.372-3.39c3.332-7.965,6.747-15.85,9.828-24.064C92.868,211.731,94.753,211.358,95.8,210.146z"/>
	<path fill-rule="evenodd" clip-rule="evenodd" d="M185.62,233.194c0.061,2.415-3.524,0.99-4.405,0.338
		c-7.524,0.347-14.306,1.838-22.37,3.729c-1.328,0.933-2.203,2.316-3.391,3.39c-0.771,0.095-1.273-0.081-1.355-0.678
		c-0.806-0.681,0.377,0.149,0.678,0.339c1.274-1.098,2.52-2.227,3.39-3.729C167.897,234.022,177.02,232.19,185.62,233.194z"/>
	<path fill-rule="evenodd" clip-rule="evenodd" fill="#F1B306" d="M89.7,253.19c-0.053-1.077-0.77-1.491-0.678-2.709
		c9.252-0.898,18.275,0.164,26.437,1.354C107.381,251.512,97.743,251.737,89.7,253.19z"/>
	<path fill-rule="evenodd" clip-rule="evenodd" d="M197.823,250.819c0.263,0.752,0.711,1.32,0.678,2.371
		c-1.582,0.363-2.546-1.012-1.695-2.033c-2.335,0.352-5.305-1.678-6.439-0.338c-0.615-2.098-4.551-0.875-5.424-2.713
		C189.271,248.228,193.545,250.284,197.823,250.819z"/>
</g>
<g>
	<path fill="#7A7782" d="M83.816,134.864c-0.765-0.662-0.948,3.012-0.517,3.977C83.73,139.804,85.627,136.431,83.816,134.864z"/>
	<path fill="#7A7782" d="M91.413,135.11c-0.801-0.619-0.778,3.06-0.293,3.998C91.604,140.046,93.31,136.572,91.413,135.11z"/>
	<path fill="#7A7782" d="M98.618,132.918c-0.932-0.396,0.016,3.157,0.722,3.942C100.044,137.647,100.82,133.856,98.618,132.918z"/>
	<path fill="#7A7782" d="M185.989,94.64c-0.949-0.35,0.172,3.152,0.914,3.902C187.646,99.294,188.235,95.469,185.989,94.64z"/>
	<path fill="#7A7782" d="M192.284,90.948c-0.998-0.172,0.74,3.068,1.607,3.672C194.758,95.224,194.643,91.354,192.284,90.948z"/>
	<path fill="#7A7782" d="M198.515,87.279c-0.923,0.099,0.824,2.431,1.647,2.729C200.985,90.311,200.696,87.048,198.515,87.279z"/>
</g>
<path fill="#8D9090" d="M88.378,256.7c-0.982,0.654,0.142,2.129,1.986,4.611c1.845,2.484,2.129,2.271,0.993-0.779
	S89.654,255.849,88.378,256.7z"/>
</svg>
