<?xml version="1.0" encoding="utf-8"?>
<!-- Generator: Adobe Illustrator 14.0.0, SVG Export Plug-In . SVG Version: 6.00 Build 43363)  -->
<!DOCTYPE svg PUBLIC "-//W3C//DTD SVG 1.1//EN" "http://www.w3.org/Graphics/SVG/1.1/DTD/svg11.dtd">
<svg version="1.1" id="图层_1" xmlns="http://www.w3.org/2000/svg" xmlns:xlink="http://www.w3.org/1999/xlink" x="0px" y="0px"
	 width="238.072px" height="381.727px" viewBox="0 0 238.072 381.727" enable-background="new 0 0 238.072 381.727"
	 xml:space="preserve">
<g>
	<ellipse fill="#D7D0CC" cx="119.072" cy="331.227" rx="119" ry="50.5"/>
	<g>
		<g>
			<path fill="#75BCE1" d="M82.735,1.333l-13.5,17.5c0,0,17,10,28,7s15.5-4.5,15.5-4.5L82.735,1.333z"/>
			<path fill="#75BCE1" d="M153.235,4.833l-33.5,17.5c0,0,7,3.5,23.5,5.5s27.5-5,27.5-5L153.235,4.833z"/>
			<path fill="#FFFFFF" d="M153.593,8.449l10.152,13.128c0,0-2.101,1.05-7.177,1.925s-6.651,0.875-6.651,0.875l9.627-3.851
				L153.593,8.449z"/>
		</g>
		<g>
			<polygon fill="#1EA6C4" points="53.902,134.333 41.569,201.667 119.235,211.998 191.902,208.667 181.569,139.667 			"/>
			<path fill="#0092A8" d="M175.569,136.999c0,0-22.334,14.334-114.334,17.668c-4.666-0.668-6.333,11.666-9.333,23.666
				s-4.667,18,3,22s7.667,4,7.667,4l-22-2.666l13.333-65.668L175.569,136.999z"/>
			<path fill="#0192A9" d="M163.902,153.333c0,0,9.333,12,11.333,17.666c2,5.668,3,31.668,3,31.668l-26.666,6.666l39.333-0.666
				l-8.333-44.668L163.902,153.333z"/>
			<polygon fill="#FFFFFF" points="49.235,155.999 63.902,145.999 67.235,150.999 48.569,164.667 			"/>
			<polygon fill="#FFFFFF" points="167.569,148.999 163.902,153.333 183.902,170.999 182.569,161.667 			"/>
		</g>
		<g>
			<path fill="#F2C500" d="M59.069,19l7.666-1.333c0,0,13.333,8,22,8S109.069,22,109.069,22l13,1.333c0,0,15,5.334,27.333,4.334
				s24.333-4.334,24.333-4.334l18,31.667c0,0-13.667,11.667-26,15c7.334,38,15.667,69,15.667,69s-65.667,17.666-131.667-3.334
				c5-27.666,12.334-68,12.334-68l-25.667-15L59.069,19z"/>
			<path fill="#F1E700" d="M64.402,27.333v0.334c0,0,14.333,4.666,28,2c8.506-1.66,17.001-8.334,17.001-8.334l13,1.334
				c0,0,15,5.333,27.333,4.333s24.333-4.333,24.333-4.333l18,31.666c0,0-13.667,11.667-26,15c7.334,38,15.667,69,15.667,69
				s-59.334,17.666-125.334-3.334c3.333-27.666,7.667-70,7.667-70l-18-13L64.402,27.333z"/>
		</g>
		<polygon fill="#261F14" points="109.402,22.333 123.735,21.999 124.735,24.333 119.068,30.667 124.735,64.333 110.735,70.999 
			103.068,60.667 113.069,30.667 		"/>
		<g>
			<path fill="#F2C500" d="M51.069,69.667c0,0,1.916,36,3.25,38.666c1.332,2.666,14.832,6.584,23.5,9.25
				c6.334,10,10.334,11.666,17.666,13c0.334,5,6.584,4.375,5.459-0.625c2.75,4.375,6.125,3.5,5.25-0.875
				c4.25,2.75,7,1.125,4.125-4.125c4.125-0.625,2.125-5.625-1.5-8c0.625-4.25,0.875-7.25-5.5-8.75s-13.25,0.75-23-2
				s-25.75-11.125-25.75-11.125l4.625-23L51.069,69.667z"/>
			<path fill="#F9D3B9" d="M50.903,61.667c0,0-11,35.333-9.668,38c1.334,2.666,31.666,11,40.334,13.666
				c6.334,10,10.334,11.666,17.666,13c0.334,5,6.584,4.375,5.459-0.625c2.75,4.375,6.125,3.5,5.25-0.875
				c4.25,2.75,7,1.125,4.125-4.125c4.125-0.625,2.125-5.625-1.5-8c0.625-4.25,0.875-7.25-5.5-8.75s-13.25,0.75-23-2
				s-25.75-11.125-25.75-11.125l4.625-23L50.903,61.667z"/>
			<path fill="#ECB092" d="M57.569,63.333c0,0-0.834,13.5-2.168,18c-1.332,4.5-5.666,10.334-5.666,10.334s5.334,0.5,8-0.834
				c2.666-1.332,6.666-24.166,6.666-24.166L57.569,63.333z"/>
		</g>
		<g>
			<path fill="#F9D3B9" d="M166.403,70c0,0,14.334,27.666,15.666,27.666c1.334,0,17.334-33,17.334-33l-7-9.667L166.403,70z"/>
			<path fill="#ECB092" d="M179.069,64.667c0,0,2.332,4.332,1.332,7.666s-5,16,2,25.334c8.334-18,16.668-34.667,16.668-34.667
				l-5-7.333L179.069,64.667z"/>
		</g>
		<g>
			<polygon fill="#F9D3B9" points="74.241,207.452 75.972,237.43 99.896,239.734 98.743,211.486 			"/>
			<path fill="#ECB092" d="M74.519,207.333c0,0,2,6.5,11,11s6,15.5-1.5,12.5c12.5,7,14.5,5.5,14.5,5.5v-27L74.519,207.333z"/>
			<path fill="#FFFFFF" d="M76.199,236.402l2.349,54.938c0,0-3.795,1.807-4.518,5.24s-8.824,18.973-14.427,23.311
				c0,0-17.017,16.805-0.934,29.818c16.083,13.012,32.89-8.854,34.878-14.455c1.988-5.604,8.674-23.133,9.217-24.578
				c0.541-1.445-2.17-11.564-2.35-25.299c-0.182-13.734-0.543-44.996-0.543-44.996L76.199,236.402z"/>
			<path d="M76.483,235.139c0,0,15.18,4.518,21.865,0.723c0.182,7.41,0.182,7.41,0.182,7.41s-5.785,1.084-12.289,1.084
				c-6.506,0-9.758-2.529-9.758-2.529V235.139z"/>
			<path d="M76.302,247.428c0,0,3.615,2.168,11.023,3.072c7.41,0.904,11.928-0.543,11.928-0.543l-0.543,1.988
				c0,0-5.059,1.266-11.746,0.543c-6.686-0.723-9.939-2.711-9.939-2.711L76.302,247.428z"/>
			<path fill="#006E7A" d="M75.036,302.363c0,0-11.022,10.842-16.444,18.07s-6.325,14.277-6.325,14.277s7.771-4.156,17.349-0.182
				c9.577,3.977,11.927,9.76,11.927,9.76s8.131-6.326,11.926-12.832c3.795-6.504,9.758-24.215,8.494-26.744
				c-1.266-2.529-1.988-2.891-1.988-2.891l-5.963,5.781c0,0-0.723-3.975-3.615-5.781C87.505,300.014,80.999,298.93,75.036,302.363z"
				/>
			<path fill="#028DB5" d="M76.845,301.641c0,0-8.855,11.205-13.193,19.156c-4.336,7.951-5.963,11.926-5.963,11.926
				s9.035-1.807,15.361,3.072c13.01-18.793,19.877-27.469,19.877-27.469s-0.543-6.324-2.891-7.408
				C87.687,299.834,80.819,298.207,76.845,301.641z"/>
			<path fill="#FFFFFF" d="M57.327,329.471c0,0,4.338-0.543,9.939,1.084s8.132,4.518,8.132,4.518s2.168-0.543,1.807-1.807
				c-0.361-1.266-2.168-3.797-9.938-5.783C59.496,325.494,55.882,328.025,57.327,329.471z"/>
			<path fill="#FFFFFF" d="M60.038,325.025c0,0,4.338-0.543,9.939,1.084s8.131,4.518,8.131,4.518s2.168-0.543,1.807-1.807
				c-0.361-1.266-2.168-3.797-9.938-5.783C62.206,321.049,58.593,323.58,60.038,325.025z"/>
			<path fill="#FFFFFF" d="M62.387,320.58c0,0,4.338-0.543,9.939,1.084s8.132,4.518,8.132,4.518s2.168-0.543,1.807-1.807
				c-0.361-1.266-2.168-3.797-9.938-5.783C64.556,316.604,60.941,319.135,62.387,320.58z"/>
			<path fill="#FFFFFF" d="M66.362,316.133c0,0,4.338-0.543,9.939,1.084s8.132,4.518,8.132,4.518s2.168-0.541,1.807-1.807
				c-0.361-1.264-2.168-3.795-9.938-5.783C68.531,312.158,64.917,314.688,66.362,316.133z"/>
			<path fill="#FFFFFF" d="M69.615,311.688c0,0,4.338-0.543,9.939,1.084s8.132,4.518,8.132,4.518s2.168-0.541,1.807-1.807
				c-0.361-1.264-2.168-3.795-9.938-5.783C71.784,307.713,68.17,310.242,69.615,311.688z"/>
			<path fill="#FFFFFF" d="M72.507,307.242c0,0,4.338-0.543,9.939,1.084s8.133,4.518,8.133,4.518s2.168-0.541,1.807-1.807
				c-0.361-1.264-2.168-3.795-9.939-5.783C74.676,303.268,71.062,305.797,72.507,307.242z"/>
			<path d="M74.495,304.352c0,0,3.434-5.061,11.023-3.795s8.492,7.047,8.492,7.047l5.604-5.42l-0.182-2.35l-4.518,4.697
				c0,0-2.168-4.879-8.855-5.781c-7.719-1.043-11.385,3.072-11.385,3.072L74.495,304.352z"/>
		</g>
		<g>
			<polygon fill="#F9D3B9" points="165.402,210 163.7,238.211 139.654,240.578 140.813,211.594 			"/>
			<path fill="#ECB092" d="M164.735,210.333c0,0-1.586,3.669-10.632,8.287c-9.045,4.617-6.03,15.902,1.508,12.824
				c-12.563,7.182-14.573,5.643-14.573,5.643v-27.701L164.735,210.333z"/>
			<path fill="#FFFFFF" d="M163.47,237.158l-2.359,56.365c0,0,3.813,1.854,4.54,5.377c0.726,3.523,8.868,19.467,14.499,23.918
				c0,0,17.103,17.24,0.938,30.592s-33.055-9.082-35.053-14.83c-1.999-5.748-8.719-23.734-9.263-25.217
				c-0.545-1.482,2.18-11.865,2.361-25.957s0.544-46.166,0.544-46.166L163.47,237.158z"/>
			<path d="M163.185,235.861c0,0-15.256,4.637-21.976,0.742c-0.182,7.602-0.182,7.602-0.182,7.602s5.813,1.113,12.351,1.113
				c6.538,0,9.807-2.596,9.807-2.596V235.861z"/>
			<path d="M163.366,248.471c0,0-3.632,2.223-11.078,3.15c-7.447,0.928-11.986-0.555-11.986-0.555l0.544,2.039
				c0,0,5.085,1.297,11.806,0.557c6.72-0.742,9.989-2.781,9.989-2.781L163.366,248.471z"/>
			<path fill="#006E7A" d="M164.64,304.834c0,0,11.078,11.125,16.527,18.541s6.356,14.646,6.356,14.646s-7.811-4.264-17.437-0.184
				c-9.625,4.078-11.986,10.012-11.986,10.012s-8.172-6.49-11.986-13.164s-9.807-24.846-8.537-27.441
				c1.272-2.596,1.998-2.965,1.998-2.965l5.994,5.932c0,0,0.726-4.078,3.633-5.932C152.108,302.424,158.646,301.313,164.64,304.834z
				"/>
			<path fill="#028DB5" d="M162.822,304.092c0,0,8.899,11.496,13.259,19.654c4.358,8.158,5.992,12.238,5.992,12.238
				s-9.08-1.855-15.438,3.15c-13.076-19.281-19.978-28.182-19.978-28.182s0.546-6.49,2.906-7.602
				C151.925,302.238,158.827,300.57,162.822,304.092z"/>
			<path fill="#FFFFFF" d="M182.438,332.646c0,0-4.36-0.559-9.989,1.111c-5.63,1.67-8.173,4.635-8.173,4.635
				s-2.179-0.555-1.815-1.854c0.363-1.297,2.178-3.895,9.988-5.934C180.258,328.566,183.89,331.162,182.438,332.646z"/>
			<path fill="#FFFFFF" d="M179.714,328.086c0,0-4.36-0.559-9.99,1.111c-5.629,1.67-8.172,4.635-8.172,4.635
				s-2.18-0.557-1.816-1.854s2.179-3.895,9.988-5.934C177.534,324.006,181.166,326.602,179.714,328.086z"/>
			<path fill="#FFFFFF" d="M177.353,323.523c0,0-4.359-0.557-9.99,1.113c-5.629,1.668-8.172,4.635-8.172,4.635
				s-2.18-0.557-1.816-1.854s2.18-3.895,9.988-5.934C175.173,319.445,178.806,322.041,177.353,323.523z"/>
			<path fill="#FFFFFF" d="M173.356,318.963c0,0-4.359-0.559-9.989,1.111s-8.173,4.635-8.173,4.635s-2.179-0.555-1.815-1.854
				c0.363-1.297,2.179-3.895,9.988-5.934S174.81,317.479,173.356,318.963z"/>
			<path fill="#FFFFFF" d="M170.087,314.4c0,0-4.359-0.557-9.988,1.113c-5.631,1.67-8.174,4.635-8.174,4.635
				s-2.179-0.557-1.816-1.854c0.363-1.297,2.18-3.895,9.99-5.934C167.907,310.322,171.54,312.918,170.087,314.4z"/>
			<path fill="#FFFFFF" d="M167.181,309.84c0,0-4.359-0.557-9.988,1.113c-5.63,1.668-8.174,4.635-8.174,4.635
				s-2.179-0.557-1.815-1.854c0.362-1.299,2.179-3.895,9.989-5.934C165.001,305.762,168.634,308.357,167.181,309.84z"/>
			<path d="M165.184,306.873c0,0-3.45-5.191-11.079-3.893c-7.628,1.299-8.535,7.23-8.535,7.23l-5.631-5.563l0.182-2.408l4.541,4.818
				c0,0,2.179-5.006,8.898-5.932c7.758-1.07,11.442,3.152,11.442,3.152L165.184,306.873z"/>
		</g>
		<g>
			<path fill="#4D1D14" d="M80.36,0l3.833,2.667L71.527,18c0,0,12.832,7.333,22.166,6.5s14.5-4,14.5-4s14,0.333,16,0.333
				s0.5,2.834,12.667,4.667s29.5-2.833,29.5-2.833L153.693,5.333l3.334-2.166l13.5,18L177.693,21l18.834,34.667l-0.5,1.833l4,7.333
				l-1.834,3.668l-5.833-8.833c0,0-7.667,5.5-22.667,10.833C177.86,87,185.36,97.333,185.36,97.333s-4.667,1.5-6.167-1
				S173.86,88,173.86,88s0.834,7.666,6.167,24.998c5.333,17.334,7.166,27.668,7.166,27.668s-20.834,10.166-81.667,7
				c-35.666-1.5-60-11.834-60-11.834l6.167-30.166l0.5-1.334l4.5,2.168l-5.833,25.666c0,0,17.666,9,51.833,11
				c2.5-9.834,2.5-9.834,2.5-9.834l2.667,10.334c0,0,28.666,0.832,44.666-0.834s28.167-5.666,28.167-5.666s-4.166-19.666-9.333-38
				s-6.834-29.5-6.834-29.5s27.334-11.167,26.834-14.833c-4.667-8.834-18.167-30.5-18.167-30.5s-10,5.334-26.5,4.334
				s-21.5-3.668-21.5-3.668s-4.167,6.168-4.667,6.168s5.5,33.166,5.5,33.166l-16.166,8.666l-8.834-12.166l11-30l1.667-0.666
				l-9,29.166l5.667,9.5l13-6.5l-5-31.834l4-5.832c0,0-2.168-1.668-5.334-1.834s-6.666-0.166-6.666-0.166l3.833,6.332l-2.167,0.168
				l-4-5.168c0,0-5.999,4.167-19.166,3c-13.167-1.166-22.001-7.166-23.334-7.166s-4.499,0.334-5.166,1.334
				s-5.334,7.832-10.667,16.332S39.026,51.833,39.026,51.833s10.168,8,25.334,13.833c-1.5,18.834-4.167,25.666-4.167,25.666
				L56.36,90.5l5-23.168c0,0-21.834-10.166-27.334-15.166C45.026,40.833,57.36,17.5,57.36,17.5l8.666-0.333L80.36,0z"/>
			<circle fill="#4D1D14" cx="109.985" cy="86.208" r="3.875"/>
			<path fill="#4D1D14" d="M48.86,60.333c0,0-6.5,28.25-7.75,32.5s-1.75,7.75,3.5,10.5s36.75,11.25,36.75,11.25s3.875,7.625,11,10.5
				s7.25,2.375,8.125,4.5s4.875,1.75,4.875-1.625c3.125,2.75,6.75,0.625,5.25-2.75c3.375,3.5,8,0.75,3.875-4.75
				c4.125,1.25,2.125-5.5-2.25-9c2.75-3.625-0.5-8.75-7.75-8.25s-13,0.25-22.875-3s-24.75-10.5-24.75-10.5s-2.25,1.25,3.375,4
				s24.375,9.75,34.875,10.5s15.5,1.5,16.125,2.875s0.5,3-0.5,3s-5-2.125-5-2.125s4.875,3.875,7.125,6.5s1.75,5,0.375,3.875
				s-4.625-2.875-4.625-2.875s4.125,3.625,5.25,6.5s0.25,4.5-3.125,1.125s-5.25-5.75-5.25-5.75s3.75,5,3.875,7.375
				s-1,5.625-5.375-1.25c0.25,5.875-0.375,6.25-1.875,5.25s-0.625-2.625-2.25-3.375s-9.375-0.125-16.625-11.5
				c0,0-32.75-9.625-37.125-12.375s-2.125-5,0.125-13.625s5.625-25.625,5.625-25.625L48.86,60.333z"/>
			<polygon fill="#4D1D14" points="50.61,137.333 38.86,204.083 117.36,214.082 194.61,210.583 183.86,141.833 179.36,142.583 
				188.86,206.833 123.11,209.833 122.86,186.083 117.36,185.583 116.36,209.083 44.11,200.333 55.36,138.833 			"/>
			<path fill="#4D1D14" d="M71.61,207.583l4.75,83.5c0,0-4,1.75-5.5,5.75s-0.25,6.25-0.25,6.25s-2.75,2-7.75,9s-11,8-13,23.25
				s13.75,21.75,28.75,17.5s14.75-14.25,18.75-22.75s10.5-19.25,4.75-30c-0.25-25.25,0.25-88.25,0.25-88.25l-5-1.25
				c0,0,0.25,57,0.25,69.75s-0.5,18.25,1.75,22.25s-0.25,10.25-3.5,20.5s-8.75,29-28.75,27.25s-14-21.5-8.75-28s10-12.25,13-15.25
				s4-4.5,3.75-8s3.25-3.75,4.75-7s-3-85.5-3-85.5h-5.5L71.61,207.583z"/>
			<path fill="#4D1D14" d="M167.945,209.667l-4.883,83.994c0,0,4.111,1.803,5.653,5.926c1.542,4.121,0.258,6.439,0.258,6.439
				s2.826,2.063,7.966,9.275s11.308,8.244,13.363,23.959s-14.134,22.414-29.553,18.033c-15.419-4.379-15.162-14.684-19.273-23.443
				c-4.112-8.76-10.794-19.838-4.883-30.916c0.257-26.02-0.257-90.941-0.257-90.941l5.14-1.287c0,0-0.258,58.738-0.258,71.876
				s0.515,18.807-1.799,22.93c-2.313,4.121,0.257,10.563,3.598,21.125s8.995,29.885,29.554,28.08
				c20.559-1.803,14.391-22.156,8.994-28.854c-5.396-6.699-10.279-12.623-13.363-15.715s-4.111-4.637-3.854-8.244
				s-3.341-3.865-4.883-7.213c-1.542-3.35,3.084-86.056,3.084-86.056h5.653L167.945,209.667z"/>
		</g>
	</g>
	<g>
		<g>
			<path fill="#4E1C05" d="M151.124,59.704c0,0-1.172,8.181-5.078,16.962c-3.908,8.779-5.08,8.58-5.08,8.58l-0.781-9.578
				c0,0-1.76,2.793-7.619,4.59c4.885-11.975,7.424-21.952,7.424-21.952L151.124,59.704z"/>
			<path fill="#FFFFFF" d="M149.522,58.782c0,0-0.746,7.537-3.748,14.283c-3.004,6.748-3.627,6.594-3.627,6.594l-0.877-7.359
				c0,0-1.867,2.77-6.361,5.564c5.275-9.779,6.643-20.156,6.643-20.156L149.522,58.782z"/>
		</g>
		<g>
			<path fill="#4E1C05" d="M140.747,66.088c0,0,1.197,8.184,5.189,16.963c3.99,8.781,5.188,8.582,5.188,8.582l0.799-9.58
				c0,0,1.797,2.793,7.783,4.59c-4.99-11.973-7.584-21.951-7.584-21.951L140.747,66.088z"/>
			<path fill="#FFFFFF" d="M142.384,65.167c0,0,0.764,7.537,3.83,14.285c3.066,6.746,3.703,6.594,3.703,6.594l0.896-7.361
				c0,0,1.906,2.771,6.496,5.564c-5.387-9.777-6.785-20.154-6.785-20.154L142.384,65.167z"/>
		</g>
		<g>
			<ellipse fill="#4E1C05" cx="145.256" cy="56.331" rx="13.37" ry="12.572"/>
			<ellipse fill="#FFFFFF" cx="145.257" cy="56.331" rx="11.299" ry="10.625"/>
			<ellipse fill="#D0A9BE" cx="145.256" cy="56.331" rx="7.907" ry="7.435"/>
			<ellipse fill="#010002" cx="145.257" cy="56.331" rx="5.313" ry="4.996"/>
			<path fill="#FFFFFF" d="M145.257,52.439c0,0-0.797,2.396-3.393,3.593c3.193,2.992,3.393,4.189,3.393,4.189l3.393-3.99
				C146.454,55.034,145.655,54.036,145.257,52.439z"/>
		</g>
	</g>
</g>
</svg>
