<?xml version="1.0" encoding="utf-8"?>
<!-- Generator: Adobe Illustrator 14.0.0, SVG Export Plug-In . SVG Version: 6.00 Build 43363)  -->
<!DOCTYPE svg PUBLIC "-//W3C//DTD SVG 1.1//EN" "http://www.w3.org/Graphics/SVG/1.1/DTD/svg11.dtd">
<svg version="1.1" id="图层_1" xmlns="http://www.w3.org/2000/svg" xmlns:xlink="http://www.w3.org/1999/xlink" x="0px" y="0px"
	 width="59.351px" height="98.082px" viewBox="0 0 59.351 98.082" enable-background="new 0 0 59.351 98.082" xml:space="preserve">
<g>
	<path fill="#F9D3B9" d="M24.267,46.215c0,0-5-4.5,0-14s15.25-27.75,19.5-29.25s6,0.5,6.5,2.25s-6,17.75-6,17.75s4,0.25,5.5,3.5
		s4.5,4,5.5,6.5s0,4.75,2.25,7.25s-1,4.5-4.25,6s-4.5,9.5-9.25,11.5s-5.25,1.25-10.5,11.75s-22.5,34-29.5,25.25
		S2.517,70.215,24.267,46.215z"/>
	<g>
		<path fill="#4D1D14" d="M6.107,70.611c0,0,7.072-14.628,12.055-20.095c4.984-5.465,2.574-5.786,2.412-11.092
			c-0.16-5.305,2.895-8.197,6.592-15.11S37.935,4.863,43.08,1.487s9.324,0.32,7.717,6.912S45.33,21.742,45.33,21.742
			s2.732,0.001,4.34,2.572s1.93,4.18,4.502,5.144c2.572,0.965,2.893,4.341,2.893,5.948s0.322,1.769,1.77,3.054
			c1.447,1.287-0.32,5.145-3.055,6.913c-2.732,1.769-2.732,1.769-2.732,1.769s-2.09,5.305-6.27,9.806s-8.037,4.341-8.037,4.341
			S34.4,73.343,24.753,84.436C15.109,95.528,7.232,99.545,3.212,97.618c-4.02-1.93-2.732-8.359-2.732-8.359s0.16,5.947,6.59,5.145
			c6.432-0.805,20.096-14.629,25.078-25.721c4.984-11.092,4.984-11.092,4.984-11.092s5.947,0.803,7.715-1.93
			c1.77-2.732,4.824-7.555,6.27-9.002c1.447-1.447,6.109-4.34,5.787-6.43c-0.32-2.09-3.377-1.769-3.537-3.697
			c-0.16-1.93,0.805-5.145-0.963-5.787c-1.77-0.644-4.662-2.412-4.662-4.662c0-2.251-1.93-3.215-3.697-2.412
			c-1.77,0.805-2.572,0.482-2.572,0.482s5.305-8.197,7.072-14.146c1.77-5.947-0.963-7.555-3.215-6.752
			c-2.25,0.805-4.34,3.055-9.484,11.896S26.041,30.905,24.753,34.28c-1.285,3.377-1.607,7.717-0.322,9.485
			c1.287,1.769,1.287,1.929-1.928,5.787S10.609,64.18,6.107,70.611z"/>
		<path fill="#4D1D14" d="M40.83,24.795c0,0-4.342,0.965-5.145,5.306c-0.805,4.341,0.643,4.341,1.447,4.983
			c0.803,0.643-0.643,2.732,1.607,4.982c2.25,2.252,4.18,2.252,4.18,2.252s0.803,4.018,3.215,4.661
			c2.41,0.644,3.857,1.126,3.857,1.126l1.93-1.447c0,0-0.967-0.161-3.537-0.482c-2.572-0.321-3.697-1.287-3.857-2.572
			c-0.162-1.285-0.482-2.572-0.482-2.572s-3.859-0.803-4.984-2.732s-0.32-4.02-0.32-4.02s-3.055-1.446-1.77-4.661
			C38.257,26.404,40.83,24.795,40.83,24.795z"/>
		<path fill="#4D1D14" d="M29.416,24.795c0,0,3.215-1.768,5.465,1.287c2.252,3.054-1.125,11.092-2.572,14.146
			c-1.445,3.054-2.572,1.125-1.607-0.965s5.305-8.682,3.697-11.735s-5.625-0.964-5.625-0.964L29.416,24.795z"/>
	</g>
	<g>
		<path fill="#CF8A80" d="M39.517,11.549c0,0,2.832,2.666,4.832,2.332C46.349,13.549,39.349,10.382,39.517,11.549z"/>
		<path fill="#CF8A80" d="M38.183,29.215c-0.139-0.839-1.166,3.5,1,3.834C41.349,33.381,38.683,32.215,38.183,29.215z"/>
		<path fill="#CF8A80" d="M40.683,35.549c0,0-0.5,2.166,1,2.832c1.5,0.668,3.334,0.5,3.334,0.5S40.851,37.215,40.683,35.549z"/>
		<path fill="#CF8A80" d="M45.683,41.215c0,0,0.666,2.834,2.334,2.834C49.683,44.049,46.851,42.049,45.683,41.215z"/>
		<path fill="#CF8A80" d="M29.017,33.049c0,0,1.5,2.5,2.5,2.5S30.017,33.382,29.017,33.049z"/>
	</g>
</g>
</svg>
