<?xml version="1.0" encoding="utf-8"?>
<!-- Generator: Adobe Illustrator 14.0.0, SVG Export Plug-In . SVG Version: 6.00 Build 43363)  -->
<!DOCTYPE svg PUBLIC "-//W3C//DTD SVG 1.1//EN" "http://www.w3.org/Graphics/SVG/1.1/DTD/svg11.dtd">
<svg version="1.1" id="图层_1" xmlns="http://www.w3.org/2000/svg" xmlns:xlink="http://www.w3.org/1999/xlink" x="0px" y="0px"
	 width="30.769px" height="29.533px" viewBox="0 0 30.769 29.533" enable-background="new 0 0 30.769 29.533" xml:space="preserve">
<g>
	<path fill-rule="evenodd" clip-rule="evenodd" fill="#BD93BA" d="M11.051,16.26l-1.787,2.871l-4.208-0.316L0,10.2l5.84-8.686
		c0,0,9.389-2.551,11.975-1.031c2.587,1.52,5.739,6.189,6.178,8.816c0.439,2.625-2.08,7.189-1.99,8.994
		c0.089,1.805,0.392,2.742,1.443,3.168c1.057,0.424,2.484,0.592,1.979,1.68c-0.508,1.088-1.204,3.326-3.827,2.404
		c-2.622-0.92-4.436-2.82-4.95-5.361c-0.92-4.553,2.055-8.051,1.414-10.01c-0.64-1.957-5.617-2.945-5.992-2.688
		c-0.376,0.258-4.367,4.1-3.988,4.758C8.457,12.905,11.051,16.26,11.051,16.26z"/>
	<path fill-rule="evenodd" clip-rule="evenodd" fill="#BD93BA" d="M25.197,24.887c-1.012,1.455-0.246,3.984,1.723,4.504
		c1.965,0.521,2.11-0.51,2.756-1.27c0.646-0.762,1.709-3.734,0.633-4.441C29.232,22.975,26.818,22.547,25.197,24.887z"/>
</g>
</svg>
