<?xml version="1.0" encoding="utf-8"?>
<!-- Generator: Adobe Illustrator 14.0.0, SVG Export Plug-In . SVG Version: 6.00 Build 43363)  -->
<!DOCTYPE svg PUBLIC "-//W3C//DTD SVG 1.1//EN" "http://www.w3.org/Graphics/SVG/1.1/DTD/svg11.dtd">
<svg version="1.1" id="图层_1" xmlns="http://www.w3.org/2000/svg" xmlns:xlink="http://www.w3.org/1999/xlink" x="0px" y="0px"
	 width="46.029px" height="34.236px" viewBox="0 0 46.029 34.236" enable-background="new 0 0 46.029 34.236" xml:space="preserve">
<g>
	<path fill-rule="evenodd" clip-rule="evenodd" fill="#436EAB" d="M16.752,23.281l-1.214,4.432L9.93,28.932L0,19.668L4.241,6.084
		c0,0,11.246-6.967,15.204-5.99c3.961,0.977,9.881,5.84,11.472,9.092c1.591,3.25,0.079,10.176,0.896,12.494
		c0.816,2.316,1.574,3.422,3.111,3.568c1.539,0.143,3.467-0.193,3.229,1.422s-0.279,4.801-4.055,4.617
		c-3.774-0.182-6.874-1.953-8.529-5.064c-2.967-5.58-0.448-11.291-2.042-13.596c-1.593-2.303-8.463-1.658-8.853-1.178
		c-0.39,0.482-4.1,7.035-3.352,7.748C12.07,19.912,16.752,23.281,16.752,23.281z"/>
	<path fill-rule="evenodd" clip-rule="evenodd" fill="#436EAB" d="M38.533,29.031c-0.752,2.291,1.227,5.287,3.992,5.203
		c2.765-0.084,2.553-1.484,3.101-2.725c0.546-1.242,0.776-5.529-0.899-6.033C43.051,24.975,39.74,25.354,38.533,29.031z"/>
</g>
</svg>
