<?xml version="1.0" encoding="utf-8"?>
<!-- Generator: Adobe Illustrator 14.0.0, SVG Export Plug-In . SVG Version: 6.00 Build 43363)  -->
<!DOCTYPE svg PUBLIC "-//W3C//DTD SVG 1.1//EN" "http://www.w3.org/Graphics/SVG/1.1/DTD/svg11.dtd">
<svg version="1.1" id="图层_1" xmlns="http://www.w3.org/2000/svg" xmlns:xlink="http://www.w3.org/1999/xlink" x="0px" y="0px"
	 width="51.853px" height="78.731px" viewBox="0 0 51.853 78.731" enable-background="new 0 0 51.853 78.731" xml:space="preserve">
<g>
	<path fill-rule="evenodd" clip-rule="evenodd" fill="#AAA7CA" d="M17.762,35.578L11.456,40l-8.543-4.422L0,13L19.999,0
		c0,0,21.969,3.033,26.036,8.525s6.509,18.104,5.085,24.002S40.34,45.748,38.916,49.613c-1.424,3.863-1.628,6.102,0.203,7.932
		c1.831,1.832,4.679,3.459,2.645,5.289s-5.492,5.898-10.171,1.627c-4.678-4.271-6.784-9.873-5.593-15.662
		c2.136-10.373,11.492-15.051,11.899-19.73c0.406-4.678-9.154-11.188-10.171-10.984c-1.017,0.205-12.813,4.695-12.61,6.416
		S17.762,35.578,17.762,35.578z"/>
	<path fill-rule="evenodd" clip-rule="evenodd" fill="#AAA7CA" d="M39.729,66.291c-3.417,2.152-4.068,8.137-0.406,10.984
		c3.66,2.848,4.881,0.814,6.915-0.203s6.915-6.307,5.288-8.746C49.899,65.885,45.222,62.834,39.729,66.291z"/>
</g>
</svg>
