<?xml version="1.0" encoding="utf-8"?>
<!-- Generator: Adobe Illustrator 14.0.0, SVG Export Plug-In . SVG Version: 6.00 Build 43363)  -->
<!DOCTYPE svg PUBLIC "-//W3C//DTD SVG 1.1//EN" "http://www.w3.org/Graphics/SVG/1.1/DTD/svg11.dtd">
<svg version="1.1" id="图层_1" xmlns="http://www.w3.org/2000/svg" xmlns:xlink="http://www.w3.org/1999/xlink" x="0px" y="0px"
	 width="81.606px" height="43.412px" viewBox="0 0 81.606 43.412" enable-background="new 0 0 81.606 43.412" xml:space="preserve">
<g>
	<path fill="#EB1B23" d="M18.281,37.336v1.055H0v-1.055h1.523c1.744,0,3.021-0.457,3.828-1.371c0.494-0.609,0.742-2.063,0.742-4.359
		V6.82c0-1.945-0.131-3.234-0.391-3.867C5.494,2.484,5.064,2.086,4.414,1.758C3.477,1.289,2.513,1.055,1.523,1.055H0V0h18.281v1.055
		h-1.563c-1.719,0-2.982,0.469-3.789,1.406C12.408,3.047,12.148,4.5,12.148,6.82v24.785c0,1.945,0.13,3.223,0.391,3.832
		c0.208,0.469,0.65,0.879,1.328,1.23c0.911,0.445,1.861,0.668,2.852,0.668H18.281z"/>
	<path d="M66.313,16.791h6.75c0.123,0,0.498-0.448,1.125-1.351c0.873-1.461,1.5-2.193,1.875-2.193
		c0.75,0.113,2.373,1.181,4.875,3.206c0.375,0.451,0.437,0.788,0.188,1.013c-0.252,0.227-0.814,0.282-1.688,0.169H66.313
		c0,2.927,0.437,5.737,1.313,8.438c0.498-0.786,1.125-1.743,1.875-2.869c0.75-0.899,1.248-1.574,1.5-2.025
		c0.375-1.123,1.061-1.519,2.063-1.181c4.749,2.362,5.936,3.881,3.563,4.556c-0.501,0.114-0.814,0.228-0.938,0.338
		c-3.75,3.375-5.877,5.289-6.375,5.737c2.124,3.375,4.436,5.458,6.938,6.244c1.374,0.227,2.687-1.123,3.938-4.05
		c0.249-0.786,0.437-1.068,0.563-0.844c0.123,0.337,0.062,1.012-0.188,2.024c-0.75,2.59-0.627,4.611,0.375,6.075
		c0.624,0.899,0.812,1.743,0.563,2.531c-1.002,1.123-3.375,1.067-7.125-0.169c-3.627-1.463-6.876-4.273-9.75-8.438
		c-3.126,1.801-6.876,3.206-11.25,4.219c-0.627,2.924-2.877,4.443-6.75,4.557c-0.375-0.113-0.688-0.507-0.938-1.182
		c-0.627-1.801-1.752-2.927-3.375-3.375c-1.002-0.224-0.75-0.393,0.75-0.506c3.249-0.111,4.875-0.675,4.875-1.688v-7.763
		c-2.502,1.126-4.626,2.252-6.375,3.375c-0.627,0.564-1.189,0.788-1.688,0.675c-0.876,0-1.752-1.405-2.625-4.219
		c-0.375-0.898,0.624-1.574,3-2.024c2.748-0.448,5.312-1.013,7.688-1.688v-6.919H37.813c-0.501,0-0.814-0.111-0.938-0.338
		c-0.126-0.224,0.062-0.393,0.563-0.506h10.5v-5.569c-7.002,0.676-9.375,0.676-7.125,0c4.125-1.46,8.124-3.316,12-5.568
		c0.75-0.338,1.623-0.338,2.625,0c3.75,2.927,4.5,4.388,2.25,4.388c-0.501,0-0.814,0-0.938,0c-0.501,0.113-1.626,0.282-3.375,0.506
		v6.244h7.313c0-1.461,0-5.287,0-11.476c-0.375-1.35,0.188-1.911,1.688-1.688c4.248,0,5.748,0.733,4.5,2.194L66.688,5.99
		c4.749,0.114,7.623,0.676,8.625,1.688c1.5,1.577,1.623,2.982,0.375,4.219c-1.875,1.351-3.439,1.295-4.688-0.168
		c-0.126-0.111-0.252-0.394-0.375-0.844c-0.375-2.025-1.688-3.262-3.938-3.713C66.313,8.749,66.187,11.955,66.313,16.791z
		 M60.688,17.466h-7.313v5.737l7.5-1.856C60.749,20.562,60.688,19.267,60.688,17.466z M61.063,22.528l-7.688,3.375v11.306
		c3.873-1.911,7.125-4.05,9.75-6.412C62.123,28.548,61.438,25.792,61.063,22.528z"/>
</g>
</svg>
