<?xml version="1.0" encoding="utf-8"?>
<!-- Generator: Adobe Illustrator 14.0.0, SVG Export Plug-In . SVG Version: 6.00 Build 43363)  -->
<!DOCTYPE svg PUBLIC "-//W3C//DTD SVG 1.1//EN" "http://www.w3.org/Graphics/SVG/1.1/DTD/svg11.dtd">
<svg version="1.1" id="图层_1" xmlns="http://www.w3.org/2000/svg" xmlns:xlink="http://www.w3.org/1999/xlink" x="0px" y="0px"
	 width="77.778px" height="45.275px" viewBox="0 0 77.778 45.275" enable-background="new 0 0 77.778 45.275" xml:space="preserve">
<g>
	<path d="M10.078,13.57v20.813c0,1.641,0.13,2.725,0.391,3.252c0.26,0.527,0.645,0.926,1.152,1.195s1.451,0.404,2.832,0.404v1.02
		H0.469v-1.02c1.406,0,2.35-0.123,2.832-0.369c0.481-0.246,0.859-0.65,1.133-1.213s0.41-1.652,0.41-3.27v-9.984
		c0-2.813-0.092-4.629-0.273-5.449c-0.156-0.609-0.391-1.031-0.703-1.266s-0.742-0.352-1.289-0.352
		c-0.573,0-1.276,0.141-2.109,0.422L0,16.734l8.672-3.164H10.078z M7.461,0c0.885,0,1.634,0.281,2.246,0.844
		c0.611,0.563,0.918,1.242,0.918,2.039c0,0.773-0.307,1.447-0.918,2.021C9.095,5.479,8.346,5.766,7.461,5.766
		c-0.886,0-1.641-0.287-2.266-0.861S4.258,3.656,4.258,2.883c0-0.797,0.306-1.477,0.918-2.039C5.787,0.281,6.549,0,7.461,0z"/>
	<path d="M62.484,18.654h6.75c0.123,0,0.498-0.448,1.125-1.351c0.873-1.461,1.5-2.193,1.875-2.193
		c0.75,0.113,2.373,1.181,4.875,3.206c0.375,0.451,0.437,0.788,0.188,1.013c-0.252,0.227-0.814,0.282-1.688,0.169H62.484
		c0,2.927,0.437,5.737,1.313,8.438c0.498-0.786,1.125-1.743,1.875-2.869c0.75-0.899,1.248-1.574,1.5-2.025
		c0.375-1.123,1.061-1.519,2.063-1.181c4.749,2.362,5.936,3.881,3.563,4.556c-0.501,0.114-0.814,0.228-0.938,0.338
		c-3.75,3.375-5.877,5.289-6.375,5.737c2.124,3.375,4.436,5.458,6.938,6.244c1.374,0.227,2.687-1.123,3.938-4.05
		c0.249-0.786,0.437-1.068,0.563-0.844c0.123,0.337,0.062,1.012-0.188,2.024c-0.75,2.59-0.627,4.611,0.375,6.075
		c0.624,0.899,0.812,1.743,0.563,2.531c-1.002,1.123-3.375,1.067-7.125-0.169c-3.627-1.463-6.876-4.273-9.75-8.438
		c-3.126,1.801-6.876,3.206-11.25,4.219c-0.627,2.924-2.877,4.443-6.75,4.557c-0.375-0.113-0.688-0.507-0.938-1.182
		c-0.627-1.801-1.752-2.927-3.375-3.375c-1.002-0.224-0.75-0.393,0.75-0.506c3.249-0.111,4.875-0.675,4.875-1.688v-7.763
		c-2.502,1.126-4.626,2.252-6.375,3.375c-0.627,0.564-1.189,0.788-1.688,0.675c-0.876,0-1.752-1.405-2.625-4.219
		c-0.375-0.898,0.624-1.574,3-2.024c2.748-0.448,5.312-1.013,7.688-1.688v-6.919H33.984c-0.501,0-0.814-0.111-0.938-0.338
		c-0.126-0.224,0.062-0.393,0.563-0.506h10.5v-5.569c-7.002,0.676-9.375,0.676-7.125,0c4.125-1.46,8.124-3.316,12-5.568
		c0.75-0.338,1.623-0.338,2.625,0c3.75,2.927,4.5,4.388,2.25,4.388c-0.501,0-0.814,0-0.938,0c-0.501,0.113-1.626,0.282-3.375,0.506
		v6.244h7.313c0-1.461,0-5.287,0-11.476c-0.375-1.35,0.188-1.911,1.688-1.688c4.248,0,5.748,0.733,4.5,2.194l-0.188,0.337
		c4.749,0.114,7.623,0.676,8.625,1.688c1.5,1.577,1.623,2.982,0.375,4.219c-1.875,1.351-3.439,1.295-4.688-0.168
		c-0.126-0.111-0.252-0.394-0.375-0.844c-0.375-2.025-1.688-3.262-3.938-3.713C62.484,10.612,62.358,13.818,62.484,18.654z
		 M56.859,19.329h-7.313v5.737l7.5-1.856C56.921,22.425,56.859,21.13,56.859,19.329z M57.234,24.392l-7.688,3.375v11.306
		c3.873-1.911,7.125-4.05,9.75-6.412C58.295,30.411,57.609,27.655,57.234,24.392z"/>
</g>
</svg>
