<?xml version="1.0" encoding="utf-8"?>
<!-- Generator: Adobe Illustrator 14.0.0, SVG Export Plug-In . SVG Version: 6.00 Build 43363)  -->
<!DOCTYPE svg PUBLIC "-//W3C//DTD SVG 1.1//EN" "http://www.w3.org/Graphics/SVG/1.1/DTD/svg11.dtd">
<svg version="1.1" id="图层_1" xmlns="http://www.w3.org/2000/svg" xmlns:xlink="http://www.w3.org/1999/xlink" x="0px" y="0px"
	 width="650.684px" height="39.577px" viewBox="0 0 650.684 39.577" enable-background="new 0 0 650.684 39.577"
	 xml:space="preserve">
<g>
	<path fill="#FF0099" d="M26.719,22.228l0.791,0.158l-2.754,7.805H0v-0.791h1.201c1.348,0,2.314-0.396,2.9-1.187
		C4.434,27.756,4.6,26.71,4.6,25.075V6.513c0-1.811-0.225-2.936-0.674-3.375C3.32,2.505,2.412,2.188,1.201,2.188H0V1.397h14.473
		v0.791c-1.699-0.018-2.891,0.123-3.574,0.422S9.752,3.287,9.508,3.744C9.263,4.201,9.141,5.282,9.141,6.987v18.088
		c0,1.178,0.117,1.986,0.352,2.426C9.688,27.8,9.98,28.02,10.371,28.16s1.621,0.211,3.691,0.211h2.314
		c2.461,0,4.186-0.162,5.172-0.487c0.985-0.325,1.889-0.901,2.709-1.728S25.898,24.021,26.719,22.228z"/>
	<path fill="#FF0099" d="M33.662,18.062c0,2.9,0.781,5.168,2.344,6.803c1.582,1.635,3.428,2.452,5.537,2.452
		c1.426,0,2.662-0.347,3.707-1.042c1.044-0.693,1.918-1.894,2.621-3.599l0.732,0.422c-0.332,1.934-1.289,3.7-2.871,5.3
		s-3.574,2.399-5.977,2.399c-2.598,0-4.818-0.909-6.664-2.729c-1.846-1.818-2.77-4.267-2.77-7.343c0-3.322,0.947-5.915,2.842-7.778
		s4.277-2.795,7.148-2.795c2.422,0,4.41,0.717,5.963,2.148c1.553,1.434,2.328,3.354,2.328,5.762H33.662z M33.662,16.849h10.02
		c-0.078-1.248-0.244-2.127-0.498-2.637c-0.391-0.791-0.977-1.415-1.758-1.872s-1.592-0.686-2.432-0.686
		c-1.309,0-2.48,0.457-3.516,1.371S33.838,15.214,33.662,16.849z"/>
	<path fill="#FF0099" d="M65.449,10.178v6.618h-0.762c-0.605-2.074-1.377-3.489-2.314-4.245s-2.129-1.134-3.574-1.134
		c-1.094,0-1.982,0.264-2.666,0.791s-1.025,1.107-1.025,1.74c0,0.791,0.254,1.468,0.762,2.03c0.488,0.58,1.484,1.195,2.988,1.846
		l3.428,1.529c3.203,1.389,4.805,3.234,4.805,5.537c0,1.758-0.746,3.182-2.24,4.271s-3.16,1.635-4.996,1.635
		c-1.309,0-2.813-0.22-4.512-0.659c-0.527-0.141-0.957-0.211-1.289-0.211c-0.352,0-0.635,0.185-0.85,0.554h-0.762v-6.935h0.762
		c0.449,1.986,1.294,3.48,2.535,4.482c1.24,1.002,2.631,1.503,4.174,1.503c1.074,0,1.953-0.285,2.637-0.856s1.025-1.262,1.025-2.07
		c0-0.984-0.381-1.807-1.143-2.465c-0.762-0.66-2.28-1.499-4.555-2.519c-2.275-1.02-3.766-1.942-4.469-2.769
		c-0.703-0.809-1.055-1.828-1.055-3.059c0-1.6,0.605-2.936,1.816-4.008s2.783-1.608,4.717-1.608c0.859,0,1.895,0.158,3.105,0.475
		c0.801,0.211,1.328,0.316,1.582,0.316s0.455-0.048,0.602-0.146c0.146-0.096,0.316-0.312,0.512-0.646H65.449z"/>
	<path fill="#FF0099" d="M84.258,10.178v6.618h-0.762c-0.605-2.074-1.377-3.489-2.314-4.245s-2.129-1.134-3.574-1.134
		c-1.094,0-1.982,0.264-2.666,0.791s-1.025,1.107-1.025,1.74c0,0.791,0.254,1.468,0.762,2.03c0.488,0.58,1.484,1.195,2.988,1.846
		l3.428,1.529c3.203,1.389,4.805,3.234,4.805,5.537c0,1.758-0.746,3.182-2.24,4.271s-3.16,1.635-4.996,1.635
		c-1.309,0-2.813-0.22-4.512-0.659c-0.527-0.141-0.957-0.211-1.289-0.211c-0.352,0-0.635,0.185-0.85,0.554H71.25v-6.935h0.762
		c0.449,1.986,1.294,3.48,2.535,4.482c1.24,1.002,2.631,1.503,4.174,1.503c1.074,0,1.953-0.285,2.637-0.856s1.025-1.262,1.025-2.07
		c0-0.984-0.381-1.807-1.143-2.465c-0.762-0.66-2.28-1.499-4.555-2.519c-2.275-1.02-3.766-1.942-4.469-2.769
		c-0.703-0.809-1.055-1.828-1.055-3.059c0-1.6,0.605-2.936,1.816-4.008s2.783-1.608,4.717-1.608c0.859,0,1.895,0.158,3.105,0.475
		c0.801,0.211,1.328,0.316,1.582,0.316s0.455-0.048,0.602-0.146c0.146-0.096,0.316-0.312,0.512-0.646H84.258z"/>
	<path fill="#FF0099" d="M99.668,10.178c3.281,0,5.908,1.116,7.881,3.349c1.68,1.916,2.52,4.113,2.52,6.592
		c0,1.74-0.464,3.498-1.391,5.273c-0.928,1.775-2.203,3.12-3.824,4.034s-3.438,1.371-5.449,1.371c-3.242,0-5.83-1.169-7.764-3.507
		c-1.602-1.969-2.402-4.175-2.402-6.618c0-1.793,0.488-3.568,1.465-5.326s2.266-3.059,3.867-3.902S97.871,10.178,99.668,10.178z
		 M98.936,11.549c-0.82,0-1.654,0.224-2.504,0.673c-0.85,0.447-1.534,1.23-2.051,2.346c-0.518,1.117-0.777,2.554-0.777,4.312
		c0,2.83,0.625,5.27,1.875,7.317s2.9,3.071,4.951,3.071c1.523,0,2.779-0.563,3.766-1.688c0.985-1.125,1.479-3.067,1.479-5.827
		c0-3.463-0.82-6.188-2.461-8.174C102.1,12.226,100.674,11.549,98.936,11.549z"/>
	<path fill="#FF0099" d="M119.531,14.291c2.539-2.742,4.961-4.113,7.266-4.113c1.172,0,2.184,0.264,3.033,0.791
		s1.527,1.397,2.035,2.61c0.332,0.861,0.498,2.171,0.498,3.929v8.279c0,1.23,0.117,2.065,0.352,2.505
		c0.176,0.352,0.455,0.629,0.836,0.83c0.381,0.203,1.088,0.304,2.123,0.304v0.765H124.98v-0.765h0.469
		c0.996,0,1.695-0.136,2.096-0.409c0.399-0.271,0.678-0.681,0.834-1.226c0.078-0.211,0.117-0.879,0.117-2.004v-7.963
		c0-1.758-0.259-3.036-0.775-3.837c-0.518-0.799-1.383-1.199-2.594-1.199c-1.875,0-3.74,0.923-5.596,2.769v10.23
		c0,1.318,0.088,2.136,0.264,2.452c0.234,0.404,0.543,0.703,0.924,0.896s1.156,0.29,2.328,0.29v0.765h-10.664v-0.765h0.469
		c1.094,0,1.836-0.251,2.227-0.751c0.391-0.502,0.586-1.464,0.586-2.888v-7.198c0-2.338-0.059-3.762-0.176-4.271
		s-0.297-0.857-0.541-1.041c-0.245-0.186-0.572-0.277-0.982-0.277c-0.449,0-0.977,0.105-1.582,0.316l-0.352-0.765l6.504-2.373h0.996
		V14.291z"/>
	<path fill="#FF0099" d="M175.898,1.397l0.352,6.75h-0.908c-0.156-1.178-0.391-2.021-0.703-2.531
		c-0.488-0.826-1.138-1.433-1.947-1.819c-0.811-0.387-1.871-0.58-3.18-0.58H165v21.99c0,1.758,0.215,2.856,0.645,3.296
		c0.586,0.598,1.504,0.896,2.754,0.896h1.113v0.791h-13.564v-0.791h1.143c1.348,0,2.305-0.369,2.871-1.107
		c0.332-0.439,0.498-1.468,0.498-3.085V3.217h-3.838c-1.484,0-2.539,0.097-3.164,0.29c-0.82,0.264-1.523,0.777-2.109,1.543
		c-0.586,0.764-0.928,1.797-1.025,3.098h-0.908l0.381-6.75H175.898z"/>
	<path fill="#FF0099" d="M185.303,0v14.238c1.738-1.74,3.121-2.852,4.146-3.335s2.045-0.726,3.061-0.726
		c1.23,0,2.285,0.304,3.164,0.909c0.879,0.607,1.533,1.561,1.963,2.861c0.293,0.914,0.439,2.575,0.439,4.983v6.855
		c0,1.23,0.117,2.074,0.352,2.531c0.156,0.334,0.42,0.603,0.791,0.804c0.371,0.203,1.064,0.304,2.08,0.304v0.765h-10.605v-0.765
		h0.498c0.996,0,1.689-0.136,2.08-0.409c0.391-0.271,0.664-0.681,0.82-1.226c0.059-0.229,0.088-0.896,0.088-2.004v-6.855
		c0-2.127-0.121-3.524-0.365-4.192c-0.245-0.668-0.635-1.169-1.172-1.503c-0.538-0.334-1.188-0.501-1.949-0.501
		s-1.557,0.185-2.387,0.554c-0.831,0.369-1.832,1.116-3.004,2.241v10.257c0,1.336,0.084,2.167,0.25,2.491
		c0.165,0.326,0.473,0.599,0.922,0.818s1.221,0.329,2.314,0.329v0.765h-10.693v-0.765c0.957,0,1.709-0.132,2.256-0.396
		c0.313-0.141,0.562-0.408,0.748-0.805c0.186-0.395,0.277-1.208,0.277-2.438V8.2c0-2.215-0.059-3.577-0.176-4.087
		s-0.297-0.856-0.541-1.042c-0.245-0.184-0.572-0.276-0.982-0.276c-0.313,0-0.84,0.114-1.582,0.343l-0.352-0.765L184.219,0H185.303z
		"/>
	<path fill="#FF0099" d="M209.414,10.178v4.377c1.816-2.918,3.672-4.377,5.566-4.377c0.879,0,1.598,0.237,2.154,0.712
		s0.834,1.02,0.834,1.635c0,0.563-0.2,1.033-0.6,1.41c-0.4,0.379-0.885,0.567-1.451,0.567s-1.191-0.241-1.875-0.726
		c-0.684-0.482-1.182-0.725-1.494-0.725c-0.293,0-0.605,0.141-0.938,0.422c-0.703,0.58-1.436,1.529-2.197,2.848v9.334
		c0,1.072,0.156,1.881,0.469,2.426c0.195,0.387,0.553,0.708,1.07,0.963c0.517,0.255,1.264,0.382,2.24,0.382v0.765h-11.045v-0.765
		c1.094,0,1.904-0.158,2.432-0.475c0.391-0.229,0.664-0.589,0.82-1.081c0.078-0.229,0.117-0.914,0.117-2.057v-7.541
		c0-2.25-0.049-3.595-0.146-4.034s-0.283-0.756-0.557-0.949s-0.615-0.29-1.025-0.29c-0.488,0-1.035,0.105-1.641,0.316l-0.264-0.765
		l6.533-2.373H209.414z"/>
	<path fill="#FF0099" d="M222.803,18.062c0,2.9,0.781,5.168,2.344,6.803c1.582,1.635,3.428,2.452,5.537,2.452
		c1.426,0,2.662-0.347,3.707-1.042c1.044-0.693,1.918-1.894,2.621-3.599l0.732,0.422c-0.332,1.934-1.289,3.7-2.871,5.3
		s-3.574,2.399-5.977,2.399c-2.598,0-4.818-0.909-6.664-2.729c-1.846-1.818-2.77-4.267-2.77-7.343c0-3.322,0.947-5.915,2.842-7.778
		s4.277-2.795,7.148-2.795c2.422,0,4.41,0.717,5.963,2.148c1.553,1.434,2.328,3.354,2.328,5.762H222.803z M222.803,16.849h10.02
		c-0.078-1.248-0.244-2.127-0.498-2.637c-0.391-0.791-0.977-1.415-1.758-1.872s-1.592-0.686-2.432-0.686
		c-1.309,0-2.48,0.457-3.516,1.371S222.979,15.214,222.803,16.849z"/>
	<path fill="#FF0099" d="M244.248,18.062c0,2.9,0.781,5.168,2.344,6.803c1.582,1.635,3.428,2.452,5.537,2.452
		c1.426,0,2.662-0.347,3.707-1.042c1.044-0.693,1.918-1.894,2.621-3.599l0.732,0.422c-0.332,1.934-1.289,3.7-2.871,5.3
		s-3.574,2.399-5.977,2.399c-2.598,0-4.818-0.909-6.664-2.729c-1.846-1.818-2.77-4.267-2.77-7.343c0-3.322,0.947-5.915,2.842-7.778
		s4.277-2.795,7.148-2.795c2.422,0,4.41,0.717,5.963,2.148c1.553,1.434,2.328,3.354,2.328,5.762H244.248z M244.248,16.849h10.02
		c-0.078-1.248-0.244-2.127-0.498-2.637c-0.391-0.791-0.977-1.415-1.758-1.872s-1.592-0.686-2.432-0.686
		c-1.309,0-2.48,0.457-3.516,1.371S244.424,15.214,244.248,16.849z"/>
	<path fill="#0099CC" d="M311.689,29.399v0.791h-13.711v-0.791h1.143c1.309,0,2.266-0.343,2.871-1.028
		c0.371-0.457,0.557-1.547,0.557-3.27V6.513c0-1.459-0.098-2.426-0.293-2.9c-0.156-0.352-0.479-0.65-0.967-0.896
		c-0.703-0.352-1.426-0.527-2.168-0.527h-1.143V1.397h13.711v0.791h-1.172c-1.289,0-2.236,0.352-2.842,1.055
		c-0.391,0.439-0.586,1.529-0.586,3.27v18.589c0,1.459,0.098,2.417,0.293,2.874c0.156,0.352,0.488,0.659,0.996,0.923
		c0.684,0.334,1.396,0.501,2.139,0.501H311.689z"/>
	<path fill="#0099CC" d="M332.783,0v14.238c1.738-1.74,3.121-2.852,4.146-3.335s2.045-0.726,3.061-0.726
		c1.23,0,2.285,0.304,3.164,0.909c0.879,0.607,1.533,1.561,1.963,2.861c0.293,0.914,0.439,2.575,0.439,4.983v6.855
		c0,1.23,0.117,2.074,0.352,2.531c0.156,0.334,0.42,0.603,0.791,0.804c0.371,0.203,1.064,0.304,2.08,0.304v0.765h-10.605v-0.765
		h0.498c0.996,0,1.689-0.136,2.08-0.409c0.391-0.271,0.664-0.681,0.82-1.226c0.059-0.229,0.088-0.896,0.088-2.004v-6.855
		c0-2.127-0.121-3.524-0.365-4.192c-0.245-0.668-0.635-1.169-1.172-1.503c-0.538-0.334-1.188-0.501-1.949-0.501
		s-1.557,0.185-2.387,0.554c-0.831,0.369-1.832,1.116-3.004,2.241v10.257c0,1.336,0.084,2.167,0.25,2.491
		c0.165,0.326,0.473,0.599,0.922,0.818s1.221,0.329,2.314,0.329v0.765h-10.693v-0.765c0.957,0,1.709-0.132,2.256-0.396
		c0.313-0.141,0.562-0.408,0.748-0.805c0.186-0.395,0.277-1.208,0.277-2.438V8.2c0-2.215-0.059-3.577-0.176-4.087
		s-0.297-0.856-0.541-1.042c-0.245-0.184-0.572-0.276-0.982-0.276c-0.313,0-0.84,0.114-1.582,0.343l-0.352-0.765L331.699,0H332.783z
		"/>
	<path fill="#0099CC" d="M362.813,27.396c-2.207,1.529-3.594,2.417-4.16,2.663c-0.859,0.352-1.768,0.527-2.725,0.527
		c-1.484,0-2.709-0.457-3.676-1.371s-1.451-2.127-1.451-3.639c0-0.949,0.234-1.767,0.703-2.452c0.645-0.967,1.763-1.872,3.355-2.716
		c1.592-0.844,4.242-1.881,7.953-3.111v-0.765c0-1.934-0.342-3.261-1.025-3.981s-1.68-1.081-2.988-1.081
		c-0.977,0-1.758,0.237-2.344,0.712c-0.605,0.492-0.908,1.046-0.908,1.661l0.059,1.239c0,0.65-0.186,1.151-0.557,1.503
		s-0.85,0.527-1.436,0.527s-1.064-0.185-1.436-0.554s-0.557-0.87-0.557-1.503c0-1.213,0.693-2.329,2.08-3.349s3.33-1.529,5.83-1.529
		c1.914,0,3.486,0.29,4.717,0.87c0.918,0.439,1.602,1.125,2.051,2.057c0.273,0.615,0.41,1.863,0.41,3.744v6.592
		c0,1.846,0.039,2.979,0.117,3.401s0.21,0.703,0.396,0.844c0.186,0.141,0.395,0.211,0.629,0.211c0.254,0,0.469-0.053,0.645-0.158
		c0.332-0.176,0.977-0.686,1.934-1.529v1.187c-1.777,2.109-3.467,3.164-5.068,3.164c-0.762,0-1.372-0.237-1.83-0.712
		C363.072,29.373,362.832,28.556,362.813,27.396z M362.813,25.998v-7.409c-2.363,0.861-3.896,1.468-4.6,1.819
		c-1.23,0.615-2.113,1.266-2.65,1.951c-0.538,0.686-0.807,1.424-0.807,2.215c0,1.02,0.338,1.868,1.012,2.544
		c0.674,0.678,1.449,1.016,2.328,1.016C359.287,28.134,360.859,27.422,362.813,25.998z"/>
	<path fill="#0099CC" d="M370.928,10.758h10.166v0.765h-0.674c-0.605,0-1.068,0.137-1.391,0.408
		c-0.322,0.273-0.484,0.638-0.484,1.095c0,0.492,0.166,1.081,0.498,1.767l5.01,10.731l5.039-11.153
		c0.371-0.791,0.557-1.389,0.557-1.793c0-0.193-0.068-0.36-0.205-0.501c-0.156-0.211-0.371-0.356-0.645-0.435
		c-0.273-0.08-0.82-0.119-1.641-0.119v-0.765h7.061v0.765c-0.82,0.07-1.387,0.22-1.699,0.448c-0.547,0.422-1.045,1.134-1.494,2.136
		l-7.646,16.69h-0.967l-7.734-16.427c-0.332-0.756-0.654-1.301-0.967-1.635s-0.713-0.615-1.201-0.844
		c-0.273-0.123-0.801-0.246-1.582-0.369V10.758z"/>
	<path fill="#0099CC" d="M399.785,18.062c0,2.9,0.781,5.168,2.344,6.803c1.582,1.635,3.428,2.452,5.537,2.452
		c1.426,0,2.662-0.347,3.707-1.042c1.044-0.693,1.918-1.894,2.621-3.599l0.732,0.422c-0.332,1.934-1.289,3.7-2.871,5.3
		s-3.574,2.399-5.977,2.399c-2.598,0-4.818-0.909-6.664-2.729c-1.846-1.818-2.77-4.267-2.77-7.343c0-3.322,0.947-5.915,2.842-7.778
		s4.277-2.795,7.148-2.795c2.422,0,4.41,0.717,5.963,2.148c1.553,1.434,2.328,3.354,2.328,5.762H399.785z M399.785,16.849h10.02
		c-0.078-1.248-0.244-2.127-0.498-2.637c-0.391-0.791-0.977-1.415-1.758-1.872s-1.592-0.686-2.432-0.686
		c-1.309,0-2.48,0.457-3.516,1.371S399.961,15.214,399.785,16.849z"/>
	<path fill="#0099CC" d="M441.914,27.396c-2.207,1.529-3.594,2.417-4.16,2.663c-0.859,0.352-1.768,0.527-2.725,0.527
		c-1.484,0-2.709-0.457-3.676-1.371s-1.451-2.127-1.451-3.639c0-0.949,0.234-1.767,0.703-2.452c0.645-0.967,1.763-1.872,3.355-2.716
		c1.592-0.844,4.242-1.881,7.953-3.111v-0.765c0-1.934-0.342-3.261-1.025-3.981s-1.68-1.081-2.988-1.081
		c-0.977,0-1.758,0.237-2.344,0.712c-0.605,0.492-0.908,1.046-0.908,1.661l0.059,1.239c0,0.65-0.186,1.151-0.557,1.503
		s-0.85,0.527-1.436,0.527s-1.064-0.185-1.436-0.554s-0.557-0.87-0.557-1.503c0-1.213,0.693-2.329,2.08-3.349s3.33-1.529,5.83-1.529
		c1.914,0,3.486,0.29,4.717,0.87c0.918,0.439,1.602,1.125,2.051,2.057c0.273,0.615,0.41,1.863,0.41,3.744v6.592
		c0,1.846,0.039,2.979,0.117,3.401s0.21,0.703,0.396,0.844c0.186,0.141,0.395,0.211,0.629,0.211c0.254,0,0.469-0.053,0.645-0.158
		c0.332-0.176,0.977-0.686,1.934-1.529v1.187c-1.777,2.109-3.467,3.164-5.068,3.164c-0.762,0-1.372-0.237-1.83-0.712
		C442.174,29.373,441.934,28.556,441.914,27.396z M441.914,25.998v-7.409c-2.363,0.861-3.896,1.468-4.6,1.819
		c-1.23,0.615-2.113,1.266-2.65,1.951c-0.538,0.686-0.807,1.424-0.807,2.215c0,1.02,0.338,1.868,1.012,2.544
		c0.674,0.678,1.449,1.016,2.328,1.016C438.389,28.134,439.961,27.422,441.914,25.998z"/>
	<path fill="#0099CC" d="M468.984,23.098c-1.328-0.58-2.344-1.389-3.047-2.426s-1.055-2.188-1.055-3.454
		c0-1.916,0.807-3.568,2.418-4.957s3.676-2.083,6.195-2.083c2.051,0,3.828,0.448,5.332,1.345h4.57c0.684,0,1.08,0.018,1.188,0.053
		c0.106,0.035,0.189,0.097,0.248,0.185c0.098,0.141,0.146,0.369,0.146,0.686c0,0.369-0.039,0.624-0.117,0.765
		c-0.059,0.07-0.146,0.128-0.264,0.172s-0.518,0.065-1.201,0.065h-2.783c0.879,1.02,1.318,2.32,1.318,3.902
		c0,1.811-0.771,3.362-2.314,4.653c-1.543,1.293-3.613,1.938-6.211,1.938c-1.074,0-2.168-0.149-3.281-0.448
		c-0.684,0.545-1.146,1.02-1.391,1.424c-0.245,0.404-0.367,0.747-0.367,1.028c0,0.246,0.127,0.479,0.381,0.698
		c0.254,0.221,0.762,0.383,1.523,0.488c0.449,0.053,1.553,0.105,3.311,0.158c3.242,0.07,5.342,0.167,6.299,0.29
		c1.465,0.176,2.633,0.664,3.502,1.464c0.868,0.8,1.303,1.779,1.303,2.939c0,1.6-0.83,3.094-2.49,4.482
		c-2.461,2.074-5.664,3.111-9.609,3.111c-3.027,0-5.596-0.615-7.705-1.846c-1.172-0.703-1.758-1.441-1.758-2.215
		c0-0.334,0.088-0.677,0.264-1.028c0.273-0.51,0.82-1.23,1.641-2.162c0.117-0.141,0.918-0.905,2.402-2.294
		c-0.801-0.439-1.372-0.835-1.713-1.187c-0.342-0.352-0.514-0.747-0.514-1.187c0-0.492,0.225-1.072,0.674-1.74
		S467.363,24.311,468.984,23.098z M468.75,30.19c-0.742,0.721-1.303,1.393-1.684,2.018c-0.381,0.623-0.572,1.199-0.572,1.727
		c0,0.668,0.459,1.257,1.377,1.767c1.563,0.879,3.838,1.318,6.826,1.318c2.813,0,4.893-0.448,6.24-1.345s2.021-1.854,2.021-2.874
		c0-0.738-0.4-1.266-1.201-1.582c-0.82-0.299-2.441-0.475-4.863-0.527C473.359,30.604,470.645,30.437,468.75,30.19z M473.086,11.206
		c-1.172,0-2.148,0.418-2.93,1.252c-0.781,0.836-1.172,2.114-1.172,3.837c0,2.232,0.527,3.964,1.582,5.194
		c0.82,0.932,1.865,1.397,3.135,1.397c1.191,0,2.173-0.404,2.945-1.213c0.771-0.809,1.156-2.074,1.156-3.797
		c0-2.25-0.547-4.008-1.641-5.273C475.361,11.672,474.336,11.206,473.086,11.206z"/>
	<path fill="#0099CC" d="M497.9,10.178c3.281,0,5.908,1.116,7.881,3.349c1.68,1.916,2.52,4.113,2.52,6.592
		c0,1.74-0.464,3.498-1.391,5.273c-0.928,1.775-2.203,3.12-3.824,4.034s-3.438,1.371-5.449,1.371c-3.242,0-5.83-1.169-7.764-3.507
		c-1.602-1.969-2.402-4.175-2.402-6.618c0-1.793,0.488-3.568,1.465-5.326s2.266-3.059,3.867-3.902S496.104,10.178,497.9,10.178z
		 M497.168,11.549c-0.82,0-1.654,0.224-2.504,0.673c-0.85,0.447-1.534,1.23-2.051,2.346c-0.518,1.117-0.777,2.554-0.777,4.312
		c0,2.83,0.625,5.27,1.875,7.317s2.9,3.071,4.951,3.071c1.523,0,2.779-0.563,3.766-1.688c0.985-1.125,1.479-3.067,1.479-5.827
		c0-3.463-0.82-6.188-2.461-8.174C500.332,12.226,498.906,11.549,497.168,11.549z"/>
	<path fill="#0099CC" d="M522.041,10.178c3.281,0,5.908,1.116,7.881,3.349c1.68,1.916,2.52,4.113,2.52,6.592
		c0,1.74-0.464,3.498-1.391,5.273c-0.928,1.775-2.203,3.12-3.824,4.034s-3.438,1.371-5.449,1.371c-3.242,0-5.83-1.169-7.764-3.507
		c-1.602-1.969-2.402-4.175-2.402-6.618c0-1.793,0.488-3.568,1.465-5.326s2.266-3.059,3.867-3.902S520.244,10.178,522.041,10.178z
		 M521.309,11.549c-0.82,0-1.654,0.224-2.504,0.673c-0.85,0.447-1.534,1.23-2.051,2.346c-0.518,1.117-0.777,2.554-0.777,4.312
		c0,2.83,0.625,5.27,1.875,7.317s2.9,3.071,4.951,3.071c1.523,0,2.779-0.563,3.766-1.688c0.985-1.125,1.479-3.067,1.479-5.827
		c0-3.463-0.82-6.188-2.461-8.174C524.473,12.226,523.047,11.549,521.309,11.549z"/>
	<path fill="#0099CC" d="M550.869,28.002c-1.055,0.984-2.084,1.696-3.09,2.136c-1.007,0.439-2.086,0.659-3.238,0.659
		c-2.363,0-4.424-0.892-6.182-2.677c-1.758-1.783-2.637-4.064-2.637-6.842c0-2.795,0.972-5.348,2.916-7.66
		c1.943-2.311,4.447-3.467,7.514-3.467c1.914,0,3.486,0.545,4.717,1.635V8.2c0-2.215-0.059-3.577-0.176-4.087
		s-0.297-0.856-0.541-1.042c-0.245-0.184-0.563-0.276-0.953-0.276c-0.41,0-0.947,0.114-1.611,0.343l-0.322-0.765L553.711,0h1.055
		v22.491c0,2.268,0.059,3.656,0.176,4.166s0.309,0.861,0.572,1.055s0.57,0.29,0.922,0.29c0.41,0,0.967-0.123,1.67-0.369l0.264,0.765
		l-6.416,2.399h-1.084V28.002z M550.869,26.525v-10.02c-0.078-0.967-0.355-1.846-0.834-2.637c-0.479-0.791-1.104-1.389-1.875-1.793
		c-0.772-0.404-1.529-0.606-2.271-0.606c-1.387,0-2.627,0.563-3.721,1.688c-1.426,1.459-2.139,3.604-2.139,6.434
		c0,2.865,0.693,5.059,2.08,6.578c1.387,1.521,2.93,2.281,4.629,2.281C548.164,28.45,549.541,27.809,550.869,26.525z"/>
	<path fill="#0099CC" d="M579.287,10.178v15.609c0,1.23,0.098,2.044,0.293,2.438c0.195,0.396,0.484,0.695,0.865,0.896
		c0.381,0.203,1.088,0.304,2.123,0.304v0.765H572.08v-0.765c1.055,0,1.763-0.093,2.125-0.276c0.361-0.186,0.645-0.488,0.85-0.91
		s0.307-1.239,0.307-2.452v-7.488c0-2.109-0.068-3.472-0.205-4.087c-0.117-0.457-0.293-0.773-0.527-0.949s-0.557-0.264-0.967-0.264
		c-0.43,0-0.957,0.105-1.582,0.316l-0.352-0.765l6.504-2.373H579.287z M577.324,0c0.664,0,1.227,0.211,1.686,0.633
		c0.458,0.422,0.688,0.932,0.688,1.529c0,0.58-0.229,1.086-0.688,1.517c-0.459,0.431-1.021,0.646-1.686,0.646
		s-1.23-0.215-1.699-0.646s-0.703-0.937-0.703-1.517c0-0.598,0.23-1.107,0.689-1.529C576.069,0.211,576.641,0,577.324,0z"/>
	<path fill="#0099CC" d="M600.498,28.002c-1.055,0.984-2.084,1.696-3.09,2.136c-1.007,0.439-2.086,0.659-3.238,0.659
		c-2.363,0-4.424-0.892-6.182-2.677c-1.758-1.783-2.637-4.064-2.637-6.842c0-2.795,0.972-5.348,2.916-7.66
		c1.943-2.311,4.447-3.467,7.514-3.467c1.914,0,3.486,0.545,4.717,1.635V8.2c0-2.215-0.059-3.577-0.176-4.087
		s-0.297-0.856-0.541-1.042c-0.245-0.184-0.563-0.276-0.953-0.276c-0.41,0-0.947,0.114-1.611,0.343l-0.322-0.765L603.34,0h1.055
		v22.491c0,2.268,0.059,3.656,0.176,4.166s0.309,0.861,0.572,1.055s0.57,0.29,0.922,0.29c0.41,0,0.967-0.123,1.67-0.369l0.264,0.765
		l-6.416,2.399h-1.084V28.002z M600.498,26.525v-10.02c-0.078-0.967-0.355-1.846-0.834-2.637c-0.479-0.791-1.104-1.389-1.875-1.793
		c-0.772-0.404-1.529-0.606-2.271-0.606c-1.387,0-2.627,0.563-3.721,1.688c-1.426,1.459-2.139,3.604-2.139,6.434
		c0,2.865,0.693,5.059,2.08,6.578c1.387,1.521,2.93,2.281,4.629,2.281C597.793,28.45,599.17,27.809,600.498,26.525z"/>
	<path fill="#0099CC" d="M613.008,18.062c0,2.9,0.781,5.168,2.344,6.803c1.582,1.635,3.428,2.452,5.537,2.452
		c1.426,0,2.662-0.347,3.707-1.042c1.044-0.693,1.918-1.894,2.621-3.599l0.732,0.422c-0.332,1.934-1.289,3.7-2.871,5.3
		s-3.574,2.399-5.977,2.399c-2.598,0-4.818-0.909-6.664-2.729c-1.846-1.818-2.77-4.267-2.77-7.343c0-3.322,0.947-5.915,2.842-7.778
		s4.277-2.795,7.148-2.795c2.422,0,4.41,0.717,5.963,2.148c1.553,1.434,2.328,3.354,2.328,5.762H613.008z M613.008,16.849h10.02
		c-0.078-1.248-0.244-2.127-0.498-2.637c-0.391-0.791-0.977-1.415-1.758-1.872s-1.592-0.686-2.432-0.686
		c-1.309,0-2.48,0.457-3.516,1.371S613.184,15.214,613.008,16.849z"/>
	<path fill="#0099CC" d="M643.066,27.396c-2.207,1.529-3.594,2.417-4.16,2.663c-0.859,0.352-1.768,0.527-2.725,0.527
		c-1.484,0-2.709-0.457-3.676-1.371s-1.451-2.127-1.451-3.639c0-0.949,0.234-1.767,0.703-2.452c0.645-0.967,1.763-1.872,3.355-2.716
		c1.592-0.844,4.242-1.881,7.953-3.111v-0.765c0-1.934-0.342-3.261-1.025-3.981s-1.68-1.081-2.988-1.081
		c-0.977,0-1.758,0.237-2.344,0.712c-0.605,0.492-0.908,1.046-0.908,1.661l0.059,1.239c0,0.65-0.186,1.151-0.557,1.503
		s-0.85,0.527-1.436,0.527s-1.064-0.185-1.436-0.554s-0.557-0.87-0.557-1.503c0-1.213,0.693-2.329,2.08-3.349s3.33-1.529,5.83-1.529
		c1.914,0,3.486,0.29,4.717,0.87c0.918,0.439,1.602,1.125,2.051,2.057c0.273,0.615,0.41,1.863,0.41,3.744v6.592
		c0,1.846,0.039,2.979,0.117,3.401s0.21,0.703,0.396,0.844c0.186,0.141,0.395,0.211,0.629,0.211c0.254,0,0.469-0.053,0.645-0.158
		c0.332-0.176,0.977-0.686,1.934-1.529v1.187c-1.777,2.109-3.467,3.164-5.068,3.164c-0.762,0-1.372-0.237-1.83-0.712
		C643.326,29.373,643.086,28.556,643.066,27.396z M643.066,25.998v-7.409c-2.363,0.861-3.896,1.468-4.6,1.819
		c-1.23,0.615-2.113,1.266-2.65,1.951c-0.538,0.686-0.807,1.424-0.807,2.215c0,1.02,0.338,1.868,1.012,2.544
		c0.674,0.678,1.449,1.016,2.328,1.016C639.541,28.134,641.113,27.422,643.066,25.998z"/>
</g>
</svg>
