<?xml version="1.0" encoding="utf-8"?>
<!-- Generator: Adobe Illustrator 14.0.0, SVG Export Plug-In . SVG Version: 6.00 Build 43363)  -->
<!DOCTYPE svg PUBLIC "-//W3C//DTD SVG 1.1//EN" "http://www.w3.org/Graphics/SVG/1.1/DTD/svg11.dtd">
<svg version="1.1" id="图层_1" xmlns="http://www.w3.org/2000/svg" xmlns:xlink="http://www.w3.org/1999/xlink" x="0px" y="0px"
	 width="528.986px" height="47.022px" viewBox="0 0 528.986 47.022" enable-background="new 0 0 528.986 47.022"
	 xml:space="preserve">
<g>
	<path d="M29.053,6.836h6.25c0.391,0,0.977-0.586,1.758-1.758c0.909-1.432,1.69-2.018,2.344-1.758
		c1.822,1.172,3.058,2.084,3.711,2.734c0.391,0.521,0.586,0.977,0.586,1.367c0,0.263-0.195,0.391-0.586,0.391h-12.5
		c3.775,1.563,5.142,3.646,4.102,6.25c2.472,1.435,3.775,2.411,3.906,2.93c0,0.391-0.195,0.717-0.586,0.977
		c-0.522,0.391-0.717,0.717-0.586,0.977v3.906c-0.263,1.563-1.563,2.344-3.906,2.344c-1.303,0.263-1.825-0.195-1.563-1.367h-7.617
		v5.859h9.57c0.391,0.131,0.845-0.323,1.367-1.367c0.391-0.781,0.781-1.236,1.172-1.367c3.125,1.172,4.947,2.606,5.469,4.297
		c0,0.391-0.263,0.781-0.781,1.172c-0.522,0.263-0.781,0.521-0.781,0.781c-0.391,5.078-2.148,7.748-5.273,8.008
		c-2.216,0.26-3.452-0.128-3.711-1.172c-0.131-1.3-0.717-2.213-1.758-2.734c-1.044-0.26-1.563-0.455-1.563-0.586
		c0-0.128,0.519-0.195,1.563-0.195c4.034,0.912,5.923-1.041,5.664-5.859H24.365v13.281c-0.131,1.822-1.367,2.734-3.711,2.734
		c-1.172,0-1.694-0.391-1.563-1.172V33.984c-5.991,4.818-11.328,7.94-16.016,9.375c-1.694,0.519-2.67,0.714-2.93,0.586
		c-0.391,0,0-0.326,1.172-0.977c6.641-4.034,10.742-8.136,12.305-12.305h-2.734c-0.391,0.131-0.781,0.521-1.172,1.172
		c-0.263,0.521-0.458,0.781-0.586,0.781c-2.344,0-4.038-0.586-5.078-1.758c0-0.128,0.064-0.323,0.195-0.586
		c0.519-0.65,0.845-1.3,0.977-1.953c0.519-3.125,0.845-5.206,0.977-6.25c0-0.909,0.845-0.977,2.539-0.195
		c1.3,0.653,2.344,0.977,3.125,0.977h7.227v-5.859H5.42c-0.391,0-0.653-0.128-0.781-0.391c-0.131-0.26,0-0.455,0.391-0.586h8.398
		c-0.781-0.519-1.172-1.236-1.172-2.148c-0.131-3.385-0.913-5.401-2.344-6.055C9.521,8.203,9.131,8.529,8.74,8.789
		c-2.216,1.953-4.038,3.516-5.469,4.688c-2.475,1.693-3.256,1.953-2.344,0.781c2.994-3.775,5.011-7.813,6.055-12.109
		c0.259-1.041,0.519-1.69,0.781-1.953c0.781-0.128,2.276,0,4.492,0.391c1.69,0.391,2.603,0.781,2.734,1.172
		c0,0.391-0.327,0.781-0.977,1.172c-0.653,0.391-1.108,0.781-1.367,1.172c-0.653,1.044-1.367,1.953-2.148,2.734h5.859
		c0.259,0,0.714-0.455,1.367-1.367c0.909-1.432,1.758-2.018,2.539-1.758c1.822,1.303,2.994,2.279,3.516,2.93
		c0.781-1.822,1.236-3.58,1.367-5.273c0-0.65,0.195-1.104,0.586-1.367c3.516,0.131,5.923,0.717,7.227,1.758
		c0,0.263-0.263,0.586-0.781,0.977C30.875,3.906,29.834,5.273,29.053,6.836z M10.693,25l-0.586,4.883h8.984v-6.055h-5.469
		C11.539,23.7,10.562,24.091,10.693,25z M15.576,16.016h2.539c2.212-2.604,3.97-5.338,5.273-8.203H12.256
		c2.472,1.172,4.102,2.411,4.883,3.711C17.789,13.349,17.267,14.844,15.576,16.016z M19.678,16.016h10.938l0.781-0.977
		c-0.781-0.519-1.367-1.69-1.758-3.516c-0.263-1.69-0.781-2.799-1.563-3.32C25.21,11.591,22.412,14.193,19.678,16.016z
		 M31.982,16.992h-7.617v1.172v4.688h7.617V16.992z"/>
	<path d="M93.896,38.867H50.537c-0.653,0-1.108-0.128-1.367-0.391c-0.131-0.26,0.064-0.455,0.586-0.586h35.938
		c0-0.128,0.128-0.323,0.391-0.586c1.563-2.344,2.603-3.516,3.125-3.516c0.65,0,2.148,1.044,4.492,3.125
		c0.259,0.263,0.519,0.458,0.781,0.586c0.391,0.521,0.519,0.912,0.391,1.172C94.742,38.803,94.415,38.867,93.896,38.867z
		 M90.186,6.836H55.029c-0.653,0-1.044-0.128-1.172-0.391c-0.131-0.26,0.064-0.455,0.586-0.586h13.672h14.258
		c0.128-0.26,0.195-0.323,0.195-0.195c1.563-2.472,2.667-3.711,3.32-3.711c0.909,0.131,2.603,1.303,5.078,3.516
		c0.391,0.521,0.519,0.912,0.391,1.172C91.226,6.903,90.835,6.967,90.186,6.836z M87.256,21.68H57.764
		c-0.522,0-0.913-0.128-1.172-0.391c-0.263-0.26-0.131-0.455,0.391-0.586h22.656c1.431-2.213,2.539-3.516,3.32-3.906
		c0.781,0.131,2.539,1.303,5.273,3.516c0.391,0.521,0.519,0.912,0.391,1.172C88.36,21.615,87.906,21.68,87.256,21.68z"/>
	<path d="M109.912,20.508v15.234c2.603-1.172,3.97-1.758,4.102-1.758h0.195c2.862-1.69,3.189-1.367,0.977,0.977
		c-0.131,0.131-0.327,0.326-0.586,0.586c-3.778,4.297-5.927,6.9-6.445,7.813c-0.522,0.781-0.913,1.172-1.172,1.172
		c-0.391,0-0.781-0.326-1.172-0.977c-0.391-0.391-1.044-1.172-1.953-2.344c-0.263-0.26-0.391-0.455-0.391-0.586
		c-0.781-1.041-0.653-1.953,0.391-2.734c0.391-0.391,0.65-1.104,0.781-2.148V18.555h-5.273c-0.391,0-0.653-0.128-0.781-0.391
		c-0.131-0.128,0-0.26,0.391-0.391h4.688l0.586-0.781c0.781-1.3,1.431-1.953,1.953-1.953c2.994,1.044,4.815,2.216,5.469,3.516
		c0,0.263-0.327,0.586-0.977,0.977C110.04,20.053,109.781,20.38,109.912,20.508z M103.467,2.344
		c4.556,0.521,7.291,1.953,8.203,4.297c0.391,3.646-1.172,5.209-4.688,4.688c-0.913-0.26-1.435-1.3-1.563-3.125
		c0-2.344-0.781-3.971-2.344-4.883c-0.653-0.391-0.977-0.65-0.977-0.781C102.228,2.411,102.686,2.344,103.467,2.344z M139.99,7.422
		V18.75c0.259,1.435-0.781,2.216-3.125,2.344c-0.263,0.131-0.522,0.195-0.781,0.195c-1.563,0.263-2.216,0.067-1.953-0.586v-0.586
		h-4.297v5.664h5.664c0.259,0,0.781-0.519,1.563-1.563c0.781-1.3,1.431-1.953,1.953-1.953c0.909,0,2.539,1.044,4.883,3.125
		c0.391,0.521,0.586,0.849,0.586,0.977c-0.131,0.263-0.522,0.326-1.172,0.195h-10.938c1.563,4.818,5.401,8.466,11.523,10.938
		c0.781,0.263,0.977,0.521,0.586,0.781c-0.522,0.263-0.913,0.521-1.172,0.781c-1.172,0.781-2.148,1.63-2.93,2.539
		c-0.653,1.041-1.435,1.172-2.344,0.391c-3.778-2.344-6.055-7.486-6.836-15.43h-1.367v17.383c0.128,0.909-1.044,1.627-3.516,2.148
		c-1.563,0.26-2.216-0.263-1.953-1.563V33.008c-7.163,7.031-11.914,10.352-14.258,9.961c5.206-5.078,8.722-10.479,10.547-16.211
		h-7.617c-0.522,0-0.913-0.128-1.172-0.391c-0.263-0.26-0.131-0.455,0.391-0.586h12.109v-5.469h-3.516v0.586
		c0,0.781-0.913,1.303-2.734,1.563c-2.084,0.391-2.997-0.064-2.734-1.367V3.711c-0.131-0.781,0-1.236,0.391-1.367
		c0.128-0.128,0.65-0.128,1.563,0c0.128,0.131,0.455,0.326,0.977,0.586c1.172,0.521,2.081,0.717,2.734,0.586h11.133
		c0.128,0,0.391-0.26,0.781-0.781c0.519-0.909,1.041-1.495,1.563-1.758c2.603,0.263,4.947,1.498,7.031,3.711
		c0,0.521-0.327,1.107-0.977,1.758C140.186,6.967,139.99,7.294,139.99,7.422z M120.85,6.25v5.078h3.516V4.297h-1.758
		C121.304,4.297,120.718,4.95,120.85,6.25z M120.85,12.305v7.031h3.516v-7.031H120.85z M129.834,6.055v5.273h4.102V4.297h-2.344
		C130.289,4.297,129.703,4.883,129.834,6.055z M129.834,12.109v7.227h4.297v-7.227H129.834z"/>
	<path d="M211.474,16.211h7.032c0.129,0,0.52-0.519,1.172-1.563c0.91-1.69,1.563-2.539,1.953-2.539
		c0.781,0.131,2.473,1.367,5.078,3.711c0.391,0.521,0.455,0.912,0.195,1.172c-0.262,0.263-0.848,0.326-1.758,0.195h-13.672
		c0,3.388,0.455,6.641,1.367,9.766c0.52-0.909,1.172-2.018,1.954-3.32c0.781-1.041,1.301-1.822,1.563-2.344
		c0.391-1.3,1.105-1.758,2.148-1.367c4.947,2.734,6.184,4.492,3.711,5.273c-0.521,0.131-0.848,0.263-0.977,0.391
		c-3.906,3.906-6.121,6.122-6.641,6.641c2.213,3.906,4.621,6.317,7.227,7.227c1.432,0.263,2.799-1.3,4.102-4.688
		c0.26-0.909,0.455-1.236,0.586-0.977c0.129,0.391,0.064,1.172-0.195,2.344c-0.781,2.997-0.652,5.338,0.391,7.031
		c0.65,1.041,0.846,2.018,0.586,2.93c-1.043,1.3-3.516,1.236-7.422-0.195c-3.777-1.693-7.163-4.947-10.157-9.766
		c-3.256,2.084-7.162,3.711-11.718,4.883c-0.653,3.385-2.997,5.143-7.031,5.273c-0.391-0.131-0.717-0.586-0.977-1.367
		c-0.653-2.084-1.825-3.388-3.516-3.906c-1.044-0.26-0.781-0.455,0.781-0.586c3.384-0.128,5.078-0.781,5.078-1.953v-8.984
		c-2.606,1.303-4.819,2.606-6.641,3.906c-0.653,0.653-1.239,0.912-1.758,0.781c-0.913,0-1.825-1.627-2.734-4.883
		c-0.391-1.041,0.65-1.822,3.125-2.344c2.862-0.519,5.533-1.172,8.008-1.953v-8.008h-10.547c-0.522,0-0.849-0.128-0.977-0.391
		c-0.131-0.26,0.064-0.455,0.586-0.586h10.938V9.57c-7.294,0.781-9.766,0.781-7.422,0c4.297-1.69,8.462-3.839,12.5-6.445
		c0.781-0.391,1.69-0.391,2.734,0c3.906,3.388,4.687,5.078,2.343,5.078c-0.521,0-0.848,0-0.977,0
		c-0.521,0.131-1.693,0.326-3.515,0.586v7.227h7.617c0-1.69,0-6.119,0-13.281c-0.391-1.563,0.195-2.213,1.758-1.953
		c4.426,0,5.988,0.849,4.688,2.539l-0.195,0.391c4.948,0.131,7.942,0.781,8.985,1.953c1.563,1.825,1.691,3.451,0.391,4.883
		c-1.953,1.563-3.582,1.498-4.883-0.195c-0.131-0.128-0.262-0.455-0.391-0.977c-0.391-2.344-1.758-3.775-4.102-4.297
		C211.474,6.903,211.343,10.614,211.474,16.211z M205.615,16.992h-7.617v6.641l7.812-2.148
		C205.679,20.575,205.615,19.076,205.615,16.992z M206.005,22.852l-8.007,3.906v13.086c4.035-2.213,7.421-4.688,10.156-7.422
		C207.111,29.818,206.396,26.63,206.005,22.852z"/>
	<path d="M255.225,9.18h13.086c0.391,0.131,1.041-0.586,1.953-2.148c0.91-1.563,1.627-2.344,2.148-2.344
		c0.65,0,2.344,1.172,5.078,3.516c0.65,0.781,0.846,1.303,0.586,1.563c-0.131,0.391-0.848,0.521-2.148,0.391h-21.094
		c-1.303,2.216-2.734,4.755-4.297,7.617h11.133c0.26,0.131,0.715-0.26,1.367-1.172c0.781-1.041,1.367-1.563,1.758-1.563
		c4.166,2.084,6.314,3.646,6.445,4.688c-0.131,0.391-0.457,0.781-0.977,1.172c-0.521,0.391-0.781,0.717-0.781,0.977v20.117
		c-0.521,3.253-2.996,4.815-7.422,4.688c-0.521-0.131-0.848-0.586-0.977-1.367c-0.262-1.693-1.303-2.802-3.125-3.32
		c-0.131-0.131-0.326-0.195-0.586-0.195c-1.953-0.391-1.758-0.586,0.586-0.586c1.953,0,3.32-0.064,4.102-0.195
		c0.781-0.128,1.236-0.781,1.367-1.953v-6.445h-12.5v11.523c0.129,1.69-1.238,2.539-4.102,2.539c-1.303,0-1.889-0.586-1.758-1.758
		V23.828c-1.563,1.693-4.168,3.711-7.813,6.055c-2.344,1.435-3.711,2.148-4.102,2.148c-0.391-0.128,0.324-1.041,2.148-2.734
		c6.25-5.729,10.48-12.109,12.695-19.141H233.35c-0.652,0-1.107-0.128-1.367-0.391c-0.131-0.128,0.129-0.26,0.781-0.391h15.625
		c0.781-2.472,1.367-4.815,1.758-7.031c0.129-1.563,0.91-2.213,2.344-1.953c4.426,0.781,6.705,1.435,6.836,1.953
		c0,0.263-0.195,0.521-0.586,0.781c-0.652,0.521-1.172,1.172-1.563,1.953c-0.521,0.781-0.977,1.758-1.367,2.93
		C255.549,8.398,255.354,8.789,255.225,9.18z M250.928,20.703v3.906h12.5v-6.055h-10.742
		C251.252,18.427,250.666,19.141,250.928,20.703z M250.928,25.586v6.25h12.5v-6.25H250.928z"/>
	<path d="M326.514,22.461h-42.383c-0.521,0-0.912-0.128-1.172-0.391c-0.262-0.26-0.131-0.455,0.391-0.586h33.984
		c0.129-0.26,0.195-0.323,0.195-0.195c2.082-2.862,3.385-4.297,3.906-4.297c1.172,0.131,3.059,1.563,5.664,4.297
		c0.391,0.391,0.52,0.717,0.391,0.977C327.359,22.396,327.033,22.461,326.514,22.461z"/>
	<path d="M350.732,0.391c3.385,0.521,5.988,1.435,7.813,2.734c0,0.391-0.262,0.586-0.781,0.586
		c-0.262,0.131-0.391,0.263-0.391,0.391c4.166,8.594,11.133,13.935,20.898,16.016c0.26,0.131-0.131,0.586-1.172,1.367
		c-1.434,1.044-2.41,1.889-2.93,2.539c-0.262,0.263-0.457,0.586-0.586,0.977c-0.391,1.303-1.238,1.435-2.539,0.391
		c-8.203-5.859-12.957-12.628-14.258-20.313c-6.121,8.856-13.934,15.692-23.438,20.508c-1.172,0.521-1.953,0.781-2.344,0.781
		c-0.262,0,0.064-0.323,0.977-0.977c6.9-4.815,12.305-11.002,16.211-18.555c0.52-1.172,1.041-2.667,1.563-4.492
		C350.016,1.303,350.342,0.653,350.732,0.391z M357.373,44.531c0.129,1.041-0.977,1.627-3.32,1.758
		c-2.084,0.128-2.996-0.458-2.734-1.758V17.383c0-1.432,0.586-2.081,1.758-1.953c0.129,0,0.26,0,0.391,0
		c4.166,0.263,5.598,1.107,4.297,2.539l-0.391,0.586V44.531z"/>
	<path d="M393.896,14.063h2.148c0.26,0,0.65-0.323,1.172-0.977c0.391-0.65,0.715-1.041,0.977-1.172
		c0.65-0.128,2.082,0.326,4.297,1.367c1.691,1.044,2.539,1.825,2.539,2.344c-0.131,0.391-0.391,0.717-0.781,0.977
		c-0.652,0.521-1.043,1.044-1.172,1.563c-0.131,0.263-0.195,0.781-0.195,1.563c-0.131,1.172-0.262,1.953-0.391,2.344h9.57v-7.227
		c-0.262-1.3,0.846-1.495,3.32-0.586c2.473-4.425,3.516-7.031,3.125-7.813h-12.5c-0.652,0-1.172-0.128-1.563-0.391
		c-0.262-0.128-0.066-0.26,0.586-0.391h12.305c0.26,0,0.65-0.391,1.172-1.172c0.391-0.781,0.781-1.236,1.172-1.367
		c0.781-0.26,3.189,1.172,7.227,4.297c1.563,1.563,1.236,2.411-0.977,2.539h-0.586c-3.125,0.521-5.664,2.021-7.617,4.492
		c0.91,0.391,1.367,0.912,1.367,1.563c0,0.653-0.391,1.172-1.172,1.563l0.195,4.688h2.734c0.129,0,0.52-0.586,1.172-1.758
		c0.781-1.563,1.367-2.344,1.758-2.344c0.65,0,1.887,0.781,3.711,2.344c0.26,0.131,0.52,0.263,0.781,0.391
		c1.301,1.563,1.496,2.344,0.586,2.344h-10.742V40.82c-0.391,4.034-3.061,5.924-8.008,5.664c-0.391-0.131-0.652-0.458-0.781-0.977
		c-0.391-2.344-2.279-3.842-5.664-4.492c-2.996,1.432-5.078,0.65-6.25-2.344c-0.521-1.3-0.912-2.148-1.172-2.539
		c-4.818,4.428-8.789,6.769-11.914,7.031c3.775-2.862,6.705-6.183,8.789-9.961c-1.303-0.781-3.646-1.822-7.031-3.125
		c-0.391-0.128-0.717-0.26-0.977-0.391c0.26-2.081,0.586-4.229,0.977-6.445c0.91-4.688,1.432-7.422,1.563-8.203h-4.102
		c-0.652,0-1.107-0.128-1.367-0.391c-0.131-0.26,0.129-0.455,0.781-0.586h4.883c0.65-4.297,1.041-7.422,1.172-9.375
		c0.129-2.213,0.391-3.32,0.781-3.32c3.125,0.131,5.598,0.717,7.422,1.758c0,0.263-0.195,0.521-0.586,0.781
		c-0.912,1.044-1.434,2.148-1.563,3.32C394.547,9.311,394.156,11.591,393.896,14.063z M397.607,15.039h-3.906
		c-1.303,4.818-2.475,9.506-3.516,14.063c1.822,0.653,3.254,1.044,4.297,1.172C395.914,26.63,396.955,21.552,397.607,15.039z
		 M412.061,38.672V23.047h-9.766c-1.172,4.297-2.148,7.227-2.93,8.789c4.426,2.865,5.988,5.795,4.688,8.789
		C409.781,41.275,412.451,40.625,412.061,38.672z"/>
	<path d="M474.17,13.477h-14.648c-1.172,0-1.693,0.781-1.563,2.344v10.547h6.445c0.129,0.131,0.65-0.391,1.563-1.563
		c1.041-1.563,1.758-2.344,2.148-2.344c0.91,0.263,2.473,1.498,4.688,3.711c0.391,0.521,0.455,0.849,0.195,0.977
		c-0.131,0.263-0.521,0.326-1.172,0.195h-13.867v14.844h10.742c0.129,0,0.65-0.521,1.563-1.563c1.041-1.432,1.758-2.213,2.148-2.344
		c1.041,0.131,2.734,1.303,5.078,3.516c0.26,0.391,0.324,0.714,0.195,0.977c-0.131,0.128-0.457,0.26-0.977,0.391h-44.336
		c-0.521-0.131-0.912-0.326-1.172-0.586c0-0.263,0.26-0.391,0.781-0.391h19.336V27.344h-13.672c-0.652,0-1.043-0.128-1.172-0.391
		c-0.262-0.26-0.066-0.455,0.586-0.586h14.258V13.477h-15.234c-0.652,0-1.172-0.128-1.563-0.391
		c-0.131-0.26,0.129-0.455,0.781-0.586h30.273c0.129,0,0.65-0.65,1.563-1.953c1.041-1.432,1.758-2.213,2.148-2.344
		c1.041,0.263,2.863,1.563,5.469,3.906c0.26,0.521,0.391,0.912,0.391,1.172C475.016,13.544,474.689,13.607,474.17,13.477z
		 M448.975,1.758c-1.043-0.909,0.324-0.977,4.102-0.195c2.604,0.781,4.361,1.693,5.273,2.734c1.172,2.216,0.977,4.169-0.586,5.859
		c-2.084,1.563-3.906,1.435-5.469-0.391c-0.391-0.519-0.586-1.3-0.586-2.344C451.838,5.341,450.928,3.451,448.975,1.758z"/>
	<path d="M508.154,7.031h8.594c0.129,0,0.52-0.519,1.172-1.563c0.91-1.3,1.563-1.953,1.953-1.953
		c0.52,0.131,1.822,1.044,3.906,2.734c-0.131-0.128,0-0.064,0.391,0.195c0.52,0.653,0.781,1.044,0.781,1.172
		c0,0.263-0.326,0.326-0.977,0.195h-11.523c2.863,1.435,4.23,2.475,4.102,3.125c-0.131,0.263-0.457,0.458-0.977,0.586
		c-1.563,0.653-3.256,2.021-5.078,4.102h9.961c0.129,0.131,0.65-0.455,1.563-1.758c0.91-1.3,1.496-1.953,1.758-1.953
		c0.52,0,1.822,0.912,3.906,2.734c0.26,0.263,0.52,0.391,0.781,0.391c0.52,0.521,0.65,0.912,0.391,1.172
		c-0.131,0.263-0.717,0.326-1.758,0.195h-43.555c-0.521,0-0.912-0.128-1.172-0.391c0-0.128,0.26-0.26,0.781-0.391h14.453
		c-0.391-0.128-0.586-0.714-0.586-1.758c-0.131-2.472-1.107-4.492-2.93-6.055h-7.227c-0.912-0.128-1.172-0.391-0.781-0.781h17.383
		c-0.652-0.26-1.043-0.909-1.172-1.953c-0.131-1.432-0.717-2.539-1.758-3.32c-0.391-0.26-0.586-0.455-0.586-0.586
		c0.129-0.128,0.455-0.195,0.977-0.195C508.219,1.107,510.627,3.125,508.154,7.031z M489.014,36.328
		c0.52-2.344,1.236-1.172,2.148,3.516c0.129,1.953-0.652,3.58-2.344,4.883c-3.125,1.3-4.818,0.519-5.078-2.344
		c0-0.781,0.715-1.563,2.148-2.344C487.711,38.998,488.752,37.763,489.014,36.328z M519.482,22.852v7.031
		c0.26,1.693-1.107,2.539-4.102,2.539c-1.563,0.391-2.215,0-1.953-1.172v-0.977h-17.383v1.172c0.26,0.781-0.848,1.239-3.32,1.367
		c-1.434,0-2.148-0.455-2.148-1.367c0-0.128,0.064-0.26,0.195-0.391V19.336c-0.262-1.041,0.65-1.236,2.734-0.586
		c1.432,0.521,2.668,0.849,3.711,0.977h15.43c0.129,0,0.391-0.26,0.781-0.781c0.391-0.781,0.781-1.172,1.172-1.172
		c2.863,0.653,5.012,1.63,6.445,2.93c0,0.391-0.262,0.781-0.781,1.172C519.611,22.266,519.352,22.592,519.482,22.852z
		 M499.561,36.914v2.93c-0.521,1.303,1.496,1.953,6.055,1.953c3.906,0,6.119-1.236,6.641-3.711c0.391-1.953,0.715-2.93,0.977-2.93
		c0.26-0.128,0.52,0.717,0.781,2.539c0.129,1.172,0.91,2.279,2.344,3.32c1.172,0.391,1.691,0.977,1.563,1.758
		c-0.652,1.822-2.734,3.058-6.25,3.711c-4.818,0.391-9.115,0.391-12.891,0c-3.516-0.521-5.145-2.344-4.883-5.469v-5.273
		c-0.262-2.604,0.324-3.58,1.758-2.93c0.129,0.131,0.586,0.195,1.367,0.195c2.473,0.263,3.711,0.521,3.711,0.781
		c0,0.263-0.195,0.586-0.586,0.977C499.756,35.287,499.561,36.005,499.561,36.914z M509.326,7.813h-13.867
		c7.422,2.216,9.439,4.818,6.055,7.813h6.055c0-0.128,0.064-0.323,0.195-0.586C508.936,11.396,509.455,8.984,509.326,7.813z
		 M496.045,22.461v1.953h17.383v-3.906h-15.82C496.436,20.508,495.914,21.161,496.045,22.461z M496.045,25.195v4.102h17.383v-4.102
		H496.045z M509.717,35.352c0.26,3.256-1.043,4.688-3.906,4.297c-0.912-0.128-1.434-0.977-1.563-2.539
		c-0.262-1.953-0.912-3.448-1.953-4.492c-0.521-0.391-0.781-0.65-0.781-0.781c0.129,0,0.586,0,1.367,0
		C506.916,32.357,509.195,33.529,509.717,35.352z M518.506,34.375c3.254,0.912,5.533,1.953,6.836,3.125
		c1.691,1.693,2.344,3.256,1.953,4.688c-0.781,2.081-2.148,2.93-4.102,2.539c-1.043-0.263-1.693-1.303-1.953-3.125
		c-0.521-2.344-1.434-4.229-2.734-5.664c-1.303-1.041-1.889-1.627-1.758-1.758C516.617,34.052,517.203,34.115,518.506,34.375z"/>
</g>
</svg>
