<?xml version="1.0" encoding="utf-8"?>
<!-- Generator: Adobe Illustrator 14.0.0, SVG Export Plug-In . SVG Version: 6.00 Build 43363)  -->
<!DOCTYPE svg PUBLIC "-//W3C//DTD SVG 1.1//EN" "http://www.w3.org/Graphics/SVG/1.1/DTD/svg11.dtd">
<svg version="1.1" id="图层_1" xmlns="http://www.w3.org/2000/svg" xmlns:xlink="http://www.w3.org/1999/xlink" x="0px" y="0px"
	 width="302.646px" height="347.978px" viewBox="0 0 302.646 347.978" enable-background="new 0 0 302.646 347.978"
	 xml:space="preserve">
<g>
	<path fill="#EFD8A1" d="M56.648,53.394l51.333,78.667l14,12c0,0,29.333,17.333,37.333,22s56.666-15.333,60-4s0.668,34-2.666,52.667
		s6,60,21.333,77.334c15.333,17.332,53.334,24.666,62.667-20c9.333-44.668-16.666-47.334-24-60.668
		c-7.334-13.332-16.001-76.667-21.334-88s-26.667-20.666-36-30.666s-24-29.334-18-29.334s17.334-34-15.333-36
		s-57.333,4.001-72-6.666S111.315-4.606,90.648,1.394S31.663,40.212,56.822,49.803c-0.174,1.591-0.174,1.591-0.174,1.591"/>
	<path fill="#68492D" d="M145.313,147.394c-12.666-1.333-22.666-9.999-20.666-25.333s23.334-44.667,38-46.667
		s30.412-4.553,36.206,1.724s5.793,8.277,8.46,8.943s22,32,22.667,41.333s3.999,28.001,3.333,32.667s-16,11.999-21.333,6.666
		s-25.333-8-29.333-8s-10.001-5.334-9.334-12s-1.288-10.452,3.689-15.893s0.978-8.107,4.978-5.44s7.334-7.333,6.667-12
		s-0.667-9.334-8.667-4.667s-10.667,6-12.667,12s-2,24-6,14.667s-6.666-14.666-2.666-19.333s9.542-13.275,12.438-16.638
		s-3.105-10.03-5.771-6.696s-10,7.333-13.333,14s-9.999,10-5.333,16.667S145.313,147.394,145.313,147.394z"/>
	<g>
		<path fill="#5B3F28" d="M56.822,49.803l-2.276,5.008c0,0,14.567,18.664,19.575,27.313s13.201,25.037,15.022,26.403
			s5.009,3.187,4.553,5.918s2.276,6.372,5.918,12.746s4.097,9.561,4.097,9.561l21.396,15.478c0,0,2.276-45.522,16.844-63.276
			s38.239-15.022,56.903-11.836c0,0-16.844-12.292-32.776-10.471s-26.859,15.479-37.784,34.598s-10.47,35.508-10.47,35.508
			s-21.396-29.59-33.688-49.165S56.822,49.803,56.822,49.803z"/>
		<path fill="#5B3F28" d="M159.704,170.894l-7.284-25.037c0,0,5.007-22.307,8.649-34.143s8.195-27.769,30.956-30.045
			s26.857,8.194,34.142,20.94s13.202,41.425,14.112,68.739c0.91,27.314,1.821,40.97,1.821,40.97l-4.098-3.641
			c0,0,0.911-45.979-4.097-70.561s-13.202-48.71-28.68-52.352s-28.224,0.455-34.142,13.657s-11.381,40.516-11.381,40.516V170.894z"
			/>
		<path fill="#5B3F28" d="M177.003,130.834c0,0,0-21.396,5.918-27.314s19.119-10.469,24.582-11.38s5.463-0.911,5.463-0.911
			l4.552,5.008c0,0-14.567,3.187-23.672,9.104S177.003,130.834,177.003,130.834z"/>
		<path fill="#5B3F28" d="M218.884,103.52c0,0,9.105,17.299,11.381,43.247s1.365,75.113,0.455,86.949s-2.731,20.484-2.731,20.484
			l-2.276,4.098l-2.731-4.098c0,0,2.276-40.969,2.731-73.291C226.167,148.588,218.884,103.52,218.884,103.52z"/>
		<path fill="#5B3F28" d="M227.533,271.044l-4.553,3.643c0,0,27.313,37.783,39.149,53.717s16.844,19.574,16.844,19.574l2.276-2.73
			c0,0-3.642-5.918-14.567-24.127S227.533,271.044,227.533,271.044z"/>
		<polygon fill="#5B3F28" points="151.51,103.52 140.129,125.827 136.942,144.946 		"/>
		<polygon fill="#5B3F28" points="79.129,187.282 72.3,187.737 67.748,191.38 62.285,192.745 60.464,198.663 71.845,200.483 
			78.673,191.38 		"/>
		<path fill="#5B3F28" d="M152.876,223.245c0,0,5.917-1.365,11.38,0.455c5.463,1.822,6.374,3.641,4.553,7.283
			s-6.829,5.463-11.381,4.553s-10.015-1.82-10.015-1.82l-1.821-5.463L152.876,223.245z"/>
		<polygon fill="#5B3F28" points="171.813,254.894 169.563,257.144 170.563,266.644 193.313,266.894 199.563,257.644 
			187.313,247.644 181.063,254.394 		"/>
		<path fill="#5B3F28" d="M156.313,251.394l-1,2.5l-0.75,6c0,0-8,2.25-9,2.75s-14.75,6.75-17.25,6.75s-9.75-0.75-9.75-0.75
			s-2.25-2.25-1.75-4.75s0.75-8.5,0.75-8.5l-0.25-4.75l3-2.5l0.5-6.5l4.75-3.75l3.75,2.25l7.25-0.25l3.75,2.5l5.5-0.25l5.5,4.25
			l0.5,3.5l2.75-0.25L156.313,251.394z"/>
		<path fill="#68492D" d="M77.813,251.894l8.75-0.75c0,0,5-0.25,6-0.25s7.25,2.25,11.5,6s6.5,5.75,6.5,5.75s3.5,0.5,4.25,1.25
			s3,4.25,1.5,5.5s-3.75,3-4,4.75s-1.5,4.25-1.75,5s0.5,2.75-0.5,3s-2,0.75-5.25-0.75s-8.25-1-9-0.25s-6,2.5-10.5,2
			s-11.5-2-12.5-1.5s-6.25,2.5-7.5,3.5s-6.75,1.75-9-0.75s-5.5-4-4.75-7s2.75-7.75,4-8.25s5.75,0.5,6.75-1s1.25-5.5,1.75-6.75
			s5-3.75,5-3.75s4.25,0.5,5.5,1s2.5,0.75,2.25-0.75S77.813,251.894,77.813,251.894z"/>
		<path fill="#5B3F28" d="M88.313,288.894c0,0,12-0.25,14.25,0s3.75,1.75,4.75,2s2.75,5-0.75,7.25s-8.5,3.25-9.5,3
			s-1.75,1.75-4.5,1.5s-7-1-7-1s-0.25-0.5-1.25-2.75s-5.5-6-3-6.5S88.563,290.894,88.313,288.894z"/>
		<path fill="#5B3F28" d="M65.813,291.394c0,0,1.5,5.75-0.75,6.5s-6.25,0.75-7.25,0.75s-7.5,0.25-9.75-1.25s-4-3-4-4.25
			s-1.25-3.25,0.75-4s5.75-1.5,6.75-1.75s2.5-1.75,4.5-1.25s4.75,0.75,5.25,1.5s1.75,2.5,1.75,2.5L65.813,291.394z"/>
		<path fill="#5B3F28" d="M15.063,267.894c0.75,0,9,2.5,9,2.5s-0.25,4.75-2,6.25s-1,4.75-7,3.5s-10.5,1.5-12-0.5s-4.25-2.75-2.5-6
			s4.25-4,4.25-4s-0.75-2.25,2.5-2.5S15.063,267.894,15.063,267.894z"/>
	</g>
</g>
</svg>
