<?xml version="1.0" encoding="utf-8"?>
<!-- Generator: Adobe Illustrator 14.0.0, SVG Export Plug-In . SVG Version: 6.00 Build 43363)  -->
<!DOCTYPE svg PUBLIC "-//W3C//DTD SVG 1.1//EN" "http://www.w3.org/Graphics/SVG/1.1/DTD/svg11.dtd">
<svg version="1.1" id="图层_1" xmlns="http://www.w3.org/2000/svg" xmlns:xlink="http://www.w3.org/1999/xlink" x="0px" y="0px"
	 width="418.035px" height="387.503px" viewBox="0 0 418.035 387.503" enable-background="new 0 0 418.035 387.503"
	 xml:space="preserve">
<path opacity="0.5" fill="none" stroke="#D1D16B" stroke-width="3" stroke-linecap="round" stroke-dasharray="5.6693,5.6693" d="
	M115.755,41.559C99.766,4.25,58.323-1.343,35.832,5.187C13.341,11.716-2.391,35.51,36.788,64.531
	c19.591,23.217-8.643,60.667-18.074,86.061c-9.433,25.393-5.804,56.59-5.078,83.436c0.725,26.844-13.061,44.258-9.433,81.984
	c3.628,37.73,30.721,74.199,87.622,67.734c54.736-6.221,62.217-37.33,127.782-18.186c70.313,20.527,99.162,29.314,135.438-4.787
	c36.277-34.1,69.395-109.117,51.102-158.669c-16.969-45.966-46.086-52.117-32.916-66.265c12.479-13.401,37.994-1.935,41.621-28.78
	c3.629-26.844-56.59-42.081-100.121-34.825c-43.533,7.255-53.691,42.806-68.201,52.963s-39.903,11.608-59.493-5.079
	c-19.589-16.687-34.1-18.864-54.414-20.315C112.308,98.354,130.991,77.11,115.755,41.559z"/>
</svg>
