<?xml version="1.0" encoding="utf-8"?>
<!-- Generator: Adobe Illustrator 14.0.0, SVG Export Plug-In . SVG Version: 6.00 Build 43363)  -->
<!DOCTYPE svg PUBLIC "-//W3C//DTD SVG 1.1//EN" "http://www.w3.org/Graphics/SVG/1.1/DTD/svg11.dtd">
<svg version="1.1" id="图层_1" xmlns="http://www.w3.org/2000/svg" xmlns:xlink="http://www.w3.org/1999/xlink" x="0px" y="0px"
	 width="366.025px" height="269.168px" viewBox="0 0 366.025 269.168" enable-background="new 0 0 366.025 269.168"
	 xml:space="preserve">
<g>
	<path fill-rule="evenodd" clip-rule="evenodd" fill="#FFFFFF" d="M303.388,242.496c0,0,5.881-24.705-21.763-25.881
		c-27.643-1.174-71.164-7.645-76.458-7.645c-5.293,0-77.05-46.463-96.457-56.463c-19.408-9.999-28.82-28.82-55.287-18.821
		c-26.467,9.999-48.409,24.268-49.494,35.954c-1.086,11.687,2.442,43.446,7.737,56.975c5.293,13.527,16.469,28.231,20.583,29.995
		c4.118,1.766,45.876,7.648,49.994-12.938c4.116-20.586-21.173-31.76-21.173-31.76s-14.116-37.641,1.174-45.875
		c15.293-8.235,13.53-5.883,19.409,9.996c5.884,15.881,16.47,38.818,44.113,40.582c6.469-1.174,9.997,0.589,6.469,10.588
		c-3.529,9.998,14.705,21.175,35.289,21.762c20.585,0.588,48.816-1.764,58.228,2.353c9.412,4.117,22.938,14.703,38.818,12.352
		C280.449,261.316,288.097,261.316,303.388,242.496z"/>
	<path fill="#FFFFFF" d="M321.129,77.918c0,0,10.021,25.93,11.507,26.844c1.488,0.91,10.322,1.291,12.454,4.87
		c2.132,3.583,0.297,4.329,2.991,7.008c0,0,10.308,1.949,12.962,7.975c2.65,6.027,4.321,17.726,1.935,25.128
		c-2.387,7.399-7.64,11.932-10.027,13.128c-2.388,1.193-5.014,3.58-5.014,3.58l9.074,17.666c0,0-9.55,22.203-23.876,21.01
		c-14.322-1.195-31.032-12.178-43.925-10.267c-12.892,1.909-21.485,4.537-27.452,3.345c-5.969-1.194-6.687,8.115-6.687,8.115
		l-20.528,10.027c0,0-59.923,2.389-36.047-47.983C222.368,117.991,297.184,26.146,321.129,77.918z"/>
	<path fill="#C99A66" d="M43.587,43.7C21.675,60.796,16.197,73.478,21.07,97.629c4.872,24.147,1.785,54.584-11.449,69.582
		c-13.233,14.998-3.036,37.498-3.036,37.498s8.33,8.819,22.005-0.885c13.674-9.705,36.612-45.877,41.905-46.317
		c5.294-0.441,17.645,10.587,34.849,22.056c17.203,11.469,23.692,20.043,24.417,32.959c0.727,12.917-2.361,18.651-1.921,22.621
		c0.44,3.971,12.352,11.027,19.851,7.94c7.499-3.088,29.113-9.264,54.257-2.647c25.143,6.617,41.464,7.059,41.464-7.057
		c0-14.116-14.115-18.969-16.762-18.969c-2.647,0-31.76-8.381-31.76-11.469s2.043-12.1,10.284-15.091
		c8.242-2.995,19.711-20.198,10.007-27.257c-9.705-7.057-11.91-11.027,4.411-9.704s24.262,6.175,37.053-17.203
		c12.793-23.379,13.676-26.908,22.497-15.88c8.822,11.028,21.174,19.85,29.555,22.938c8.382,3.088,25.584-4.411,18.968-12.792
		c-6.617-8.381-14.556-18.968-12.351-29.113c2.205-10.146,5.815-19.744,5.815-19.744l-6.698-15.104l-20.291-1.764l-40.141-7.058
		l-31.761,15.438l-29.555-8.381l-14.557,3.528l-3.529,14.999l-2.205,19.85l-17.203-23.379L128.28,39.288
		C128.28,39.288,83.729,12.381,43.587,43.7z"/>
	<path fill-rule="evenodd" clip-rule="evenodd" fill="#E5ACCB" d="M297.77,21.968l-33.982,10.062l-5.338,20.65
		c0,0,10.518,4.688,21.846,8.017c11.324,3.327,21.932,0.117,21.932,0.117S292.328,57.324,297.77,21.968z"/>
	<path fill-rule="evenodd" clip-rule="evenodd" fill="#E5ACCB" d="M212.281,119.151c0,0-5.531,11.446-2.768,22.41
		c-8.199,2.496-20.578,0.828-18.938-4.132C192.216,132.472,212.281,119.151,212.281,119.151z"/>
	<g>
		<path fill-rule="evenodd" clip-rule="evenodd" d="M61.97,86.73c5.541-0.343,12.089,0.055,12.961,6.979
			c1.665,13.206-25.599,17.172-26.917,3.989C47.309,90.637,51.311,87.396,61.97,86.73z"/>
		<path fill-rule="evenodd" clip-rule="evenodd" d="M280.295,96.7c-11.74,6.207-22.26,13.633-22.931,30.906
			c-6.541-0.104-3.15-10.141-3.987-15.951C257.653,102.793,266.359,89.458,280.295,96.7z"/>
		<path fill-rule="evenodd" clip-rule="evenodd" d="M67.952,110.658c6.886-2.004,13.976-2.061,14.953,4.985
			C85.693,135.734,42.009,118.21,67.952,110.658z"/>
		<path fill-rule="evenodd" clip-rule="evenodd" fill="#FFFFFF" d="M322.162,114.646c0.998,0,1.996,0,2.991,0
			c0.425,2.082-0.682,2.64-0.995,3.987C322.403,118.395,321.883,116.919,322.162,114.646z"/>
		<path fill-rule="evenodd" clip-rule="evenodd" d="M289.265,126.61c17.08,4.461,11.804,30.951-2.989,29.906
			c-6.027-0.423-11.202-6.737-11.963-11.963c-1.916-13.156,10.041-17.112,17.943-21.932
			C297.022,122.957,291.212,126.691,289.265,126.61z M291.259,128.604c-16.603-4.55-22.339,25.582-2.99,25.919
			c-2.455-2.023-6.654-20.313,3.987-19.939C302.557,143.604,296.166,129.948,291.259,128.604z M289.265,141.561
			c0.998,0,1.994,0,2.991,0c0.279-2.271-0.239-3.746-1.993-3.987C289.949,138.923,288.845,139.478,289.265,141.561z"/>
		<path fill-rule="evenodd" clip-rule="evenodd" d="M349.077,123.619c3.836,2.81,2.997,10.295,2.991,16.946
			c-1.168-0.161-0.84-1.818-0.996-2.992c-4.351,2.233,3.347,6.439,0.996,12.96c-2.191,1.134-3.312,3.335-5.982,3.989
			c-4.339-0.643-4.783-5.185-8.971-5.982c-1.526,4.85,2.896,3.755,2.991,6.979c-14.115,0.513-25.794-5.671-20.935-20.936
			C326.648,128.435,334.767,122.931,349.077,123.619z M332.131,142.559c7.64-3.327,12.997-8.934,16.946-15.949
			C341.131,121.711,329.248,133.454,332.131,142.559z"/>
		<path fill-rule="evenodd" clip-rule="evenodd" fill="#FFFFFF" d="M349.077,126.61c-3.949,7.015-9.307,12.622-16.946,15.949
			C329.248,133.454,341.131,121.711,349.077,126.61z"/>
		<path fill-rule="evenodd" clip-rule="evenodd" fill="#FFFFFF" d="M290.263,137.574c1.754,0.242,2.272,1.716,1.993,3.987
			c-0.997,0-1.993,0-2.991,0C288.845,139.478,289.949,138.923,290.263,137.574z"/>
		<path fill-rule="evenodd" clip-rule="evenodd" d="M174.62,179.443c9.584-0.602,15.774,2,15.952,8.973
			c0.367,14.336-30.265,16.518-32.898,4.984C155.063,181.968,165.109,180.043,174.62,179.443z"/>
		<path fill-rule="evenodd" clip-rule="evenodd" d="M308.207,0c1.328,0,2.659,0,3.985,0c0,0.334,0,0.667,0,0.998
			c16.021,4.251,32.358,8.184,42.868,17.944c-14.527,6.741-33.725,8.811-54.83,8.974c-4.289,9.166-4.129,25.971,1.996,32.897
			c6.248,1.061,7.206,2.194,12.958,0c10.693,15.892,8.697,44.472,32.896,46.854c1.23,2.819,1.23,6.153,0,8.972
			c13.565,0.062,17.104,10.144,17.944,22.927c0,0.667,0,1.331,0,1.994c0.287,14.245-8.777,19.136-16.948,24.925
			c3.392,5.582,6.751,11.193,9.97,16.945c-6.765,10.157-12.603,21.746-24.923,22.93c-14.845,1.428-29.923-13.34-47.849-9.969
			c-6.373,5.215-14.594,4.279-24.922,3.986c-3.981,7.318-11.094,11.504-17.943,15.951c30.044-4.023,60.767-10.547,61.842,23.191
			c0.047,1.494,0.036,3.066-0.035,4.721c-5.616,5.855-7.371,10.542-14.954,15.953c-7.804,5.569-18.439,1.909-27.914,8.972
			c-0.995,0-1.994,0-2.99,0c-8.061-1.002-27.342-15.968-37.88-17.942c-10.656-1.997-24.357,1.021-34.894,0.996
			c-13.506-0.035-54.043-4.165-58.818-13.959c-2.813-5.768,1.554-13.428,0.995-17.943c-35.811-2.068-42.92-32.844-55.827-57.821
			c-6.208,2.228-12.946,8.453-14.952,14.953c-2.062,6.685-2.275,21.896,1.995,29.907c4.166,7.825,17.571,7.412,20.934,17.943
			c11.013,34.499-26.513,39.812-50.843,33.896c-4.503-10.535-17.693-19.076-21.933-31.901c-2.195-6.646-2.46-16.888-3.985-25.919
			c-1.417-8.4-4.942-18.102-3.989-24.924c2.062-14.729,16.985-20.026,19.94-36.886c4.849-27.679-8.712-56.274,1.992-78.754
			C35.247,33.187,94.797,9.188,130.758,37.882c15.576,12.433,22.367,38.181,35.888,53.833c0.655,0.76,2.412,5.677,4.983,2.991
			c2.544-9.13-0.396-19.486,1.995-25.918c6.649-17.881,32.601-8.948,45.858-1.994c6.146-4.951,12.482-3.791,16.949-8.973
			c10.723-12.444,6.984-35.975,22.927-42.867c7.675-3.315,13.816-0.41,21.933-1.994C291.025,11.064,297.832,1.802,308.207,0z
			 M140.727,60.813c1.295,5.581-10.424,7.773-5.982,9.968c11.26,2.004,18.648,4.325,18.94,11.961
			c0.638,16.492-42.357,20.126-42.865,2.992c-0.173-5.802,3.798-5.781,5.982-10.964c-20.269,0.899-44.849-0.822-41.871-17.946
			c2.871-16.509,36.447-17.312,52.836-13.958c-14.713-10.59-30.721-14.641-47.853-12.958C64.439,31.43,35.74,43.638,27.078,60.813
			c-10.833,21.48,1.725,52.889-1.993,78.754c-2.073,14.435-16.966,26.354-18.94,36.886c-1.174,6.254,2.05,15.17,2.99,22.93
			c0.914,7.545,0.173,17.125,1.992,22.93c3.574,11.398,18.807,17.992,17.945,28.912c4.894,3.746,11.31,5.966,20.936,4.981
			c2.257-15.555-3.602-28.29-7.975-33.894c10.986,4.301,13.302,17.27,11.962,33.894c4.76,0.77,6.416-1.558,10.965-0.996
			c4.439-14.604-2.105-31.64-7.975-35.888c11.49,4.125,11.276,19.963,12.962,33.896c11.749-6.094,3.111-27.582-1.995-34.894
			c7.344,4.286,7.72,15.542,10.966,23.924c4.469-17.603-7.418-26.11-20.936-28.908c-3.146-11.878-9.271-27.981-4.984-37.883
			c6.873-15.872,28.604-28.121,32.898-53.833c1.909-11.43-1.672-20.876,4.985-30.906c1.372,29.62-4.862,51.631-16.948,67.791
			c16.625,19.595,14.965,57.479,55.827,52.838c2.726-5.582-0.143-16.76,3.987-20.938c2.241,16.278,4.446,31.228-2.99,42.867
			c20.474,15.751,58.992,13.454,94.708,13.959c10.384,7.94,28.954,20.084,45.854,11.962c2.64-14.605-8.508-20.726-11.962-25.921
			c13.462,0.833,15.788,12.794,16.947,25.921c4.679-0.64,9.33-1.304,11.963-3.987c-0.233-15.052-3.594-26.979-14.952-30.905
			c16.063-0.443,13.105,18.133,19.936,26.92c7.953-8.554-2.455-28.969-12.957-31.902c13.45,0.838,14.693,13.881,18.94,23.924
			c4.775-41.076-32.922-20.855-59.813-23.924c-19.197-2.189-30.104-14.72-43.867-11.965c15.191,6.241-7.536,21.33-14.952,10.968
			c-2.013-2.306-1.017-7.647,0.995-8.974c-5.245,0.428-10.005,6.582-12.961,5.982c4.993-6.971,13.001-10.928,23.928-11.963
			c7.661-26.86-8.361-43.286-19.938-50.842c20.255,4.67,27.157,22.692,23.926,50.842c17.434,0.18,27.396,7.832,40.877,11.963
			c7.734-4.892,17.156-8.097,21.929-15.951c-8.35-2.283-17.059-4.209-17.943-13.958c6.266,7.481,13.867,12.13,27.913,11.964
			c5.59-0.064,11.362-3.454,17.945-3.988c17.787-1.436,33.775,12.967,48.847,9.971c9.585-1.906,15.753-14.957,18.94-21.934
			c-2.564-4.413-5.222-8.734-7.977-12.957c-1.588,2.729-3.721,4.918-4.983,7.973c1.801,2.521,6.122,2.521,6.977,5.981
			c-4.842,17.513-32.253,9.989-40.87,0.997c-4.002-1.102-7.941-0.057-9.97-0.997c-0.095-4.083,0.14-7.839,3.989-7.974
			c0.724,3.048-1.72,2.931-0.998,5.98c12.335,0.638,26.018,5.599,34.892,0c9.305-5.865,7.554-26.55,21.931-22.93
			c5.38-6.322,4.629-22.717,2.992-32.897c-10.25-12.837-25.965,1.859-35.89,0c-13.516-2.531-12.042-22.588-20.936-31.902
			c6.554,1.758,7.075,9.542,10.967,13.958c1.692-2.335,7.705-5.537,8.974-4.985c-4.186,5.891,11.424,6.44,7.973,17.946
			c3.896-2.088,10.567-1.396,12.959-4.985c0.593-7.24-6.203-7.087-10.966-8.974c-9.054-3.643-11.329-37.457-20.933-36.885
			c-6.421,0.382-2.621,7.885-8.974,9.969c-0.582-6.564,0.421-11.542,2.992-14.955c-24.082,4.561-47.643-14.265-67.787-1.994
			c2.35,0.974,6.32,0.323,5.979,3.987c-1.913,5.354-10.418,6.162-14.953,5.983c5.665,9.622,17.63,12.938,19.937,25.919
			c-14.536,13.323-44.776,15.317-40.872,43.863c-2.468-3.535,0-14.977-0.996-16.946c-5.007,5.627-13.189,8.078-17.945,13.956
			c5.688,4.29,23.317,1.93,23.928,7.976c-7.533-3.434-21.146-0.789-24.925-7.976c-4.495,1.776-9.492,4.764-12.959,0
			c14.942-2.218,24.082-13.103,33.895-20.934c10.516-8.392,21.506-13.966,32.899-21.932c-13.833-16.408-28.479-32.003-59.816-30.904
			c-10.348,3.894-3.49,15.744-3.988,24.921c-0.867,15.983-14.944,30.049-11.963,47.852c19.494,5.43,25.307,24.54,51.84,22.93
			c-10.065,11.032-24.337-1.412-35.889-7.975c-8.715-4.954-20.442-11.323-21.931-17.946c-2.744-12.177,6.82-18.994,7.974-31.9
			C160.429,88.297,151.031,74.104,140.727,60.813z M264.342,53.833c8.685,3.286,22.704,6.534,32.897,4.985
			c-4.718-8.209-2.482-20.87-0.996-30.902C275.9,26.461,258.152,31.971,264.342,53.833z M345.09,183.432
			c-6.154-4.124-21.54,5.137-31.898,0.996C319.396,190.646,342.802,198.851,345.09,183.432z M330.137,112.653
			c-2.567-4.077-6.185-7.108-13.955-5.982c-0.136,4.124,2.266,5.709,3.989,7.976C320.624,109.232,329.683,113.13,330.137,112.653z
			 M324.158,118.634c0.313-1.348,1.42-1.906,0.995-3.987c-0.995,0-1.993,0-2.991,0C321.883,116.919,322.403,118.395,324.158,118.634
			z"/>
		<path fill-rule="evenodd" clip-rule="evenodd" fill="#FFFFFF" d="M313.191,184.428c10.358,4.141,25.744-5.12,31.898-0.996
			C342.802,198.851,319.396,190.646,313.191,184.428z"/>
		<path fill-rule="evenodd" clip-rule="evenodd" fill="#FFFFFF" d="M320.171,114.646c-1.724-2.267-4.125-3.853-3.989-7.976
			c7.771-1.125,11.388,1.905,13.955,5.982C329.683,113.13,320.624,109.232,320.171,114.646z"/>
		<path fill-rule="evenodd" clip-rule="evenodd" fill="#FFFFFF" d="M292.256,134.583c-10.642-0.374-6.442,17.917-3.987,19.939
			c-19.349-0.337-13.612-30.469,2.99-25.919C296.166,129.948,302.557,143.604,292.256,134.583z"/>
	</g>
	
		<radialGradient id="SVGID_1_" cx="105.3438" cy="30.1733" r="0" gradientTransform="matrix(1 0 0 0.5234 0 14.3792)" gradientUnits="userSpaceOnUse">
		<stop  offset="0" style="stop-color:#8AC43F"/>
		<stop  offset="1" style="stop-color:#8AC43F;stop-opacity:0"/>
	</radialGradient>
	<path fill="url(#SVGID_1_)" d="M105.344,30.173"/>
</g>
</svg>
