<?xml version="1.0" encoding="utf-8"?>
<!-- Generator: Adobe Illustrator 14.0.0, SVG Export Plug-In . SVG Version: 6.00 Build 43363)  -->
<!DOCTYPE svg PUBLIC "-//W3C//DTD SVG 1.1//EN" "http://www.w3.org/Graphics/SVG/1.1/DTD/svg11.dtd">
<svg version="1.1" id="图层_1" xmlns="http://www.w3.org/2000/svg" xmlns:xlink="http://www.w3.org/1999/xlink" x="0px" y="0px"
	 width="76.84px" height="40.766px" viewBox="0 0 76.84 40.766" enable-background="new 0 0 76.84 40.766" xml:space="preserve">
<g>
	<path fill-rule="evenodd" clip-rule="evenodd" fill="#FFFFFF" d="M6.215,1.216c0,0,9.139-1.687,20.34,4.141
		c11.201,5.826,20.891,8.218,30.842,5.442c9.951-2.774,18.697,6.054,17.807,12.94c-0.889,6.885-3.854,11.118-12.896,13.193
		c-9.043,2.076-13.508,0.357-22.756-3.41c-9.251-3.768-9.9-5.188-22.035-6.078C5.38,26.555,0,24.382,0,24.382
		S2.273,2.269,6.215,1.216z"/>
	<path fill="#C99A66" d="M12.159,0.99c0,0,6.936,2.37,18.156,7.021s26.22,3.598,26.22,3.598s4.501,0.553-1.999,7.803
		s-11.5,11-24.5,5.25S3.909,13.075,3.909,13.075S-1.744,3.379,12.159,0.99z"/>
	<path fill-rule="evenodd" clip-rule="evenodd" d="M0,24.382c3.109-1.685,5.283,0.597,8.475,1.13
		c6.781,1.131,15.55-0.585,22.602,1.695c7.818,2.527,16.033,14.747,25.989,7.909c0.46-7.429-2.257-11.68-6.78-14.125
		c6.621-1.441,10.894,7.059,9.039,14.125c2.408,1.553,5.721-0.098,7.346-1.131c0.273-8.935-1.318-16.008-7.91-18.079
		c7.473-0.877,9.064,9.014,10.17,16.385c5.897-3.348,0.326-18.889-6.779-18.645c6.497-0.656,10.787,5.783,10.17,14.124
		c4.171-8.248-2.206-16.076-9.605-16.949c-7.162-0.845-14.474,2.286-21.469,1.13C28.234,9.805,17.647-0.364,5.086,2.346
		c0.25-0.501,0.495-1.009,1.129-1.13c12.838-5.086,23.602,7.313,36.16,9.04c9.619,1.325,21.994-3.871,28.814,1.13
		c4.566,3.351,4.992,10.334,5.65,15.821c-2.283,1.615-2.965,5.449-5.086,7.344c-0.704,0.63-2.633,0.363-3.953,1.13
		c-1.904,1.107-2.195,2.504-3.391,2.825c-1.611,0.433-3.201-0.835-5.65-0.564c-2.873,0.317-5.281,2.845-7.345,2.824
		c-6.847-0.064-13.536-8.132-20.339-10.735C19.645,25.658,7.988,31.985,0,24.382z"/>
</g>
</svg>
