<?xml version="1.0" encoding="utf-8"?>
<!-- Generator: Adobe Illustrator 14.0.0, SVG Export Plug-In . SVG Version: 6.00 Build 43363)  -->
<!DOCTYPE svg PUBLIC "-//W3C//DTD SVG 1.1//EN" "http://www.w3.org/Graphics/SVG/1.1/DTD/svg11.dtd">
<svg version="1.1" id="图层_1" xmlns="http://www.w3.org/2000/svg" xmlns:xlink="http://www.w3.org/1999/xlink" x="0px" y="0px"
	 width="154.008px" height="52.77px" viewBox="0 0 154.008 52.77" enable-background="new 0 0 154.008 52.77" xml:space="preserve">
<g>
	<path d="M20.195,37.336c-1.406,1.313-2.78,2.262-4.121,2.848c-1.342,0.586-2.78,0.879-4.316,0.879
		c-3.151,0-5.898-1.189-8.242-3.568S0,32.074,0,28.371c0-3.727,1.295-7.131,3.887-10.213c2.591-3.082,5.931-4.623,10.02-4.623
		c2.552,0,4.648,0.727,6.289,2.18v-4.781c0-2.953-0.078-4.77-0.234-5.449s-0.397-1.143-0.723-1.389
		c-0.326-0.246-0.749-0.369-1.27-0.369c-0.547,0-1.264,0.152-2.148,0.457l-0.43-1.02L23.984,0h1.406v29.988
		c0,3.023,0.078,4.875,0.234,5.555s0.41,1.148,0.762,1.406s0.762,0.387,1.23,0.387c0.547,0,1.289-0.164,2.227-0.492l0.352,1.02
		l-8.555,3.199h-1.445V37.336z M20.195,35.367V22.008c-0.104-1.289-0.476-2.461-1.113-3.516c-0.639-1.055-1.472-1.852-2.5-2.391
		c-1.029-0.539-2.038-0.809-3.027-0.809c-1.85,0-3.503,0.75-4.961,2.25c-1.901,1.945-2.852,4.805-2.852,8.578
		c0,3.82,0.924,6.744,2.773,8.771c1.849,2.027,3.906,3.041,6.172,3.041C16.588,37.934,18.424,37.078,20.195,35.367z"/>
	<path d="M46.133,13.57c4.375,0,7.877,1.488,10.508,4.465C58.88,20.59,60,23.52,60,26.824c0,2.32-0.619,4.664-1.855,7.031
		c-1.237,2.367-2.937,4.16-5.098,5.379c-2.162,1.219-4.584,1.828-7.266,1.828c-4.323,0-7.773-1.559-10.352-4.676
		c-2.136-2.625-3.203-5.566-3.203-8.824c0-2.391,0.65-4.758,1.953-7.102c1.302-2.344,3.021-4.078,5.156-5.203
		C41.471,14.133,43.736,13.57,46.133,13.57z M45.156,15.398c-1.094,0-2.207,0.299-3.34,0.896s-2.045,1.641-2.734,3.129
		c-0.69,1.488-1.035,3.404-1.035,5.748c0,3.773,0.833,7.025,2.5,9.756c1.666,2.73,3.867,4.096,6.602,4.096
		c2.031,0,3.704-0.75,5.02-2.25c1.314-1.5,1.973-4.09,1.973-7.77c0-4.617-1.094-8.25-3.281-10.898
		C49.375,16.301,47.474,15.398,45.156,15.398z"/>
	<path d="M71.953,30.797c-1.771-0.773-3.125-1.852-4.063-3.234s-1.406-2.918-1.406-4.605c0-2.555,1.074-4.758,3.223-6.609
		s4.902-2.777,8.262-2.777c2.734,0,5.104,0.598,7.109,1.793h6.094c0.911,0,1.438,0.023,1.582,0.07
		c0.143,0.047,0.254,0.129,0.332,0.246c0.13,0.188,0.195,0.492,0.195,0.914c0,0.492-0.053,0.832-0.156,1.02
		c-0.078,0.094-0.195,0.17-0.352,0.229s-0.69,0.088-1.602,0.088h-3.711c1.172,1.359,1.758,3.094,1.758,5.203
		c0,2.414-1.029,4.482-3.086,6.205c-2.058,1.723-4.818,2.584-8.281,2.584c-1.433,0-2.891-0.199-4.375-0.598
		c-0.912,0.727-1.53,1.359-1.855,1.898c-0.326,0.539-0.488,0.996-0.488,1.371c0,0.328,0.169,0.639,0.508,0.932
		c0.338,0.293,1.016,0.51,2.031,0.65c0.599,0.07,2.07,0.141,4.414,0.211c4.322,0.094,7.122,0.223,8.398,0.387
		c1.953,0.234,3.509,0.885,4.668,1.951c1.158,1.066,1.738,2.373,1.738,3.92c0,2.133-1.107,4.125-3.32,5.977
		c-3.281,2.766-7.553,4.148-12.813,4.148c-4.037,0-7.461-0.82-10.273-2.461c-1.563-0.938-2.344-1.922-2.344-2.953
		c0-0.445,0.117-0.902,0.352-1.371c0.364-0.68,1.094-1.641,2.188-2.883c0.156-0.188,1.224-1.207,3.203-3.059
		c-1.068-0.586-1.83-1.113-2.285-1.582c-0.456-0.469-0.684-0.996-0.684-1.582c0-0.656,0.299-1.43,0.898-2.32
		C68.411,33.668,69.791,32.414,71.953,30.797z M71.641,40.254c-0.99,0.961-1.738,1.857-2.246,2.689s-0.762,1.6-0.762,2.303
		c0,0.891,0.611,1.676,1.836,2.355c2.083,1.172,5.117,1.758,9.102,1.758c3.75,0,6.523-0.598,8.32-1.793s2.695-2.473,2.695-3.832
		c0-0.984-0.534-1.688-1.602-2.109c-1.094-0.398-3.256-0.633-6.484-0.703C77.786,40.805,74.166,40.582,71.641,40.254z
		 M77.422,14.941c-1.563,0-2.865,0.557-3.906,1.67c-1.042,1.113-1.563,2.818-1.563,5.115c0,2.977,0.703,5.285,2.109,6.926
		c1.094,1.242,2.486,1.863,4.18,1.863c1.588,0,2.896-0.539,3.926-1.617c1.028-1.078,1.543-2.766,1.543-5.063
		c0-3-0.729-5.344-2.188-7.031C80.455,15.563,79.088,14.941,77.422,14.941z"/>
	<path d="M135.82,14.267h9.375c0.123,0,0.437-0.393,0.938-1.182c0.498-1.013,0.938-1.574,1.313-1.688
		c3.375,0.902,5.561,2.308,6.563,4.219c-0.126,0.113-0.375,0.282-0.75,0.507c-0.627,0.45-0.938,0.788-0.938,1.012
		c0,8.101,0,14.007,0,17.719c-0.126,3.603-0.252,5.511-0.375,5.738c-0.627,1.35-2.063,2.417-4.313,3.206
		c-2.625,0.675-3.938,0.506-3.938-0.507c0.123-1.35-1.002-2.42-3.375-3.206c-0.627-0.224-0.563-0.337,0.188-0.337
		c2.748,0,4.5-0.28,5.25-0.844c0.498-0.338,0.812-1.968,0.938-4.895c0.123-2.586,0.188-8.886,0.188-18.899h-11.438
		c-0.627,0.788-1.377,1.688-2.25,2.7c-0.876,1.35-1.438,2.138-1.688,2.362c0.375,0.113,0.938,0.282,1.688,0.506
		c0.75,0.338,1.5,0.507,2.25,0.507h2.438l0.375-0.676c0.249-0.448,0.498-0.785,0.75-1.012c2.625,0.45,4.436,1.294,5.438,2.531
		c0,0.227-0.126,0.506-0.375,0.844c-0.501,0.45-0.688,0.844-0.563,1.181v8.775c0,1.013-0.75,1.632-2.25,1.856
		c-1.875,0.45-2.689,0-2.438-1.351v-1.519h-3.938v2.025c0.123,1.012-0.938,1.576-3.188,1.688c-1.125,0.227-1.564-0.169-1.313-1.182
		V21.354c-1.002,1.013-2.188,2.025-3.563,3.038c-0.252,0.227-0.439,0.337-0.563,0.337c0.75,8.214,0.311,13.782-1.313,16.707
		c-0.876,1.236-2.376,2.136-4.5,2.699c-1.875,0.225-2.751-0.227-2.625-1.35c0.123-1.239-0.938-2.083-3.188-2.531
		c-0.75-0.11-0.688-0.224,0.188-0.338c2.625-0.11,4.313-0.337,5.063-0.675c1.749-1.461,2.438-5.399,2.063-11.813
		c-6.126,5.4-9.064,7.425-8.813,6.075c4.374-4.949,6.999-9.561,7.875-13.838c-0.252-0.562-0.313-0.729-0.188-0.506
		c-0.375-1.123-0.563-1.798-0.563-2.025c-5.877,3.489-8.25,4.67-7.125,3.544c3.123-2.586,5.124-4.556,6-5.906
		c-1.125-2.024-2.689-3.768-4.688-5.231c0-0.785,2.186,0,6.563,2.363c0.624-0.899,1.5-2.418,2.625-4.557V7.179
		c0.123-1.013,0.812-1.236,2.063-0.675c3.75,2.025,4.811,3.319,3.188,3.881l-0.563,0.338c-0.876,0.564-2.127,1.632-3.75,3.206
		c-0.252,0.227-0.501,0.451-0.75,0.675c1.374,2.363,2.124,5.345,2.25,8.944c3-2.7,5.25-8.211,6.75-16.538V6.673
		c-0.126-1.013,0.563-1.405,2.063-1.182c5.373,1.351,6.938,2.362,4.688,3.038l-0.375,0.168C138.445,9.6,137.32,11.456,135.82,14.267
		z M134.883,23.379v7.763h3.938V21.86h-2.625C135.193,21.86,134.757,22.366,134.883,23.379z"/>
</g>
</svg>
