<?xml version="1.0" encoding="utf-8"?>
<!-- Generator: Adobe Illustrator 14.0.0, SVG Export Plug-In . SVG Version: 6.00 Build 43363)  -->
<!DOCTYPE svg PUBLIC "-//W3C//DTD SVG 1.1//EN" "http://www.w3.org/Graphics/SVG/1.1/DTD/svg11.dtd">
<svg version="1.1" id="图层_1" xmlns="http://www.w3.org/2000/svg" xmlns:xlink="http://www.w3.org/1999/xlink" x="0px" y="0px"
	 width="143.671px" height="52.77px" viewBox="0 0 143.671 52.77" enable-background="new 0 0 143.671 52.77" xml:space="preserve">
<g>
	<path fill="#EB1B23" d="M20.195,37.336c-1.406,1.313-2.78,2.262-4.121,2.848c-1.342,0.586-2.78,0.879-4.316,0.879
		c-3.151,0-5.898-1.189-8.242-3.568S0,32.074,0,28.371c0-3.727,1.295-7.131,3.887-10.213c2.591-3.082,5.931-4.623,10.02-4.623
		c2.552,0,4.648,0.727,6.289,2.18v-4.781c0-2.953-0.078-4.77-0.234-5.449s-0.397-1.143-0.723-1.389
		c-0.326-0.246-0.749-0.369-1.27-0.369c-0.547,0-1.264,0.152-2.148,0.457l-0.43-1.02L23.984,0h1.406v29.988
		c0,3.023,0.078,4.875,0.234,5.555s0.41,1.148,0.762,1.406s0.762,0.387,1.23,0.387c0.547,0,1.289-0.164,2.227-0.492l0.352,1.02
		l-8.555,3.199h-1.445V37.336z M20.195,35.367V22.008c-0.104-1.289-0.476-2.461-1.113-3.516c-0.639-1.055-1.472-1.852-2.5-2.391
		c-1.029-0.539-2.038-0.809-3.027-0.809c-1.85,0-3.503,0.75-4.961,2.25c-1.901,1.945-2.852,4.805-2.852,8.578
		c0,3.82,0.924,6.744,2.773,8.771c1.849,2.027,3.906,3.041,6.172,3.041C16.588,37.934,18.424,37.078,20.195,35.367z"/>
	<path d="M41.992,13.57v20.813c0,1.641,0.13,2.725,0.391,3.252c0.26,0.527,0.645,0.926,1.152,1.195s1.451,0.404,2.832,0.404v1.02
		H32.383v-1.02c1.406,0,2.35-0.123,2.832-0.369c0.481-0.246,0.859-0.65,1.133-1.213s0.41-1.652,0.41-3.27v-9.984
		c0-2.813-0.092-4.629-0.273-5.449c-0.156-0.609-0.391-1.031-0.703-1.266s-0.742-0.352-1.289-0.352
		c-0.573,0-1.276,0.141-2.109,0.422l-0.469-1.02l8.672-3.164H41.992z M39.375,0c0.885,0,1.634,0.281,2.246,0.844
		c0.611,0.563,0.918,1.242,0.918,2.039c0,0.773-0.307,1.447-0.918,2.021c-0.612,0.574-1.361,0.861-2.246,0.861
		c-0.886,0-1.641-0.287-2.266-0.861s-0.938-1.248-0.938-2.021c0-0.797,0.306-1.477,0.918-2.039C37.701,0.281,38.463,0,39.375,0z"/>
	<path fill="#EB1B23" d="M57.656,30.797c-1.771-0.773-3.125-1.852-4.063-3.234s-1.406-2.918-1.406-4.605
		c0-2.555,1.074-4.758,3.223-6.609s4.902-2.777,8.262-2.777c2.734,0,5.104,0.598,7.109,1.793h6.094c0.911,0,1.438,0.023,1.582,0.07
		c0.143,0.047,0.254,0.129,0.332,0.246c0.13,0.188,0.195,0.492,0.195,0.914c0,0.492-0.053,0.832-0.156,1.02
		c-0.078,0.094-0.195,0.17-0.352,0.229s-0.69,0.088-1.602,0.088h-3.711c1.172,1.359,1.758,3.094,1.758,5.203
		c0,2.414-1.029,4.482-3.086,6.205c-2.058,1.723-4.818,2.584-8.281,2.584c-1.433,0-2.891-0.199-4.375-0.598
		c-0.912,0.727-1.53,1.359-1.855,1.898c-0.326,0.539-0.488,0.996-0.488,1.371c0,0.328,0.169,0.639,0.508,0.932
		c0.338,0.293,1.016,0.51,2.031,0.65c0.599,0.07,2.07,0.141,4.414,0.211c4.322,0.094,7.122,0.223,8.398,0.387
		c1.953,0.234,3.509,0.885,4.668,1.951c1.158,1.066,1.738,2.373,1.738,3.92c0,2.133-1.107,4.125-3.32,5.977
		c-3.281,2.766-7.553,4.148-12.813,4.148c-4.037,0-7.461-0.82-10.273-2.461c-1.563-0.938-2.344-1.922-2.344-2.953
		c0-0.445,0.117-0.902,0.352-1.371c0.364-0.68,1.094-1.641,2.188-2.883c0.156-0.188,1.224-1.207,3.203-3.059
		c-1.068-0.586-1.83-1.113-2.285-1.582c-0.456-0.469-0.684-0.996-0.684-1.582c0-0.656,0.299-1.43,0.898-2.32
		C54.114,33.668,55.494,32.414,57.656,30.797z M57.344,40.254c-0.99,0.961-1.738,1.857-2.246,2.689s-0.762,1.6-0.762,2.303
		c0,0.891,0.611,1.676,1.836,2.355c2.083,1.172,5.117,1.758,9.102,1.758c3.75,0,6.523-0.598,8.32-1.793s2.695-2.473,2.695-3.832
		c0-0.984-0.534-1.688-1.602-2.109c-1.094-0.398-3.256-0.633-6.484-0.703C63.489,40.805,59.869,40.582,57.344,40.254z
		 M63.125,14.941c-1.563,0-2.865,0.557-3.906,1.67c-1.042,1.113-1.563,2.818-1.563,5.115c0,2.977,0.703,5.285,2.109,6.926
		c1.094,1.242,2.486,1.863,4.18,1.863c1.588,0,2.896-0.539,3.926-1.617c1.028-1.078,1.543-2.766,1.543-5.063
		c0-3-0.729-5.344-2.188-7.031C66.158,15.563,64.791,14.941,63.125,14.941z"/>
	<path d="M128.273,11.904h6.375l0.375-0.507c0.999-1.236,1.688-1.856,2.063-1.856c3.624,1.239,5.687,3.096,6.188,5.569
		c-0.126,0.337-0.75,0.564-1.875,0.675c-2.376,0.113-4.313,0.675-5.813,1.688c2.25,1.239,3.563,2.7,3.938,4.388
		c0,2.024-0.876,3.206-2.625,3.544c-2.001,0-3.188-1.124-3.563-3.375c-0.126-0.676-0.188-1.124-0.188-1.351
		c-0.75-1.35-2.188-2.7-4.313-4.05c-0.627-0.448-0.876-0.73-0.75-0.844c0.999,0,3.062,0.396,6.188,1.182
		c0.498-1.574,0.812-2.979,0.938-4.219h-15.563c1.125,3.825,0,5.964-3.375,6.412c-2.502,0-3.252-1.182-2.25-3.544h-3.938v6.075
		c0.375,0,0.938-0.11,1.688-0.338c2.874-0.785,4.374-1.123,4.5-1.012c0,0.113-1.063,0.788-3.188,2.024
		c-1.626,0.902-2.625,1.464-3,1.688v14.175c0.375,3.375-1.125,5.174-4.5,5.4c-2.001,0.224-3.064-0.169-3.188-1.182
		c-0.126-0.45-0.252-0.788-0.375-1.012c-0.876-0.789-2.001-1.351-3.375-1.688c-0.375-0.111-0.501-0.225-0.375-0.338
		c0-0.11,0.498-0.11,1.5,0c3.375,0,5.063-0.617,5.063-1.856V27.092c-1.125,0.675-2.063,1.239-2.813,1.688
		c-1.377,0.788-2.188,1.181-2.438,1.181c-1.377-1.236-2.188-2.868-2.438-4.894c0.123-0.11,0.563-0.224,1.313-0.338
		c0.873-0.11,3-0.675,6.375-1.688v-7.594h-6c-0.375,0-0.688-0.11-0.938-0.337c-0.126-0.111,0-0.225,0.375-0.338h6.563V6.335
		c-0.501-1.461,0.375-2.024,2.625-1.688c3.873,0.338,4.811,1.182,2.813,2.531l-0.188,0.169v7.594
		c1.248-2.025,2.124-3.037,2.625-3.037c0.75,0.113,1.875,0.788,3.375,2.024c0.75-0.562,1.061-1.574,0.938-3.037
		c0-0.448,0.062-0.675,0.188-0.675c0.375-0.111,0.999,0.45,1.875,1.688h6.563c-1.002-0.448-1.438-1.461-1.313-3.038
		c0.123-1.35-0.439-2.531-1.688-3.544c-0.252-0.224-0.313-0.393-0.188-0.506c4.623,0,7.248,1.07,7.875,3.206
		C130.711,9.823,130.022,11.118,128.273,11.904z M113.086,26.079c-0.126,0,0.123-0.279,0.75-0.844
		c2.124-1.574,3.873-3.206,5.25-4.894c1.125-1.461,1.811-2.531,2.063-3.207c0.375-0.675,0.75-1.067,1.125-1.181
		c3.249,0.564,5.186,1.519,5.813,2.868c-0.126,0.228-0.563,0.507-1.313,0.844c-1.125,0.451-2.25,0.958-3.375,1.52
		C118.022,24.336,114.586,25.968,113.086,26.079z M117.398,24.897h8.438l0.75-0.506c0.75-0.786,1.313-1.182,1.688-1.182
		c3.498,0.902,5.625,2.252,6.375,4.05c-0.126,0.228-0.627,0.451-1.5,0.676c-1.125,0.113-1.813,0.282-2.063,0.506
		c-2.877,2.252-4.813,4.445-5.813,6.581c-1.002,1.801-1.125,2.927-0.375,3.375c0.624,0.564,2.561,0.789,5.813,0.675
		c4.5,0.114,7.061-0.844,7.688-2.868c0.249-0.448,0.624-1.292,1.125-2.531c0.498-1.351,0.873-1.967,1.125-1.856
		c0,0.113,0,0.451,0,1.013c-0.252,2.362,0.062,3.994,0.938,4.894c0.123,0.338,0.437,0.675,0.938,1.013
		c0.873,0.337,1.248,0.844,1.125,1.519c-0.501,2.249-5.063,3.431-13.688,3.544c-8.877,0.11-12.75-1.914-11.625-6.075
		c0-1.574,2.625-5.568,7.875-11.981h-8.25c-0.627,0-1.002-0.11-1.125-0.337C116.584,25.18,116.771,25.011,117.398,24.897z"/>
</g>
</svg>
