<?xml version="1.0" encoding="utf-8"?>
<!-- Generator: Adobe Illustrator 14.0.0, SVG Export Plug-In . SVG Version: 6.00 Build 43363)  -->
<!DOCTYPE svg PUBLIC "-//W3C//DTD SVG 1.1//EN" "http://www.w3.org/Graphics/SVG/1.1/DTD/svg11.dtd">
<svg version="1.1" id="图层_1" xmlns="http://www.w3.org/2000/svg" xmlns:xlink="http://www.w3.org/1999/xlink" x="0px" y="0px"
	 width="425.2px" height="47.837px" viewBox="0 0 425.2 47.837" enable-background="new 0 0 425.2 47.837" xml:space="preserve">
<g>
	<path d="M29.053,6.946h6.25c0.391,0,0.977-0.586,1.758-1.758c0.909-1.432,1.69-2.018,2.344-1.758
		c1.822,1.172,3.058,2.084,3.711,2.734c0.391,0.521,0.586,0.977,0.586,1.367c0,0.263-0.195,0.391-0.586,0.391h-12.5
		c3.775,1.563,5.142,3.646,4.102,6.25c2.472,1.435,3.775,2.411,3.906,2.93c0,0.391-0.195,0.717-0.586,0.977
		c-0.522,0.391-0.717,0.717-0.586,0.977v3.906c-0.263,1.563-1.563,2.344-3.906,2.344c-1.303,0.263-1.825-0.195-1.563-1.367h-7.617
		v5.859h9.57c0.391,0.131,0.845-0.323,1.367-1.367c0.391-0.781,0.781-1.236,1.172-1.367c3.125,1.172,4.947,2.606,5.469,4.297
		c0,0.391-0.263,0.781-0.781,1.172c-0.522,0.263-0.781,0.521-0.781,0.781c-0.391,5.078-2.148,7.748-5.273,8.008
		c-2.216,0.26-3.452-0.128-3.711-1.172c-0.131-1.3-0.717-2.213-1.758-2.734c-1.044-0.26-1.563-0.455-1.563-0.586
		c0-0.128,0.519-0.195,1.563-0.195c4.034,0.912,5.923-1.041,5.664-5.859H24.365v13.281c-0.131,1.822-1.367,2.734-3.711,2.734
		c-1.172,0-1.694-0.391-1.563-1.172V34.094c-5.991,4.818-11.328,7.94-16.016,9.375c-1.694,0.519-2.67,0.714-2.93,0.586
		c-0.391,0,0-0.326,1.172-0.977c6.641-4.034,10.742-8.136,12.305-12.305h-2.734c-0.391,0.131-0.781,0.521-1.172,1.172
		c-0.263,0.521-0.458,0.781-0.586,0.781c-2.344,0-4.038-0.586-5.078-1.758c0-0.128,0.064-0.323,0.195-0.586
		c0.519-0.65,0.845-1.3,0.977-1.953c0.519-3.125,0.845-5.206,0.977-6.25c0-0.909,0.845-0.977,2.539-0.195
		c1.3,0.653,2.344,0.977,3.125,0.977h7.227v-5.859H5.42c-0.391,0-0.653-0.128-0.781-0.391c-0.131-0.26,0-0.455,0.391-0.586h8.398
		c-0.781-0.519-1.172-1.236-1.172-2.148c-0.131-3.385-0.913-5.401-2.344-6.055C9.521,8.313,9.131,8.639,8.74,8.899
		c-2.216,1.953-4.038,3.516-5.469,4.688c-2.475,1.693-3.256,1.953-2.344,0.781c2.994-3.775,5.011-7.813,6.055-12.109
		c0.259-1.041,0.519-1.69,0.781-1.953c0.781-0.128,2.276,0,4.492,0.391c1.69,0.391,2.603,0.781,2.734,1.172
		c0,0.391-0.327,0.781-0.977,1.172c-0.653,0.391-1.108,0.781-1.367,1.172c-0.653,1.044-1.367,1.953-2.148,2.734h5.859
		c0.259,0,0.714-0.455,1.367-1.367c0.909-1.432,1.758-2.018,2.539-1.758c1.822,1.303,2.994,2.279,3.516,2.93
		c0.781-1.822,1.236-3.58,1.367-5.273c0-0.65,0.195-1.104,0.586-1.367c3.516,0.131,5.923,0.717,7.227,1.758
		c0,0.263-0.263,0.586-0.781,0.977C30.875,4.016,29.834,5.383,29.053,6.946z M10.693,25.11l-0.586,4.883h8.984v-6.055h-5.469
		C11.539,23.81,10.562,24.201,10.693,25.11z M15.576,16.125h2.539c2.212-2.604,3.97-5.338,5.273-8.203H12.256
		c2.472,1.172,4.102,2.411,4.883,3.711C17.789,13.458,17.267,14.954,15.576,16.125z M19.678,16.125h10.938l0.781-0.977
		c-0.781-0.519-1.367-1.69-1.758-3.516c-0.263-1.69-0.781-2.799-1.563-3.32C25.21,11.701,22.412,14.303,19.678,16.125z
		 M31.982,17.102h-7.617v1.172v4.688h7.617V17.102z"/>
	<path d="M93.311,39.758H52.295c-0.653,0-1.108-0.128-1.367-0.391c-0.263-0.26-0.131-0.455,0.391-0.586h34.766l0.977-1.172
		c1.041-1.69,1.758-2.604,2.148-2.734c0.781,0.131,2.081,0.977,3.906,2.539c0.909,1.044,1.431,1.693,1.563,1.953
		C94.678,39.758,94.22,39.889,93.311,39.758z M87.842,9.485H57.568c-1.563-0.128-1.953-0.391-1.172-0.781h24.805
		c0.128,0,0.455-0.455,0.977-1.367c0.909-1.563,1.626-2.344,2.148-2.344c0.781,0.131,2.344,1.303,4.688,3.516
		c0.259,0.521,0.323,0.849,0.195,0.977C89.078,9.616,88.623,9.616,87.842,9.485z"/>
	<path d="M109.912,20.618v15.234c2.603-1.172,3.97-1.758,4.102-1.758h0.195c2.862-1.69,3.189-1.367,0.977,0.977
		c-0.131,0.131-0.327,0.326-0.586,0.586c-3.778,4.297-5.927,6.9-6.445,7.813c-0.522,0.781-0.913,1.172-1.172,1.172
		c-0.391,0-0.781-0.326-1.172-0.977c-0.391-0.391-1.044-1.172-1.953-2.344c-0.263-0.26-0.391-0.455-0.391-0.586
		c-0.781-1.041-0.653-1.953,0.391-2.734c0.391-0.391,0.65-1.104,0.781-2.148V18.665h-5.273c-0.391,0-0.653-0.128-0.781-0.391
		c-0.131-0.128,0-0.26,0.391-0.391h4.688l0.586-0.781c0.781-1.3,1.431-1.953,1.953-1.953c2.994,1.044,4.815,2.216,5.469,3.516
		c0,0.263-0.327,0.586-0.977,0.977C110.04,20.163,109.781,20.49,109.912,20.618z M103.467,2.454
		c4.556,0.521,7.291,1.953,8.203,4.297c0.391,3.646-1.172,5.209-4.688,4.688c-0.913-0.26-1.435-1.3-1.563-3.125
		c0-2.344-0.781-3.971-2.344-4.883c-0.653-0.391-0.977-0.65-0.977-0.781C102.228,2.521,102.686,2.454,103.467,2.454z M139.99,7.532
		V18.86c0.259,1.435-0.781,2.216-3.125,2.344c-0.263,0.131-0.522,0.195-0.781,0.195c-1.563,0.263-2.216,0.067-1.953-0.586v-0.586
		h-4.297v5.664h5.664c0.259,0,0.781-0.519,1.563-1.563c0.781-1.3,1.431-1.953,1.953-1.953c0.909,0,2.539,1.044,4.883,3.125
		c0.391,0.521,0.586,0.849,0.586,0.977c-0.131,0.263-0.522,0.326-1.172,0.195h-10.938c1.563,4.818,5.401,8.466,11.523,10.938
		c0.781,0.263,0.977,0.521,0.586,0.781c-0.522,0.263-0.913,0.521-1.172,0.781c-1.172,0.781-2.148,1.63-2.93,2.539
		c-0.653,1.041-1.435,1.172-2.344,0.391c-3.778-2.344-6.055-7.486-6.836-15.43h-1.367v17.383c0.128,0.909-1.044,1.627-3.516,2.148
		c-1.563,0.26-2.216-0.263-1.953-1.563V33.118c-7.163,7.031-11.914,10.352-14.258,9.961c5.206-5.078,8.722-10.479,10.547-16.211
		h-7.617c-0.522,0-0.913-0.128-1.172-0.391c-0.263-0.26-0.131-0.455,0.391-0.586h12.109v-5.469h-3.516v0.586
		c0,0.781-0.913,1.303-2.734,1.563c-2.084,0.391-2.997-0.064-2.734-1.367V3.821c-0.131-0.781,0-1.236,0.391-1.367
		c0.128-0.128,0.65-0.128,1.563,0c0.128,0.131,0.455,0.326,0.977,0.586c1.172,0.521,2.081,0.717,2.734,0.586h11.133
		c0.128,0,0.391-0.26,0.781-0.781c0.519-0.909,1.041-1.495,1.563-1.758c2.603,0.263,4.947,1.498,7.031,3.711
		c0,0.521-0.327,1.107-0.977,1.758C140.186,7.077,139.99,7.404,139.99,7.532z M120.85,6.36v5.078h3.516V4.407h-1.758
		C121.304,4.407,120.718,5.06,120.85,6.36z M120.85,12.415v7.031h3.516v-7.031H120.85z M129.834,6.165v5.273h4.102V4.407h-2.344
		C130.289,4.407,129.703,4.993,129.834,6.165z M129.834,12.219v7.227h4.297v-7.227H129.834z"/>
	<path d="M190.967,13.391c0.781-0.391,2.667-0.128,5.664,0.781c2.344,0.781,3.384,1.498,3.125,2.148
		c-0.131,0.263-0.522,0.586-1.172,0.977c-1.044,0.781-1.694,1.498-1.953,2.148c-3.906,9.115-8.984,15.234-15.234,18.359
		c-0.131,0,0.064-0.26,0.586-0.781c2.344-2.862,4.166-5.987,5.469-9.375c2.603-7.682,3.644-12.042,3.125-13.086
		C190.576,14.044,190.704,13.654,190.967,13.391z M208.154,38.977c0.519,4.815-1.563,7.159-6.25,7.031
		c-2.084,0.26-3.256-0.263-3.516-1.563c-0.131-0.653-0.263-1.172-0.391-1.563c-0.653-1.044-2.021-1.822-4.102-2.344
		c-0.913-0.26-1.303-0.519-1.172-0.781h1.758c4.815,0.391,7.227-0.391,7.227-2.344V2.063c-0.391-1.172,1.104-1.495,4.492-0.977
		c3.253,0.521,4.034,1.367,2.344,2.539l-0.391,0.586V38.977z M211.475,15.149c7.682,2.606,12.891,7.031,15.625,13.281
		c1.041,4.56-0.131,6.903-3.516,7.031c-2.084,0.131-3.389-1.563-3.906-5.078c-0.264-1.953-0.521-3.448-0.781-4.492
		c-1.303-3.253-3.516-6.445-6.64-9.57C211.603,15.67,211.343,15.28,211.475,15.149z"/>
	<path d="M256.201,11.243h9.766c0.129,0,0.455-0.455,0.977-1.367c0.52-1.172,0.977-1.822,1.367-1.953
		c3.516,1.044,5.793,2.67,6.836,4.883c-0.131,0.131-0.391,0.326-0.781,0.586c-0.652,0.521-0.977,0.912-0.977,1.172
		c0,9.375,0,16.211,0,20.508c-0.131,4.169-0.262,6.378-0.391,6.641c-0.652,1.563-2.148,2.799-4.492,3.711
		c-2.734,0.781-4.102,0.586-4.102-0.586c0.129-1.563-1.043-2.802-3.516-3.711c-0.652-0.26-0.586-0.391,0.195-0.391
		c2.863,0,4.688-0.323,5.469-0.977c0.52-0.391,0.846-2.276,0.977-5.664c0.129-2.994,0.195-10.284,0.195-21.875h-11.914
		c-0.652,0.912-1.434,1.953-2.344,3.125c-0.912,1.563-1.498,2.475-1.758,2.734c0.391,0.131,0.977,0.326,1.758,0.586
		c0.781,0.391,1.563,0.586,2.344,0.586h2.539l0.391-0.781c0.26-0.519,0.52-0.909,0.781-1.172c2.734,0.521,4.621,1.498,5.664,2.93
		c0,0.263-0.131,0.586-0.391,0.977c-0.521,0.521-0.717,0.977-0.586,1.367v10.156c0,1.172-0.781,1.889-2.344,2.148
		c-1.953,0.521-2.801,0-2.539-1.563v-1.758h-4.102v2.344c0.129,1.172-0.977,1.825-3.32,1.953c-1.172,0.263-1.629-0.195-1.367-1.367
		V19.446c-1.043,1.172-2.279,2.344-3.711,3.516c-0.262,0.263-0.457,0.391-0.586,0.391c0.781,9.506,0.324,15.951-1.367,19.336
		c-0.912,1.432-2.475,2.472-4.688,3.125c-1.953,0.26-2.865-0.263-2.734-1.563c0.129-1.435-0.977-2.411-3.32-2.93
		c-0.781-0.128-0.717-0.26,0.195-0.391c2.734-0.128,4.492-0.391,5.273-0.781c1.822-1.69,2.539-6.25,2.148-13.672
		c-6.381,6.25-9.441,8.594-9.18,7.031c4.557-5.729,7.291-11.065,8.203-16.016c-0.262-0.65-0.326-0.846-0.195-0.586
		c-0.391-1.3-0.586-2.081-0.586-2.344c-6.121,4.037-8.594,5.404-7.422,4.102c3.254-2.994,5.338-5.273,6.25-6.836
		c-1.172-2.344-2.801-4.361-4.883-6.055c0-0.909,2.277,0,6.836,2.734c0.65-1.041,1.563-2.799,2.734-5.273V3.04
		c0.129-1.172,0.846-1.432,2.148-0.781c3.906,2.344,5.012,3.842,3.32,4.492l-0.586,0.391c-0.912,0.653-2.215,1.889-3.906,3.711
		c-0.262,0.263-0.521,0.521-0.781,0.781c1.432,2.734,2.213,6.186,2.344,10.352c3.125-3.125,5.469-9.503,7.031-19.141V2.454
		c-0.131-1.172,0.586-1.627,2.148-1.367c5.598,1.563,7.227,2.734,4.883,3.516l-0.391,0.195
		C258.936,5.841,257.764,7.99,256.201,11.243z M255.225,21.79v8.984h4.102V20.032h-2.734
		C255.549,20.032,255.094,20.618,255.225,21.79z"/>
	<path d="M303.467,9.875l15.43,0.195c0.129,0,0.52-0.519,1.172-1.563c1.041-1.953,1.822-2.93,2.344-2.93
		c1.432,0.391,3.189,1.758,5.273,4.102c0.26,0.521,0.324,0.849,0.195,0.977c-0.131,0.263-0.457,0.326-0.977,0.195h-23.828
		c-0.781,1.303-1.498,2.539-2.148,3.711c-1.824,3.516-3.191,5.859-4.102,7.031v4.492h10.742v-9.375
		c-0.131-1.432,0.455-2.081,1.758-1.953c4.688,0,6.314,0.781,4.883,2.344l-0.391,0.586v8.398h4.102c0.129,0,0.455-0.455,0.977-1.367
		c1.041-1.69,1.822-2.539,2.344-2.539c0.781,0.131,1.953,1.107,3.516,2.93c0.129,0.131,0.26,0.195,0.391,0.195
		c0.52,0.781,0.715,1.303,0.586,1.563c-0.131,0.263-0.586,0.326-1.367,0.195h-10.547v14.844h5.859c0.129,0,0.586-0.458,1.367-1.367
		c1.041-1.432,1.758-2.213,2.148-2.344c0.781-0.128,2.408,0.912,4.883,3.125c0.391,0.519,0.52,0.846,0.391,0.977
		c-0.131,0.26-0.586,0.391-1.367,0.391h-30.273v3.125c0.26,1.172-0.912,1.822-3.516,1.953c-1.434,0.26-2.084-0.195-1.953-1.367
		V28.235c-5.73,5.078-8.984,7.294-9.766,6.641c4.297-4.297,7.551-8.789,9.766-13.477V18.86c-0.391-1.432,0.391-1.953,2.344-1.563
		v-0.195c0.781-1.563,1.627-3.644,2.539-6.25h-13.867c-0.391,0-0.652-0.064-0.781-0.195c0-0.26,0.129-0.519,0.391-0.781h14.453
		c0.391-0.909,1.105-3.58,2.148-8.008c0.391-1.432,1.105-2.018,2.148-1.758c0.129,0.131,0.586,0.263,1.367,0.391
		c3.516,0.912,5.338,1.63,5.469,2.148c0,0.521-0.326,0.912-0.977,1.172c-0.652,0.263-0.977,0.521-0.977,0.781
		C304.443,7.208,303.727,8.966,303.467,9.875z M296.826,27.063v14.844h10.742V27.063H296.826z"/>
	<path d="M363.232,8.508h6.641l0.391-0.586c1.041-1.432,1.758-2.148,2.148-2.148c3.775,1.435,5.924,3.583,6.445,6.445
		c-0.131,0.391-0.781,0.653-1.953,0.781c-2.475,0.131-4.492,0.781-6.055,1.953c2.344,1.435,3.711,3.125,4.102,5.078
		c0,2.344-0.912,3.711-2.734,4.102c-2.084,0-3.32-1.3-3.711-3.906c-0.131-0.781-0.195-1.3-0.195-1.563
		c-0.781-1.563-2.279-3.125-4.492-4.688c-0.652-0.519-0.912-0.846-0.781-0.977c1.041,0,3.189,0.458,6.445,1.367
		c0.52-1.822,0.846-3.448,0.977-4.883h-16.211c1.172,4.428,0,6.903-3.516,7.422c-2.605,0-3.387-1.367-2.344-4.102h-4.102v7.031
		c0.391,0,0.977-0.128,1.758-0.391c2.994-0.909,4.557-1.3,4.688-1.172c0,0.131-1.107,0.912-3.32,2.344
		c-1.693,1.044-2.734,1.693-3.125,1.953v16.406c0.391,3.906-1.172,5.987-4.688,6.25c-2.084,0.26-3.191-0.195-3.32-1.367
		c-0.131-0.521-0.262-0.912-0.391-1.172c-0.912-0.912-2.084-1.563-3.516-1.953c-0.391-0.128-0.521-0.26-0.391-0.391
		c0-0.128,0.52-0.128,1.563,0c3.516,0,5.273-0.714,5.273-2.148V26.086c-1.172,0.781-2.148,1.435-2.93,1.953
		c-1.434,0.912-2.279,1.367-2.539,1.367c-1.434-1.432-2.279-3.32-2.539-5.664c0.129-0.128,0.586-0.26,1.367-0.391
		c0.91-0.128,3.125-0.781,6.641-1.953V12.61h-6.25c-0.391,0-0.717-0.128-0.977-0.391c-0.131-0.128,0-0.26,0.391-0.391h6.836V2.063
		c-0.521-1.69,0.391-2.344,2.734-1.953c4.035,0.391,5.012,1.367,2.93,2.93l-0.195,0.195v8.789c1.301-2.344,2.213-3.516,2.734-3.516
		c0.781,0.131,1.953,0.912,3.516,2.344c0.781-0.65,1.105-1.822,0.977-3.516c0-0.519,0.064-0.781,0.195-0.781
		c0.391-0.128,1.041,0.521,1.953,1.953h6.836c-1.043-0.519-1.498-1.69-1.367-3.516c0.129-1.563-0.457-2.93-1.758-4.102
		c-0.262-0.26-0.326-0.455-0.195-0.586c4.816,0,7.551,1.239,8.203,3.711C365.771,6.1,365.055,7.599,363.232,8.508z M347.412,24.915
		c-0.131,0,0.129-0.323,0.781-0.977c2.213-1.822,4.035-3.711,5.469-5.664c1.172-1.69,1.887-2.93,2.148-3.711
		c0.391-0.781,0.781-1.236,1.172-1.367c3.385,0.653,5.402,1.758,6.055,3.32c-0.131,0.263-0.586,0.586-1.367,0.977
		c-1.172,0.521-2.344,1.107-3.516,1.758C352.555,22.897,348.975,24.787,347.412,24.915z M351.904,23.547h8.789l0.781-0.586
		c0.781-0.909,1.367-1.367,1.758-1.367c3.645,1.044,5.859,2.606,6.641,4.688c-0.131,0.263-0.652,0.521-1.563,0.781
		c-1.172,0.131-1.889,0.326-2.148,0.586c-2.996,2.606-5.014,5.146-6.055,7.617c-1.043,2.084-1.172,3.388-0.391,3.906
		c0.65,0.653,2.668,0.912,6.055,0.781c4.688,0.131,7.355-0.977,8.008-3.32c0.26-0.519,0.65-1.495,1.172-2.93
		c0.52-1.563,0.91-2.276,1.172-2.148c0,0.131,0,0.521,0,1.172c-0.262,2.734,0.064,4.623,0.977,5.664
		c0.129,0.391,0.455,0.781,0.977,1.172c0.91,0.391,1.301,0.977,1.172,1.758c-0.521,2.604-5.273,3.971-14.258,4.102
		c-9.246,0.128-13.281-2.216-12.109-7.031c0-1.822,2.734-6.445,8.203-13.867h-8.594c-0.652,0-1.043-0.128-1.172-0.391
		C351.057,23.874,351.252,23.678,351.904,23.547z"/>
	<path d="M382.178,12.805c-0.781-0.781,0.195-0.846,2.93-0.195c1.953,0.653,3.254,1.367,3.906,2.148
		c1.041,2.084,0.781,3.842-0.781,5.273c-2.084,1.303-3.451,0.849-4.102-1.367c-0.131-0.26-0.195-0.714-0.195-1.367
		C384.064,15.475,383.479,13.977,382.178,12.805z M423.584,6.946v33.789c-0.652,2.862-2.996,4.361-7.031,4.492
		c-0.391-0.263-0.652-0.781-0.781-1.563c-0.262-1.563-1.238-2.667-2.93-3.32c-0.912-0.26-0.586-0.391,0.977-0.391
		s2.539-0.128,2.93-0.391c0.781-0.519,1.236-1.3,1.367-2.344V13h-16.797v28.906c0.129,1.563-0.912,2.539-3.125,2.93
		c-1.043,0.128-1.693,0.064-1.953-0.195c-0.262-0.131-0.326-0.653-0.195-1.563V7.727c-2.344,6.641-4.232,13.672-5.664,21.094
		c-0.391,1.693-0.262,4.232,0.391,7.617c0.52,3.256,0.455,5.143-0.195,5.664c-1.303,1.3-2.865,1.627-4.688,0.977
		c-1.434-0.781-1.953-1.953-1.563-3.516c0-0.391,0.26-1.236,0.781-2.539c1.041-2.734,1.367-4.688,0.977-5.859
		c-0.391-1.041-1.367-1.886-2.93-2.539c-0.781-0.26-0.652-0.455,0.391-0.586c1.691-0.26,2.863-0.781,3.516-1.563
		c0.91-1.041,2.799-5.143,5.664-12.305c1.172-2.734,2.277-5.273,3.32-7.617V2.844c-0.131-0.519-0.066-0.846,0.195-0.977
		c0.129-0.128,0.586-0.064,1.367,0.195c0.26,0.131,0.846,0.391,1.758,0.781c1.301,0.653,2.277,0.977,2.93,0.977h14.453l0.781-0.977
		c0.781-1.172,1.367-1.822,1.758-1.953c2.863,0.653,4.816,2.021,5.859,4.102c-0.131,0.263-0.457,0.586-0.977,0.977
		C423.779,6.36,423.584,6.686,423.584,6.946z M386.475,2.454c-0.652-0.519,0.064-0.65,2.148-0.391
		c1.822,0.263,3.125,0.717,3.906,1.367c1.301,1.693,1.432,3.32,0.391,4.883c-1.693,1.563-3.125,1.563-4.297,0
		c-0.262-0.26-0.457-0.909-0.586-1.953C387.646,4.407,387.125,3.107,386.475,2.454z M401.318,6.165v6.055h10.156l0.391-0.781
		c0.91-1.69,1.563-2.539,1.953-2.539c0.391,0.131,1.822,1.107,4.297,2.93V4.602h-14.648C401.904,4.602,401.188,5.124,401.318,6.165z
		 M415.967,30.383c0.26,1.825-0.781,2.865-3.125,3.125c-1.043,0.131-1.498-0.455-1.367-1.758v-1.758h-3.516v1.758
		c0.26,1.172-0.652,1.889-2.734,2.148c-1.303,0.521-1.889-0.064-1.758-1.758V18.86c-0.131-0.65-0.066-1.041,0.195-1.172
		c0.129-0.128,0.52-0.128,1.172,0c0.391,0.263,1.172,0.653,2.344,1.172c0.65,0.263,1.105,0.391,1.367,0.391h2.148l0.195-0.391
		c0.52-1.041,0.977-1.627,1.367-1.758c2.082,0.391,3.645,1.239,4.688,2.539c0,0.391-0.262,0.912-0.781,1.563l-0.195,0.586V30.383z
		 M407.959,21.594v7.422h3.516v-8.984h-1.953C408.35,20.032,407.828,20.553,407.959,21.594z"/>
</g>
</svg>
