<?xml version="1.0" encoding="utf-8"?>
<!-- Generator: Adobe Illustrator 14.0.0, SVG Export Plug-In . SVG Version: 6.00 Build 43363)  -->
<!DOCTYPE svg PUBLIC "-//W3C//DTD SVG 1.1//EN" "http://www.w3.org/Graphics/SVG/1.1/DTD/svg11.dtd">
<svg version="1.1" id="图层_1" xmlns="http://www.w3.org/2000/svg" xmlns:xlink="http://www.w3.org/1999/xlink" x="0px" y="0px"
	 width="527.295px" height="46.858px" viewBox="0 0 527.295 46.858" enable-background="new 0 0 527.295 46.858"
	 xml:space="preserve">
<g>
	<path d="M29.053,7.388h6.25c0.391,0,0.977-0.586,1.758-1.758c0.909-1.432,1.69-2.018,2.344-1.758
		c1.822,1.172,3.058,2.084,3.711,2.734c0.391,0.521,0.586,0.977,0.586,1.367c0,0.263-0.195,0.391-0.586,0.391h-12.5
		c3.775,1.563,5.142,3.646,4.102,6.25c2.472,1.435,3.775,2.411,3.906,2.93c0,0.391-0.195,0.717-0.586,0.977
		c-0.522,0.391-0.717,0.717-0.586,0.977v3.906c-0.263,1.563-1.563,2.344-3.906,2.344c-1.303,0.263-1.825-0.195-1.563-1.367h-7.617
		v5.859h9.57c0.391,0.131,0.845-0.323,1.367-1.367c0.391-0.781,0.781-1.236,1.172-1.367c3.125,1.172,4.947,2.606,5.469,4.297
		c0,0.391-0.263,0.781-0.781,1.172c-0.522,0.263-0.781,0.521-0.781,0.781c-0.391,5.078-2.148,7.748-5.273,8.008
		c-2.216,0.26-3.452-0.128-3.711-1.172c-0.131-1.3-0.717-2.213-1.758-2.734c-1.044-0.26-1.563-0.455-1.563-0.586
		c0-0.128,0.519-0.195,1.563-0.195c4.034,0.912,5.923-1.041,5.664-5.859H24.365v13.281c-0.131,1.822-1.367,2.734-3.711,2.734
		c-1.172,0-1.694-0.391-1.563-1.172V34.536c-5.991,4.818-11.328,7.94-16.016,9.375c-1.694,0.519-2.67,0.714-2.93,0.586
		c-0.391,0,0-0.326,1.172-0.977c6.641-4.034,10.742-8.136,12.305-12.305h-2.734c-0.391,0.131-0.781,0.521-1.172,1.172
		c-0.263,0.521-0.458,0.781-0.586,0.781c-2.344,0-4.038-0.586-5.078-1.758c0-0.128,0.064-0.323,0.195-0.586
		c0.519-0.65,0.845-1.3,0.977-1.953c0.519-3.125,0.845-5.206,0.977-6.25c0-0.909,0.845-0.977,2.539-0.195
		c1.3,0.653,2.344,0.977,3.125,0.977h7.227v-5.859H5.42c-0.391,0-0.653-0.128-0.781-0.391c-0.131-0.26,0-0.455,0.391-0.586h8.398
		c-0.781-0.519-1.172-1.236-1.172-2.148c-0.131-3.385-0.913-5.401-2.344-6.055C9.521,8.755,9.131,9.081,8.74,9.341
		c-2.216,1.953-4.038,3.516-5.469,4.688c-2.475,1.693-3.256,1.953-2.344,0.781C3.921,11.034,5.938,6.997,6.982,2.7
		c0.259-1.041,0.519-1.69,0.781-1.953c0.781-0.128,2.276,0,4.492,0.391c1.69,0.391,2.603,0.781,2.734,1.172
		c0,0.391-0.327,0.781-0.977,1.172c-0.653,0.391-1.108,0.781-1.367,1.172c-0.653,1.044-1.367,1.953-2.148,2.734h5.859
		c0.259,0,0.714-0.455,1.367-1.367c0.909-1.432,1.758-2.018,2.539-1.758c1.822,1.303,2.994,2.279,3.516,2.93
		c0.781-1.822,1.236-3.58,1.367-5.273c0-0.65,0.195-1.104,0.586-1.367c3.516,0.131,5.923,0.717,7.227,1.758
		c0,0.263-0.263,0.586-0.781,0.977C30.875,4.458,29.834,5.825,29.053,7.388z M10.693,25.552l-0.586,4.883h8.984V24.38h-5.469
		C11.539,24.252,10.562,24.643,10.693,25.552z M15.576,16.567h2.539c2.212-2.604,3.97-5.338,5.273-8.203H12.256
		c2.472,1.172,4.102,2.411,4.883,3.711C17.789,13.9,17.267,15.396,15.576,16.567z M19.678,16.567h10.938l0.781-0.977
		c-0.781-0.519-1.367-1.69-1.758-3.516c-0.263-1.69-0.781-2.799-1.563-3.32C25.21,12.143,22.412,14.745,19.678,16.567z
		 M31.982,17.544h-7.617v1.172v4.688h7.617V17.544z"/>
	<path d="M93.311,23.013H50.928c-0.522,0-0.913-0.128-1.172-0.391c-0.263-0.26-0.131-0.455,0.391-0.586h33.984
		c0.128-0.26,0.195-0.323,0.195-0.195c2.081-2.862,3.384-4.297,3.906-4.297c1.172,0.131,3.058,1.563,5.664,4.297
		c0.391,0.391,0.519,0.717,0.391,0.977C94.156,22.948,93.829,23.013,93.311,23.013z"/>
	<path d="M109.912,21.06v15.234c2.604-1.172,3.971-1.758,4.102-1.758h0.195c2.862-1.69,3.189-1.367,0.977,0.977
		c-0.131,0.131-0.326,0.326-0.586,0.586c-3.778,4.297-5.927,6.9-6.445,7.813c-0.521,0.781-0.912,1.172-1.172,1.172
		c-0.391,0-0.781-0.326-1.172-0.977c-0.391-0.391-1.044-1.172-1.953-2.344c-0.263-0.26-0.391-0.455-0.391-0.586
		c-0.781-1.041-0.653-1.953,0.391-2.734c0.391-0.391,0.65-1.104,0.781-2.148V19.106h-5.273c-0.391,0-0.653-0.128-0.781-0.391
		c-0.131-0.128,0-0.26,0.391-0.391h4.688l0.586-0.781c0.781-1.3,1.432-1.953,1.953-1.953c2.994,1.044,4.815,2.216,5.469,3.516
		c0,0.263-0.326,0.586-0.977,0.977C110.04,20.604,109.781,20.932,109.912,21.06z M103.467,2.896
		c4.557,0.521,7.291,1.953,8.203,4.297c0.391,3.646-1.172,5.209-4.688,4.688c-0.912-0.26-1.435-1.3-1.563-3.125
		c0-2.344-0.781-3.971-2.344-4.883c-0.653-0.391-0.977-0.65-0.977-0.781C102.228,2.963,102.686,2.896,103.467,2.896z M139.99,7.974
		v11.328c0.26,1.435-0.781,2.216-3.125,2.344c-0.263,0.131-0.521,0.195-0.781,0.195c-1.563,0.263-2.216,0.067-1.953-0.586v-0.586
		h-4.297v5.664h5.664c0.26,0,0.781-0.519,1.563-1.563c0.781-1.3,1.432-1.953,1.953-1.953c0.909,0,2.539,1.044,4.883,3.125
		c0.391,0.521,0.586,0.849,0.586,0.977c-0.131,0.263-0.521,0.326-1.172,0.195h-10.938c1.563,4.818,5.401,8.466,11.523,10.938
		c0.781,0.263,0.977,0.521,0.586,0.781c-0.521,0.263-0.912,0.521-1.172,0.781c-1.172,0.781-2.148,1.63-2.93,2.539
		c-0.653,1.041-1.435,1.172-2.344,0.391c-3.778-2.344-6.055-7.486-6.836-15.43h-1.367v17.383c0.128,0.909-1.044,1.627-3.516,2.148
		c-1.563,0.26-2.216-0.263-1.953-1.563V33.56c-7.162,7.031-11.914,10.352-14.258,9.961c5.206-5.078,8.722-10.479,10.547-16.211
		h-7.617c-0.521,0-0.912-0.128-1.172-0.391c-0.263-0.26-0.131-0.455,0.391-0.586h12.109v-5.469h-3.516v0.586
		c0,0.781-0.912,1.303-2.734,1.563c-2.084,0.391-2.997-0.064-2.734-1.367V4.263c-0.131-0.781,0-1.236,0.391-1.367
		c0.128-0.128,0.65-0.128,1.563,0c0.128,0.131,0.455,0.326,0.977,0.586c1.172,0.521,2.081,0.717,2.734,0.586h11.133
		c0.128,0,0.391-0.26,0.781-0.781c0.519-0.909,1.041-1.495,1.563-1.758c2.604,0.263,4.947,1.498,7.031,3.711
		c0,0.521-0.326,1.107-0.977,1.758C140.186,7.519,139.99,7.846,139.99,7.974z M120.85,6.802v5.078h3.516V4.849h-1.758
		C121.305,4.849,120.719,5.502,120.85,6.802z M120.85,12.856v7.031h3.516v-7.031H120.85z M129.834,6.606v5.273h4.102V4.849h-2.344
		C130.289,4.849,129.703,5.435,129.834,6.606z M129.834,12.661v7.227h4.297v-7.227H129.834z"/>
	<path d="M197.217,8.95c0.909-2.734-0.067,1.435-2.93,12.5c-0.521,1.435-1.498,4.623-2.93,9.57
		c-0.263,1.303-0.131,3.646,0.391,7.031c0.519,3.256,0.586,5.338,0.195,6.25c-2.997,2.734-5.273,2.276-6.836-1.367
		c-0.131-0.653,0.064-1.886,0.586-3.711c0.909-2.472,1.236-4.229,0.977-5.273c-0.391-1.041-1.693-2.018-3.906-2.93
		c-1.044-0.391-0.977-0.586,0.195-0.586c2.604,0.263,4.425-0.26,5.469-1.563C191.29,23.534,194.22,16.894,197.217,8.95z
		 M189.6,15.396c1.3,1.563,1.367,3.192,0.195,4.883c-1.563,1.825-2.997,2.021-4.297,0.586c-0.391-0.26-0.586-0.846-0.586-1.758
		c-0.131-1.953-0.977-3.516-2.539-4.688c-0.653-0.519,0.323-0.65,2.93-0.391C187.384,14.291,188.818,14.745,189.6,15.396z
		 M193.701,4.458c1.822,1.563,1.953,3.451,0.391,5.664c-1.953,1.825-3.516,1.563-4.688-0.781c-0.131-0.128-0.263-0.519-0.391-1.172
		c-0.131-2.081-0.849-3.58-2.148-4.492c-0.781-0.519,0-0.65,2.344-0.391C191.031,3.417,192.529,3.808,193.701,4.458z M226.318,7.388
		h-3.125c-0.653,0.131-0.977,0.781-0.977,1.953v32.422c-0.131,2.994-2.539,4.492-7.227,4.492c-0.781,0-1.239-0.458-1.367-1.367
		c-0.131-1.825-1.239-2.865-3.32-3.125c-1.303-0.26-1.825-0.455-1.563-0.586c0.26-0.128,1.367-0.195,3.32-0.195
		c2.734,0.131,4.102-0.714,4.102-2.539V7.388h-17.383c-0.653,0-1.107-0.128-1.367-0.391c-0.131-0.128,0.128-0.26,0.781-0.391h20.508
		l0.781-0.977c1.3-1.69,2.213-2.539,2.734-2.539c1.822,0.781,3.58,2.021,5.273,3.711C227.49,7.192,227.1,7.388,226.318,7.388z
		 M213.232,18.521V30.63c0.26,1.435-1.044,2.216-3.906,2.344c-1.303,0.263-1.889-0.195-1.758-1.367v-1.953h-3.906v2.539
		c-0.131,0.912-1.239,1.563-3.32,1.953h-0.391c-1.172,0.391-1.693-0.064-1.563-1.367V15.005c-0.391-1.432,1.367-1.3,5.273,0.391
		h2.93c0.26,0.131,0.65-0.26,1.172-1.172c0.391-0.781,0.781-1.172,1.172-1.172c3.385,1.435,5.206,2.606,5.469,3.516
		c0,0.263-0.195,0.586-0.586,0.977S213.232,18.261,213.232,18.521z M203.662,18.325v10.352h3.906v-12.5h-2.344
		C204.053,16.177,203.531,16.894,203.662,18.325z"/>
	<path d="M265.186,33.755h-32.227c-0.391,0-0.717-0.064-0.977-0.195c-0.131-0.26,0-0.455,0.391-0.586h25.195
		c0.128,0,0.586-0.519,1.367-1.563c0.909-1.69,1.627-2.539,2.148-2.539c1.432,0.521,3.125,1.825,5.078,3.906
		c0.391,0.521,0.519,0.781,0.391,0.781C266.422,33.822,265.967,33.886,265.186,33.755z M268.115,8.364l-1.953,15.625h2.344
		c0.128,0,0.391-0.323,0.781-0.977c0.519-0.781,0.977-1.3,1.367-1.563c2.862,0.391,5.078,1.825,6.641,4.297
		c0,0.391-0.391,0.849-1.172,1.367c-0.391,0.391-0.586,0.653-0.586,0.781c-0.653,9.115-1.758,14.453-3.32,16.016
		c-1.953,1.953-4.492,2.93-7.617,2.93c-0.521-0.263-0.849-0.781-0.977-1.563c-0.391-1.825-1.693-3.061-3.906-3.711
		c-1.563-0.519-1.435-0.781,0.391-0.781c2.862-0.128,4.883-0.455,6.055-0.977c1.822,0.131,2.93-4.815,3.32-14.844h-20.703
		c-0.131,0-0.458,0.326-0.977,0.977c-0.781,1.044-1.303,1.563-1.563,1.563c-1.563-0.128-3.125-0.846-4.688-2.148
		c-0.912-0.519-0.912-1.104,0-1.758c0.65-0.519,0.977-0.909,0.977-1.172c0.26-1.953,0.65-6.25,1.172-12.891
		c0-1.172,0.586-1.69,1.758-1.563c4.688,0.521,6.119,1.498,4.297,2.93l-0.391,0.391l-1.172,12.695h12.109l2.148-18.555h-24.023
		c-0.521,0-0.849-0.128-0.977-0.391c-0.131-0.26,0.064-0.455,0.586-0.586h23.438l0.977-1.172c0.65-0.909,1.104-1.432,1.367-1.563
		c2.344,0.263,4.425,1.693,6.25,4.297c0,0.391-0.391,0.849-1.172,1.367C268.375,7.909,268.115,8.236,268.115,8.364z"/>
	<path d="M305.225,9.731h13.086c0.391,0.131,1.041-0.586,1.953-2.148c0.909-1.563,1.627-2.344,2.148-2.344
		c0.65,0,2.344,1.172,5.078,3.516c0.65,0.781,0.846,1.303,0.586,1.563c-0.131,0.391-0.849,0.521-2.148,0.391h-21.094
		c-1.303,2.216-2.734,4.755-4.297,7.617h11.133c0.26,0.131,0.714-0.26,1.367-1.172c0.781-1.041,1.367-1.563,1.758-1.563
		c4.166,2.084,6.314,3.646,6.445,4.688c-0.131,0.391-0.458,0.781-0.977,1.172c-0.521,0.391-0.781,0.717-0.781,0.977v20.117
		c-0.521,3.253-2.997,4.815-7.422,4.688c-0.521-0.131-0.849-0.586-0.977-1.367c-0.263-1.693-1.303-2.802-3.125-3.32
		c-0.131-0.131-0.326-0.195-0.586-0.195c-1.953-0.391-1.758-0.586,0.586-0.586c1.953,0,3.32-0.064,4.102-0.195
		c0.781-0.128,1.236-0.781,1.367-1.953v-6.445h-12.5v11.523c0.128,1.69-1.239,2.539-4.102,2.539c-1.303,0-1.889-0.586-1.758-1.758
		V24.38c-1.563,1.693-4.169,3.711-7.813,6.055c-2.344,1.435-3.711,2.148-4.102,2.148c-0.391-0.128,0.323-1.041,2.148-2.734
		c6.25-5.729,10.479-12.109,12.695-19.141H283.35c-0.653,0-1.107-0.128-1.367-0.391c-0.131-0.128,0.128-0.26,0.781-0.391h15.625
		c0.781-2.472,1.367-4.815,1.758-7.031c0.128-1.563,0.909-2.213,2.344-1.953c4.425,0.781,6.705,1.435,6.836,1.953
		c0,0.263-0.195,0.521-0.586,0.781c-0.653,0.521-1.172,1.172-1.563,1.953c-0.521,0.781-0.977,1.758-1.367,2.93
		C305.548,8.95,305.353,9.341,305.225,9.731z M300.928,21.255v3.906h12.5v-6.055h-10.742
		C301.251,18.979,300.665,19.692,300.928,21.255z M300.928,26.138v6.25h12.5v-6.25H300.928z"/>
	<path d="M350.732,0.942c3.385,0.521,5.987,1.435,7.813,2.734c0,0.391-0.263,0.586-0.781,0.586
		c-0.263,0.131-0.391,0.263-0.391,0.391c4.166,8.594,11.133,13.935,20.898,16.016c0.26,0.131-0.131,0.586-1.172,1.367
		c-1.435,1.044-2.411,1.889-2.93,2.539c-0.263,0.263-0.458,0.586-0.586,0.977c-0.391,1.303-1.239,1.435-2.539,0.391
		c-8.203-5.859-12.958-12.628-14.258-20.313c-6.122,8.856-13.935,15.692-23.438,20.508c-1.172,0.521-1.953,0.781-2.344,0.781
		c-0.263,0,0.064-0.323,0.977-0.977c6.9-4.815,12.305-11.002,16.211-18.555c0.519-1.172,1.041-2.667,1.563-4.492
		C350.016,1.854,350.342,1.205,350.732,0.942z M357.373,45.083c0.128,1.041-0.977,1.627-3.32,1.758
		c-2.084,0.128-2.997-0.458-2.734-1.758V17.935c0-1.432,0.586-2.081,1.758-1.953c0.128,0,0.26,0,0.391,0
		c4.166,0.263,5.597,1.107,4.297,2.539l-0.391,0.586V45.083z"/>
	<path d="M406.592,17.349h9.961c1.563-2.994,2.734-4.557,3.516-4.688c1.172,0.131,3.189,1.563,6.055,4.297
		c0.26,0.391,0.323,0.717,0.195,0.977c-0.131,0.263-0.391,0.391-0.781,0.391h-18.555c0.781,5.209,2.862,9.57,6.25,13.086
		c2.604,3.256,7.159,5.927,13.672,8.008c0.26,0.131,0.455,0.263,0.586,0.391c1.041,0.131,1.104,0.326,0.195,0.586
		c-0.131,0.131-0.263,0.195-0.391,0.195c-1.435,0.521-2.67,1.3-3.711,2.344c-0.391,0.26-0.781,0.714-1.172,1.367
		c-0.391,0.519-0.717,0.909-0.977,1.172c-5.341-2.475-9.375-6.314-12.109-11.523c-1.303-2.862-2.344-6.769-3.125-11.719
		c-1.303,9.766-5.536,16.342-12.695,19.727c-2.084,1.041-4.56,2.081-7.422,3.125c-3.125,1.172-3.711,1.236-1.758,0.195
		c10.938-4.688,16.275-13.672,16.016-26.953h-14.648c-0.781,0-1.303-0.128-1.563-0.391c-0.263-0.26-0.067-0.455,0.586-0.586h15.82
		c0-1.3,0-2.539,0-3.711c0-4.166-0.067-7.159-0.195-8.984c-0.521-2.213,0-3.125,1.563-2.734c4.688,0.521,6.9,1.044,6.641,1.563
		c-0.131,0.391-0.391,0.717-0.781,0.977c-0.653,0.653-0.977,1.303-0.977,1.953c0,0.131-0.067,0.458-0.195,0.977
		C406.592,12.338,406.592,15.658,406.592,17.349z"/>
	<path d="M471.826,8.56v7.227c-0.131,1.303-1.563,1.953-4.297,1.953c-1.563,0.131-2.216-0.323-1.953-1.367V14.81h-23.242
		c0,13.803-2.148,22.592-6.445,26.367c-1.693,1.822-2.865,2.862-3.516,3.125c-0.391,0,0-0.912,1.172-2.734
		c1.172-2.081,1.953-4.557,2.344-7.422c0.26-1.3,0.455-2.799,0.586-4.492c0.128-1.432,0.195-3.516,0.195-6.25
		c0-2.862,0-7.227,0-13.086c0-1.3,0-2.344,0-3.125c-0.391-3.516,0.323-4.815,2.148-3.906c0.391,0.263,1.104,0.586,2.148,0.977
		c2.081,0.781,3.644,1.107,4.688,0.977h18.75c0.26,0,0.714-0.519,1.367-1.563c0.519-0.781,0.909-1.236,1.172-1.367
		c2.994,1.172,5.143,2.606,6.445,4.297c0,0.391-0.326,0.781-0.977,1.172C472.021,8.169,471.826,8.432,471.826,8.56z M442.529,8.169
		l-0.195,5.859h23.242V6.021h-20.117C443.243,6.151,442.267,6.869,442.529,8.169z M463.428,21.06v9.961
		c1.432-1.69,3.125-4.752,5.078-9.18c0.26-1.172,0.977-1.367,2.148-0.586c0,0.131,0.455,0.521,1.367,1.172
		c1.69,1.044,2.734,1.758,3.125,2.148c-0.131,0.521-0.586,0.912-1.367,1.172c-0.912,0.263-1.758,0.586-2.539,0.977
		c-1.693,1.172-4.297,2.997-7.813,5.469v4.883c-0.131,1.953,1.104,2.93,3.711,2.93c1.69,0,2.994-0.519,3.906-1.563
		c0.65-1.041,1.3-2.539,1.953-4.492c0.26-0.781,0.455-1.172,0.586-1.172c0.128,0,0.195,0.391,0.195,1.172
		c0,2.475,0.846,4.428,2.539,5.859c0.65,0.653,0.977,1.172,0.977,1.563c-0.521,1.953-3.256,3.058-8.203,3.32h-3.125
		c-5.99,0-8.789-1.693-8.398-5.078v-3.125c-2.216,1.172-4.56,2.865-7.031,5.078c-1.172,0.65-2.279,1.563-3.32,2.734
		c-0.653,0.65-1.044,0.977-1.172,0.977c-1.693-1.172-2.865-3.125-3.516-5.859c0-0.128,0.26-0.391,0.781-0.781
		c0.909-0.519,1.367-1.104,1.367-1.758V19.888c-0.131-1.3,0.323-1.953,1.367-1.953c2.862,0.263,4.557,0.653,5.078,1.172
		c0,0.391-0.195,0.781-0.586,1.172c-0.653,0.521-0.912,1.044-0.781,1.563v5.469h0.586c0.128,0,0.519-0.455,1.172-1.367
		c0.781-1.172,1.367-1.758,1.758-1.758c0.909,0.131,2.344,1.107,4.297,2.93v-7.813c-0.131-1.3,0.586-1.953,2.148-1.953
		c0.128,0.131,0.391,0.195,0.781,0.195c2.604,0.263,3.971,0.653,4.102,1.172c0,0.263-0.195,0.586-0.586,0.977
		C463.623,20.214,463.428,20.669,463.428,21.06z M449.756,28.091v9.18c0.391,0,1.236-0.195,2.539-0.586
		c2.862-0.519,4.62-0.977,5.273-1.367v-7.227H449.756z"/>
	<path d="M520.459,13.833c0,1.693,1.172,1.953,3.516,0.781c1.69,0.653,2.799,1.953,3.32,3.906c-0.263,1.044-1.758,1.498-4.492,1.367
		c-1.172,0-2.216,0-3.125,0c-3.388,0.263-4.883-1.236-4.492-4.492V5.63h-2.539c-1.303,0-1.889,0.586-1.758,1.758
		c-0.131,4.688-0.849,8.008-2.148,9.961c-1.303,2.084-4.037,4.102-8.203,6.055v18.359c-0.263,1.432-1.563,2.667-3.906,3.711
		c-2.216,0.781-3.32,0.391-3.32-1.172c0-1.044-0.977-2.021-2.93-2.93c-0.653-0.391-0.717-0.586-0.195-0.586
		c3.644,0.263,5.338-0.195,5.078-1.367V27.505h-4.688c-0.653,6.771-2.997,12.372-7.031,16.797c-1.693,1.563-2.148,1.822-1.367,0.781
		c1.822-2.216,2.994-6.314,3.516-12.305c0.519-5.078,0.519-14.127,0-27.148c-0.263-1.822,0.195-2.472,1.367-1.953
		c0.65,0.263,1.563,0.653,2.734,1.172c0.65,0.263,1.236,0.391,1.758,0.391h2.93l0.781-0.781c0.519-0.781,0.909-1.236,1.172-1.367
		c2.081,0.391,3.971,1.693,5.664,3.906c0,0.391-0.326,0.849-0.977,1.367c-0.391,0.391-0.586,0.653-0.586,0.781v13.086
		c4.425-1.172,6.25-7.159,5.469-17.969c-0.131-0.65-0.067-1.104,0.195-1.367c0.391-0.128,0.977-0.064,1.758,0.195
		c0.128,0.131,0.781,0.458,1.953,0.977c1.3,0.653,2.018,0.912,2.148,0.781h2.148c0.128,0,0.391-0.391,0.781-1.172
		c0.519-0.909,0.977-1.432,1.367-1.563c1.953,0.391,3.906,1.63,5.859,3.711c-0.131,0.391-0.521,0.849-1.172,1.367l-0.586,0.781
		V13.833z M490.771,16.958l-0.195,9.766h4.688v-9.766H490.771z M490.771,15.981h4.492V6.216h-2.539
		c-1.172-0.128-1.758,0.458-1.758,1.758C490.836,12.661,490.771,15.331,490.771,15.981z M506.006,23.989h-1.172
		c-0.653,0-1.107-0.128-1.367-0.391c-0.263-0.128-0.067-0.26,0.586-0.391h10.742c0.128,0,0.391-0.323,0.781-0.977
		c0.519-0.781,0.977-1.236,1.367-1.367c2.213,0.653,4.425,1.953,6.641,3.906c0,0.391-0.458,0.849-1.367,1.367
		c-0.781,0.391-1.172,0.717-1.172,0.977c-1.953,3.906-3.646,6.836-5.078,8.789c2.213,1.953,5.401,3.451,9.57,4.492
		c1.3,0.263,1.822,0.458,1.563,0.586c-1.172,0.521-2.344,1.495-3.516,2.93c-0.263,0.26-0.521,0.586-0.781,0.977
		c-0.521,1.3-1.303,1.627-2.344,0.977c-2.734-1.563-5.404-3.583-8.008-6.055c-4.688,3.516-9.375,5.664-14.063,6.445
		c5.338-2.997,9.244-6.183,11.719-9.57C508.154,32.519,506.787,28.286,506.006,23.989z M515.576,23.989h-8.008
		c0.781,3.256,2.344,6.186,4.688,8.789C513.688,30.307,514.795,27.377,515.576,23.989z"/>
</g>
</svg>
