<?xml version="1.0" encoding="utf-8"?>
<!-- Generator: Adobe Illustrator 14.0.0, SVG Export Plug-In . SVG Version: 6.00 Build 43363)  -->
<!DOCTYPE svg PUBLIC "-//W3C//DTD SVG 1.1//EN" "http://www.w3.org/Graphics/SVG/1.1/DTD/svg11.dtd">
<svg version="1.1" id="图层_1" xmlns="http://www.w3.org/2000/svg" xmlns:xlink="http://www.w3.org/1999/xlink" x="0px" y="0px"
	 width="99px" height="99px" viewBox="0 0 99 99" enable-background="new 0 0 99 99" xml:space="preserve">
<g>
	<path fill="#EF5A28" d="M49.529,35.933c6.563,0,11.816,2.233,15.762,6.697c3.359,3.832,5.039,8.227,5.039,13.184
		c0,3.48-0.928,6.996-2.783,10.547c-1.856,3.552-4.405,6.241-7.646,8.068c-3.243,1.827-6.875,2.742-10.898,2.742
		c-6.485,0-11.66-2.338-15.527-7.014c-3.204-3.937-4.805-8.35-4.805-13.236c0-3.586,0.976-7.137,2.93-10.652
		c1.953-3.515,4.531-6.117,7.734-7.805C42.537,36.776,45.935,35.933,49.529,35.933z M48.064,38.675c-1.641,0-3.311,0.448-5.01,1.345
		s-3.067,2.461-4.102,4.693c-1.036,2.233-1.553,5.107-1.553,8.622c0,5.661,1.25,10.539,3.75,14.634
		c2.5,4.096,5.801,6.144,9.902,6.144c3.047,0,5.556-1.125,7.529-3.375c1.972-2.249,2.959-6.135,2.959-11.654
		c0-6.926-1.641-12.374-4.922-16.348C54.393,40.028,51.541,38.675,48.064,38.675z"/>
</g>
</svg>
