<?xml version="1.0" encoding="utf-8"?>
<!-- Generator: Adobe Illustrator 14.0.0, SVG Export Plug-In . SVG Version: 6.00 Build 43363)  -->
<!DOCTYPE svg PUBLIC "-//W3C//DTD SVG 1.1//EN" "http://www.w3.org/Graphics/SVG/1.1/DTD/svg11.dtd">
<svg version="1.1" id="图层_1" xmlns="http://www.w3.org/2000/svg" xmlns:xlink="http://www.w3.org/1999/xlink" x="0px" y="0px"
	 width="99px" height="99px" viewBox="0 0 99 99" enable-background="new 0 0 99 99" xml:space="preserve">
<g>
	<path d="M53.514,13.102v51.574c0,2.461,0.195,4.087,0.586,4.878c0.39,0.791,0.996,1.39,1.816,1.793
		c0.82,0.404,2.344,0.606,4.57,0.606v1.529H39.334v-1.529c1.992,0,3.349-0.185,4.072-0.554c0.722-0.369,1.279-0.976,1.67-1.819
		c0.39-0.844,0.586-2.479,0.586-4.904V29.396c0-4.395-0.108-7.093-0.322-8.095c-0.215-1.002-0.567-1.688-1.055-2.057
		c-0.489-0.369-1.104-0.554-1.846-0.554c-0.82,0-1.856,0.229-3.105,0.686l-0.82-1.529l12.891-4.746H53.514z"/>
</g>
</svg>
