<?xml version="1.0" encoding="utf-8"?>
<!-- Generator: Adobe Illustrator 14.0.0, SVG Export Plug-In . SVG Version: 6.00 Build 43363)  -->
<!DOCTYPE svg PUBLIC "-//W3C//DTD SVG 1.1//EN" "http://www.w3.org/Graphics/SVG/1.1/DTD/svg11.dtd">
<svg version="1.1" id="图层_1" xmlns="http://www.w3.org/2000/svg" xmlns:xlink="http://www.w3.org/1999/xlink" x="0px" y="0px"
	 width="99px" height="99px" viewBox="0 0 99 99" enable-background="new 0 0 99 99" xml:space="preserve">
<g>
	<path fill="#009244" d="M40.857,44.159c5.078-5.484,9.921-8.227,14.531-8.227c2.344,0,4.365,0.527,6.064,1.582
		s3.056,2.795,4.072,5.221c0.664,1.723,0.996,4.343,0.996,7.857v16.559c0,2.461,0.234,4.132,0.703,5.01
		c0.352,0.704,0.908,1.258,1.67,1.661c0.762,0.404,2.177,0.606,4.248,0.606v1.529H51.756v-1.529h0.938
		c1.992,0,3.388-0.271,4.189-0.817c0.8-0.545,1.357-1.362,1.67-2.452c0.156-0.422,0.234-1.758,0.234-4.008V51.226
		c0-3.515-0.518-6.072-1.553-7.673c-1.036-1.6-2.764-2.399-5.186-2.399c-3.75,0-7.481,1.846-11.191,5.537v20.461
		c0,2.637,0.176,4.271,0.527,4.904c0.469,0.81,1.084,1.406,1.846,1.793c0.762,0.388,2.314,0.58,4.658,0.58v1.529H26.561v-1.529
		h0.938c2.187,0,3.671-0.501,4.453-1.503c0.781-1.002,1.172-2.927,1.172-5.774V52.755c0-4.675-0.117-7.522-0.352-8.543
		c-0.234-1.02-0.596-1.714-1.084-2.083c-0.489-0.369-1.143-0.554-1.963-0.554c-0.899,0-1.954,0.211-3.164,0.633l-0.703-1.529
		l13.008-4.746h1.992V44.159z"/>
</g>
</svg>
