<?xml version="1.0" encoding="utf-8"?>
<!-- Generator: Adobe Illustrator 14.0.0, SVG Export Plug-In . SVG Version: 6.00 Build 43363)  -->
<!DOCTYPE svg PUBLIC "-//W3C//DTD SVG 1.1//EN" "http://www.w3.org/Graphics/SVG/1.1/DTD/svg11.dtd">
<svg version="1.1" id="图层_1" xmlns="http://www.w3.org/2000/svg" xmlns:xlink="http://www.w3.org/1999/xlink" x="0px" y="0px"
	 width="503.637px" height="296.482px" viewBox="0 0 503.637 296.482" enable-background="new 0 0 503.637 296.482"
	 xml:space="preserve">
<radialGradient id="SVGID_1_" cx="254.3359" cy="169.0371" r="243.5665" gradientTransform="matrix(1 0 0 0.5234 0 80.5553)" gradientUnits="userSpaceOnUse">
	<stop  offset="0" style="stop-color:#E8A1B0"/>
	<stop  offset="1" style="stop-color:#EA96B8;stop-opacity:0"/>
</radialGradient>
<rect y="-0.26" fill="url(#SVGID_1_)" width="503.637" height="296.743"/>
<g>
	<path fill-rule="evenodd" clip-rule="evenodd" fill="#221E1F" d="M81.592,100.01c0,0-15.148,8.873-15.148,35.806
		c0,26.934,12.57,35.958,15.148,35.958c2.579,0,317.566,10.51,332.175,10.51c0,0,22.586-4.321,21.727-49.442
		c-1.191-39.02-20.254-43.488-27.313-43.145L81.592,100.01z"/>
	<linearGradient id="SVGID_2_" gradientUnits="userSpaceOnUse" x1="251.7725" y1="100.1543" x2="248.9178" y2="163.3508">
		<stop  offset="0" style="stop-color:#CC8E2B"/>
		<stop  offset="1" style="stop-color:#814415"/>
	</linearGradient>
	<path fill-rule="evenodd" clip-rule="evenodd" fill="url(#SVGID_2_)" d="M82.346,100.54c0,0-14.454,8.354-14.454,35.287
		c0,26.933,12.129,34.02,14.709,34.02c2.577,0,315.032,9.543,329.643,9.543c0,0,20.209-3.144,20.209-45.247
		c-1.123-39.971-19.506-43.339-23.803-43.339L82.346,100.54z"/>
	<g>
		
			<ellipse transform="matrix(0.9998 -0.0184 0.0184 0.9998 -2.4101 7.5497)" fill-rule="evenodd" clip-rule="evenodd" fill="#EADA98" cx="410.16" cy="135.098" rx="23.016" ry="44.699"/>
		<path fill-rule="evenodd" clip-rule="evenodd" fill="#C2994C" d="M418.691,135.331c-0.16-8.686-3.555-15.667-7.584-15.593
			c-4.027,0.073-7.164,7.175-7.004,15.861c0.158,8.685,3.553,15.665,7.582,15.592C415.715,151.117,418.85,144.016,418.691,135.331z
			 M411.703,147c-3.123,0.057-5.748-4.948-5.863-11.18c-0.113-6.233,2.326-11.332,5.451-11.389s5.75,4.948,5.865,11.18
			C417.27,141.842,414.83,146.941,411.703,147z"/>
		<path fill-rule="evenodd" clip-rule="evenodd" fill="#C2994C" d="M423.539,135.137c-0.271-14.752-6.037-26.606-12.879-26.48
			c-6.84,0.124-12.166,12.185-11.895,26.934c0.27,14.752,6.035,26.606,12.875,26.481
			C418.482,161.946,423.809,149.886,423.539,135.137z M411.602,157.622c-6.018,0.108-11.078-9.761-11.305-22.046
			c-0.225-12.285,4.471-22.335,10.488-22.444c6.02-0.111,11.08,9.758,11.305,22.044C422.316,147.46,417.619,157.509,411.602,157.622
			z"/>
		<path fill-rule="evenodd" clip-rule="evenodd" fill="#C2994C" d="M430.104,134.493c-0.393-21.43-9.309-38.644-19.912-38.45
			c-10.605,0.193-18.883,17.726-18.488,39.155c0.393,21.432,9.307,38.646,19.912,38.452
			C422.219,173.456,430.496,155.924,430.104,134.493z M411.225,169.795c-9.463,0.173-17.418-15.146-17.768-34.219
			c-0.35-19.071,7.037-34.673,16.5-34.846c9.465-0.174,17.42,15.146,17.77,34.218C428.078,154.02,420.689,169.622,411.225,169.795z"
			/>
	</g>
	<path fill-rule="evenodd" clip-rule="evenodd" fill="#643119" d="M388.896,152.583c0,0-56.02,0.419-69.396,2.509
		c-13.377,2.091-47.658,2.927-47.658,2.927s40.969,1.672,54.766-0.836c13.795-2.509,42.223-0.836,50.584-2.091
		s13.379,0.837,13.379,0.837L388.896,152.583z"/>
	<path fill-rule="evenodd" clip-rule="evenodd" fill="#643119" d="M391.908,159.252c0,0-11.121,0.397-15.49,0.397
		s-12.709,0-12.709,0s13.553,0.743,14,0.743c0.445,0,14.596,0.447,14.596,0.447L391.908,159.252z"/>
	<path fill-rule="evenodd" clip-rule="evenodd" fill="#8A471D" d="M72.396,112.655c0,0,12.798-0.71,14.221-0.568
		c1.422,0.142,2.417,0.711,4.55,0.568c2.133-0.142,37.825-0.994,44.649-1.279c6.826-0.284,14.789,0.142,14.789,0.142
		s-27.586,0.284-38.108,0.996c-10.523,0.711-22.61,0.71-25.028,0.569c-2.417-0.144-15.499,0.854-15.499,0.854L72.396,112.655z"/>
	<path fill-rule="evenodd" clip-rule="evenodd" fill="#AD6D25" d="M398.094,96.716c0,0-53.898,1.475-57.479,2.528
		c-3.578,1.052-32.213,4.421-32.213,4.421s32.426-3.369,37.057-4.211c4.631-0.843,51.582-1.264,51.582-1.264L398.094,96.716z"/>
	<path fill-rule="evenodd" clip-rule="evenodd" fill="#AD6D25" d="M398.094,96.716c0,0,2.848,8.127,5.23,9.913
		c2.385,1.787,8.043,21.445,8.043,21.445s-3.871-11.021-5.957-14.893s-7.447-11.021-7.447-12.212s-0.922-2.779-0.922-2.779
		L398.094,96.716z"/>
	<path fill-rule="evenodd" clip-rule="evenodd" fill="#AD6D25" d="M388.896,152.583c0,0,8.174-4.452,10.557-5.245
		c2.383-0.795,3.178-2.384,3.178-2.384l-12.709,9.531L388.896,152.583z"/>
	<polygon fill-rule="evenodd" clip-rule="evenodd" fill="#AD6D25" points="391.908,159.252 397.467,154.883 392.305,160.84 	"/>
	<polygon fill-rule="evenodd" clip-rule="evenodd" fill="#AD6D25" points="421.465,151.878 425.885,156.511 428.832,161.563 
		429.465,159.668 426.518,155.668 	"/>
	<path fill-rule="evenodd" clip-rule="evenodd" fill="#8A471D" d="M69.72,119.735c0,0,16.084-1.787,21.446-1.191
		s75.657,0.596,101.571,0.894c25.914,0.298,82.807-0.596,96.508-1.19c13.701-0.596,41.105-0.596,41.105-0.596l-68.807,2.383
		c0,0-61.062,0.595-67.019,0.595s-94.124-0.297-100.379-0.595c-6.255-0.299-24.723,1.19-24.723,1.19L69.72,119.735z"/>
	<path fill-rule="evenodd" clip-rule="evenodd" fill="#643119" d="M75.597,164.457c0,0,8.492,0.247,13.784,0.247
		c5.293,0,35.324,1.601,35.324,1.601s-31.262-0.616-32.616-0.616c-1.354,0-15.384,0.368-15.384,0.368l-1.354-2.092L75.597,164.457z"
		/>
	<path fill-rule="evenodd" clip-rule="evenodd" fill="#643119" d="M78.322,167.64c0,0,9.145-0.717,13.088-0.179
		c3.945,0.537,16.496,1.076,16.496,1.076l-19.543-0.359l-8.786,0.538L78.322,167.64z"/>
	<path fill-rule="evenodd" clip-rule="evenodd" fill="#643119" d="M403.508,177.78c0,0-12.857-0.917-18.629-0.917
		s-19.152-1.05-23.482-1.706c-4.328-0.655-27.68-0.788-27.68-0.788s30.961-0.13,32.928-0.13s4.723,0.918,9.84,1.181
		c5.115,0.263,24.926,0.918,24.926,0.918L403.508,177.78z"/>
	<path fill-rule="evenodd" clip-rule="evenodd" fill="#643119" d="M72.587,159.134c0,0,39.436-1.398,47.547-0.84
		c8.109,0.561,50.343-0.279,70.759,1.119c20.417,1.399,65.726-0.559,65.726-0.559s-46.428,1.958-58.734,1.958
		s-45.309-1.399-57.614-1.118C127.965,159.973,72.587,159.134,72.587,159.134z"/>
</g>
</svg>
