<?xml version="1.0" encoding="utf-8"?>
<!-- Generator: Adobe Illustrator 14.0.0, SVG Export Plug-In . SVG Version: 6.00 Build 43363)  -->
<!DOCTYPE svg PUBLIC "-//W3C//DTD SVG 1.1//EN" "http://www.w3.org/Graphics/SVG/1.1/DTD/svg11.dtd">
<svg version="1.1" id="图层_1" xmlns="http://www.w3.org/2000/svg" xmlns:xlink="http://www.w3.org/1999/xlink" x="0px" y="0px"
	 width="99px" height="99px" viewBox="0 0 99 99" enable-background="new 0 0 99 99" xml:space="preserve">
<g>
	<path fill="#EA008A" d="M40.477,15.374v38.654l10.957-8.965c2.344-1.933,3.691-3.146,4.043-3.639
		c0.273-0.351,0.41-0.703,0.41-1.055c0-0.562-0.264-1.046-0.791-1.45c-0.527-0.403-1.377-0.641-2.549-0.712V36.89h18.75v1.318
		c-2.578,0.071-4.727,0.431-6.445,1.081c-1.719,0.651-3.594,1.819-5.625,3.507l-11.074,9.176l11.074,12.604
		c3.085,3.48,5.156,5.695,6.211,6.645c1.523,1.337,2.851,2.197,3.984,2.584c0.781,0.282,2.148,0.422,4.102,0.422v1.529H52.547
		v-1.529c1.172-0.034,1.972-0.202,2.402-0.501c0.429-0.298,0.645-0.712,0.645-1.239c0-0.667-0.625-1.722-1.875-3.164l-13.242-15.24
		v12.92c0,2.531,0.195,4.192,0.586,4.983c0.39,0.791,0.947,1.354,1.67,1.688c0.722,0.335,2.294,0.52,4.717,0.554v1.529H25.477
		v-1.529c2.187,0,3.828-0.245,4.922-0.738c0.664-0.316,1.172-0.791,1.523-1.424c0.469-0.949,0.703-2.565,0.703-4.852V31.827
		c0-4.5-0.108-7.251-0.322-8.253c-0.215-1.002-0.577-1.695-1.084-2.083c-0.508-0.387-1.172-0.58-1.992-0.58
		c-0.665,0-1.661,0.246-2.988,0.738l-0.762-1.529l12.832-4.746H40.477z"/>
</g>
</svg>
