<?xml version="1.0" encoding="utf-8"?>
<!-- Generator: Adobe Illustrator 14.0.0, SVG Export Plug-In . SVG Version: 6.00 Build 43363)  -->
<!DOCTYPE svg PUBLIC "-//W3C//DTD SVG 1.1//EN" "http://www.w3.org/Graphics/SVG/1.1/DTD/svg11.dtd">
<svg version="1.1" id="图层_1" xmlns="http://www.w3.org/2000/svg" xmlns:xlink="http://www.w3.org/1999/xlink" x="0px" y="0px"
	 width="201.564px" height="84.75px" viewBox="0 0 201.564 84.75" enable-background="new 0 0 201.564 84.75" xml:space="preserve">
<g>
	<path d="M72.893,11.602v64.336c0.467,2.576-1.758,4.219-6.68,4.922c-3.049,0.467-4.455,0-4.219-1.406v-3.867H11.018v2.109
		c0.467,2.576-1.994,4.098-7.383,4.57c-2.813,0.23-3.988-0.473-3.516-2.109V2.813c-0.236-1.17-0.121-1.873,0.352-2.109
		c0.467-0.23,1.637,0,3.516,0.703c3.043,1.176,5.152,2.109,6.328,2.813c1.17,0.473,1.988,0.703,2.461,0.703h47.109l0.703-1.055
		c0.934-2.34,1.988-3.631,3.164-3.867c4.449,1.406,8.316,3.752,11.602,7.031c0,0.703-0.473,1.406-1.406,2.109
		C73.244,9.844,72.893,10.668,72.893,11.602z M11.018,11.602v62.227h50.977V6.68H14.885C12.072,6.449,10.781,8.086,11.018,11.602z
		 M57.072,62.93c2.576,3.988,1.988,7.031-1.758,9.141c-3.285,0.939-5.51,0-6.68-2.813c-0.236-0.23-0.352-0.467-0.352-0.703
		c-1.406-4.219-4.807-7.383-10.195-9.492c-2.582,5.395-8.674,9.377-18.281,11.953c-7.971,1.406-10.08,1.291-6.328-0.352
		c7.498-2.813,12.305-5.977,14.414-9.492c2.576-3.746,3.516-9.844,2.813-18.281c-0.473-2.34,0.352-3.516,2.461-3.516
		c5.625,0.236,8.668,0.824,9.141,1.758c0,0.703-0.352,1.406-1.055,2.109c-0.473,0.939-0.703,1.643-0.703,2.109
		c-0.473,5.158-1.055,8.91-1.758,11.25C47.695,57.777,53.787,59.887,57.072,62.93z M25.783,34.805h17.93
		c0.23,0,0.703-0.467,1.406-1.406c1.17-1.406,2.225-2.225,3.164-2.461c5.152,1.406,8.438,3.752,9.844,7.031
		c-0.236,0.236-0.588,0.588-1.055,1.055c-0.703,0.703-1.055,1.176-1.055,1.406v12.656c0.467,2.346-1.291,3.637-5.273,3.867
		c-3.752,0.703-5.51-0.352-5.273-3.164V36.211H28.244c-1.879-0.23-2.697,1.055-2.461,3.867v15.117
		c0.23,2.582-1.406,4.219-4.922,4.922c-2.813,0.939-4.34,0.588-4.57-1.055V33.75c0-1.873,0.934-2.461,2.813-1.758
		c0.23,0.236,1.17,0.703,2.813,1.406C23.789,34.338,25.08,34.805,25.783,34.805z M53.557,18.633v6.68
		c0.23,3.049-1.994,4.691-6.68,4.922c-2.582,0.473-3.637,0-3.164-1.406v-2.109H28.244v1.055c0.467,2.109-1.643,3.164-6.328,3.164
		c-2.109,0.236-3.049-0.703-2.813-2.813V13.008c-0.236-1.17-0.121-1.873,0.352-2.109c0.467-0.23,1.285-0.23,2.461,0
		c1.406,0.703,3.164,1.527,5.273,2.461c0.703,0.236,1.285,0.352,1.758,0.352h12.656c0.23,0,0.582-0.352,1.055-1.055
		c0.703-1.637,1.637-2.691,2.813-3.164c4.219,1.176,7.498,3.4,9.844,6.68c0,0.473-0.352,0.939-1.055,1.406
		C53.557,18.051,53.32,18.402,53.557,18.633z M28.244,17.227v8.086h15.469V15.117h-11.25C29.178,15.117,27.771,15.82,28.244,17.227z
		"/>
	<path d="M131.955,23.906h16.172l1.758-2.813c1.873-3.982,3.279-5.977,4.219-5.977c1.406,0.703,3.746,3.285,7.031,7.734
		c0.703,1.176,0.934,1.994,0.703,2.461c-0.236,0.473-1.055,0.588-2.461,0.352h-23.203c5.855,18.051,15.936,29.416,30.234,34.102
		l2.109,0.703c0,0.473-0.588,0.939-1.758,1.406c-2.813,0.939-5.043,2.346-6.68,4.219c-0.703,0.703-1.291,1.527-1.758,2.461
		c-0.939,1.406-1.643,2.23-2.109,2.461c-13.596-8.904-20.979-24.021-22.148-45.352h-2.109v53.438
		c0.467,3.279-1.643,5.152-6.328,5.625c-3.285,0.23-4.807-1.291-4.57-4.57V43.594c-6.564,11.723-16.645,21.33-30.234,28.828
		c-3.752,1.637-5.746,2.225-5.977,1.758c-0.236-0.236,1.285-1.637,4.57-4.219c13.359-12.184,22.027-26.949,26.016-44.297H90.471
		c-0.939,0-1.643-0.23-2.109-0.703c-0.473-0.467-0.236-0.818,0.703-1.055h31.992V4.57c-0.703-2.109,0.352-3.043,3.164-2.813
		c7.965,0.703,10.777,2.109,8.438,4.219l-0.703,0.703V23.906z"/>
	<path d="M194.533,35.859c4.219,0.473,6.559,2.813,7.031,7.031c-0.473,4.455-2.813,6.801-7.031,7.031
		c-4.691-0.23-7.152-2.576-7.382-7.031C187.381,38.672,189.842,36.332,194.533,35.859z M194.533,62.578
		c4.219,0.473,6.559,2.813,7.031,7.031c-0.473,3.982-2.813,6.207-7.031,6.68c-4.691-0.473-7.152-2.697-7.382-6.68
		C187.381,65.391,189.842,63.051,194.533,62.578z"/>
</g>
</svg>
