<?xml version="1.0" encoding="utf-8"?>
<!-- Generator: Adobe Illustrator 14.0.0, SVG Export Plug-In . SVG Version: 6.00 Build 43363)  -->
<!DOCTYPE svg PUBLIC "-//W3C//DTD SVG 1.1//EN" "http://www.w3.org/Graphics/SVG/1.1/DTD/svg11.dtd">
<svg version="1.1" id="图层_1" xmlns="http://www.w3.org/2000/svg" xmlns:xlink="http://www.w3.org/1999/xlink" x="0px" y="0px"
	 width="99px" height="99px" viewBox="0 0 99 99" enable-background="new 0 0 99 99" xml:space="preserve">
<g>
	<path fill="#1A75BA" d="M27.059,32.208l13.301-4.852h1.816v9.07c2.227-3.409,4.462-5.801,6.709-7.172
		c2.246-1.371,4.619-2.057,7.119-2.057c4.336,0,7.949,1.529,10.84,4.588c3.554,3.727,5.332,8.596,5.332,14.607
		c0,6.716-2.149,12.253-6.445,16.611c-3.516,3.621-7.95,5.432-13.301,5.432c-2.305,0-4.317-0.299-6.035-0.896
		c-1.25-0.422-2.657-1.283-4.219-2.584v11.865c0,2.671,0.185,4.368,0.557,5.089c0.371,0.72,0.996,1.292,1.875,1.714
		s2.509,0.633,4.893,0.633v1.582H26.824v-1.582h1.172c1.758,0.034,3.242-0.264,4.453-0.896c0.586-0.316,1.044-0.817,1.377-1.503
		c0.332-0.686,0.498-2.452,0.498-5.3V39.801c0-2.531-0.127-4.131-0.381-4.799c-0.254-0.667-0.655-1.178-1.201-1.529
		c-0.547-0.351-1.289-0.527-2.227-0.527c-0.743,0-1.699,0.211-2.871,0.633L27.059,32.208z M42.176,38.958v14.502
		c0,3.164,0.136,5.239,0.41,6.223c0.469,1.617,1.553,3.051,3.252,4.298c1.699,1.248,3.857,1.872,6.475,1.872
		c3.164,0,5.703-1.107,7.617-3.322c2.578-2.882,3.867-6.942,3.867-12.182c0-5.94-1.446-10.512-4.336-13.711
		c-2.032-2.18-4.434-3.27-7.207-3.27c-1.485,0-2.969,0.335-4.453,1.002C46.667,34.863,44.792,36.392,42.176,38.958z"/>
</g>
</svg>
