<?xml version="1.0" encoding="utf-8"?>
<!-- Generator: Adobe Illustrator 14.0.0, SVG Export Plug-In . SVG Version: 6.00 Build 43363)  -->
<!DOCTYPE svg PUBLIC "-//W3C//DTD SVG 1.1//EN" "http://www.w3.org/Graphics/SVG/1.1/DTD/svg11.dtd">
<svg version="1.1" id="图层_1" xmlns="http://www.w3.org/2000/svg" xmlns:xlink="http://www.w3.org/1999/xlink" x="0px" y="0px"
	 width="99px" height="99px" viewBox="0 0 99 99" enable-background="new 0 0 99 99" xml:space="preserve">
<g>
	<path d="M53.777,33.457v31.219c0,2.461,0.195,4.087,0.586,4.878c0.39,0.791,0.967,1.39,1.729,1.793
		c0.762,0.404,2.177,0.606,4.248,0.606v1.529H39.363v-1.529c2.109,0,3.525-0.185,4.248-0.554c0.722-0.369,1.289-0.976,1.699-1.819
		s0.615-2.479,0.615-4.904V49.699c0-4.219-0.137-6.942-0.41-8.174c-0.234-0.914-0.586-1.547-1.055-1.898
		c-0.469-0.351-1.113-0.527-1.934-0.527c-0.86,0-1.915,0.211-3.164,0.633l-0.703-1.529l13.008-4.746H53.777z M49.852,13.102
		c1.328,0,2.451,0.422,3.369,1.266c0.917,0.844,1.377,1.864,1.377,3.059c0,1.16-0.459,2.171-1.377,3.032
		c-0.918,0.862-2.042,1.292-3.369,1.292c-1.329,0-2.461-0.43-3.398-1.292c-0.938-0.861-1.406-1.872-1.406-3.032
		c0-1.194,0.458-2.215,1.377-3.059C47.341,13.523,48.484,13.102,49.852,13.102z"/>
</g>
</svg>
