<?xml version="1.0" encoding="utf-8"?>
<!-- Generator: Adobe Illustrator 14.0.0, SVG Export Plug-In . SVG Version: 6.00 Build 43363)  -->
<!DOCTYPE svg PUBLIC "-//W3C//DTD SVG 1.1//EN" "http://www.w3.org/Graphics/SVG/1.1/DTD/svg11.dtd">
<svg version="1.1" id="图层_1" xmlns="http://www.w3.org/2000/svg" xmlns:xlink="http://www.w3.org/1999/xlink" x="0px" y="0px"
	 width="99px" height="99px" viewBox="0 0 99 99" enable-background="new 0 0 99 99" xml:space="preserve">
<g>
	<path d="M37.898,44.363c0,5.801,1.562,10.336,4.688,13.605c3.164,3.27,6.855,4.904,11.074,4.904c2.851,0,5.322-0.693,7.412-2.083
		c2.089-1.389,3.838-3.788,5.244-7.198l1.465,0.844c-0.665,3.868-2.578,7.401-5.742,10.6c-3.164,3.199-7.148,4.799-11.953,4.799
		c-5.196,0-9.639-1.819-13.33-5.458s-5.537-8.534-5.537-14.687c0-6.645,1.894-11.83,5.684-15.557
		c3.789-3.726,8.555-5.59,14.297-5.59c4.843,0,8.818,1.433,11.924,4.298c3.105,2.866,4.658,6.706,4.658,11.522H37.898z
		 M37.898,41.938h20.039c-0.157-2.496-0.489-4.253-0.996-5.273c-0.782-1.582-1.954-2.829-3.516-3.744
		c-1.563-0.914-3.184-1.371-4.863-1.371c-2.618,0-4.961,0.915-7.031,2.742C39.46,36.119,38.25,38.668,37.898,41.938z"/>
</g>
</svg>
