<?xml version="1.0" encoding="utf-8"?>
<!-- Generator: Adobe Illustrator 14.0.0, SVG Export Plug-In . SVG Version: 6.00 Build 43363)  -->
<!DOCTYPE svg PUBLIC "-//W3C//DTD SVG 1.1//EN" "http://www.w3.org/Graphics/SVG/1.1/DTD/svg11.dtd">
<svg version="1.1" id="图层_1" xmlns="http://www.w3.org/2000/svg" xmlns:xlink="http://www.w3.org/1999/xlink" x="0px" y="0px"
	 width="99px" height="99px" viewBox="0 0 99 99" enable-background="new 0 0 99 99" xml:space="preserve">
<g>
	<path fill="#EF5A28" d="M64.998,27.93v49.992c0,2.496,0.195,4.095,0.586,4.799c0.39,0.703,0.986,1.257,1.787,1.661
		c0.8,0.403,2.353,0.606,4.658,0.606v1.582H50.232v-1.582h0.938c1.758,0,3.085-0.229,3.984-0.686
		c0.625-0.316,1.132-0.879,1.523-1.688c0.39-0.81,0.586-2.373,0.586-4.693V61.205c-2.891,3.059-5.401,5.15-7.529,6.275
		c-2.129,1.125-4.346,1.688-6.65,1.688c-4.18,0-7.91-1.714-11.191-5.142s-4.922-8.023-4.922-13.79
		c0-6.573,2.168-11.936,6.504-16.084c4.336-4.147,9.57-6.223,15.703-6.223c1.796,0,3.447,0.229,4.951,0.686
		c1.503,0.457,2.861,1.126,4.072,2.004c1.796-0.772,3.535-1.669,5.215-2.689H64.998z M57.264,58.516V40.27
		c0-2.109-0.313-3.771-0.938-4.983c-0.625-1.213-1.719-2.249-3.281-3.111c-1.563-0.861-3.34-1.292-5.332-1.292
		c-3.516,0-6.533,1.345-9.053,4.034s-3.779,6.776-3.779,12.261c0,5.203,1.279,9.168,3.838,11.892
		c2.558,2.725,5.654,4.087,9.287,4.087c1.835,0,3.476-0.36,4.922-1.081C54.373,61.355,55.818,60.169,57.264,58.516z"/>
</g>
</svg>
