<?xml version="1.0" encoding="utf-8"?>
<!-- Generator: Adobe Illustrator 14.0.0, SVG Export Plug-In . SVG Version: 6.00 Build 43363)  -->
<!DOCTYPE svg PUBLIC "-//W3C//DTD SVG 1.1//EN" "http://www.w3.org/Graphics/SVG/1.1/DTD/svg11.dtd">
<svg version="1.1" id="图层_1" xmlns="http://www.w3.org/2000/svg" xmlns:xlink="http://www.w3.org/1999/xlink" x="0px" y="0px"
	 width="99px" height="99px" viewBox="0 0 99 99" enable-background="new 0 0 99 99" xml:space="preserve">
<g>
	<path fill="#EA008A" d="M46.57,40.151v25.523c0,3.621,0.429,5.925,1.289,6.908c1.172,1.231,2.734,1.846,4.688,1.846h3.926v1.529
		h-25.84v-1.529h1.934c1.289,0,2.451-0.281,3.486-0.844c1.035-0.562,1.748-1.326,2.139-2.294c0.39-0.967,0.586-2.839,0.586-5.616
		V40.151h-8.379v-3.059h8.379v-2.584c0-3.867,0.693-7.146,2.08-9.835c1.386-2.689,3.496-4.859,6.328-6.513
		c2.832-1.652,6.025-2.479,9.58-2.479c3.32,0,6.367,0.968,9.141,2.9c1.796,1.266,2.695,2.689,2.695,4.271
		c0,0.844-0.401,1.644-1.201,2.399c-0.801,0.757-1.69,1.134-2.666,1.134c-0.703,0-1.456-0.237-2.256-0.712
		c-0.801-0.475-1.787-1.484-2.959-3.032c-1.172-1.547-2.247-2.584-3.223-3.111c-0.977-0.527-2.051-0.791-3.223-0.791
		c-1.446,0-2.676,0.343-3.691,1.028c-1.016,0.686-1.739,1.759-2.168,3.217c-0.43,1.459-0.645,5.213-0.645,11.259v2.848h11.133v3.059
		H46.57z"/>
</g>
</svg>
