<?xml version="1.0" encoding="utf-8"?>
<!-- Generator: Adobe Illustrator 14.0.0, SVG Export Plug-In . SVG Version: 6.00 Build 43363)  -->
<!DOCTYPE svg PUBLIC "-//W3C//DTD SVG 1.1//EN" "http://www.w3.org/Graphics/SVG/1.1/DTD/svg11.dtd">
<svg version="1.1" id="图层_1" xmlns="http://www.w3.org/2000/svg" xmlns:xlink="http://www.w3.org/1999/xlink" x="0px" y="0px"
	 width="207.773px" height="82.012px" viewBox="0 0 207.773 82.012" enable-background="new 0 0 207.773 82.012"
	 xml:space="preserve">
<g>
	<path d="M77.344,22.071H50.977c-2.109,0-3.049,1.406-2.813,4.219v18.984h11.602c0.23,0.236,1.17-0.703,2.813-2.813
		c1.873-2.813,3.164-4.219,3.867-4.219c1.637,0.473,4.449,2.697,8.438,6.68c0.703,0.939,0.818,1.527,0.352,1.758
		c-0.236,0.473-0.939,0.588-2.109,0.352H48.164V73.75H67.5c0.23,0,1.17-0.939,2.813-2.813c1.873-2.576,3.164-3.982,3.867-4.219
		c1.873,0.236,4.922,2.346,9.141,6.328c0.467,0.703,0.582,1.285,0.352,1.758c-0.236,0.23-0.824,0.467-1.758,0.703H2.109
		C1.17,75.272,0.467,74.92,0,74.454c0-0.473,0.467-0.703,1.406-0.703h34.805V47.032H11.602c-1.176,0-1.879-0.23-2.109-0.703
		c-0.473-0.467-0.121-0.818,1.055-1.055h25.664V22.071H8.789c-1.176,0-2.109-0.23-2.813-0.703c-0.236-0.467,0.23-0.818,1.406-1.055
		h54.492c0.23,0,1.17-1.17,2.813-3.516c1.873-2.576,3.164-3.982,3.867-4.219c1.873,0.473,5.152,2.813,9.844,7.031
		c0.467,0.939,0.703,1.643,0.703,2.109C78.865,22.192,78.277,22.307,77.344,22.071z M31.992,0.977
		c-1.879-1.637,0.582-1.758,7.383-0.352c4.686,1.406,7.85,3.049,9.492,4.922c2.109,3.988,1.758,7.504-1.055,10.547
		c-3.752,2.813-7.031,2.582-9.844-0.703c-0.703-0.934-1.055-2.34-1.055-4.219C37.145,7.426,35.508,4.026,31.992,0.977z"/>
	<path d="M138.516,10.469h15.469c0.23,0,0.934-0.934,2.109-2.813c1.637-2.34,2.813-3.516,3.516-3.516
		c0.934,0.236,3.279,1.879,7.031,4.922c-0.236-0.23,0-0.115,0.703,0.352c0.934,1.176,1.406,1.879,1.406,2.109
		c0,0.473-0.588,0.588-1.758,0.352H146.25c5.152,2.582,7.613,4.455,7.383,5.625c-0.236,0.473-0.824,0.824-1.758,1.055
		c-2.813,1.176-5.861,3.637-9.141,7.383h17.93c0.23,0.236,1.17-0.818,2.813-3.164c1.637-2.34,2.691-3.516,3.164-3.516
		c0.934,0,3.279,1.643,7.031,4.922c0.467,0.473,0.934,0.703,1.406,0.703c0.934,0.939,1.17,1.643,0.703,2.109
		c-0.236,0.473-1.291,0.588-3.164,0.352H94.219c-0.939,0-1.643-0.23-2.109-0.703c0-0.23,0.467-0.467,1.406-0.703h26.016
		c-0.703-0.23-1.055-1.285-1.055-3.164c-0.236-4.449-1.994-8.086-5.273-10.898h-13.008c-1.643-0.23-2.109-0.703-1.406-1.406h31.289
		c-1.176-0.467-1.879-1.637-2.109-3.516c-0.236-2.576-1.291-4.57-3.164-5.977c-0.703-0.467-1.055-0.818-1.055-1.055
		c0.23-0.23,0.818-0.352,1.758-0.352C138.631-0.193,142.965,3.438,138.516,10.469z M104.063,63.204
		c0.934-4.219,2.225-2.109,3.867,6.328c0.23,3.516-1.176,6.443-4.219,8.789c-5.625,2.34-8.674,0.934-9.141-4.219
		c0-1.406,1.285-2.813,3.867-4.219C101.717,68.01,103.59,65.786,104.063,63.204z M158.906,38.946v12.656
		c0.467,3.049-1.994,4.57-7.383,4.57c-2.813,0.703-3.988,0-3.516-2.109v-1.758h-31.289v2.109c0.467,1.406-1.527,2.23-5.977,2.461
		c-2.582,0-3.867-0.818-3.867-2.461c0-0.23,0.115-0.467,0.352-0.703V32.618c-0.473-1.873,1.17-2.225,4.922-1.055
		c2.576,0.939,4.801,1.527,6.68,1.758h27.773c0.23,0,0.703-0.467,1.406-1.406c0.703-1.406,1.406-2.109,2.109-2.109
		c5.152,1.176,9.02,2.934,11.602,5.273c0,0.703-0.473,1.406-1.406,2.109C159.137,37.891,158.67,38.479,158.906,38.946z
		 M123.047,64.258v5.273c-0.939,2.346,2.691,3.516,10.898,3.516c7.031,0,11.014-2.225,11.953-6.68
		c0.703-3.516,1.285-5.273,1.758-5.273c0.467-0.23,0.934,1.291,1.406,4.57c0.23,2.109,1.637,4.104,4.219,5.977
		c2.109,0.703,3.043,1.758,2.813,3.164c-1.176,3.279-4.922,5.504-11.25,6.68c-8.674,0.703-16.408,0.703-23.203,0
		c-6.328-0.939-9.262-4.219-8.789-9.844v-9.492c-0.473-4.686,0.582-6.443,3.164-5.273c0.23,0.236,1.055,0.352,2.461,0.352
		c4.449,0.473,6.68,0.939,6.68,1.406c0,0.473-0.352,1.055-1.055,1.758C123.398,61.331,123.047,62.622,123.047,64.258z
		 M140.625,11.875h-24.961c13.359,3.988,16.99,8.674,10.898,14.063h10.898c0-0.23,0.115-0.582,0.352-1.055
		C139.922,18.325,140.855,13.985,140.625,11.875z M116.719,38.243v3.516h31.289v-7.031h-28.477
		C117.422,34.727,116.482,35.903,116.719,38.243z M116.719,43.165v7.383h31.289v-7.383H116.719z M141.328,61.446
		c0.467,5.861-1.879,8.438-7.031,7.734c-1.643-0.23-2.582-1.758-2.813-4.57c-0.473-3.516-1.643-6.207-3.516-8.086
		c-0.939-0.703-1.406-1.17-1.406-1.406c0.23,0,1.055,0,2.461,0C136.285,56.057,140.389,58.167,141.328,61.446z M157.148,59.688
		c5.855,1.643,9.959,3.516,12.305,5.625c3.043,3.049,4.219,5.861,3.516,8.438c-1.406,3.746-3.867,5.273-7.383,4.57
		c-1.879-0.473-3.049-2.346-3.516-5.625c-0.939-4.219-2.582-7.613-4.922-10.195c-2.346-1.873-3.4-2.928-3.164-3.164
		C153.748,59.106,154.803,59.221,157.148,59.688z"/>
	<path d="M200.742,34.727c4.219,0.473,6.559,2.813,7.031,7.031c-0.473,4.455-2.813,6.801-7.031,7.031
		c-4.691-0.23-7.152-2.576-7.383-7.031C193.59,37.54,196.051,35.2,200.742,34.727z M200.742,61.446
		c4.219,0.473,6.559,2.813,7.031,7.031c-0.473,3.982-2.813,6.207-7.031,6.68c-4.691-0.473-7.152-2.697-7.383-6.68
		C193.59,64.258,196.051,61.918,200.742,61.446z"/>
</g>
</svg>
